G75*
%MOIN*%
%OFA0B0*%
%FSLAX25Y25*%
%IPPOS*%
%LPD*%
%AMOC8*
5,1,8,0,0,1.08239X$1,22.5*
%
%ADD10C,0.00600*%
%ADD11OC8,0.05200*%
%ADD12C,0.06000*%
%ADD13R,0.05150X0.05150*%
%ADD14C,0.05150*%
%ADD15R,0.08661X0.02362*%
%ADD16C,0.07600*%
%ADD17C,0.05200*%
%ADD18R,0.05937X0.05937*%
%ADD19C,0.05937*%
%ADD20R,0.05118X0.02756*%
%ADD21R,0.09449X0.13386*%
%ADD22OC8,0.07000*%
%ADD23C,0.00400*%
%ADD24R,0.01378X0.05512*%
%ADD25R,0.07087X0.07480*%
%ADD26C,0.01200*%
%ADD27C,0.02978*%
D10*
X0170506Y0083800D02*
X0172950Y0083800D01*
X0171728Y0083800D02*
X0171728Y0088200D01*
X0172950Y0087222D01*
X0177450Y0086000D02*
X0177448Y0085883D01*
X0177442Y0085765D01*
X0177433Y0085648D01*
X0177420Y0085531D01*
X0177403Y0085415D01*
X0177382Y0085300D01*
X0177357Y0085185D01*
X0177329Y0085071D01*
X0177297Y0084958D01*
X0177261Y0084846D01*
X0177222Y0084735D01*
X0177179Y0084626D01*
X0177133Y0084518D01*
X0177083Y0084411D01*
X0177206Y0084778D02*
X0175250Y0087222D01*
X0175373Y0087589D02*
X0175394Y0087644D01*
X0175418Y0087698D01*
X0175446Y0087750D01*
X0175478Y0087800D01*
X0175512Y0087848D01*
X0175550Y0087893D01*
X0175590Y0087936D01*
X0175633Y0087977D01*
X0175679Y0088014D01*
X0175727Y0088048D01*
X0175777Y0088079D01*
X0175829Y0088107D01*
X0175883Y0088132D01*
X0175938Y0088152D01*
X0175995Y0088169D01*
X0176052Y0088183D01*
X0176110Y0088192D01*
X0176169Y0088198D01*
X0176228Y0088200D01*
X0176287Y0088198D01*
X0176346Y0088192D01*
X0176404Y0088183D01*
X0176461Y0088169D01*
X0176518Y0088152D01*
X0176573Y0088132D01*
X0176627Y0088107D01*
X0176679Y0088079D01*
X0176729Y0088048D01*
X0176777Y0088014D01*
X0176823Y0087977D01*
X0176866Y0087936D01*
X0176906Y0087893D01*
X0176944Y0087848D01*
X0176978Y0087800D01*
X0177010Y0087750D01*
X0177038Y0087698D01*
X0177062Y0087644D01*
X0177083Y0087589D01*
X0179206Y0088200D02*
X0181650Y0088200D01*
X0180428Y0088200D02*
X0180428Y0083800D01*
X0183161Y0083800D02*
X0186094Y0088200D01*
X0187633Y0088200D02*
X0189589Y0088200D01*
X0189589Y0083800D01*
X0187633Y0083800D01*
X0186094Y0083800D02*
X0183161Y0088200D01*
X0175006Y0086000D02*
X0175008Y0085883D01*
X0175014Y0085765D01*
X0175023Y0085648D01*
X0175036Y0085531D01*
X0175053Y0085415D01*
X0175074Y0085300D01*
X0175099Y0085185D01*
X0175127Y0085071D01*
X0175159Y0084958D01*
X0175195Y0084846D01*
X0175234Y0084735D01*
X0175277Y0084625D01*
X0175323Y0084517D01*
X0175373Y0084411D01*
X0175394Y0084356D01*
X0175418Y0084302D01*
X0175446Y0084250D01*
X0175478Y0084200D01*
X0175512Y0084152D01*
X0175550Y0084107D01*
X0175590Y0084064D01*
X0175633Y0084023D01*
X0175679Y0083986D01*
X0175727Y0083952D01*
X0175777Y0083921D01*
X0175829Y0083893D01*
X0175883Y0083868D01*
X0175938Y0083848D01*
X0175995Y0083831D01*
X0176052Y0083817D01*
X0176110Y0083808D01*
X0176169Y0083802D01*
X0176228Y0083800D01*
X0176287Y0083802D01*
X0176346Y0083808D01*
X0176404Y0083817D01*
X0176461Y0083831D01*
X0176518Y0083848D01*
X0176573Y0083868D01*
X0176627Y0083893D01*
X0176679Y0083921D01*
X0176729Y0083952D01*
X0176777Y0083986D01*
X0176823Y0084023D01*
X0176866Y0084064D01*
X0176906Y0084107D01*
X0176944Y0084152D01*
X0176978Y0084200D01*
X0177010Y0084250D01*
X0177038Y0084302D01*
X0177062Y0084356D01*
X0177083Y0084411D01*
X0175005Y0086000D02*
X0175007Y0086117D01*
X0175013Y0086235D01*
X0175022Y0086352D01*
X0175035Y0086469D01*
X0175052Y0086585D01*
X0175073Y0086700D01*
X0175098Y0086815D01*
X0175126Y0086929D01*
X0175158Y0087042D01*
X0175194Y0087154D01*
X0175233Y0087265D01*
X0175276Y0087375D01*
X0175322Y0087483D01*
X0175372Y0087589D01*
X0177083Y0087589D02*
X0177133Y0087482D01*
X0177179Y0087375D01*
X0177222Y0087265D01*
X0177261Y0087154D01*
X0177297Y0087042D01*
X0177329Y0086929D01*
X0177357Y0086815D01*
X0177382Y0086700D01*
X0177403Y0086585D01*
X0177420Y0086469D01*
X0177433Y0086352D01*
X0177442Y0086235D01*
X0177448Y0086117D01*
X0177450Y0086000D01*
X0188122Y0086244D02*
X0189589Y0086244D01*
X0192144Y0085633D02*
X0193489Y0086367D01*
X0193000Y0088200D02*
X0192916Y0088198D01*
X0192832Y0088192D01*
X0192748Y0088183D01*
X0192665Y0088169D01*
X0192582Y0088152D01*
X0192501Y0088131D01*
X0192420Y0088106D01*
X0192341Y0088077D01*
X0192263Y0088045D01*
X0192187Y0088010D01*
X0192112Y0087971D01*
X0192039Y0087928D01*
X0191969Y0087882D01*
X0191900Y0087833D01*
X0193489Y0086366D02*
X0193540Y0086399D01*
X0193590Y0086434D01*
X0193637Y0086473D01*
X0193681Y0086514D01*
X0193723Y0086558D01*
X0193762Y0086604D01*
X0193798Y0086653D01*
X0193832Y0086703D01*
X0193862Y0086756D01*
X0193889Y0086810D01*
X0193912Y0086866D01*
X0193932Y0086923D01*
X0193949Y0086982D01*
X0193961Y0087041D01*
X0193971Y0087101D01*
X0193976Y0087161D01*
X0193978Y0087222D01*
X0193976Y0087283D01*
X0193970Y0087345D01*
X0193961Y0087405D01*
X0193947Y0087465D01*
X0193930Y0087524D01*
X0193909Y0087582D01*
X0193885Y0087638D01*
X0193857Y0087693D01*
X0193826Y0087746D01*
X0193791Y0087797D01*
X0193754Y0087845D01*
X0193713Y0087891D01*
X0193669Y0087935D01*
X0193623Y0087976D01*
X0193575Y0088013D01*
X0193524Y0088048D01*
X0193471Y0088079D01*
X0193416Y0088107D01*
X0193360Y0088131D01*
X0193302Y0088152D01*
X0193243Y0088169D01*
X0193183Y0088183D01*
X0193123Y0088192D01*
X0193061Y0088198D01*
X0193000Y0088200D01*
X0195733Y0088200D02*
X0197689Y0088200D01*
X0197689Y0083800D01*
X0195733Y0083800D01*
X0192145Y0085634D02*
X0192094Y0085601D01*
X0192044Y0085566D01*
X0191997Y0085527D01*
X0191953Y0085486D01*
X0191911Y0085442D01*
X0191872Y0085396D01*
X0191836Y0085347D01*
X0191802Y0085297D01*
X0191772Y0085244D01*
X0191745Y0085190D01*
X0191722Y0085134D01*
X0191702Y0085077D01*
X0191685Y0085018D01*
X0191673Y0084959D01*
X0191663Y0084899D01*
X0191658Y0084839D01*
X0191656Y0084778D01*
X0191655Y0084778D02*
X0191657Y0084717D01*
X0191663Y0084655D01*
X0191672Y0084595D01*
X0191686Y0084535D01*
X0191703Y0084476D01*
X0191724Y0084418D01*
X0191748Y0084362D01*
X0191776Y0084307D01*
X0191807Y0084254D01*
X0191842Y0084203D01*
X0191879Y0084155D01*
X0191920Y0084109D01*
X0191964Y0084065D01*
X0192010Y0084024D01*
X0192058Y0083987D01*
X0192109Y0083952D01*
X0192162Y0083921D01*
X0192217Y0083893D01*
X0192273Y0083869D01*
X0192331Y0083848D01*
X0192390Y0083831D01*
X0192450Y0083817D01*
X0192510Y0083808D01*
X0192572Y0083802D01*
X0192633Y0083800D01*
X0192724Y0083802D01*
X0192814Y0083808D01*
X0192904Y0083818D01*
X0192994Y0083832D01*
X0193083Y0083849D01*
X0193171Y0083871D01*
X0193257Y0083897D01*
X0193343Y0083926D01*
X0193428Y0083959D01*
X0193510Y0083996D01*
X0193592Y0084036D01*
X0193671Y0084080D01*
X0193748Y0084127D01*
X0193824Y0084177D01*
X0193896Y0084231D01*
X0193967Y0084288D01*
X0194035Y0084348D01*
X0194100Y0084411D01*
X0196222Y0086244D02*
X0197689Y0086244D01*
X0199961Y0085511D02*
X0202894Y0085511D01*
X0205156Y0083800D02*
X0205156Y0088200D01*
X0207600Y0088200D02*
X0205156Y0083800D01*
X0207600Y0083800D02*
X0207600Y0088200D01*
X0209506Y0088200D02*
X0211950Y0088200D01*
X0210728Y0088200D02*
X0210728Y0083800D01*
X0213856Y0085022D02*
X0213856Y0088200D01*
X0216300Y0088200D02*
X0216300Y0085022D01*
X0216298Y0084953D01*
X0216292Y0084885D01*
X0216283Y0084817D01*
X0216269Y0084750D01*
X0216252Y0084684D01*
X0216231Y0084618D01*
X0216207Y0084554D01*
X0216179Y0084492D01*
X0216148Y0084431D01*
X0216113Y0084372D01*
X0216075Y0084315D01*
X0216033Y0084260D01*
X0215989Y0084208D01*
X0215942Y0084158D01*
X0215892Y0084111D01*
X0215840Y0084067D01*
X0215785Y0084025D01*
X0215728Y0083987D01*
X0215669Y0083952D01*
X0215608Y0083921D01*
X0215546Y0083893D01*
X0215482Y0083869D01*
X0215416Y0083848D01*
X0215350Y0083831D01*
X0215283Y0083817D01*
X0215215Y0083808D01*
X0215147Y0083802D01*
X0215078Y0083800D01*
X0215009Y0083802D01*
X0214941Y0083808D01*
X0214873Y0083817D01*
X0214806Y0083831D01*
X0214740Y0083848D01*
X0214674Y0083869D01*
X0214610Y0083893D01*
X0214548Y0083921D01*
X0214487Y0083952D01*
X0214428Y0083987D01*
X0214371Y0084025D01*
X0214316Y0084067D01*
X0214264Y0084111D01*
X0214214Y0084158D01*
X0214167Y0084208D01*
X0214123Y0084260D01*
X0214081Y0084315D01*
X0214043Y0084372D01*
X0214008Y0084431D01*
X0213977Y0084492D01*
X0213949Y0084554D01*
X0213925Y0084618D01*
X0213904Y0084684D01*
X0213887Y0084750D01*
X0213873Y0084817D01*
X0213864Y0084885D01*
X0213858Y0084953D01*
X0213856Y0085022D01*
X0210822Y0079200D02*
X0211800Y0075778D01*
X0209356Y0075778D01*
X0210089Y0076756D02*
X0210089Y0074800D01*
X0206078Y0074800D02*
X0204611Y0079200D01*
X0207544Y0079200D02*
X0206078Y0074800D01*
X0202744Y0076511D02*
X0199811Y0076511D01*
X0195622Y0075411D02*
X0195572Y0075517D01*
X0195526Y0075625D01*
X0195483Y0075735D01*
X0195444Y0075846D01*
X0195408Y0075958D01*
X0195376Y0076071D01*
X0195348Y0076185D01*
X0195323Y0076300D01*
X0195302Y0076415D01*
X0195285Y0076531D01*
X0195272Y0076648D01*
X0195263Y0076765D01*
X0195257Y0076883D01*
X0195255Y0077000D01*
X0197700Y0077000D02*
X0197698Y0077117D01*
X0197692Y0077235D01*
X0197683Y0077352D01*
X0197670Y0077469D01*
X0197653Y0077585D01*
X0197632Y0077700D01*
X0197607Y0077815D01*
X0197579Y0077929D01*
X0197547Y0078042D01*
X0197511Y0078154D01*
X0197472Y0078265D01*
X0197429Y0078375D01*
X0197383Y0078482D01*
X0197333Y0078589D01*
X0196478Y0079200D02*
X0196419Y0079198D01*
X0196360Y0079192D01*
X0196302Y0079183D01*
X0196245Y0079169D01*
X0196188Y0079152D01*
X0196133Y0079132D01*
X0196079Y0079107D01*
X0196027Y0079079D01*
X0195977Y0079048D01*
X0195929Y0079014D01*
X0195883Y0078977D01*
X0195840Y0078936D01*
X0195800Y0078893D01*
X0195762Y0078848D01*
X0195728Y0078800D01*
X0195696Y0078750D01*
X0195668Y0078698D01*
X0195644Y0078644D01*
X0195623Y0078589D01*
X0195500Y0078222D02*
X0197456Y0075778D01*
X0196478Y0074800D02*
X0196419Y0074802D01*
X0196360Y0074808D01*
X0196302Y0074817D01*
X0196245Y0074831D01*
X0196188Y0074848D01*
X0196133Y0074868D01*
X0196079Y0074893D01*
X0196027Y0074921D01*
X0195977Y0074952D01*
X0195929Y0074986D01*
X0195883Y0075023D01*
X0195840Y0075064D01*
X0195800Y0075107D01*
X0195762Y0075152D01*
X0195728Y0075200D01*
X0195696Y0075250D01*
X0195668Y0075302D01*
X0195644Y0075356D01*
X0195623Y0075411D01*
X0196478Y0074800D02*
X0196537Y0074802D01*
X0196596Y0074808D01*
X0196654Y0074817D01*
X0196711Y0074831D01*
X0196768Y0074848D01*
X0196823Y0074868D01*
X0196877Y0074893D01*
X0196929Y0074921D01*
X0196979Y0074952D01*
X0197027Y0074986D01*
X0197073Y0075023D01*
X0197116Y0075064D01*
X0197156Y0075107D01*
X0197194Y0075152D01*
X0197228Y0075200D01*
X0197260Y0075250D01*
X0197288Y0075302D01*
X0197312Y0075356D01*
X0197333Y0075411D01*
X0195255Y0077000D02*
X0195257Y0077117D01*
X0195263Y0077235D01*
X0195272Y0077352D01*
X0195285Y0077469D01*
X0195302Y0077585D01*
X0195323Y0077700D01*
X0195348Y0077815D01*
X0195376Y0077929D01*
X0195408Y0078042D01*
X0195444Y0078154D01*
X0195483Y0078265D01*
X0195526Y0078375D01*
X0195572Y0078483D01*
X0195622Y0078589D01*
X0196478Y0079200D02*
X0196537Y0079198D01*
X0196596Y0079192D01*
X0196654Y0079183D01*
X0196711Y0079169D01*
X0196768Y0079152D01*
X0196823Y0079132D01*
X0196877Y0079107D01*
X0196929Y0079079D01*
X0196979Y0079048D01*
X0197027Y0079014D01*
X0197073Y0078977D01*
X0197116Y0078936D01*
X0197156Y0078893D01*
X0197194Y0078848D01*
X0197228Y0078800D01*
X0197260Y0078750D01*
X0197288Y0078698D01*
X0197312Y0078644D01*
X0197333Y0078589D01*
X0197700Y0077000D02*
X0197698Y0076883D01*
X0197692Y0076765D01*
X0197683Y0076648D01*
X0197670Y0076531D01*
X0197653Y0076415D01*
X0197632Y0076300D01*
X0197607Y0076185D01*
X0197579Y0076071D01*
X0197547Y0075958D01*
X0197511Y0075846D01*
X0197472Y0075735D01*
X0197429Y0075626D01*
X0197383Y0075518D01*
X0197333Y0075411D01*
X0213856Y0076756D02*
X0213856Y0077978D01*
X0213858Y0078047D01*
X0213864Y0078115D01*
X0213873Y0078183D01*
X0213887Y0078250D01*
X0213904Y0078316D01*
X0213925Y0078382D01*
X0213949Y0078446D01*
X0213977Y0078508D01*
X0214008Y0078569D01*
X0214043Y0078628D01*
X0214081Y0078685D01*
X0214123Y0078740D01*
X0214167Y0078792D01*
X0214214Y0078842D01*
X0214264Y0078889D01*
X0214316Y0078933D01*
X0214371Y0078975D01*
X0214428Y0079013D01*
X0214487Y0079048D01*
X0214548Y0079079D01*
X0214610Y0079107D01*
X0214674Y0079131D01*
X0214740Y0079152D01*
X0214806Y0079169D01*
X0214873Y0079183D01*
X0214941Y0079192D01*
X0215009Y0079198D01*
X0215078Y0079200D01*
X0215147Y0079198D01*
X0215215Y0079192D01*
X0215283Y0079183D01*
X0215350Y0079169D01*
X0215416Y0079152D01*
X0215482Y0079131D01*
X0215546Y0079107D01*
X0215608Y0079079D01*
X0215669Y0079048D01*
X0215728Y0079013D01*
X0215785Y0078975D01*
X0215840Y0078933D01*
X0215892Y0078889D01*
X0215942Y0078842D01*
X0215989Y0078792D01*
X0216033Y0078740D01*
X0216075Y0078685D01*
X0216113Y0078628D01*
X0216148Y0078569D01*
X0216179Y0078508D01*
X0216207Y0078446D01*
X0216231Y0078382D01*
X0216252Y0078316D01*
X0216269Y0078250D01*
X0216283Y0078183D01*
X0216292Y0078115D01*
X0216298Y0078047D01*
X0216300Y0077978D01*
X0216300Y0077733D01*
X0216298Y0077672D01*
X0216292Y0077610D01*
X0216283Y0077550D01*
X0216269Y0077490D01*
X0216252Y0077431D01*
X0216231Y0077373D01*
X0216207Y0077317D01*
X0216179Y0077262D01*
X0216148Y0077209D01*
X0216113Y0077158D01*
X0216076Y0077110D01*
X0216035Y0077064D01*
X0215991Y0077020D01*
X0215945Y0076979D01*
X0215897Y0076942D01*
X0215846Y0076907D01*
X0215793Y0076876D01*
X0215738Y0076848D01*
X0215682Y0076824D01*
X0215624Y0076803D01*
X0215565Y0076786D01*
X0215505Y0076772D01*
X0215445Y0076763D01*
X0215383Y0076757D01*
X0215322Y0076755D01*
X0215322Y0076756D02*
X0213856Y0076756D01*
X0213855Y0076756D02*
X0213857Y0076668D01*
X0213863Y0076581D01*
X0213873Y0076493D01*
X0213886Y0076407D01*
X0213904Y0076321D01*
X0213925Y0076236D01*
X0213951Y0076152D01*
X0213980Y0076069D01*
X0214012Y0075987D01*
X0214049Y0075907D01*
X0214089Y0075829D01*
X0214132Y0075753D01*
X0214179Y0075678D01*
X0214229Y0075606D01*
X0214282Y0075536D01*
X0214338Y0075469D01*
X0214397Y0075404D01*
X0214459Y0075342D01*
X0214524Y0075283D01*
X0214591Y0075227D01*
X0214661Y0075174D01*
X0214733Y0075124D01*
X0214808Y0075077D01*
X0214884Y0075034D01*
X0214962Y0074994D01*
X0215042Y0074957D01*
X0215124Y0074925D01*
X0215207Y0074896D01*
X0215291Y0074870D01*
X0215376Y0074849D01*
X0215462Y0074831D01*
X0215548Y0074818D01*
X0215636Y0074808D01*
X0215723Y0074802D01*
X0215811Y0074800D01*
D11*
X0185600Y0114500D03*
X0131600Y0080500D03*
X0091600Y0080500D03*
X0057600Y0082500D03*
X0057600Y0122500D03*
X0073600Y0132500D03*
X0073600Y0152500D03*
X0185600Y0154500D03*
D12*
X0193500Y0051300D02*
X0193500Y0045300D01*
X0209600Y0038500D02*
X0215600Y0038500D01*
X0193500Y0025700D02*
X0193500Y0019700D01*
X0175700Y0019700D02*
X0175700Y0025700D01*
X0175700Y0045300D02*
X0175700Y0051300D01*
X0289600Y0038500D02*
X0295600Y0038500D01*
D13*
X0052600Y0035500D03*
D14*
X0062600Y0035500D03*
X0072600Y0035500D03*
X0082600Y0035500D03*
D15*
X0094801Y0123000D03*
X0094801Y0128000D03*
X0094801Y0133000D03*
X0094801Y0138000D03*
X0094801Y0143000D03*
X0094801Y0148000D03*
X0094801Y0153000D03*
X0094801Y0158000D03*
X0132498Y0158000D03*
X0132498Y0153000D03*
X0132498Y0148000D03*
X0132498Y0143000D03*
X0132498Y0138000D03*
X0132498Y0133000D03*
X0132498Y0128000D03*
X0132498Y0123000D03*
D16*
X0136600Y0186700D02*
X0136600Y0194300D01*
X0146600Y0194300D02*
X0146600Y0186700D01*
X0156600Y0186700D02*
X0156600Y0194300D01*
X0166600Y0194300D02*
X0166600Y0186700D01*
X0176600Y0186700D02*
X0176600Y0194300D01*
X0186600Y0194300D02*
X0186600Y0186700D01*
X0196600Y0186700D02*
X0196600Y0194300D01*
X0126600Y0194300D02*
X0126600Y0186700D01*
X0116600Y0186700D02*
X0116600Y0194300D01*
X0106600Y0194300D02*
X0106600Y0186700D01*
X0096600Y0186700D02*
X0096600Y0194300D01*
X0086600Y0194300D02*
X0086600Y0186700D01*
X0076600Y0186700D02*
X0076600Y0194300D01*
X0066600Y0194300D02*
X0066600Y0186700D01*
X0056600Y0186700D02*
X0056600Y0194300D01*
X0046600Y0194300D02*
X0046600Y0186700D01*
D17*
X0041600Y0158100D02*
X0041600Y0152900D01*
X0031600Y0152900D02*
X0031600Y0158100D01*
X0021600Y0158100D02*
X0021600Y0152900D01*
D18*
X0283600Y0178500D03*
D19*
X0283600Y0168500D03*
X0283600Y0158500D03*
X0283600Y0148500D03*
X0283600Y0081000D03*
D20*
X0124427Y0060000D03*
X0124427Y0055000D03*
X0124427Y0050000D03*
X0124427Y0045000D03*
X0102773Y0045000D03*
X0102773Y0050000D03*
X0102773Y0055000D03*
X0102773Y0060000D03*
D21*
X0113600Y0052500D03*
D22*
X0146600Y0028500D03*
X0156600Y0028500D03*
D23*
X0160550Y0024239D02*
X0163617Y0024239D01*
X0143617Y0024239D02*
X0140550Y0024239D01*
X0142083Y0022706D02*
X0142083Y0025772D01*
D24*
X0123718Y0025933D03*
X0121159Y0025933D03*
X0118600Y0025933D03*
X0116041Y0025933D03*
X0113482Y0025933D03*
D25*
X0102852Y0015500D03*
X0134348Y0015500D03*
D26*
X0006254Y0015516D02*
X0006223Y0009100D01*
X0091984Y0009100D01*
X0091800Y0009545D01*
X0091800Y0037512D01*
X0091612Y0037700D01*
X0087287Y0037700D01*
X0087396Y0037486D01*
X0087647Y0036712D01*
X0087775Y0035907D01*
X0087775Y0035687D01*
X0082787Y0035687D01*
X0082787Y0035313D01*
X0082787Y0030325D01*
X0083007Y0030325D01*
X0083812Y0030453D01*
X0084586Y0030704D01*
X0085312Y0031074D01*
X0085971Y0031553D01*
X0086547Y0032129D01*
X0087026Y0032788D01*
X0087396Y0033514D01*
X0087647Y0034288D01*
X0087775Y0035093D01*
X0087775Y0035313D01*
X0082787Y0035313D01*
X0082413Y0035313D01*
X0082413Y0030325D01*
X0082193Y0030325D01*
X0081388Y0030453D01*
X0080614Y0030704D01*
X0079888Y0031074D01*
X0079229Y0031553D01*
X0078653Y0032129D01*
X0078579Y0032231D01*
X0078343Y0031662D01*
X0076438Y0029757D01*
X0073948Y0028725D01*
X0071252Y0028725D01*
X0068762Y0029757D01*
X0067600Y0030919D01*
X0066438Y0029757D01*
X0063948Y0028725D01*
X0061252Y0028725D01*
X0058762Y0029757D01*
X0058354Y0030165D01*
X0057554Y0029365D01*
X0056010Y0028725D01*
X0049190Y0028725D01*
X0047646Y0029365D01*
X0046465Y0030546D01*
X0045825Y0032090D01*
X0045825Y0038910D01*
X0046465Y0040454D01*
X0047161Y0041151D01*
X0046881Y0041431D01*
X0045531Y0042781D01*
X0044800Y0044545D01*
X0044800Y0115455D01*
X0045531Y0117219D01*
X0050800Y0122488D01*
X0050800Y0125317D01*
X0054783Y0129300D01*
X0060417Y0129300D01*
X0064400Y0125317D01*
X0064400Y0119683D01*
X0060417Y0115700D01*
X0057588Y0115700D01*
X0054400Y0112512D01*
X0054400Y0088917D01*
X0054783Y0089300D01*
X0060417Y0089300D01*
X0062389Y0087328D01*
X0064468Y0088189D01*
X0066732Y0088189D01*
X0068823Y0087323D01*
X0070423Y0085723D01*
X0071289Y0083632D01*
X0071289Y0081368D01*
X0070423Y0079277D01*
X0068823Y0077677D01*
X0066732Y0076811D01*
X0064468Y0076811D01*
X0062389Y0077672D01*
X0060417Y0075700D01*
X0054783Y0075700D01*
X0054400Y0076083D01*
X0054400Y0047488D01*
X0056100Y0045788D01*
X0056881Y0046569D01*
X0058645Y0047300D01*
X0094555Y0047300D01*
X0096014Y0046695D01*
X0096014Y0047213D01*
X0096133Y0047500D01*
X0096014Y0047787D01*
X0096014Y0052213D01*
X0096133Y0052500D01*
X0096014Y0052787D01*
X0096014Y0057213D01*
X0096133Y0057500D01*
X0096014Y0057787D01*
X0096014Y0062213D01*
X0096654Y0063757D01*
X0097835Y0064939D01*
X0099379Y0065578D01*
X0106168Y0065578D01*
X0107711Y0064939D01*
X0107850Y0064800D01*
X0109055Y0064800D01*
X0110819Y0064069D01*
X0111495Y0063393D01*
X0119160Y0063393D01*
X0119899Y0063087D01*
X0120210Y0063397D01*
X0120636Y0063682D01*
X0121109Y0063878D01*
X0121612Y0063978D01*
X0124338Y0063978D01*
X0124338Y0060578D01*
X0124516Y0060578D01*
X0124516Y0063978D01*
X0126800Y0063978D01*
X0126800Y0075683D01*
X0124800Y0077683D01*
X0124800Y0083317D01*
X0128783Y0087300D01*
X0134417Y0087300D01*
X0138400Y0083317D01*
X0138400Y0077683D01*
X0136400Y0075683D01*
X0136400Y0056545D01*
X0135669Y0054781D01*
X0133169Y0052281D01*
X0131819Y0050931D01*
X0130055Y0050200D01*
X0129586Y0050200D01*
X0129586Y0050089D01*
X0129392Y0050089D01*
X0129365Y0050061D01*
X0129217Y0050000D01*
X0129365Y0049939D01*
X0129392Y0049911D01*
X0129586Y0049911D01*
X0129586Y0049800D01*
X0130555Y0049800D01*
X0132319Y0049069D01*
X0133669Y0047719D01*
X0134400Y0045955D01*
X0134400Y0036545D01*
X0133669Y0034781D01*
X0128550Y0029662D01*
X0128607Y0029524D01*
X0128607Y0022342D01*
X0127968Y0020798D01*
X0126786Y0019617D01*
X0125243Y0018977D01*
X0114517Y0018977D01*
X0112973Y0019617D01*
X0111826Y0020763D01*
X0111561Y0020873D01*
X0111136Y0021158D01*
X0110773Y0021520D01*
X0110489Y0021946D01*
X0110293Y0022419D01*
X0110193Y0022921D01*
X0110193Y0025933D01*
X0111152Y0025933D01*
X0111152Y0025933D01*
X0110193Y0025933D01*
X0110193Y0028945D01*
X0110293Y0029447D01*
X0110489Y0029921D01*
X0110773Y0030346D01*
X0111136Y0030709D01*
X0111561Y0030993D01*
X0111826Y0031103D01*
X0112973Y0032250D01*
X0114517Y0032889D01*
X0117565Y0032889D01*
X0119049Y0032889D01*
X0119649Y0034337D01*
X0120999Y0035687D01*
X0124734Y0039422D01*
X0121032Y0039422D01*
X0119489Y0040061D01*
X0119350Y0040200D01*
X0114645Y0040200D01*
X0112881Y0040931D01*
X0112205Y0041607D01*
X0109044Y0041607D01*
X0108893Y0041243D01*
X0107711Y0040061D01*
X0106707Y0039645D01*
X0105492Y0038431D01*
X0103728Y0037700D01*
X0101400Y0037700D01*
X0101400Y0021840D01*
X0102252Y0021840D01*
X0102252Y0016100D01*
X0103452Y0016100D01*
X0108995Y0016100D01*
X0108995Y0019496D01*
X0108895Y0019999D01*
X0108699Y0020472D01*
X0108415Y0020898D01*
X0108053Y0021260D01*
X0107627Y0021544D01*
X0107154Y0021740D01*
X0106651Y0021840D01*
X0103452Y0021840D01*
X0103452Y0016100D01*
X0103452Y0014900D01*
X0108995Y0014900D01*
X0108995Y0011504D01*
X0108955Y0011300D01*
X0128245Y0011300D01*
X0128205Y0011504D01*
X0128205Y0014900D01*
X0133748Y0014900D01*
X0133748Y0016100D01*
X0128205Y0016100D01*
X0128205Y0019496D01*
X0128305Y0019999D01*
X0128501Y0020472D01*
X0128785Y0020898D01*
X0129147Y0021260D01*
X0129573Y0021544D01*
X0130046Y0021740D01*
X0130549Y0021840D01*
X0133748Y0021840D01*
X0133748Y0016100D01*
X0134948Y0016100D01*
X0134948Y0021840D01*
X0138147Y0021840D01*
X0138650Y0021740D01*
X0139123Y0021544D01*
X0139549Y0021260D01*
X0139911Y0020898D01*
X0140195Y0020472D01*
X0140391Y0019999D01*
X0140491Y0019496D01*
X0140491Y0016100D01*
X0134948Y0016100D01*
X0134948Y0014900D01*
X0140491Y0014900D01*
X0140491Y0011504D01*
X0140451Y0011300D01*
X0157612Y0011300D01*
X0160800Y0014488D01*
X0160800Y0024073D01*
X0159127Y0022400D01*
X0156800Y0022400D01*
X0156800Y0028300D01*
X0156400Y0028300D01*
X0156400Y0022400D01*
X0154073Y0022400D01*
X0152731Y0023742D01*
X0149789Y0020800D01*
X0143411Y0020800D01*
X0138900Y0025311D01*
X0138900Y0031689D01*
X0143411Y0036200D01*
X0147512Y0036200D01*
X0148531Y0037219D01*
X0148531Y0037219D01*
X0149881Y0038569D01*
X0151645Y0039300D01*
X0159555Y0039300D01*
X0161319Y0038569D01*
X0162669Y0037219D01*
X0169669Y0030219D01*
X0169777Y0029959D01*
X0171622Y0031804D01*
X0174268Y0032900D01*
X0177132Y0032900D01*
X0179778Y0031804D01*
X0181804Y0029778D01*
X0182900Y0027132D01*
X0182900Y0024788D01*
X0183531Y0025419D01*
X0184881Y0026769D01*
X0186412Y0027404D01*
X0187396Y0029778D01*
X0189422Y0031804D01*
X0192068Y0032900D01*
X0194932Y0032900D01*
X0197578Y0031804D01*
X0199400Y0029982D01*
X0199400Y0041018D01*
X0197578Y0039196D01*
X0194932Y0038100D01*
X0192068Y0038100D01*
X0189422Y0039196D01*
X0187396Y0041222D01*
X0186300Y0043868D01*
X0186300Y0052732D01*
X0187396Y0055378D01*
X0189422Y0057404D01*
X0192068Y0058500D01*
X0194932Y0058500D01*
X0197578Y0057404D01*
X0199400Y0055582D01*
X0199400Y0068335D01*
X0200039Y0069879D01*
X0201221Y0071061D01*
X0202765Y0071700D01*
X0202784Y0071700D01*
X0202453Y0071987D01*
X0202441Y0072011D01*
X0200424Y0072011D01*
X0199687Y0071211D01*
X0199687Y0071211D01*
X0197611Y0070300D01*
X0195344Y0070300D01*
X0193268Y0071211D01*
X0193268Y0071211D01*
X0193268Y0071211D01*
X0191733Y0072879D01*
X0191733Y0072879D01*
X0191456Y0073689D01*
X0191172Y0074271D01*
X0190756Y0076075D01*
X0190756Y0076075D01*
X0190756Y0077925D01*
X0191110Y0079461D01*
X0191112Y0079479D01*
X0191014Y0079519D01*
X0190484Y0079300D01*
X0186738Y0079300D01*
X0186673Y0079327D01*
X0186090Y0079212D01*
X0184628Y0079504D01*
X0183166Y0079212D01*
X0181775Y0079487D01*
X0181323Y0079300D01*
X0179533Y0079300D01*
X0178416Y0079763D01*
X0177361Y0079300D01*
X0175094Y0079300D01*
X0174488Y0079566D01*
X0173845Y0079300D01*
X0169610Y0079300D01*
X0167957Y0079985D01*
X0166691Y0081251D01*
X0166006Y0082905D01*
X0166006Y0084695D01*
X0166691Y0086349D01*
X0167228Y0086886D01*
X0167228Y0087951D01*
X0167157Y0088593D01*
X0167228Y0088839D01*
X0167228Y0089095D01*
X0167475Y0089692D01*
X0167655Y0090312D01*
X0167815Y0090512D01*
X0167913Y0090749D01*
X0168370Y0091206D01*
X0168773Y0091710D01*
X0168998Y0091834D01*
X0169179Y0092015D01*
X0169776Y0092262D01*
X0170341Y0092574D01*
X0170596Y0092602D01*
X0170833Y0092700D01*
X0171479Y0092700D01*
X0172121Y0092771D01*
X0172367Y0092700D01*
X0172623Y0092700D01*
X0173220Y0092453D01*
X0173840Y0092273D01*
X0173940Y0092193D01*
X0175094Y0092700D01*
X0177361Y0092700D01*
X0177822Y0092498D01*
X0178310Y0092700D01*
X0182545Y0092700D01*
X0182602Y0092677D01*
X0183166Y0092788D01*
X0184628Y0092496D01*
X0186090Y0092788D01*
X0186673Y0092673D01*
X0186738Y0092700D01*
X0190484Y0092700D01*
X0191148Y0092425D01*
X0191972Y0092700D01*
X0194090Y0092700D01*
X0194464Y0092545D01*
X0194838Y0092700D01*
X0198584Y0092700D01*
X0200238Y0092015D01*
X0201422Y0090831D01*
X0202607Y0092015D01*
X0204260Y0092700D01*
X0206051Y0092700D01*
X0206378Y0092564D01*
X0206705Y0092700D01*
X0206970Y0092700D01*
X0207224Y0092773D01*
X0207858Y0092700D01*
X0208495Y0092700D01*
X0208553Y0092676D01*
X0208610Y0092700D01*
X0212845Y0092700D01*
X0212903Y0092676D01*
X0212960Y0092700D01*
X0214751Y0092700D01*
X0215078Y0092564D01*
X0215405Y0092700D01*
X0217195Y0092700D01*
X0218849Y0092015D01*
X0220115Y0090749D01*
X0220800Y0089095D01*
X0220800Y0083716D01*
X0219733Y0081500D01*
X0220800Y0079284D01*
X0220800Y0077673D01*
X0220800Y0076644D01*
X0220800Y0076644D01*
X0220311Y0075463D01*
X0220311Y0073905D01*
X0219626Y0072251D01*
X0219075Y0071700D01*
X0311261Y0071700D01*
X0312150Y0073846D01*
X0314829Y0076524D01*
X0318328Y0077974D01*
X0322116Y0077974D01*
X0325615Y0076524D01*
X0328294Y0073846D01*
X0329183Y0071700D01*
X0329435Y0071700D01*
X0330979Y0071061D01*
X0332161Y0069879D01*
X0332800Y0068335D01*
X0332800Y0049384D01*
X0334388Y0048263D01*
X0334388Y0048263D01*
X0334388Y0048263D01*
X0334701Y0047878D01*
X0334701Y0202861D01*
X0007177Y0202861D01*
X0006393Y0043613D01*
X0008951Y0046003D01*
X0013835Y0048534D01*
X0019221Y0049653D01*
X0024710Y0049277D01*
X0029893Y0047435D01*
X0029893Y0047435D01*
X0034388Y0044263D01*
X0034388Y0044263D01*
X0037859Y0039996D01*
X0037859Y0039996D01*
X0040051Y0034950D01*
X0040051Y0034950D01*
X0040800Y0029500D01*
X0040051Y0024050D01*
X0040051Y0024050D01*
X0037859Y0019004D01*
X0037859Y0019004D01*
X0034388Y0014737D01*
X0034388Y0014737D01*
X0034388Y0014737D01*
X0029893Y0011565D01*
X0029893Y0011565D01*
X0024710Y0009723D01*
X0024710Y0009723D01*
X0019222Y0009347D01*
X0019221Y0009347D01*
X0013835Y0010466D01*
X0013835Y0010466D01*
X0008951Y0012997D01*
X0008951Y0012997D01*
X0006254Y0015516D01*
X0006253Y0015287D02*
X0006500Y0015287D01*
X0006247Y0014088D02*
X0007783Y0014088D01*
X0009159Y0012890D02*
X0006241Y0012890D01*
X0006235Y0011691D02*
X0011472Y0011691D01*
X0013785Y0010493D02*
X0006230Y0010493D01*
X0006224Y0009294D02*
X0091904Y0009294D01*
X0091800Y0010493D02*
X0026877Y0010493D01*
X0030072Y0011691D02*
X0091800Y0011691D01*
X0091800Y0012890D02*
X0031770Y0012890D01*
X0033468Y0014088D02*
X0091800Y0014088D01*
X0091800Y0015287D02*
X0034835Y0015287D01*
X0035810Y0016485D02*
X0091800Y0016485D01*
X0091800Y0017684D02*
X0036785Y0017684D01*
X0037760Y0018882D02*
X0091800Y0018882D01*
X0091800Y0020081D02*
X0038327Y0020081D01*
X0038847Y0021279D02*
X0091800Y0021279D01*
X0091800Y0022478D02*
X0039368Y0022478D01*
X0039888Y0023676D02*
X0091800Y0023676D01*
X0091800Y0024875D02*
X0040164Y0024875D01*
X0040329Y0026073D02*
X0091800Y0026073D01*
X0091800Y0027272D02*
X0040494Y0027272D01*
X0040658Y0028470D02*
X0091800Y0028470D01*
X0091800Y0029669D02*
X0076226Y0029669D01*
X0077548Y0030867D02*
X0080294Y0030867D01*
X0078716Y0032066D02*
X0078510Y0032066D01*
X0082413Y0032066D02*
X0082787Y0032066D01*
X0082787Y0033264D02*
X0082413Y0033264D01*
X0082413Y0034463D02*
X0082787Y0034463D01*
X0082787Y0035661D02*
X0091800Y0035661D01*
X0091800Y0034463D02*
X0087675Y0034463D01*
X0087269Y0033264D02*
X0091800Y0033264D01*
X0091800Y0032066D02*
X0086484Y0032066D01*
X0084906Y0030867D02*
X0091800Y0030867D01*
X0082787Y0030867D02*
X0082413Y0030867D01*
X0087599Y0036860D02*
X0091800Y0036860D01*
X0096600Y0039500D02*
X0096600Y0040500D01*
X0098600Y0042500D01*
X0102773Y0042500D01*
X0102773Y0045000D01*
X0108105Y0040455D02*
X0114029Y0040455D01*
X0115600Y0045000D02*
X0111600Y0049000D01*
X0111600Y0056500D01*
X0108100Y0060000D01*
X0102773Y0060000D01*
X0096014Y0059632D02*
X0054400Y0059632D01*
X0054400Y0060830D02*
X0096014Y0060830D01*
X0096014Y0062029D02*
X0054400Y0062029D01*
X0054400Y0063227D02*
X0096434Y0063227D01*
X0097322Y0064426D02*
X0054400Y0064426D01*
X0054400Y0065624D02*
X0126800Y0065624D01*
X0126800Y0064426D02*
X0109959Y0064426D01*
X0119560Y0063227D02*
X0120040Y0063227D01*
X0124338Y0063227D02*
X0124516Y0063227D01*
X0124516Y0062029D02*
X0124338Y0062029D01*
X0124338Y0060830D02*
X0124516Y0060830D01*
X0126800Y0066823D02*
X0054400Y0066823D01*
X0054400Y0068021D02*
X0126800Y0068021D01*
X0126800Y0069220D02*
X0054400Y0069220D01*
X0054400Y0070418D02*
X0126800Y0070418D01*
X0126800Y0071617D02*
X0054400Y0071617D01*
X0054400Y0072815D02*
X0126800Y0072815D01*
X0126800Y0074014D02*
X0054400Y0074014D01*
X0054400Y0075212D02*
X0126800Y0075212D01*
X0126073Y0076411D02*
X0094865Y0076411D01*
X0093754Y0075300D02*
X0091800Y0075300D01*
X0091800Y0080300D01*
X0091800Y0080700D01*
X0096800Y0080700D01*
X0096800Y0082654D01*
X0093754Y0085700D01*
X0091800Y0085700D01*
X0091800Y0080700D01*
X0091400Y0080700D01*
X0091400Y0085700D01*
X0089446Y0085700D01*
X0086400Y0082654D01*
X0086400Y0080700D01*
X0091400Y0080700D01*
X0091400Y0080300D01*
X0091800Y0080300D01*
X0096800Y0080300D01*
X0096800Y0078346D01*
X0093754Y0075300D01*
X0091800Y0076411D02*
X0091400Y0076411D01*
X0091400Y0075300D02*
X0091400Y0080300D01*
X0086400Y0080300D01*
X0086400Y0078346D01*
X0089446Y0075300D01*
X0091400Y0075300D01*
X0088335Y0076411D02*
X0061127Y0076411D01*
X0062326Y0077609D02*
X0062541Y0077609D01*
X0065600Y0082500D02*
X0057600Y0082500D01*
X0061321Y0088396D02*
X0167178Y0088396D01*
X0167228Y0087197D02*
X0134519Y0087197D01*
X0135718Y0085999D02*
X0166546Y0085999D01*
X0166049Y0084800D02*
X0136916Y0084800D01*
X0138115Y0083602D02*
X0166006Y0083602D01*
X0166213Y0082403D02*
X0138400Y0082403D01*
X0138400Y0081205D02*
X0166737Y0081205D01*
X0167935Y0080006D02*
X0138400Y0080006D01*
X0138400Y0078808D02*
X0190959Y0078808D01*
X0190756Y0077609D02*
X0138326Y0077609D01*
X0137127Y0076411D02*
X0190756Y0076411D01*
X0190955Y0075212D02*
X0136400Y0075212D01*
X0136400Y0074014D02*
X0191297Y0074014D01*
X0191792Y0072815D02*
X0136400Y0072815D01*
X0136400Y0071617D02*
X0192895Y0071617D01*
X0195075Y0070418D02*
X0136400Y0070418D01*
X0136400Y0069220D02*
X0199766Y0069220D01*
X0199400Y0068021D02*
X0136400Y0068021D01*
X0136400Y0066823D02*
X0199400Y0066823D01*
X0199400Y0065624D02*
X0136400Y0065624D01*
X0136400Y0064426D02*
X0199400Y0064426D01*
X0199400Y0063227D02*
X0136400Y0063227D01*
X0136400Y0062029D02*
X0199400Y0062029D01*
X0199400Y0060830D02*
X0136400Y0060830D01*
X0136400Y0059632D02*
X0199400Y0059632D01*
X0199400Y0058433D02*
X0195094Y0058433D01*
X0197748Y0057234D02*
X0199400Y0057234D01*
X0199400Y0056036D02*
X0198946Y0056036D01*
X0191906Y0058433D02*
X0177294Y0058433D01*
X0177132Y0058500D02*
X0174268Y0058500D01*
X0171622Y0057404D01*
X0169596Y0055378D01*
X0168500Y0052732D01*
X0168500Y0043868D01*
X0169596Y0041222D01*
X0171622Y0039196D01*
X0174268Y0038100D01*
X0177132Y0038100D01*
X0179778Y0039196D01*
X0181804Y0041222D01*
X0182900Y0043868D01*
X0182900Y0052732D01*
X0181804Y0055378D01*
X0179778Y0057404D01*
X0177132Y0058500D01*
X0174106Y0058433D02*
X0136400Y0058433D01*
X0136400Y0057234D02*
X0171452Y0057234D01*
X0170254Y0056036D02*
X0136189Y0056036D01*
X0135693Y0054837D02*
X0169372Y0054837D01*
X0168876Y0053639D02*
X0134527Y0053639D01*
X0133329Y0052440D02*
X0168500Y0052440D01*
X0168500Y0051242D02*
X0132130Y0051242D01*
X0132543Y0048845D02*
X0168500Y0048845D01*
X0168500Y0050043D02*
X0129321Y0050043D01*
X0133699Y0047646D02*
X0168500Y0047646D01*
X0168500Y0046448D02*
X0134196Y0046448D01*
X0134400Y0045249D02*
X0168500Y0045249D01*
X0168500Y0044051D02*
X0134400Y0044051D01*
X0134400Y0042852D02*
X0168921Y0042852D01*
X0169417Y0041654D02*
X0134400Y0041654D01*
X0134400Y0040455D02*
X0170362Y0040455D01*
X0171561Y0039257D02*
X0159659Y0039257D01*
X0161830Y0038058D02*
X0199400Y0038058D01*
X0199400Y0036860D02*
X0163028Y0036860D01*
X0164227Y0035661D02*
X0199400Y0035661D01*
X0199400Y0034463D02*
X0165425Y0034463D01*
X0166624Y0033264D02*
X0199400Y0033264D01*
X0199400Y0032066D02*
X0196946Y0032066D01*
X0198515Y0030867D02*
X0199400Y0030867D01*
X0190054Y0032066D02*
X0179146Y0032066D01*
X0180715Y0030867D02*
X0188485Y0030867D01*
X0187351Y0029669D02*
X0181849Y0029669D01*
X0182346Y0028470D02*
X0186854Y0028470D01*
X0186094Y0027272D02*
X0182842Y0027272D01*
X0182900Y0026073D02*
X0184185Y0026073D01*
X0182986Y0024875D02*
X0182900Y0024875D01*
X0187600Y0022700D02*
X0193500Y0022700D01*
X0187600Y0022700D02*
X0177400Y0012500D01*
X0165600Y0012500D01*
X0159600Y0006500D01*
X0100600Y0006500D01*
X0096600Y0010500D01*
X0096600Y0039500D01*
X0093600Y0042500D01*
X0059600Y0042500D01*
X0052600Y0035500D01*
X0052600Y0042500D01*
X0049600Y0045500D01*
X0049600Y0114500D01*
X0057600Y0122500D01*
X0064400Y0121954D02*
X0086270Y0121954D01*
X0086270Y0120983D02*
X0086909Y0119440D01*
X0088091Y0118258D01*
X0089635Y0117619D01*
X0099967Y0117619D01*
X0101370Y0118200D01*
X0107055Y0118200D01*
X0108819Y0118931D01*
X0114800Y0124912D01*
X0114800Y0114545D01*
X0115531Y0112781D01*
X0116881Y0111431D01*
X0118881Y0109431D01*
X0120645Y0108700D01*
X0176555Y0108700D01*
X0178319Y0109431D01*
X0179669Y0110781D01*
X0179686Y0110798D01*
X0182783Y0107700D01*
X0188417Y0107700D01*
X0192400Y0111683D01*
X0192400Y0117317D01*
X0188802Y0120914D01*
X0231588Y0163700D01*
X0278262Y0163700D01*
X0278462Y0163500D01*
X0277523Y0162561D01*
X0276431Y0159926D01*
X0276431Y0157074D01*
X0277523Y0154439D01*
X0278462Y0153500D01*
X0277523Y0152561D01*
X0276431Y0149926D01*
X0276431Y0147074D01*
X0277523Y0144439D01*
X0279539Y0142423D01*
X0282174Y0141331D01*
X0285026Y0141331D01*
X0287661Y0142423D01*
X0289677Y0144439D01*
X0290768Y0147074D01*
X0290768Y0149926D01*
X0289677Y0152561D01*
X0288738Y0153500D01*
X0289677Y0154439D01*
X0290768Y0157074D01*
X0290768Y0159926D01*
X0289677Y0162561D01*
X0288738Y0163500D01*
X0289677Y0164439D01*
X0290768Y0167074D01*
X0290768Y0169926D01*
X0289677Y0172561D01*
X0288476Y0173762D01*
X0288588Y0173874D01*
X0288873Y0174300D01*
X0289069Y0174773D01*
X0289168Y0175275D01*
X0289168Y0178116D01*
X0283984Y0178116D01*
X0283984Y0178884D01*
X0283216Y0178884D01*
X0283216Y0178116D01*
X0278031Y0178116D01*
X0278031Y0175275D01*
X0278131Y0174773D01*
X0278327Y0174300D01*
X0278612Y0173874D01*
X0278724Y0173762D01*
X0278262Y0173300D01*
X0228645Y0173300D01*
X0226881Y0172569D01*
X0176881Y0122569D01*
X0175531Y0121219D01*
X0174824Y0119512D01*
X0173612Y0118300D01*
X0172188Y0118300D01*
X0180669Y0126781D01*
X0181400Y0128545D01*
X0181400Y0149083D01*
X0182783Y0147700D01*
X0188417Y0147700D01*
X0192400Y0151683D01*
X0192400Y0157317D01*
X0188417Y0161300D01*
X0182783Y0161300D01*
X0181400Y0159917D01*
X0181400Y0180186D01*
X0181600Y0180386D01*
X0182068Y0179918D01*
X0185009Y0178700D01*
X0188191Y0178700D01*
X0191132Y0179918D01*
X0192779Y0181565D01*
X0193037Y0181367D01*
X0193763Y0180948D01*
X0194538Y0180627D01*
X0195349Y0180410D01*
X0196181Y0180300D01*
X0196216Y0180300D01*
X0196216Y0190116D01*
X0196984Y0190116D01*
X0196984Y0180300D01*
X0197019Y0180300D01*
X0197851Y0180410D01*
X0198662Y0180627D01*
X0199437Y0180948D01*
X0200163Y0181367D01*
X0200829Y0181878D01*
X0201422Y0182471D01*
X0201933Y0183137D01*
X0202352Y0183863D01*
X0202673Y0184638D01*
X0202890Y0185449D01*
X0203000Y0186281D01*
X0203000Y0190116D01*
X0196984Y0190116D01*
X0196984Y0190884D01*
X0196216Y0190884D01*
X0196216Y0200700D01*
X0196181Y0200700D01*
X0195349Y0200590D01*
X0194538Y0200373D01*
X0193763Y0200052D01*
X0193037Y0199633D01*
X0192779Y0199435D01*
X0191132Y0201082D01*
X0188191Y0202300D01*
X0185009Y0202300D01*
X0182068Y0201082D01*
X0181600Y0200614D01*
X0181132Y0201082D01*
X0178191Y0202300D01*
X0175009Y0202300D01*
X0172068Y0201082D01*
X0171600Y0200614D01*
X0171132Y0201082D01*
X0168191Y0202300D01*
X0165009Y0202300D01*
X0162068Y0201082D01*
X0161600Y0200614D01*
X0161132Y0201082D01*
X0158191Y0202300D01*
X0155009Y0202300D01*
X0152068Y0201082D01*
X0151600Y0200614D01*
X0151132Y0201082D01*
X0148191Y0202300D01*
X0145009Y0202300D01*
X0142068Y0201082D01*
X0141600Y0200614D01*
X0141132Y0201082D01*
X0138191Y0202300D01*
X0135009Y0202300D01*
X0132068Y0201082D01*
X0131600Y0200614D01*
X0131132Y0201082D01*
X0128191Y0202300D01*
X0125009Y0202300D01*
X0122068Y0201082D01*
X0121600Y0200614D01*
X0121132Y0201082D01*
X0118191Y0202300D01*
X0115009Y0202300D01*
X0112068Y0201082D01*
X0111600Y0200614D01*
X0111132Y0201082D01*
X0108191Y0202300D01*
X0105009Y0202300D01*
X0102068Y0201082D01*
X0101600Y0200614D01*
X0101132Y0201082D01*
X0098191Y0202300D01*
X0095009Y0202300D01*
X0092068Y0201082D01*
X0090421Y0199435D01*
X0090163Y0199633D01*
X0089437Y0200052D01*
X0088662Y0200373D01*
X0087851Y0200590D01*
X0087019Y0200700D01*
X0086984Y0200700D01*
X0086984Y0190884D01*
X0086216Y0190884D01*
X0086216Y0200700D01*
X0086181Y0200700D01*
X0085349Y0200590D01*
X0084538Y0200373D01*
X0083763Y0200052D01*
X0083037Y0199633D01*
X0082779Y0199435D01*
X0081132Y0201082D01*
X0078191Y0202300D01*
X0075009Y0202300D01*
X0072068Y0201082D01*
X0071600Y0200614D01*
X0071132Y0201082D01*
X0068191Y0202300D01*
X0065009Y0202300D01*
X0062068Y0201082D01*
X0061600Y0200614D01*
X0061132Y0201082D01*
X0058191Y0202300D01*
X0055009Y0202300D01*
X0052068Y0201082D01*
X0050421Y0199435D01*
X0050163Y0199633D01*
X0049437Y0200052D01*
X0048662Y0200373D01*
X0047851Y0200590D01*
X0047019Y0200700D01*
X0046984Y0200700D01*
X0046984Y0190884D01*
X0046216Y0190884D01*
X0046216Y0190116D01*
X0046984Y0190116D01*
X0046984Y0180300D01*
X0047019Y0180300D01*
X0047851Y0180410D01*
X0048662Y0180627D01*
X0049437Y0180948D01*
X0050163Y0181367D01*
X0050421Y0181565D01*
X0051800Y0180186D01*
X0051800Y0168545D01*
X0052531Y0166781D01*
X0053881Y0165431D01*
X0066800Y0152512D01*
X0066800Y0149683D01*
X0068800Y0147683D01*
X0068800Y0145545D01*
X0069531Y0143781D01*
X0073031Y0140281D01*
X0074381Y0138931D01*
X0076145Y0138200D01*
X0087870Y0138200D01*
X0087870Y0138000D01*
X0088714Y0138000D01*
X0087870Y0138000D01*
X0087870Y0137521D01*
X0086909Y0136560D01*
X0086270Y0135017D01*
X0086270Y0130983D01*
X0086470Y0130500D01*
X0086270Y0130017D01*
X0086270Y0125983D01*
X0086470Y0125500D01*
X0086270Y0125017D01*
X0086270Y0120983D01*
X0086364Y0120756D02*
X0064400Y0120756D01*
X0064274Y0119557D02*
X0086861Y0119557D01*
X0087991Y0118359D02*
X0063075Y0118359D01*
X0061877Y0117160D02*
X0114800Y0117160D01*
X0114800Y0115962D02*
X0060678Y0115962D01*
X0056651Y0114763D02*
X0114800Y0114763D01*
X0115206Y0113565D02*
X0055453Y0113565D01*
X0054400Y0112366D02*
X0115946Y0112366D01*
X0117144Y0111168D02*
X0054400Y0111168D01*
X0054400Y0109969D02*
X0118343Y0109969D01*
X0120475Y0108770D02*
X0054400Y0108770D01*
X0054400Y0107572D02*
X0334701Y0107572D01*
X0334701Y0108770D02*
X0189487Y0108770D01*
X0190686Y0109969D02*
X0334701Y0109969D01*
X0334701Y0111168D02*
X0191884Y0111168D01*
X0192400Y0112366D02*
X0334701Y0112366D01*
X0334701Y0113565D02*
X0192400Y0113565D01*
X0192400Y0114763D02*
X0334701Y0114763D01*
X0334701Y0115962D02*
X0192400Y0115962D01*
X0192400Y0117160D02*
X0334701Y0117160D01*
X0334701Y0118359D02*
X0191358Y0118359D01*
X0190160Y0119557D02*
X0334701Y0119557D01*
X0334701Y0120756D02*
X0188961Y0120756D01*
X0189842Y0121954D02*
X0334701Y0121954D01*
X0334701Y0123153D02*
X0191041Y0123153D01*
X0192239Y0124351D02*
X0334701Y0124351D01*
X0334701Y0125550D02*
X0193438Y0125550D01*
X0194636Y0126748D02*
X0334701Y0126748D01*
X0334701Y0127947D02*
X0195835Y0127947D01*
X0197033Y0129145D02*
X0334701Y0129145D01*
X0334701Y0130344D02*
X0198232Y0130344D01*
X0199430Y0131542D02*
X0334701Y0131542D01*
X0334701Y0132741D02*
X0200629Y0132741D01*
X0201827Y0133939D02*
X0334701Y0133939D01*
X0334701Y0135138D02*
X0203026Y0135138D01*
X0204224Y0136336D02*
X0334701Y0136336D01*
X0334701Y0137535D02*
X0205423Y0137535D01*
X0206621Y0138733D02*
X0334701Y0138733D01*
X0334701Y0139932D02*
X0207820Y0139932D01*
X0209018Y0141130D02*
X0334701Y0141130D01*
X0334701Y0142329D02*
X0287434Y0142329D01*
X0288765Y0143527D02*
X0334701Y0143527D01*
X0334701Y0144726D02*
X0289796Y0144726D01*
X0290292Y0145924D02*
X0334701Y0145924D01*
X0334701Y0147123D02*
X0290768Y0147123D01*
X0290768Y0148321D02*
X0334701Y0148321D01*
X0334701Y0149520D02*
X0290768Y0149520D01*
X0290440Y0150718D02*
X0334701Y0150718D01*
X0334701Y0151917D02*
X0289944Y0151917D01*
X0289122Y0153115D02*
X0334701Y0153115D01*
X0334701Y0154314D02*
X0289552Y0154314D01*
X0290122Y0155512D02*
X0334701Y0155512D01*
X0334701Y0156711D02*
X0290618Y0156711D01*
X0290768Y0157909D02*
X0334701Y0157909D01*
X0334701Y0159108D02*
X0290768Y0159108D01*
X0290611Y0160306D02*
X0334701Y0160306D01*
X0334701Y0161505D02*
X0290114Y0161505D01*
X0289534Y0162703D02*
X0334701Y0162703D01*
X0334701Y0163902D02*
X0289140Y0163902D01*
X0289951Y0165101D02*
X0334701Y0165101D01*
X0334701Y0166299D02*
X0290447Y0166299D01*
X0290768Y0167498D02*
X0334701Y0167498D01*
X0334701Y0168696D02*
X0290768Y0168696D01*
X0290768Y0169895D02*
X0334701Y0169895D01*
X0334701Y0171093D02*
X0290285Y0171093D01*
X0289789Y0172292D02*
X0334701Y0172292D01*
X0334701Y0173490D02*
X0288748Y0173490D01*
X0289034Y0174689D02*
X0334701Y0174689D01*
X0334701Y0175887D02*
X0289168Y0175887D01*
X0289168Y0177086D02*
X0334701Y0177086D01*
X0334701Y0178284D02*
X0283984Y0178284D01*
X0283984Y0178884D02*
X0289168Y0178884D01*
X0289168Y0181725D01*
X0289069Y0182227D01*
X0288873Y0182700D01*
X0288588Y0183126D01*
X0288226Y0183488D01*
X0287800Y0183773D01*
X0287327Y0183969D01*
X0286825Y0184068D01*
X0283984Y0184068D01*
X0283984Y0178884D01*
X0283984Y0179483D02*
X0283216Y0179483D01*
X0283216Y0178884D02*
X0283216Y0184068D01*
X0280375Y0184068D01*
X0279873Y0183969D01*
X0279400Y0183773D01*
X0278974Y0183488D01*
X0278612Y0183126D01*
X0278327Y0182700D01*
X0278131Y0182227D01*
X0278031Y0181725D01*
X0278031Y0178884D01*
X0283216Y0178884D01*
X0283216Y0178284D02*
X0181400Y0178284D01*
X0181400Y0177086D02*
X0278031Y0177086D01*
X0278031Y0175887D02*
X0181400Y0175887D01*
X0181400Y0174689D02*
X0278166Y0174689D01*
X0278452Y0173490D02*
X0181400Y0173490D01*
X0181400Y0172292D02*
X0226603Y0172292D01*
X0225405Y0171093D02*
X0181400Y0171093D01*
X0181400Y0169895D02*
X0224206Y0169895D01*
X0223008Y0168696D02*
X0181400Y0168696D01*
X0181400Y0167498D02*
X0221809Y0167498D01*
X0220611Y0166299D02*
X0181400Y0166299D01*
X0181400Y0165101D02*
X0219412Y0165101D01*
X0218214Y0163902D02*
X0181400Y0163902D01*
X0181400Y0162703D02*
X0217015Y0162703D01*
X0215817Y0161505D02*
X0181400Y0161505D01*
X0181400Y0160306D02*
X0181790Y0160306D01*
X0189410Y0160306D02*
X0214618Y0160306D01*
X0213420Y0159108D02*
X0190609Y0159108D01*
X0191807Y0157909D02*
X0212221Y0157909D01*
X0211023Y0156711D02*
X0192400Y0156711D01*
X0192400Y0155512D02*
X0209824Y0155512D01*
X0208626Y0154314D02*
X0192400Y0154314D01*
X0192400Y0153115D02*
X0207427Y0153115D01*
X0206229Y0151917D02*
X0192400Y0151917D01*
X0191435Y0150718D02*
X0205030Y0150718D01*
X0203832Y0149520D02*
X0190237Y0149520D01*
X0189038Y0148321D02*
X0202633Y0148321D01*
X0201435Y0147123D02*
X0181400Y0147123D01*
X0181400Y0148321D02*
X0182162Y0148321D01*
X0181400Y0145924D02*
X0200236Y0145924D01*
X0199038Y0144726D02*
X0181400Y0144726D01*
X0181400Y0143527D02*
X0197839Y0143527D01*
X0196641Y0142329D02*
X0181400Y0142329D01*
X0181400Y0141130D02*
X0195442Y0141130D01*
X0194244Y0139932D02*
X0181400Y0139932D01*
X0181400Y0138733D02*
X0193045Y0138733D01*
X0191847Y0137535D02*
X0181400Y0137535D01*
X0181400Y0136336D02*
X0190648Y0136336D01*
X0189450Y0135138D02*
X0181400Y0135138D01*
X0181400Y0133939D02*
X0188251Y0133939D01*
X0187052Y0132741D02*
X0181400Y0132741D01*
X0181400Y0131542D02*
X0185854Y0131542D01*
X0184655Y0130344D02*
X0181400Y0130344D01*
X0181400Y0129145D02*
X0183457Y0129145D01*
X0182258Y0127947D02*
X0181152Y0127947D01*
X0181060Y0126748D02*
X0180636Y0126748D01*
X0179861Y0125550D02*
X0179438Y0125550D01*
X0178663Y0124351D02*
X0178239Y0124351D01*
X0177464Y0123153D02*
X0177041Y0123153D01*
X0176266Y0121954D02*
X0175842Y0121954D01*
X0175339Y0120756D02*
X0174644Y0120756D01*
X0174842Y0119557D02*
X0173445Y0119557D01*
X0173670Y0118359D02*
X0172247Y0118359D01*
X0175600Y0113500D02*
X0121600Y0113500D01*
X0119600Y0115500D01*
X0119600Y0157500D01*
X0126600Y0164500D01*
X0135600Y0164500D01*
X0139600Y0160500D01*
X0139600Y0133000D01*
X0132498Y0133000D01*
X0132498Y0128000D02*
X0125600Y0128000D01*
X0125600Y0121500D01*
X0127600Y0119500D01*
X0153600Y0119500D01*
X0166600Y0132500D01*
X0166600Y0190500D01*
X0156600Y0190500D02*
X0156600Y0135500D01*
X0144100Y0123000D01*
X0132498Y0123000D01*
X0124600Y0116500D02*
X0122600Y0118500D01*
X0122600Y0134500D01*
X0126100Y0138000D01*
X0132498Y0138000D01*
X0112600Y0129500D02*
X0106100Y0123000D01*
X0094801Y0123000D01*
X0086270Y0123153D02*
X0064400Y0123153D01*
X0064400Y0124351D02*
X0086270Y0124351D01*
X0086450Y0125550D02*
X0064167Y0125550D01*
X0062968Y0126748D02*
X0086270Y0126748D01*
X0086270Y0127947D02*
X0076401Y0127947D01*
X0075754Y0127300D02*
X0073800Y0127300D01*
X0073800Y0132300D01*
X0073800Y0132700D01*
X0073400Y0132700D01*
X0073400Y0137700D01*
X0071446Y0137700D01*
X0068400Y0134654D01*
X0068400Y0132700D01*
X0073400Y0132700D01*
X0073400Y0132300D01*
X0068400Y0132300D01*
X0068400Y0130346D01*
X0071446Y0127300D01*
X0073400Y0127300D01*
X0073400Y0132300D01*
X0073800Y0132300D01*
X0078800Y0132300D01*
X0078800Y0130346D01*
X0075754Y0127300D01*
X0073800Y0127947D02*
X0073400Y0127947D01*
X0073400Y0129145D02*
X0073800Y0129145D01*
X0073800Y0130344D02*
X0073400Y0130344D01*
X0073400Y0131542D02*
X0073800Y0131542D01*
X0073800Y0132700D02*
X0078800Y0132700D01*
X0078800Y0134654D01*
X0075754Y0137700D01*
X0073800Y0137700D01*
X0073800Y0132700D01*
X0073800Y0132741D02*
X0073400Y0132741D01*
X0073400Y0133939D02*
X0073800Y0133939D01*
X0073800Y0135138D02*
X0073400Y0135138D01*
X0073400Y0136336D02*
X0073800Y0136336D01*
X0073800Y0137535D02*
X0073400Y0137535D01*
X0074858Y0138733D02*
X0006861Y0138733D01*
X0006855Y0137535D02*
X0071281Y0137535D01*
X0070082Y0136336D02*
X0006850Y0136336D01*
X0006844Y0135138D02*
X0068884Y0135138D01*
X0068400Y0133939D02*
X0006838Y0133939D01*
X0006832Y0132741D02*
X0068400Y0132741D01*
X0068400Y0131542D02*
X0006826Y0131542D01*
X0006820Y0130344D02*
X0068402Y0130344D01*
X0069601Y0129145D02*
X0060571Y0129145D01*
X0061770Y0127947D02*
X0070799Y0127947D01*
X0077599Y0129145D02*
X0086270Y0129145D01*
X0086406Y0130344D02*
X0078798Y0130344D01*
X0078800Y0131542D02*
X0086270Y0131542D01*
X0086270Y0132741D02*
X0078800Y0132741D01*
X0078800Y0133939D02*
X0086270Y0133939D01*
X0086320Y0135138D02*
X0078316Y0135138D01*
X0077118Y0136336D02*
X0086817Y0136336D01*
X0087870Y0137535D02*
X0075919Y0137535D01*
X0073380Y0139932D02*
X0006867Y0139932D01*
X0006873Y0141130D02*
X0072181Y0141130D01*
X0070983Y0142329D02*
X0006879Y0142329D01*
X0006885Y0143527D02*
X0069784Y0143527D01*
X0069139Y0144726D02*
X0006891Y0144726D01*
X0006897Y0145924D02*
X0068800Y0145924D01*
X0068800Y0147123D02*
X0035422Y0147123D01*
X0035452Y0147135D02*
X0037365Y0149048D01*
X0037585Y0149580D01*
X0037634Y0149512D01*
X0038212Y0148934D01*
X0038875Y0148453D01*
X0039604Y0148081D01*
X0040382Y0147828D01*
X0041191Y0147700D01*
X0041400Y0147700D01*
X0041400Y0155300D01*
X0041800Y0155300D01*
X0041800Y0155700D01*
X0041400Y0155700D01*
X0041400Y0163300D01*
X0041191Y0163300D01*
X0040382Y0163172D01*
X0039604Y0162919D01*
X0038875Y0162547D01*
X0038212Y0162066D01*
X0037634Y0161488D01*
X0037585Y0161420D01*
X0037365Y0161952D01*
X0035452Y0163865D01*
X0032953Y0164900D01*
X0030247Y0164900D01*
X0027748Y0163865D01*
X0026600Y0162717D01*
X0025452Y0163865D01*
X0022953Y0164900D01*
X0020247Y0164900D01*
X0017748Y0163865D01*
X0015835Y0161952D01*
X0014800Y0159453D01*
X0014800Y0151547D01*
X0015835Y0149048D01*
X0017748Y0147135D01*
X0020247Y0146100D01*
X0022953Y0146100D01*
X0025452Y0147135D01*
X0026600Y0148283D01*
X0027748Y0147135D01*
X0030247Y0146100D01*
X0032953Y0146100D01*
X0035452Y0147135D01*
X0036638Y0148321D02*
X0039132Y0148321D01*
X0037628Y0149520D02*
X0037560Y0149520D01*
X0041400Y0149520D02*
X0041800Y0149520D01*
X0041800Y0150718D02*
X0041400Y0150718D01*
X0041400Y0151917D02*
X0041800Y0151917D01*
X0041800Y0153115D02*
X0041400Y0153115D01*
X0041400Y0154314D02*
X0041800Y0154314D01*
X0041800Y0155300D02*
X0041800Y0147700D01*
X0042009Y0147700D01*
X0042818Y0147828D01*
X0043596Y0148081D01*
X0044325Y0148453D01*
X0044988Y0148934D01*
X0045566Y0149512D01*
X0046047Y0150175D01*
X0046419Y0150904D01*
X0046672Y0151682D01*
X0046800Y0152491D01*
X0046800Y0155300D01*
X0041800Y0155300D01*
X0041800Y0155512D02*
X0063799Y0155512D01*
X0064998Y0154314D02*
X0046800Y0154314D01*
X0046800Y0153115D02*
X0066196Y0153115D01*
X0066800Y0151917D02*
X0046709Y0151917D01*
X0046324Y0150718D02*
X0066800Y0150718D01*
X0066963Y0149520D02*
X0045572Y0149520D01*
X0044068Y0148321D02*
X0068162Y0148321D01*
X0073600Y0146500D02*
X0073600Y0152500D01*
X0056600Y0169500D01*
X0056600Y0190500D01*
X0046984Y0191468D02*
X0046216Y0191468D01*
X0046216Y0190884D02*
X0046216Y0200700D01*
X0046181Y0200700D01*
X0045349Y0200590D01*
X0044538Y0200373D01*
X0043763Y0200052D01*
X0043037Y0199633D01*
X0042371Y0199122D01*
X0041778Y0198529D01*
X0041267Y0197863D01*
X0040848Y0197137D01*
X0040527Y0196362D01*
X0040310Y0195551D01*
X0040200Y0194719D01*
X0040200Y0190884D01*
X0046216Y0190884D01*
X0046216Y0190269D02*
X0034468Y0190269D01*
X0034468Y0189071D02*
X0040200Y0189071D01*
X0040200Y0190116D02*
X0040200Y0186281D01*
X0040310Y0185449D01*
X0040527Y0184638D01*
X0040848Y0183863D01*
X0041267Y0183137D01*
X0041778Y0182471D01*
X0042371Y0181878D01*
X0043037Y0181367D01*
X0043763Y0180948D01*
X0044538Y0180627D01*
X0045349Y0180410D01*
X0046181Y0180300D01*
X0046216Y0180300D01*
X0046216Y0190116D01*
X0040200Y0190116D01*
X0040200Y0191468D02*
X0034468Y0191468D01*
X0034468Y0192394D02*
X0033018Y0195893D01*
X0030340Y0198572D01*
X0026840Y0200021D01*
X0023053Y0200021D01*
X0019553Y0198572D01*
X0016875Y0195893D01*
X0015425Y0192394D01*
X0015425Y0188606D01*
X0016875Y0185107D01*
X0019553Y0182428D01*
X0023053Y0180979D01*
X0026840Y0180979D01*
X0030340Y0182428D01*
X0033018Y0185107D01*
X0034468Y0188606D01*
X0034468Y0192394D01*
X0034355Y0192666D02*
X0040200Y0192666D01*
X0040200Y0193865D02*
X0033858Y0193865D01*
X0033362Y0195063D02*
X0040245Y0195063D01*
X0040500Y0196262D02*
X0032650Y0196262D01*
X0031451Y0197460D02*
X0041035Y0197460D01*
X0041908Y0198659D02*
X0030130Y0198659D01*
X0027236Y0199857D02*
X0043426Y0199857D01*
X0046216Y0199857D02*
X0046984Y0199857D01*
X0046984Y0198659D02*
X0046216Y0198659D01*
X0046216Y0197460D02*
X0046984Y0197460D01*
X0046984Y0196262D02*
X0046216Y0196262D01*
X0046216Y0195063D02*
X0046984Y0195063D01*
X0046984Y0193865D02*
X0046216Y0193865D01*
X0046216Y0192666D02*
X0046984Y0192666D01*
X0046984Y0189071D02*
X0046216Y0189071D01*
X0046216Y0187872D02*
X0046984Y0187872D01*
X0046984Y0186674D02*
X0046216Y0186674D01*
X0046216Y0185475D02*
X0046984Y0185475D01*
X0046984Y0184277D02*
X0046216Y0184277D01*
X0046216Y0183078D02*
X0046984Y0183078D01*
X0046984Y0181880D02*
X0046216Y0181880D01*
X0046216Y0180681D02*
X0046984Y0180681D01*
X0048793Y0180681D02*
X0051305Y0180681D01*
X0051800Y0179483D02*
X0007062Y0179483D01*
X0007068Y0180681D02*
X0044407Y0180681D01*
X0042369Y0181880D02*
X0029015Y0181880D01*
X0030990Y0183078D02*
X0041312Y0183078D01*
X0040676Y0184277D02*
X0032188Y0184277D01*
X0033171Y0185475D02*
X0040306Y0185475D01*
X0040200Y0186674D02*
X0033667Y0186674D01*
X0034164Y0187872D02*
X0040200Y0187872D01*
X0051800Y0178284D02*
X0007056Y0178284D01*
X0007050Y0177086D02*
X0051800Y0177086D01*
X0051800Y0175887D02*
X0007044Y0175887D01*
X0007039Y0174689D02*
X0051800Y0174689D01*
X0051800Y0173490D02*
X0007033Y0173490D01*
X0007027Y0172292D02*
X0051800Y0172292D01*
X0051800Y0171093D02*
X0007021Y0171093D01*
X0007015Y0169895D02*
X0051800Y0169895D01*
X0051800Y0168696D02*
X0007009Y0168696D01*
X0007003Y0167498D02*
X0052234Y0167498D01*
X0053013Y0166299D02*
X0006997Y0166299D01*
X0006991Y0165101D02*
X0054211Y0165101D01*
X0055410Y0163902D02*
X0035362Y0163902D01*
X0036613Y0162703D02*
X0039181Y0162703D01*
X0037651Y0161505D02*
X0037550Y0161505D01*
X0041400Y0161505D02*
X0041800Y0161505D01*
X0041800Y0162703D02*
X0041400Y0162703D01*
X0041800Y0163300D02*
X0041800Y0155700D01*
X0046800Y0155700D01*
X0046800Y0158509D01*
X0046672Y0159318D01*
X0046419Y0160096D01*
X0046047Y0160825D01*
X0045566Y0161488D01*
X0044988Y0162066D01*
X0044325Y0162547D01*
X0043596Y0162919D01*
X0042818Y0163172D01*
X0042009Y0163300D01*
X0041800Y0163300D01*
X0044019Y0162703D02*
X0056608Y0162703D01*
X0057807Y0161505D02*
X0045549Y0161505D01*
X0046312Y0160306D02*
X0059005Y0160306D01*
X0060204Y0159108D02*
X0046705Y0159108D01*
X0046800Y0157909D02*
X0061402Y0157909D01*
X0062601Y0156711D02*
X0046800Y0156711D01*
X0041800Y0156711D02*
X0041400Y0156711D01*
X0041400Y0157909D02*
X0041800Y0157909D01*
X0041800Y0159108D02*
X0041400Y0159108D01*
X0041400Y0160306D02*
X0041800Y0160306D01*
X0027838Y0163902D02*
X0025362Y0163902D01*
X0017838Y0163902D02*
X0006985Y0163902D01*
X0006980Y0162703D02*
X0016587Y0162703D01*
X0015650Y0161505D02*
X0006974Y0161505D01*
X0006968Y0160306D02*
X0015154Y0160306D01*
X0014800Y0159108D02*
X0006962Y0159108D01*
X0006956Y0157909D02*
X0014800Y0157909D01*
X0014800Y0156711D02*
X0006950Y0156711D01*
X0006944Y0155512D02*
X0014800Y0155512D01*
X0014800Y0154314D02*
X0006938Y0154314D01*
X0006932Y0153115D02*
X0014800Y0153115D01*
X0014800Y0151917D02*
X0006926Y0151917D01*
X0006920Y0150718D02*
X0015143Y0150718D01*
X0015640Y0149520D02*
X0006915Y0149520D01*
X0006909Y0148321D02*
X0016562Y0148321D01*
X0017778Y0147123D02*
X0006903Y0147123D01*
X0025422Y0147123D02*
X0027778Y0147123D01*
X0041400Y0148321D02*
X0041800Y0148321D01*
X0054629Y0129145D02*
X0006814Y0129145D01*
X0006808Y0127947D02*
X0053430Y0127947D01*
X0052232Y0126748D02*
X0006802Y0126748D01*
X0006796Y0125550D02*
X0051033Y0125550D01*
X0050800Y0124351D02*
X0006791Y0124351D01*
X0006785Y0123153D02*
X0050800Y0123153D01*
X0050266Y0121954D02*
X0006779Y0121954D01*
X0006773Y0120756D02*
X0049067Y0120756D01*
X0047869Y0119557D02*
X0006767Y0119557D01*
X0006761Y0118359D02*
X0046670Y0118359D01*
X0045506Y0117160D02*
X0006755Y0117160D01*
X0006749Y0115962D02*
X0045010Y0115962D01*
X0044800Y0114763D02*
X0006743Y0114763D01*
X0006737Y0113565D02*
X0044800Y0113565D01*
X0044800Y0112366D02*
X0006731Y0112366D01*
X0006726Y0111168D02*
X0044800Y0111168D01*
X0044800Y0109969D02*
X0006720Y0109969D01*
X0006714Y0108770D02*
X0044800Y0108770D01*
X0044800Y0107572D02*
X0006708Y0107572D01*
X0006702Y0106373D02*
X0044800Y0106373D01*
X0044800Y0105175D02*
X0006696Y0105175D01*
X0006690Y0103976D02*
X0044800Y0103976D01*
X0044800Y0102778D02*
X0006684Y0102778D01*
X0006678Y0101579D02*
X0044800Y0101579D01*
X0044800Y0100381D02*
X0006672Y0100381D01*
X0006667Y0099182D02*
X0044800Y0099182D01*
X0044800Y0097984D02*
X0006661Y0097984D01*
X0006655Y0096785D02*
X0044800Y0096785D01*
X0044800Y0095587D02*
X0006649Y0095587D01*
X0006643Y0094388D02*
X0044800Y0094388D01*
X0044800Y0093190D02*
X0006637Y0093190D01*
X0006631Y0091991D02*
X0044800Y0091991D01*
X0044800Y0090793D02*
X0006625Y0090793D01*
X0006619Y0089594D02*
X0044800Y0089594D01*
X0044800Y0088396D02*
X0006613Y0088396D01*
X0006607Y0087197D02*
X0044800Y0087197D01*
X0044800Y0085999D02*
X0006602Y0085999D01*
X0006596Y0084800D02*
X0044800Y0084800D01*
X0044800Y0083602D02*
X0006590Y0083602D01*
X0006584Y0082403D02*
X0044800Y0082403D01*
X0044800Y0081205D02*
X0006578Y0081205D01*
X0006572Y0080006D02*
X0044800Y0080006D01*
X0044800Y0078808D02*
X0006566Y0078808D01*
X0006560Y0077609D02*
X0022172Y0077609D01*
X0023053Y0077974D02*
X0019553Y0076524D01*
X0016875Y0073846D01*
X0015425Y0070347D01*
X0015425Y0066559D01*
X0016875Y0063059D01*
X0019553Y0060381D01*
X0023053Y0058931D01*
X0026840Y0058931D01*
X0030340Y0060381D01*
X0033018Y0063059D01*
X0034468Y0066559D01*
X0034468Y0070347D01*
X0033018Y0073846D01*
X0030340Y0076524D01*
X0026840Y0077974D01*
X0023053Y0077974D01*
X0019439Y0076411D02*
X0006554Y0076411D01*
X0006548Y0075212D02*
X0018241Y0075212D01*
X0017042Y0074014D02*
X0006543Y0074014D01*
X0006537Y0072815D02*
X0016448Y0072815D01*
X0015951Y0071617D02*
X0006531Y0071617D01*
X0006525Y0070418D02*
X0015455Y0070418D01*
X0015425Y0069220D02*
X0006519Y0069220D01*
X0006513Y0068021D02*
X0015425Y0068021D01*
X0015425Y0066823D02*
X0006507Y0066823D01*
X0006501Y0065624D02*
X0015812Y0065624D01*
X0016309Y0064426D02*
X0006495Y0064426D01*
X0006489Y0063227D02*
X0016805Y0063227D01*
X0017906Y0062029D02*
X0006483Y0062029D01*
X0006478Y0060830D02*
X0019104Y0060830D01*
X0021363Y0059632D02*
X0006472Y0059632D01*
X0006466Y0058433D02*
X0044800Y0058433D01*
X0044800Y0057234D02*
X0006460Y0057234D01*
X0006454Y0056036D02*
X0044800Y0056036D01*
X0044800Y0054837D02*
X0006448Y0054837D01*
X0006442Y0053639D02*
X0044800Y0053639D01*
X0044800Y0052440D02*
X0006436Y0052440D01*
X0006430Y0051242D02*
X0044800Y0051242D01*
X0044800Y0050043D02*
X0006424Y0050043D01*
X0006419Y0048845D02*
X0015333Y0048845D01*
X0012123Y0047646D02*
X0006413Y0047646D01*
X0006407Y0046448D02*
X0009810Y0046448D01*
X0008144Y0045249D02*
X0006401Y0045249D01*
X0006395Y0044051D02*
X0006861Y0044051D01*
X0025927Y0048845D02*
X0044800Y0048845D01*
X0044800Y0047646D02*
X0029299Y0047646D01*
X0031292Y0046448D02*
X0044800Y0046448D01*
X0044800Y0045249D02*
X0032990Y0045249D01*
X0034560Y0044051D02*
X0045005Y0044051D01*
X0045501Y0042852D02*
X0035535Y0042852D01*
X0036510Y0041654D02*
X0046658Y0041654D01*
X0046466Y0040455D02*
X0037485Y0040455D01*
X0038180Y0039257D02*
X0045969Y0039257D01*
X0045825Y0038058D02*
X0038701Y0038058D01*
X0039221Y0036860D02*
X0045825Y0036860D01*
X0045825Y0035661D02*
X0039742Y0035661D01*
X0040118Y0034463D02*
X0045825Y0034463D01*
X0045825Y0033264D02*
X0040283Y0033264D01*
X0040447Y0032066D02*
X0045835Y0032066D01*
X0046332Y0030867D02*
X0040612Y0030867D01*
X0040777Y0029669D02*
X0047342Y0029669D01*
X0057858Y0029669D02*
X0058974Y0029669D01*
X0066226Y0029669D02*
X0068974Y0029669D01*
X0067652Y0030867D02*
X0067548Y0030867D01*
X0056760Y0046448D02*
X0055440Y0046448D01*
X0054400Y0047646D02*
X0096072Y0047646D01*
X0096014Y0048845D02*
X0054400Y0048845D01*
X0054400Y0050043D02*
X0096014Y0050043D01*
X0096014Y0051242D02*
X0054400Y0051242D01*
X0054400Y0052440D02*
X0096108Y0052440D01*
X0096014Y0053639D02*
X0054400Y0053639D01*
X0054400Y0054837D02*
X0096014Y0054837D01*
X0096014Y0056036D02*
X0054400Y0056036D01*
X0054400Y0057234D02*
X0096023Y0057234D01*
X0096014Y0058433D02*
X0054400Y0058433D01*
X0044800Y0059632D02*
X0028530Y0059632D01*
X0030789Y0060830D02*
X0044800Y0060830D01*
X0044800Y0062029D02*
X0031987Y0062029D01*
X0033088Y0063227D02*
X0044800Y0063227D01*
X0044800Y0064426D02*
X0033584Y0064426D01*
X0034080Y0065624D02*
X0044800Y0065624D01*
X0044800Y0066823D02*
X0034468Y0066823D01*
X0034468Y0068021D02*
X0044800Y0068021D01*
X0044800Y0069220D02*
X0034468Y0069220D01*
X0034438Y0070418D02*
X0044800Y0070418D01*
X0044800Y0071617D02*
X0033942Y0071617D01*
X0033445Y0072815D02*
X0044800Y0072815D01*
X0044800Y0074014D02*
X0032851Y0074014D01*
X0031652Y0075212D02*
X0044800Y0075212D01*
X0044800Y0076411D02*
X0030454Y0076411D01*
X0027721Y0077609D02*
X0044800Y0077609D01*
X0054400Y0089594D02*
X0167435Y0089594D01*
X0167957Y0090793D02*
X0054400Y0090793D01*
X0054400Y0091991D02*
X0169155Y0091991D01*
X0176725Y0108770D02*
X0181713Y0108770D01*
X0180514Y0109969D02*
X0178857Y0109969D01*
X0175600Y0113500D02*
X0179600Y0117500D01*
X0179600Y0118500D01*
X0229600Y0168500D01*
X0283600Y0168500D01*
X0277666Y0162703D02*
X0230592Y0162703D01*
X0229393Y0161505D02*
X0277086Y0161505D01*
X0276589Y0160306D02*
X0228195Y0160306D01*
X0226996Y0159108D02*
X0276431Y0159108D01*
X0276431Y0157909D02*
X0225798Y0157909D01*
X0224599Y0156711D02*
X0276582Y0156711D01*
X0277078Y0155512D02*
X0223401Y0155512D01*
X0222202Y0154314D02*
X0277648Y0154314D01*
X0278078Y0153115D02*
X0221004Y0153115D01*
X0219805Y0151917D02*
X0277256Y0151917D01*
X0276760Y0150718D02*
X0218607Y0150718D01*
X0217408Y0149520D02*
X0276431Y0149520D01*
X0276431Y0148321D02*
X0216210Y0148321D01*
X0215011Y0147123D02*
X0276431Y0147123D01*
X0276908Y0145924D02*
X0213813Y0145924D01*
X0212614Y0144726D02*
X0277404Y0144726D01*
X0278435Y0143527D02*
X0211416Y0143527D01*
X0210217Y0142329D02*
X0279766Y0142329D01*
X0334701Y0106373D02*
X0054400Y0106373D01*
X0054400Y0105175D02*
X0334701Y0105175D01*
X0334701Y0103976D02*
X0054400Y0103976D01*
X0054400Y0102778D02*
X0334701Y0102778D01*
X0334701Y0101579D02*
X0054400Y0101579D01*
X0054400Y0100381D02*
X0334701Y0100381D01*
X0334701Y0099182D02*
X0054400Y0099182D01*
X0054400Y0097984D02*
X0334701Y0097984D01*
X0334701Y0096785D02*
X0054400Y0096785D01*
X0054400Y0095587D02*
X0334701Y0095587D01*
X0334701Y0094388D02*
X0054400Y0094388D01*
X0054400Y0093190D02*
X0334701Y0093190D01*
X0334701Y0091991D02*
X0218873Y0091991D01*
X0220071Y0090793D02*
X0334701Y0090793D01*
X0334701Y0089594D02*
X0220593Y0089594D01*
X0220800Y0088396D02*
X0334701Y0088396D01*
X0334701Y0087197D02*
X0287371Y0087197D01*
X0287661Y0087077D02*
X0285026Y0088168D01*
X0282174Y0088168D01*
X0279539Y0087077D01*
X0277523Y0085061D01*
X0276431Y0082426D01*
X0276431Y0079574D01*
X0277523Y0076939D01*
X0279539Y0074923D01*
X0282174Y0073831D01*
X0285026Y0073831D01*
X0287661Y0074923D01*
X0289677Y0076939D01*
X0290768Y0079574D01*
X0290768Y0082426D01*
X0289677Y0085061D01*
X0287661Y0087077D01*
X0288739Y0085999D02*
X0334701Y0085999D01*
X0334701Y0084800D02*
X0289785Y0084800D01*
X0290281Y0083602D02*
X0334701Y0083602D01*
X0334701Y0082403D02*
X0290768Y0082403D01*
X0290768Y0081205D02*
X0334701Y0081205D01*
X0334701Y0080006D02*
X0290768Y0080006D01*
X0290451Y0078808D02*
X0334701Y0078808D01*
X0334701Y0077609D02*
X0322997Y0077609D01*
X0325729Y0076411D02*
X0334701Y0076411D01*
X0334701Y0075212D02*
X0326928Y0075212D01*
X0328126Y0074014D02*
X0334701Y0074014D01*
X0334701Y0072815D02*
X0328721Y0072815D01*
X0329637Y0071617D02*
X0334701Y0071617D01*
X0334701Y0070418D02*
X0331622Y0070418D01*
X0332434Y0069220D02*
X0334701Y0069220D01*
X0334701Y0068021D02*
X0332800Y0068021D01*
X0332800Y0066823D02*
X0334701Y0066823D01*
X0334701Y0065624D02*
X0332800Y0065624D01*
X0332800Y0064426D02*
X0334701Y0064426D01*
X0334701Y0063227D02*
X0332800Y0063227D01*
X0332800Y0062029D02*
X0334701Y0062029D01*
X0334701Y0060830D02*
X0332800Y0060830D01*
X0332800Y0059632D02*
X0334701Y0059632D01*
X0334701Y0058433D02*
X0332800Y0058433D01*
X0332800Y0057234D02*
X0334701Y0057234D01*
X0334701Y0056036D02*
X0332800Y0056036D01*
X0332800Y0054837D02*
X0334701Y0054837D01*
X0334701Y0053639D02*
X0332800Y0053639D01*
X0332800Y0052440D02*
X0334701Y0052440D01*
X0334701Y0051242D02*
X0332800Y0051242D01*
X0332800Y0050043D02*
X0334701Y0050043D01*
X0334701Y0048845D02*
X0333563Y0048845D01*
X0311723Y0072815D02*
X0219860Y0072815D01*
X0220311Y0074014D02*
X0281734Y0074014D01*
X0279250Y0075212D02*
X0220311Y0075212D01*
X0220703Y0076411D02*
X0278052Y0076411D01*
X0277245Y0077609D02*
X0220800Y0077609D01*
X0220800Y0078808D02*
X0276749Y0078808D01*
X0276431Y0080006D02*
X0220452Y0080006D01*
X0219875Y0081205D02*
X0276431Y0081205D01*
X0276431Y0082403D02*
X0220168Y0082403D01*
X0220745Y0083602D02*
X0276919Y0083602D01*
X0277415Y0084800D02*
X0220800Y0084800D01*
X0220800Y0085999D02*
X0278461Y0085999D01*
X0279829Y0087197D02*
X0220800Y0087197D01*
X0202583Y0091991D02*
X0200262Y0091991D01*
X0200061Y0071617D02*
X0202563Y0071617D01*
X0200578Y0070418D02*
X0197881Y0070418D01*
X0189252Y0057234D02*
X0179948Y0057234D01*
X0181146Y0056036D02*
X0188054Y0056036D01*
X0187172Y0054837D02*
X0182028Y0054837D01*
X0182524Y0053639D02*
X0186676Y0053639D01*
X0186300Y0052440D02*
X0182900Y0052440D01*
X0182900Y0051242D02*
X0186300Y0051242D01*
X0186300Y0050043D02*
X0182900Y0050043D01*
X0182900Y0048845D02*
X0186300Y0048845D01*
X0186300Y0047646D02*
X0182900Y0047646D01*
X0182900Y0046448D02*
X0186300Y0046448D01*
X0186300Y0045249D02*
X0182900Y0045249D01*
X0182900Y0044051D02*
X0186300Y0044051D01*
X0186721Y0042852D02*
X0182479Y0042852D01*
X0181983Y0041654D02*
X0187217Y0041654D01*
X0188162Y0040455D02*
X0181038Y0040455D01*
X0179839Y0039257D02*
X0189361Y0039257D01*
X0197639Y0039257D02*
X0199400Y0039257D01*
X0199400Y0040455D02*
X0198838Y0040455D01*
X0172254Y0032066D02*
X0167822Y0032066D01*
X0169021Y0030867D02*
X0170685Y0030867D01*
X0165600Y0027500D02*
X0158600Y0034500D01*
X0152600Y0034500D01*
X0146600Y0028500D01*
X0138900Y0028470D02*
X0128607Y0028470D01*
X0128607Y0027272D02*
X0138900Y0027272D01*
X0138900Y0026073D02*
X0128607Y0026073D01*
X0128607Y0024875D02*
X0139336Y0024875D01*
X0140534Y0023676D02*
X0128607Y0023676D01*
X0128607Y0022478D02*
X0141733Y0022478D01*
X0142931Y0021279D02*
X0139520Y0021279D01*
X0140357Y0020081D02*
X0160800Y0020081D01*
X0160800Y0021279D02*
X0150269Y0021279D01*
X0151467Y0022478D02*
X0153996Y0022478D01*
X0152797Y0023676D02*
X0152666Y0023676D01*
X0156400Y0023676D02*
X0156800Y0023676D01*
X0156800Y0022478D02*
X0156400Y0022478D01*
X0156400Y0024875D02*
X0156800Y0024875D01*
X0156800Y0026073D02*
X0156400Y0026073D01*
X0156400Y0027272D02*
X0156800Y0027272D01*
X0160403Y0023676D02*
X0160800Y0023676D01*
X0160800Y0022478D02*
X0159204Y0022478D01*
X0160800Y0018882D02*
X0140491Y0018882D01*
X0140491Y0017684D02*
X0160800Y0017684D01*
X0160800Y0016485D02*
X0140491Y0016485D01*
X0140491Y0014088D02*
X0160400Y0014088D01*
X0160800Y0015287D02*
X0134948Y0015287D01*
X0134948Y0016485D02*
X0133748Y0016485D01*
X0133748Y0015287D02*
X0103452Y0015287D01*
X0103452Y0016485D02*
X0102252Y0016485D01*
X0102252Y0017684D02*
X0103452Y0017684D01*
X0103452Y0018882D02*
X0102252Y0018882D01*
X0102252Y0020081D02*
X0103452Y0020081D01*
X0103452Y0021279D02*
X0102252Y0021279D01*
X0101400Y0022478D02*
X0110281Y0022478D01*
X0110193Y0023676D02*
X0101400Y0023676D01*
X0101400Y0024875D02*
X0110193Y0024875D01*
X0110193Y0026073D02*
X0101400Y0026073D01*
X0101400Y0027272D02*
X0110193Y0027272D01*
X0110193Y0028470D02*
X0101400Y0028470D01*
X0101400Y0029669D02*
X0110385Y0029669D01*
X0111373Y0030867D02*
X0101400Y0030867D01*
X0101400Y0032066D02*
X0112789Y0032066D01*
X0119205Y0033264D02*
X0101400Y0033264D01*
X0101400Y0034463D02*
X0119775Y0034463D01*
X0120973Y0035661D02*
X0101400Y0035661D01*
X0101400Y0036860D02*
X0122172Y0036860D01*
X0123370Y0038058D02*
X0104593Y0038058D01*
X0106318Y0039257D02*
X0124569Y0039257D01*
X0129600Y0037500D02*
X0123718Y0031618D01*
X0123718Y0025933D01*
X0128557Y0029669D02*
X0138900Y0029669D01*
X0138900Y0030867D02*
X0129755Y0030867D01*
X0130954Y0032066D02*
X0139276Y0032066D01*
X0140475Y0033264D02*
X0132152Y0033264D01*
X0133351Y0034463D02*
X0141673Y0034463D01*
X0142872Y0035661D02*
X0134034Y0035661D01*
X0134400Y0036860D02*
X0148172Y0036860D01*
X0149370Y0038058D02*
X0134400Y0038058D01*
X0134400Y0039257D02*
X0151541Y0039257D01*
X0165600Y0027500D02*
X0165600Y0012500D01*
X0159201Y0012890D02*
X0140491Y0012890D01*
X0140491Y0011691D02*
X0158003Y0011691D01*
X0134948Y0017684D02*
X0133748Y0017684D01*
X0133748Y0018882D02*
X0134948Y0018882D01*
X0134948Y0020081D02*
X0133748Y0020081D01*
X0133748Y0021279D02*
X0134948Y0021279D01*
X0129176Y0021279D02*
X0128167Y0021279D01*
X0128339Y0020081D02*
X0127250Y0020081D01*
X0128205Y0018882D02*
X0108995Y0018882D01*
X0108995Y0017684D02*
X0128205Y0017684D01*
X0128205Y0016485D02*
X0108995Y0016485D01*
X0108995Y0014088D02*
X0128205Y0014088D01*
X0128205Y0012890D02*
X0108995Y0012890D01*
X0108995Y0011691D02*
X0128205Y0011691D01*
X0112509Y0020081D02*
X0108861Y0020081D01*
X0108024Y0021279D02*
X0111014Y0021279D01*
X0129600Y0037500D02*
X0129600Y0045000D01*
X0124427Y0045000D01*
X0115600Y0045000D01*
X0124427Y0055000D02*
X0129100Y0055000D01*
X0131600Y0057500D01*
X0131600Y0080500D01*
X0124800Y0080006D02*
X0096800Y0080006D01*
X0096800Y0078808D02*
X0124800Y0078808D01*
X0124874Y0077609D02*
X0096063Y0077609D01*
X0096800Y0081205D02*
X0124800Y0081205D01*
X0124800Y0082403D02*
X0096800Y0082403D01*
X0095852Y0083602D02*
X0125085Y0083602D01*
X0126284Y0084800D02*
X0094654Y0084800D01*
X0091800Y0084800D02*
X0091400Y0084800D01*
X0091400Y0083602D02*
X0091800Y0083602D01*
X0091800Y0082403D02*
X0091400Y0082403D01*
X0091400Y0081205D02*
X0091800Y0081205D01*
X0091800Y0080006D02*
X0091400Y0080006D01*
X0091400Y0078808D02*
X0091800Y0078808D01*
X0091800Y0077609D02*
X0091400Y0077609D01*
X0087137Y0077609D02*
X0068659Y0077609D01*
X0069953Y0078808D02*
X0086400Y0078808D01*
X0086400Y0080006D02*
X0070725Y0080006D01*
X0071221Y0081205D02*
X0086400Y0081205D01*
X0086400Y0082403D02*
X0071289Y0082403D01*
X0071289Y0083602D02*
X0087348Y0083602D01*
X0088546Y0084800D02*
X0070805Y0084800D01*
X0070147Y0085999D02*
X0127482Y0085999D01*
X0128681Y0087197D02*
X0068948Y0087197D01*
X0107438Y0118359D02*
X0114800Y0118359D01*
X0114800Y0119557D02*
X0109445Y0119557D01*
X0110644Y0120756D02*
X0114800Y0120756D01*
X0114800Y0121954D02*
X0111842Y0121954D01*
X0113041Y0123153D02*
X0114800Y0123153D01*
X0114800Y0124351D02*
X0114239Y0124351D01*
X0112600Y0129500D02*
X0112600Y0164500D01*
X0125600Y0177500D01*
X0144600Y0177500D01*
X0146600Y0179500D01*
X0146600Y0190500D01*
X0142042Y0201056D02*
X0141158Y0201056D01*
X0138301Y0202254D02*
X0144899Y0202254D01*
X0148301Y0202254D02*
X0154899Y0202254D01*
X0152042Y0201056D02*
X0151158Y0201056D01*
X0158301Y0202254D02*
X0164899Y0202254D01*
X0162042Y0201056D02*
X0161158Y0201056D01*
X0168301Y0202254D02*
X0174899Y0202254D01*
X0172042Y0201056D02*
X0171158Y0201056D01*
X0178301Y0202254D02*
X0184899Y0202254D01*
X0182042Y0201056D02*
X0181158Y0201056D01*
X0188301Y0202254D02*
X0334701Y0202254D01*
X0334701Y0201056D02*
X0191158Y0201056D01*
X0192356Y0199857D02*
X0193426Y0199857D01*
X0196216Y0199857D02*
X0196984Y0199857D01*
X0196984Y0200700D02*
X0196984Y0190884D01*
X0203000Y0190884D01*
X0203000Y0194719D01*
X0202890Y0195551D01*
X0202673Y0196362D01*
X0202352Y0197137D01*
X0201933Y0197863D01*
X0201422Y0198529D01*
X0200829Y0199122D01*
X0200163Y0199633D01*
X0199437Y0200052D01*
X0198662Y0200373D01*
X0197851Y0200590D01*
X0197019Y0200700D01*
X0196984Y0200700D01*
X0196984Y0198659D02*
X0196216Y0198659D01*
X0196216Y0197460D02*
X0196984Y0197460D01*
X0196984Y0196262D02*
X0196216Y0196262D01*
X0196216Y0195063D02*
X0196984Y0195063D01*
X0196984Y0193865D02*
X0196216Y0193865D01*
X0196216Y0192666D02*
X0196984Y0192666D01*
X0196984Y0191468D02*
X0196216Y0191468D01*
X0196984Y0190269D02*
X0310701Y0190269D01*
X0310701Y0189071D02*
X0203000Y0189071D01*
X0203000Y0187872D02*
X0311005Y0187872D01*
X0310701Y0188606D02*
X0312150Y0185107D01*
X0314829Y0182428D01*
X0318328Y0180979D01*
X0322116Y0180979D01*
X0325615Y0182428D01*
X0328294Y0185107D01*
X0329743Y0188606D01*
X0329743Y0192394D01*
X0328294Y0195893D01*
X0325615Y0198572D01*
X0322116Y0200021D01*
X0318328Y0200021D01*
X0314829Y0198572D01*
X0312150Y0195893D01*
X0310701Y0192394D01*
X0310701Y0188606D01*
X0311501Y0186674D02*
X0203000Y0186674D01*
X0202894Y0185475D02*
X0311998Y0185475D01*
X0312980Y0184277D02*
X0202524Y0184277D01*
X0201888Y0183078D02*
X0278580Y0183078D01*
X0278062Y0181880D02*
X0200831Y0181880D01*
X0198793Y0180681D02*
X0278031Y0180681D01*
X0278031Y0179483D02*
X0190081Y0179483D01*
X0191895Y0180681D02*
X0194407Y0180681D01*
X0196216Y0180681D02*
X0196984Y0180681D01*
X0196984Y0181880D02*
X0196216Y0181880D01*
X0196216Y0183078D02*
X0196984Y0183078D01*
X0196984Y0184277D02*
X0196216Y0184277D01*
X0196216Y0185475D02*
X0196984Y0185475D01*
X0196984Y0186674D02*
X0196216Y0186674D01*
X0196216Y0187872D02*
X0196984Y0187872D01*
X0196984Y0189071D02*
X0196216Y0189071D01*
X0203000Y0191468D02*
X0310701Y0191468D01*
X0310814Y0192666D02*
X0203000Y0192666D01*
X0203000Y0193865D02*
X0311310Y0193865D01*
X0311806Y0195063D02*
X0202955Y0195063D01*
X0202700Y0196262D02*
X0312519Y0196262D01*
X0313717Y0197460D02*
X0202165Y0197460D01*
X0201292Y0198659D02*
X0315039Y0198659D01*
X0317932Y0199857D02*
X0199774Y0199857D01*
X0176600Y0190500D02*
X0176600Y0129500D01*
X0163600Y0116500D01*
X0124600Y0116500D01*
X0104600Y0131500D02*
X0101100Y0128000D01*
X0094801Y0128000D01*
X0094801Y0133000D02*
X0101600Y0133000D01*
X0101600Y0160500D01*
X0094600Y0167500D01*
X0089600Y0167500D01*
X0076600Y0180500D01*
X0076600Y0190500D01*
X0086216Y0190116D02*
X0086984Y0190116D01*
X0086984Y0180300D01*
X0087019Y0180300D01*
X0087851Y0180410D01*
X0088662Y0180627D01*
X0089437Y0180948D01*
X0090163Y0181367D01*
X0090421Y0181565D01*
X0091800Y0180186D01*
X0091800Y0176545D01*
X0092531Y0174781D01*
X0095012Y0172300D01*
X0093645Y0172300D01*
X0091588Y0172300D01*
X0082551Y0181337D01*
X0082779Y0181565D01*
X0083037Y0181367D01*
X0083763Y0180948D01*
X0084538Y0180627D01*
X0085349Y0180410D01*
X0086181Y0180300D01*
X0086216Y0180300D01*
X0086216Y0190116D01*
X0086216Y0189071D02*
X0086984Y0189071D01*
X0086984Y0187872D02*
X0086216Y0187872D01*
X0086216Y0186674D02*
X0086984Y0186674D01*
X0086984Y0185475D02*
X0086216Y0185475D01*
X0086216Y0184277D02*
X0086984Y0184277D01*
X0086984Y0183078D02*
X0086216Y0183078D01*
X0086216Y0181880D02*
X0086984Y0181880D01*
X0086984Y0180681D02*
X0086216Y0180681D01*
X0084407Y0180681D02*
X0083207Y0180681D01*
X0084406Y0179483D02*
X0091800Y0179483D01*
X0091800Y0178284D02*
X0085604Y0178284D01*
X0086803Y0177086D02*
X0091800Y0177086D01*
X0092073Y0175887D02*
X0088001Y0175887D01*
X0089200Y0174689D02*
X0092623Y0174689D01*
X0093822Y0173490D02*
X0090398Y0173490D01*
X0096600Y0177500D02*
X0104600Y0169500D01*
X0104600Y0131500D01*
X0088715Y0138000D02*
X0088714Y0138000D01*
X0088715Y0138000D01*
X0094801Y0143000D02*
X0077100Y0143000D01*
X0073600Y0146500D01*
X0080600Y0146500D02*
X0087100Y0153000D01*
X0094801Y0153000D01*
X0096600Y0177500D02*
X0096600Y0190500D01*
X0086984Y0191468D02*
X0086216Y0191468D01*
X0086216Y0192666D02*
X0086984Y0192666D01*
X0086984Y0193865D02*
X0086216Y0193865D01*
X0086216Y0195063D02*
X0086984Y0195063D01*
X0086984Y0196262D02*
X0086216Y0196262D01*
X0086216Y0197460D02*
X0086984Y0197460D01*
X0086984Y0198659D02*
X0086216Y0198659D01*
X0086216Y0199857D02*
X0086984Y0199857D01*
X0089774Y0199857D02*
X0090844Y0199857D01*
X0092042Y0201056D02*
X0081158Y0201056D01*
X0082356Y0199857D02*
X0083426Y0199857D01*
X0078301Y0202254D02*
X0094899Y0202254D01*
X0098301Y0202254D02*
X0104899Y0202254D01*
X0102042Y0201056D02*
X0101158Y0201056D01*
X0108301Y0202254D02*
X0114899Y0202254D01*
X0112042Y0201056D02*
X0111158Y0201056D01*
X0118301Y0202254D02*
X0124899Y0202254D01*
X0122042Y0201056D02*
X0121158Y0201056D01*
X0128301Y0202254D02*
X0134899Y0202254D01*
X0132042Y0201056D02*
X0131158Y0201056D01*
X0091305Y0180681D02*
X0088793Y0180681D01*
X0072042Y0201056D02*
X0071158Y0201056D01*
X0068301Y0202254D02*
X0074899Y0202254D01*
X0064899Y0202254D02*
X0058301Y0202254D01*
X0061158Y0201056D02*
X0062042Y0201056D01*
X0054899Y0202254D02*
X0007174Y0202254D01*
X0007168Y0201056D02*
X0052042Y0201056D01*
X0050844Y0199857D02*
X0049774Y0199857D01*
X0022657Y0199857D02*
X0007163Y0199857D01*
X0007157Y0198659D02*
X0019763Y0198659D01*
X0018442Y0197460D02*
X0007151Y0197460D01*
X0007145Y0196262D02*
X0017243Y0196262D01*
X0016531Y0195063D02*
X0007139Y0195063D01*
X0007133Y0193865D02*
X0016034Y0193865D01*
X0015538Y0192666D02*
X0007127Y0192666D01*
X0007121Y0191468D02*
X0015425Y0191468D01*
X0015425Y0190269D02*
X0007115Y0190269D01*
X0007109Y0189071D02*
X0015425Y0189071D01*
X0015729Y0187872D02*
X0007104Y0187872D01*
X0007098Y0186674D02*
X0016226Y0186674D01*
X0016722Y0185475D02*
X0007092Y0185475D01*
X0007086Y0184277D02*
X0017705Y0184277D01*
X0018903Y0183078D02*
X0007080Y0183078D01*
X0007074Y0181880D02*
X0020877Y0181880D01*
X0181400Y0179483D02*
X0183119Y0179483D01*
X0283216Y0180681D02*
X0283984Y0180681D01*
X0283984Y0181880D02*
X0283216Y0181880D01*
X0283216Y0183078D02*
X0283984Y0183078D01*
X0288620Y0183078D02*
X0314179Y0183078D01*
X0316153Y0181880D02*
X0289138Y0181880D01*
X0289168Y0180681D02*
X0334701Y0180681D01*
X0334701Y0179483D02*
X0289168Y0179483D01*
X0322512Y0199857D02*
X0334701Y0199857D01*
X0334701Y0198659D02*
X0325405Y0198659D01*
X0326727Y0197460D02*
X0334701Y0197460D01*
X0334701Y0196262D02*
X0327925Y0196262D01*
X0328638Y0195063D02*
X0334701Y0195063D01*
X0334701Y0193865D02*
X0329134Y0193865D01*
X0329630Y0192666D02*
X0334701Y0192666D01*
X0334701Y0191468D02*
X0329743Y0191468D01*
X0329743Y0190269D02*
X0334701Y0190269D01*
X0334701Y0189071D02*
X0329743Y0189071D01*
X0329439Y0187872D02*
X0334701Y0187872D01*
X0334701Y0186674D02*
X0328943Y0186674D01*
X0328446Y0185475D02*
X0334701Y0185475D01*
X0334701Y0184277D02*
X0327464Y0184277D01*
X0326265Y0183078D02*
X0334701Y0183078D01*
X0334701Y0181880D02*
X0324291Y0181880D01*
X0317447Y0077609D02*
X0289955Y0077609D01*
X0289148Y0076411D02*
X0314715Y0076411D01*
X0313516Y0075212D02*
X0287950Y0075212D01*
X0285466Y0074014D02*
X0312318Y0074014D01*
D27*
X0080600Y0146500D03*
X0065600Y0082500D03*
M02*
