G75*
%MOIN*%
%OFA0B0*%
%FSLAX25Y25*%
%IPPOS*%
%LPD*%
%AMOC8*
5,1,8,0,0,1.08239X$1,22.5*
%
%ADD10C,0.00600*%
%ADD11C,0.00060*%
%ADD12C,0.01200*%
%ADD13C,0.00400*%
%ADD14C,0.00200*%
%ADD15R,0.01300X0.03200*%
%ADD16R,0.02400X0.03400*%
%ADD17C,0.00500*%
%ADD18C,0.00300*%
%ADD19C,0.00800*%
%ADD20R,0.04200X0.00100*%
%ADD21R,0.04300X0.00100*%
%ADD22R,0.03900X0.00100*%
%ADD23R,0.04000X0.00100*%
%ADD24R,0.04100X0.00100*%
%ADD25R,0.04400X0.00100*%
%ADD26R,0.04500X0.00100*%
%ADD27R,0.04600X0.00100*%
%ADD28R,0.04700X0.00100*%
%ADD29R,0.04800X0.00100*%
%ADD30R,0.04900X0.00100*%
%ADD31R,0.05000X0.00100*%
%ADD32R,0.05100X0.00100*%
%ADD33R,0.05200X0.00100*%
%ADD34R,0.05300X0.00100*%
%ADD35R,0.05400X0.00100*%
%ADD36R,0.05500X0.00100*%
%ADD37R,0.05600X0.00100*%
%ADD38R,0.05700X0.00100*%
%ADD39R,0.05900X0.00100*%
%ADD40R,0.06000X0.00100*%
%ADD41R,0.05800X0.00100*%
%ADD42R,0.06200X0.00100*%
%ADD43R,0.10500X0.00100*%
%ADD44R,0.06100X0.00100*%
%ADD45R,0.16600X0.00100*%
%ADD46R,0.16400X0.00100*%
%ADD47R,0.16300X0.00100*%
%ADD48R,0.16200X0.00100*%
%ADD49R,0.16000X0.00100*%
%ADD50R,0.15900X0.00100*%
%ADD51R,0.15700X0.00100*%
%ADD52R,0.15500X0.00100*%
%ADD53R,0.15400X0.00100*%
%ADD54R,0.15200X0.00100*%
%ADD55R,0.15000X0.00100*%
%ADD56R,0.14800X0.00100*%
%ADD57R,0.14700X0.00100*%
%ADD58R,0.14500X0.00100*%
%ADD59R,0.14300X0.00100*%
%ADD60R,0.14100X0.00100*%
%ADD61R,0.14000X0.00100*%
%ADD62R,0.13700X0.00100*%
%ADD63R,0.13500X0.00100*%
%ADD64R,0.13300X0.00100*%
%ADD65R,0.13000X0.00100*%
%ADD66R,0.12800X0.00100*%
%ADD67R,0.12600X0.00100*%
%ADD68R,0.12400X0.00100*%
%ADD69R,0.12100X0.00100*%
%ADD70R,0.11800X0.00100*%
%ADD71R,0.11600X0.00100*%
%ADD72R,0.11300X0.00100*%
%ADD73R,0.11000X0.00100*%
%ADD74R,0.10700X0.00100*%
%ADD75R,0.10400X0.00100*%
%ADD76R,0.10000X0.00100*%
%ADD77R,0.09700X0.00100*%
%ADD78R,0.09300X0.00100*%
%ADD79R,0.08900X0.00100*%
%ADD80R,0.08500X0.00100*%
%ADD81R,0.08100X0.00100*%
%ADD82R,0.07600X0.00100*%
%ADD83R,0.07200X0.00100*%
%ADD84R,0.06600X0.00100*%
%ADD85R,0.19700X0.00100*%
%ADD86R,0.06300X0.00100*%
%ADD87R,0.06900X0.00100*%
%ADD88R,0.07400X0.00100*%
%ADD89R,0.08000X0.00100*%
%ADD90R,0.08300X0.00100*%
%ADD91R,0.08700X0.00100*%
%ADD92R,0.09100X0.00100*%
%ADD93R,0.09500X0.00100*%
%ADD94R,0.09900X0.00100*%
%ADD95R,0.10300X0.00100*%
%ADD96R,0.10900X0.00100*%
%ADD97R,0.11100X0.00100*%
%ADD98R,0.11400X0.00100*%
%ADD99R,0.11700X0.00100*%
%ADD100R,0.12000X0.00100*%
%ADD101R,0.12200X0.00100*%
%ADD102R,0.12500X0.00100*%
%ADD103R,0.12700X0.00100*%
%ADD104R,0.13200X0.00100*%
%ADD105R,0.13400X0.00100*%
%ADD106R,0.13600X0.00100*%
%ADD107R,0.13900X0.00100*%
%ADD108R,0.14400X0.00100*%
%ADD109R,0.14600X0.00100*%
%ADD110R,0.14900X0.00100*%
%ADD111R,0.15100X0.00100*%
%ADD112R,0.15300X0.00100*%
%ADD113R,0.15600X0.00100*%
%ADD114R,0.16500X0.00100*%
%ADD115R,0.03400X0.02400*%
D10*
X0007100Y0029500D02*
X0007104Y0029831D01*
X0007116Y0030162D01*
X0007137Y0030493D01*
X0007165Y0030823D01*
X0007202Y0031153D01*
X0007246Y0031481D01*
X0007299Y0031808D01*
X0007359Y0032134D01*
X0007428Y0032458D01*
X0007505Y0032780D01*
X0007589Y0033101D01*
X0007681Y0033419D01*
X0007781Y0033735D01*
X0007889Y0034048D01*
X0008005Y0034359D01*
X0008128Y0034666D01*
X0008258Y0034971D01*
X0008396Y0035272D01*
X0008541Y0035570D01*
X0008694Y0035864D01*
X0008854Y0036154D01*
X0009021Y0036440D01*
X0009194Y0036722D01*
X0009375Y0037000D01*
X0009563Y0037273D01*
X0009757Y0037542D01*
X0009957Y0037806D01*
X0010164Y0038064D01*
X0010378Y0038318D01*
X0010597Y0038566D01*
X0010823Y0038809D01*
X0011054Y0039046D01*
X0011291Y0039277D01*
X0011534Y0039503D01*
X0011782Y0039722D01*
X0012036Y0039936D01*
X0012294Y0040143D01*
X0012558Y0040343D01*
X0012827Y0040537D01*
X0013100Y0040725D01*
X0013378Y0040906D01*
X0013660Y0041079D01*
X0013946Y0041246D01*
X0014236Y0041406D01*
X0014530Y0041559D01*
X0014828Y0041704D01*
X0015129Y0041842D01*
X0015434Y0041972D01*
X0015741Y0042095D01*
X0016052Y0042211D01*
X0016365Y0042319D01*
X0016681Y0042419D01*
X0016999Y0042511D01*
X0017320Y0042595D01*
X0017642Y0042672D01*
X0017966Y0042741D01*
X0018292Y0042801D01*
X0018619Y0042854D01*
X0018947Y0042898D01*
X0019277Y0042935D01*
X0019607Y0042963D01*
X0019938Y0042984D01*
X0020269Y0042996D01*
X0020600Y0043000D01*
X0020931Y0042996D01*
X0021262Y0042984D01*
X0021593Y0042963D01*
X0021923Y0042935D01*
X0022253Y0042898D01*
X0022581Y0042854D01*
X0022908Y0042801D01*
X0023234Y0042741D01*
X0023558Y0042672D01*
X0023880Y0042595D01*
X0024201Y0042511D01*
X0024519Y0042419D01*
X0024835Y0042319D01*
X0025148Y0042211D01*
X0025459Y0042095D01*
X0025766Y0041972D01*
X0026071Y0041842D01*
X0026372Y0041704D01*
X0026670Y0041559D01*
X0026964Y0041406D01*
X0027254Y0041246D01*
X0027540Y0041079D01*
X0027822Y0040906D01*
X0028100Y0040725D01*
X0028373Y0040537D01*
X0028642Y0040343D01*
X0028906Y0040143D01*
X0029164Y0039936D01*
X0029418Y0039722D01*
X0029666Y0039503D01*
X0029909Y0039277D01*
X0030146Y0039046D01*
X0030377Y0038809D01*
X0030603Y0038566D01*
X0030822Y0038318D01*
X0031036Y0038064D01*
X0031243Y0037806D01*
X0031443Y0037542D01*
X0031637Y0037273D01*
X0031825Y0037000D01*
X0032006Y0036722D01*
X0032179Y0036440D01*
X0032346Y0036154D01*
X0032506Y0035864D01*
X0032659Y0035570D01*
X0032804Y0035272D01*
X0032942Y0034971D01*
X0033072Y0034666D01*
X0033195Y0034359D01*
X0033311Y0034048D01*
X0033419Y0033735D01*
X0033519Y0033419D01*
X0033611Y0033101D01*
X0033695Y0032780D01*
X0033772Y0032458D01*
X0033841Y0032134D01*
X0033901Y0031808D01*
X0033954Y0031481D01*
X0033998Y0031153D01*
X0034035Y0030823D01*
X0034063Y0030493D01*
X0034084Y0030162D01*
X0034096Y0029831D01*
X0034100Y0029500D01*
X0034096Y0029169D01*
X0034084Y0028838D01*
X0034063Y0028507D01*
X0034035Y0028177D01*
X0033998Y0027847D01*
X0033954Y0027519D01*
X0033901Y0027192D01*
X0033841Y0026866D01*
X0033772Y0026542D01*
X0033695Y0026220D01*
X0033611Y0025899D01*
X0033519Y0025581D01*
X0033419Y0025265D01*
X0033311Y0024952D01*
X0033195Y0024641D01*
X0033072Y0024334D01*
X0032942Y0024029D01*
X0032804Y0023728D01*
X0032659Y0023430D01*
X0032506Y0023136D01*
X0032346Y0022846D01*
X0032179Y0022560D01*
X0032006Y0022278D01*
X0031825Y0022000D01*
X0031637Y0021727D01*
X0031443Y0021458D01*
X0031243Y0021194D01*
X0031036Y0020936D01*
X0030822Y0020682D01*
X0030603Y0020434D01*
X0030377Y0020191D01*
X0030146Y0019954D01*
X0029909Y0019723D01*
X0029666Y0019497D01*
X0029418Y0019278D01*
X0029164Y0019064D01*
X0028906Y0018857D01*
X0028642Y0018657D01*
X0028373Y0018463D01*
X0028100Y0018275D01*
X0027822Y0018094D01*
X0027540Y0017921D01*
X0027254Y0017754D01*
X0026964Y0017594D01*
X0026670Y0017441D01*
X0026372Y0017296D01*
X0026071Y0017158D01*
X0025766Y0017028D01*
X0025459Y0016905D01*
X0025148Y0016789D01*
X0024835Y0016681D01*
X0024519Y0016581D01*
X0024201Y0016489D01*
X0023880Y0016405D01*
X0023558Y0016328D01*
X0023234Y0016259D01*
X0022908Y0016199D01*
X0022581Y0016146D01*
X0022253Y0016102D01*
X0021923Y0016065D01*
X0021593Y0016037D01*
X0021262Y0016016D01*
X0020931Y0016004D01*
X0020600Y0016000D01*
X0020269Y0016004D01*
X0019938Y0016016D01*
X0019607Y0016037D01*
X0019277Y0016065D01*
X0018947Y0016102D01*
X0018619Y0016146D01*
X0018292Y0016199D01*
X0017966Y0016259D01*
X0017642Y0016328D01*
X0017320Y0016405D01*
X0016999Y0016489D01*
X0016681Y0016581D01*
X0016365Y0016681D01*
X0016052Y0016789D01*
X0015741Y0016905D01*
X0015434Y0017028D01*
X0015129Y0017158D01*
X0014828Y0017296D01*
X0014530Y0017441D01*
X0014236Y0017594D01*
X0013946Y0017754D01*
X0013660Y0017921D01*
X0013378Y0018094D01*
X0013100Y0018275D01*
X0012827Y0018463D01*
X0012558Y0018657D01*
X0012294Y0018857D01*
X0012036Y0019064D01*
X0011782Y0019278D01*
X0011534Y0019497D01*
X0011291Y0019723D01*
X0011054Y0019954D01*
X0010823Y0020191D01*
X0010597Y0020434D01*
X0010378Y0020682D01*
X0010164Y0020936D01*
X0009957Y0021194D01*
X0009757Y0021458D01*
X0009563Y0021727D01*
X0009375Y0022000D01*
X0009194Y0022278D01*
X0009021Y0022560D01*
X0008854Y0022846D01*
X0008694Y0023136D01*
X0008541Y0023430D01*
X0008396Y0023728D01*
X0008258Y0024029D01*
X0008128Y0024334D01*
X0008005Y0024641D01*
X0007889Y0024952D01*
X0007781Y0025265D01*
X0007681Y0025581D01*
X0007589Y0025899D01*
X0007505Y0026220D01*
X0007428Y0026542D01*
X0007359Y0026866D01*
X0007299Y0027192D01*
X0007246Y0027519D01*
X0007202Y0027847D01*
X0007165Y0028177D01*
X0007137Y0028507D01*
X0007116Y0028838D01*
X0007104Y0029169D01*
X0007100Y0029500D01*
X0099100Y0077000D02*
X0099100Y0084000D01*
X0099102Y0084060D01*
X0099107Y0084121D01*
X0099116Y0084180D01*
X0099129Y0084239D01*
X0099145Y0084298D01*
X0099165Y0084355D01*
X0099188Y0084410D01*
X0099215Y0084465D01*
X0099244Y0084517D01*
X0099277Y0084568D01*
X0099313Y0084617D01*
X0099351Y0084663D01*
X0099393Y0084707D01*
X0099437Y0084749D01*
X0099483Y0084787D01*
X0099532Y0084823D01*
X0099583Y0084856D01*
X0099635Y0084885D01*
X0099690Y0084912D01*
X0099745Y0084935D01*
X0099802Y0084955D01*
X0099861Y0084971D01*
X0099920Y0084984D01*
X0099979Y0084993D01*
X0100040Y0084998D01*
X0100100Y0085000D01*
X0101600Y0085000D01*
X0102100Y0084500D01*
X0121100Y0084500D01*
X0121600Y0085000D01*
X0123100Y0085000D01*
X0123160Y0084998D01*
X0123221Y0084993D01*
X0123280Y0084984D01*
X0123339Y0084971D01*
X0123398Y0084955D01*
X0123455Y0084935D01*
X0123510Y0084912D01*
X0123565Y0084885D01*
X0123617Y0084856D01*
X0123668Y0084823D01*
X0123717Y0084787D01*
X0123763Y0084749D01*
X0123807Y0084707D01*
X0123849Y0084663D01*
X0123887Y0084617D01*
X0123923Y0084568D01*
X0123956Y0084517D01*
X0123985Y0084465D01*
X0124012Y0084410D01*
X0124035Y0084355D01*
X0124055Y0084298D01*
X0124071Y0084239D01*
X0124084Y0084180D01*
X0124093Y0084121D01*
X0124098Y0084060D01*
X0124100Y0084000D01*
X0124100Y0077000D01*
X0124098Y0076940D01*
X0124093Y0076879D01*
X0124084Y0076820D01*
X0124071Y0076761D01*
X0124055Y0076702D01*
X0124035Y0076645D01*
X0124012Y0076590D01*
X0123985Y0076535D01*
X0123956Y0076483D01*
X0123923Y0076432D01*
X0123887Y0076383D01*
X0123849Y0076337D01*
X0123807Y0076293D01*
X0123763Y0076251D01*
X0123717Y0076213D01*
X0123668Y0076177D01*
X0123617Y0076144D01*
X0123565Y0076115D01*
X0123510Y0076088D01*
X0123455Y0076065D01*
X0123398Y0076045D01*
X0123339Y0076029D01*
X0123280Y0076016D01*
X0123221Y0076007D01*
X0123160Y0076002D01*
X0123100Y0076000D01*
X0121600Y0076000D01*
X0121100Y0076500D01*
X0102100Y0076500D01*
X0101600Y0076000D01*
X0100100Y0076000D01*
X0100040Y0076002D01*
X0099979Y0076007D01*
X0099920Y0076016D01*
X0099861Y0076029D01*
X0099802Y0076045D01*
X0099745Y0076065D01*
X0099690Y0076088D01*
X0099635Y0076115D01*
X0099583Y0076144D01*
X0099532Y0076177D01*
X0099483Y0076213D01*
X0099437Y0076251D01*
X0099393Y0076293D01*
X0099351Y0076337D01*
X0099313Y0076383D01*
X0099277Y0076432D01*
X0099244Y0076483D01*
X0099215Y0076535D01*
X0099188Y0076590D01*
X0099165Y0076645D01*
X0099145Y0076702D01*
X0099129Y0076761D01*
X0099116Y0076820D01*
X0099107Y0076879D01*
X0099102Y0076940D01*
X0099100Y0077000D01*
X0062100Y0091000D02*
X0062100Y0092500D01*
X0061600Y0093000D01*
X0061600Y0112000D01*
X0062100Y0112500D01*
X0062100Y0114000D01*
X0062098Y0114060D01*
X0062093Y0114121D01*
X0062084Y0114180D01*
X0062071Y0114239D01*
X0062055Y0114298D01*
X0062035Y0114355D01*
X0062012Y0114410D01*
X0061985Y0114465D01*
X0061956Y0114517D01*
X0061923Y0114568D01*
X0061887Y0114617D01*
X0061849Y0114663D01*
X0061807Y0114707D01*
X0061763Y0114749D01*
X0061717Y0114787D01*
X0061668Y0114823D01*
X0061617Y0114856D01*
X0061565Y0114885D01*
X0061510Y0114912D01*
X0061455Y0114935D01*
X0061398Y0114955D01*
X0061339Y0114971D01*
X0061280Y0114984D01*
X0061221Y0114993D01*
X0061160Y0114998D01*
X0061100Y0115000D01*
X0054100Y0115000D01*
X0054040Y0114998D01*
X0053979Y0114993D01*
X0053920Y0114984D01*
X0053861Y0114971D01*
X0053802Y0114955D01*
X0053745Y0114935D01*
X0053690Y0114912D01*
X0053635Y0114885D01*
X0053583Y0114856D01*
X0053532Y0114823D01*
X0053483Y0114787D01*
X0053437Y0114749D01*
X0053393Y0114707D01*
X0053351Y0114663D01*
X0053313Y0114617D01*
X0053277Y0114568D01*
X0053244Y0114517D01*
X0053215Y0114465D01*
X0053188Y0114410D01*
X0053165Y0114355D01*
X0053145Y0114298D01*
X0053129Y0114239D01*
X0053116Y0114180D01*
X0053107Y0114121D01*
X0053102Y0114060D01*
X0053100Y0114000D01*
X0053100Y0112500D01*
X0053600Y0112000D01*
X0053600Y0093000D01*
X0053100Y0092500D01*
X0053100Y0091000D01*
X0053102Y0090940D01*
X0053107Y0090879D01*
X0053116Y0090820D01*
X0053129Y0090761D01*
X0053145Y0090702D01*
X0053165Y0090645D01*
X0053188Y0090590D01*
X0053215Y0090535D01*
X0053244Y0090483D01*
X0053277Y0090432D01*
X0053313Y0090383D01*
X0053351Y0090337D01*
X0053393Y0090293D01*
X0053437Y0090251D01*
X0053483Y0090213D01*
X0053532Y0090177D01*
X0053583Y0090144D01*
X0053635Y0090115D01*
X0053690Y0090088D01*
X0053745Y0090065D01*
X0053802Y0090045D01*
X0053861Y0090029D01*
X0053920Y0090016D01*
X0053979Y0090007D01*
X0054040Y0090002D01*
X0054100Y0090000D01*
X0061100Y0090000D01*
X0061160Y0090002D01*
X0061221Y0090007D01*
X0061280Y0090016D01*
X0061339Y0090029D01*
X0061398Y0090045D01*
X0061455Y0090065D01*
X0061510Y0090088D01*
X0061565Y0090115D01*
X0061617Y0090144D01*
X0061668Y0090177D01*
X0061717Y0090213D01*
X0061763Y0090251D01*
X0061807Y0090293D01*
X0061849Y0090337D01*
X0061887Y0090383D01*
X0061923Y0090432D01*
X0061956Y0090483D01*
X0061985Y0090535D01*
X0062012Y0090590D01*
X0062035Y0090645D01*
X0062055Y0090702D01*
X0062071Y0090761D01*
X0062084Y0090820D01*
X0062093Y0090879D01*
X0062098Y0090940D01*
X0062100Y0091000D01*
X0069100Y0136000D02*
X0069100Y0149000D01*
X0073600Y0147500D02*
X0073600Y0143700D01*
X0073600Y0141200D02*
X0073600Y0137500D01*
X0078100Y0136000D02*
X0078100Y0149000D01*
X0044100Y0150000D02*
X0044100Y0146800D01*
X0019100Y0146800D01*
X0019100Y0150000D01*
X0020600Y0150000D02*
X0026600Y0150000D01*
X0026600Y0148500D01*
X0026100Y0148000D01*
X0026100Y0152000D01*
X0026600Y0151500D01*
X0026600Y0150000D01*
X0028100Y0150000D01*
X0027600Y0150500D01*
X0027100Y0151000D01*
X0026600Y0151500D01*
X0027100Y0151000D02*
X0027100Y0149000D01*
X0027600Y0149500D01*
X0027600Y0150500D01*
X0028100Y0150000D02*
X0027600Y0149500D01*
X0027100Y0149000D02*
X0026600Y0148500D01*
X0019100Y0161000D02*
X0019100Y0163500D01*
X0044100Y0163500D01*
X0044100Y0161000D01*
X0181100Y0146000D02*
X0181100Y0144500D01*
X0181600Y0144000D01*
X0181600Y0125000D01*
X0181100Y0124500D01*
X0181100Y0123000D01*
X0181102Y0122940D01*
X0181107Y0122879D01*
X0181116Y0122820D01*
X0181129Y0122761D01*
X0181145Y0122702D01*
X0181165Y0122645D01*
X0181188Y0122590D01*
X0181215Y0122535D01*
X0181244Y0122483D01*
X0181277Y0122432D01*
X0181313Y0122383D01*
X0181351Y0122337D01*
X0181393Y0122293D01*
X0181437Y0122251D01*
X0181483Y0122213D01*
X0181532Y0122177D01*
X0181583Y0122144D01*
X0181635Y0122115D01*
X0181690Y0122088D01*
X0181745Y0122065D01*
X0181802Y0122045D01*
X0181861Y0122029D01*
X0181920Y0122016D01*
X0181979Y0122007D01*
X0182040Y0122002D01*
X0182100Y0122000D01*
X0189100Y0122000D01*
X0189160Y0122002D01*
X0189221Y0122007D01*
X0189280Y0122016D01*
X0189339Y0122029D01*
X0189398Y0122045D01*
X0189455Y0122065D01*
X0189510Y0122088D01*
X0189565Y0122115D01*
X0189617Y0122144D01*
X0189668Y0122177D01*
X0189717Y0122213D01*
X0189763Y0122251D01*
X0189807Y0122293D01*
X0189849Y0122337D01*
X0189887Y0122383D01*
X0189923Y0122432D01*
X0189956Y0122483D01*
X0189985Y0122535D01*
X0190012Y0122590D01*
X0190035Y0122645D01*
X0190055Y0122702D01*
X0190071Y0122761D01*
X0190084Y0122820D01*
X0190093Y0122879D01*
X0190098Y0122940D01*
X0190100Y0123000D01*
X0190100Y0124500D01*
X0189600Y0125000D01*
X0189600Y0144000D01*
X0190100Y0144500D01*
X0190100Y0146000D01*
X0190098Y0146060D01*
X0190093Y0146121D01*
X0190084Y0146180D01*
X0190071Y0146239D01*
X0190055Y0146298D01*
X0190035Y0146355D01*
X0190012Y0146410D01*
X0189985Y0146465D01*
X0189956Y0146517D01*
X0189923Y0146568D01*
X0189887Y0146617D01*
X0189849Y0146663D01*
X0189807Y0146707D01*
X0189763Y0146749D01*
X0189717Y0146787D01*
X0189668Y0146823D01*
X0189617Y0146856D01*
X0189565Y0146885D01*
X0189510Y0146912D01*
X0189455Y0146935D01*
X0189398Y0146955D01*
X0189339Y0146971D01*
X0189280Y0146984D01*
X0189221Y0146993D01*
X0189160Y0146998D01*
X0189100Y0147000D01*
X0182100Y0147000D01*
X0182040Y0146998D01*
X0181979Y0146993D01*
X0181920Y0146984D01*
X0181861Y0146971D01*
X0181802Y0146955D01*
X0181745Y0146935D01*
X0181690Y0146912D01*
X0181635Y0146885D01*
X0181583Y0146856D01*
X0181532Y0146823D01*
X0181483Y0146787D01*
X0181437Y0146749D01*
X0181393Y0146707D01*
X0181351Y0146663D01*
X0181313Y0146617D01*
X0181277Y0146568D01*
X0181244Y0146517D01*
X0181215Y0146465D01*
X0181188Y0146410D01*
X0181165Y0146355D01*
X0181145Y0146298D01*
X0181129Y0146239D01*
X0181116Y0146180D01*
X0181107Y0146121D01*
X0181102Y0146060D01*
X0181100Y0146000D01*
X0181600Y0048500D02*
X0181600Y0047500D01*
X0180600Y0047500D01*
X0181600Y0048500D02*
X0187600Y0048500D01*
X0187600Y0047500D01*
X0188600Y0047500D01*
X0196600Y0044000D02*
X0196600Y0040000D01*
X0196600Y0030500D01*
X0196600Y0027000D01*
X0188600Y0023500D02*
X0187600Y0023500D01*
X0187600Y0022500D01*
X0181600Y0022500D01*
X0181600Y0023500D01*
X0180600Y0023500D01*
X0172600Y0027000D02*
X0172600Y0030500D01*
X0172600Y0040500D01*
X0172600Y0044000D01*
X0183600Y0035500D02*
X0183602Y0035563D01*
X0183608Y0035625D01*
X0183618Y0035687D01*
X0183631Y0035749D01*
X0183649Y0035809D01*
X0183670Y0035868D01*
X0183695Y0035926D01*
X0183724Y0035982D01*
X0183756Y0036036D01*
X0183791Y0036088D01*
X0183829Y0036137D01*
X0183871Y0036185D01*
X0183915Y0036229D01*
X0183963Y0036271D01*
X0184012Y0036309D01*
X0184064Y0036344D01*
X0184118Y0036376D01*
X0184174Y0036405D01*
X0184232Y0036430D01*
X0184291Y0036451D01*
X0184351Y0036469D01*
X0184413Y0036482D01*
X0184475Y0036492D01*
X0184537Y0036498D01*
X0184600Y0036500D01*
X0184663Y0036498D01*
X0184725Y0036492D01*
X0184787Y0036482D01*
X0184849Y0036469D01*
X0184909Y0036451D01*
X0184968Y0036430D01*
X0185026Y0036405D01*
X0185082Y0036376D01*
X0185136Y0036344D01*
X0185188Y0036309D01*
X0185237Y0036271D01*
X0185285Y0036229D01*
X0185329Y0036185D01*
X0185371Y0036137D01*
X0185409Y0036088D01*
X0185444Y0036036D01*
X0185476Y0035982D01*
X0185505Y0035926D01*
X0185530Y0035868D01*
X0185551Y0035809D01*
X0185569Y0035749D01*
X0185582Y0035687D01*
X0185592Y0035625D01*
X0185598Y0035563D01*
X0185600Y0035500D01*
X0185598Y0035437D01*
X0185592Y0035375D01*
X0185582Y0035313D01*
X0185569Y0035251D01*
X0185551Y0035191D01*
X0185530Y0035132D01*
X0185505Y0035074D01*
X0185476Y0035018D01*
X0185444Y0034964D01*
X0185409Y0034912D01*
X0185371Y0034863D01*
X0185329Y0034815D01*
X0185285Y0034771D01*
X0185237Y0034729D01*
X0185188Y0034691D01*
X0185136Y0034656D01*
X0185082Y0034624D01*
X0185026Y0034595D01*
X0184968Y0034570D01*
X0184909Y0034549D01*
X0184849Y0034531D01*
X0184787Y0034518D01*
X0184725Y0034508D01*
X0184663Y0034502D01*
X0184600Y0034500D01*
X0184537Y0034502D01*
X0184475Y0034508D01*
X0184413Y0034518D01*
X0184351Y0034531D01*
X0184291Y0034549D01*
X0184232Y0034570D01*
X0184174Y0034595D01*
X0184118Y0034624D01*
X0184064Y0034656D01*
X0184012Y0034691D01*
X0183963Y0034729D01*
X0183915Y0034771D01*
X0183871Y0034815D01*
X0183829Y0034863D01*
X0183791Y0034912D01*
X0183756Y0034964D01*
X0183724Y0035018D01*
X0183695Y0035074D01*
X0183670Y0035132D01*
X0183649Y0035191D01*
X0183631Y0035251D01*
X0183618Y0035313D01*
X0183608Y0035375D01*
X0183602Y0035437D01*
X0183600Y0035500D01*
X0177600Y0035500D02*
X0177602Y0035672D01*
X0177608Y0035843D01*
X0177619Y0036015D01*
X0177634Y0036186D01*
X0177653Y0036357D01*
X0177676Y0036527D01*
X0177703Y0036697D01*
X0177735Y0036866D01*
X0177770Y0037034D01*
X0177810Y0037201D01*
X0177854Y0037367D01*
X0177901Y0037532D01*
X0177953Y0037696D01*
X0178009Y0037858D01*
X0178069Y0038019D01*
X0178133Y0038179D01*
X0178201Y0038337D01*
X0178272Y0038493D01*
X0178347Y0038647D01*
X0178427Y0038800D01*
X0178509Y0038950D01*
X0178596Y0039099D01*
X0178686Y0039245D01*
X0178780Y0039389D01*
X0178877Y0039531D01*
X0178978Y0039670D01*
X0179082Y0039807D01*
X0179189Y0039941D01*
X0179300Y0040072D01*
X0179413Y0040201D01*
X0179530Y0040327D01*
X0179650Y0040450D01*
X0179773Y0040570D01*
X0179899Y0040687D01*
X0180028Y0040800D01*
X0180159Y0040911D01*
X0180293Y0041018D01*
X0180430Y0041122D01*
X0180569Y0041223D01*
X0180711Y0041320D01*
X0180855Y0041414D01*
X0181001Y0041504D01*
X0181150Y0041591D01*
X0181300Y0041673D01*
X0181453Y0041753D01*
X0181607Y0041828D01*
X0181763Y0041899D01*
X0181921Y0041967D01*
X0182081Y0042031D01*
X0182242Y0042091D01*
X0182404Y0042147D01*
X0182568Y0042199D01*
X0182733Y0042246D01*
X0182899Y0042290D01*
X0183066Y0042330D01*
X0183234Y0042365D01*
X0183403Y0042397D01*
X0183573Y0042424D01*
X0183743Y0042447D01*
X0183914Y0042466D01*
X0184085Y0042481D01*
X0184257Y0042492D01*
X0184428Y0042498D01*
X0184600Y0042500D01*
X0184772Y0042498D01*
X0184943Y0042492D01*
X0185115Y0042481D01*
X0185286Y0042466D01*
X0185457Y0042447D01*
X0185627Y0042424D01*
X0185797Y0042397D01*
X0185966Y0042365D01*
X0186134Y0042330D01*
X0186301Y0042290D01*
X0186467Y0042246D01*
X0186632Y0042199D01*
X0186796Y0042147D01*
X0186958Y0042091D01*
X0187119Y0042031D01*
X0187279Y0041967D01*
X0187437Y0041899D01*
X0187593Y0041828D01*
X0187747Y0041753D01*
X0187900Y0041673D01*
X0188050Y0041591D01*
X0188199Y0041504D01*
X0188345Y0041414D01*
X0188489Y0041320D01*
X0188631Y0041223D01*
X0188770Y0041122D01*
X0188907Y0041018D01*
X0189041Y0040911D01*
X0189172Y0040800D01*
X0189301Y0040687D01*
X0189427Y0040570D01*
X0189550Y0040450D01*
X0189670Y0040327D01*
X0189787Y0040201D01*
X0189900Y0040072D01*
X0190011Y0039941D01*
X0190118Y0039807D01*
X0190222Y0039670D01*
X0190323Y0039531D01*
X0190420Y0039389D01*
X0190514Y0039245D01*
X0190604Y0039099D01*
X0190691Y0038950D01*
X0190773Y0038800D01*
X0190853Y0038647D01*
X0190928Y0038493D01*
X0190999Y0038337D01*
X0191067Y0038179D01*
X0191131Y0038019D01*
X0191191Y0037858D01*
X0191247Y0037696D01*
X0191299Y0037532D01*
X0191346Y0037367D01*
X0191390Y0037201D01*
X0191430Y0037034D01*
X0191465Y0036866D01*
X0191497Y0036697D01*
X0191524Y0036527D01*
X0191547Y0036357D01*
X0191566Y0036186D01*
X0191581Y0036015D01*
X0191592Y0035843D01*
X0191598Y0035672D01*
X0191600Y0035500D01*
X0191598Y0035328D01*
X0191592Y0035157D01*
X0191581Y0034985D01*
X0191566Y0034814D01*
X0191547Y0034643D01*
X0191524Y0034473D01*
X0191497Y0034303D01*
X0191465Y0034134D01*
X0191430Y0033966D01*
X0191390Y0033799D01*
X0191346Y0033633D01*
X0191299Y0033468D01*
X0191247Y0033304D01*
X0191191Y0033142D01*
X0191131Y0032981D01*
X0191067Y0032821D01*
X0190999Y0032663D01*
X0190928Y0032507D01*
X0190853Y0032353D01*
X0190773Y0032200D01*
X0190691Y0032050D01*
X0190604Y0031901D01*
X0190514Y0031755D01*
X0190420Y0031611D01*
X0190323Y0031469D01*
X0190222Y0031330D01*
X0190118Y0031193D01*
X0190011Y0031059D01*
X0189900Y0030928D01*
X0189787Y0030799D01*
X0189670Y0030673D01*
X0189550Y0030550D01*
X0189427Y0030430D01*
X0189301Y0030313D01*
X0189172Y0030200D01*
X0189041Y0030089D01*
X0188907Y0029982D01*
X0188770Y0029878D01*
X0188631Y0029777D01*
X0188489Y0029680D01*
X0188345Y0029586D01*
X0188199Y0029496D01*
X0188050Y0029409D01*
X0187900Y0029327D01*
X0187747Y0029247D01*
X0187593Y0029172D01*
X0187437Y0029101D01*
X0187279Y0029033D01*
X0187119Y0028969D01*
X0186958Y0028909D01*
X0186796Y0028853D01*
X0186632Y0028801D01*
X0186467Y0028754D01*
X0186301Y0028710D01*
X0186134Y0028670D01*
X0185966Y0028635D01*
X0185797Y0028603D01*
X0185627Y0028576D01*
X0185457Y0028553D01*
X0185286Y0028534D01*
X0185115Y0028519D01*
X0184943Y0028508D01*
X0184772Y0028502D01*
X0184600Y0028500D01*
X0184428Y0028502D01*
X0184257Y0028508D01*
X0184085Y0028519D01*
X0183914Y0028534D01*
X0183743Y0028553D01*
X0183573Y0028576D01*
X0183403Y0028603D01*
X0183234Y0028635D01*
X0183066Y0028670D01*
X0182899Y0028710D01*
X0182733Y0028754D01*
X0182568Y0028801D01*
X0182404Y0028853D01*
X0182242Y0028909D01*
X0182081Y0028969D01*
X0181921Y0029033D01*
X0181763Y0029101D01*
X0181607Y0029172D01*
X0181453Y0029247D01*
X0181300Y0029327D01*
X0181150Y0029409D01*
X0181001Y0029496D01*
X0180855Y0029586D01*
X0180711Y0029680D01*
X0180569Y0029777D01*
X0180430Y0029878D01*
X0180293Y0029982D01*
X0180159Y0030089D01*
X0180028Y0030200D01*
X0179899Y0030313D01*
X0179773Y0030430D01*
X0179650Y0030550D01*
X0179530Y0030673D01*
X0179413Y0030799D01*
X0179300Y0030928D01*
X0179189Y0031059D01*
X0179082Y0031193D01*
X0178978Y0031330D01*
X0178877Y0031469D01*
X0178780Y0031611D01*
X0178686Y0031755D01*
X0178596Y0031901D01*
X0178509Y0032050D01*
X0178427Y0032200D01*
X0178347Y0032353D01*
X0178272Y0032507D01*
X0178201Y0032663D01*
X0178133Y0032821D01*
X0178069Y0032981D01*
X0178009Y0033142D01*
X0177953Y0033304D01*
X0177901Y0033468D01*
X0177854Y0033633D01*
X0177810Y0033799D01*
X0177770Y0033966D01*
X0177735Y0034134D01*
X0177703Y0034303D01*
X0177676Y0034473D01*
X0177653Y0034643D01*
X0177634Y0034814D01*
X0177619Y0034985D01*
X0177608Y0035157D01*
X0177602Y0035328D01*
X0177600Y0035500D01*
X0161844Y0021200D02*
X0159400Y0021200D01*
X0159400Y0020711D01*
X0161844Y0021200D02*
X0160622Y0016800D01*
X0157344Y0016800D02*
X0154900Y0016800D01*
X0156122Y0016800D02*
X0156122Y0021200D01*
X0154900Y0020222D01*
X0150400Y0019000D02*
X0150402Y0018883D01*
X0150408Y0018765D01*
X0150417Y0018648D01*
X0150430Y0018531D01*
X0150447Y0018415D01*
X0150468Y0018300D01*
X0150493Y0018185D01*
X0150521Y0018071D01*
X0150553Y0017958D01*
X0150589Y0017846D01*
X0150628Y0017735D01*
X0150671Y0017626D01*
X0150717Y0017518D01*
X0150767Y0017411D01*
X0150644Y0017778D02*
X0152600Y0020222D01*
X0152477Y0020589D02*
X0152456Y0020644D01*
X0152432Y0020698D01*
X0152404Y0020750D01*
X0152372Y0020800D01*
X0152338Y0020848D01*
X0152300Y0020893D01*
X0152260Y0020936D01*
X0152217Y0020977D01*
X0152171Y0021014D01*
X0152123Y0021048D01*
X0152073Y0021079D01*
X0152021Y0021107D01*
X0151967Y0021132D01*
X0151912Y0021152D01*
X0151855Y0021169D01*
X0151798Y0021183D01*
X0151740Y0021192D01*
X0151681Y0021198D01*
X0151622Y0021200D01*
X0151563Y0021198D01*
X0151504Y0021192D01*
X0151446Y0021183D01*
X0151389Y0021169D01*
X0151332Y0021152D01*
X0151277Y0021132D01*
X0151223Y0021107D01*
X0151171Y0021079D01*
X0151121Y0021048D01*
X0151073Y0021014D01*
X0151027Y0020977D01*
X0150984Y0020936D01*
X0150944Y0020893D01*
X0150906Y0020848D01*
X0150872Y0020800D01*
X0150840Y0020750D01*
X0150812Y0020698D01*
X0150788Y0020644D01*
X0150767Y0020589D01*
X0152478Y0020589D02*
X0152528Y0020483D01*
X0152574Y0020375D01*
X0152617Y0020265D01*
X0152656Y0020154D01*
X0152692Y0020042D01*
X0152724Y0019929D01*
X0152752Y0019815D01*
X0152777Y0019700D01*
X0152798Y0019585D01*
X0152815Y0019469D01*
X0152828Y0019352D01*
X0152837Y0019235D01*
X0152843Y0019117D01*
X0152845Y0019000D01*
X0150400Y0019000D02*
X0150402Y0019117D01*
X0150408Y0019235D01*
X0150417Y0019352D01*
X0150430Y0019469D01*
X0150447Y0019585D01*
X0150468Y0019700D01*
X0150493Y0019815D01*
X0150521Y0019929D01*
X0150553Y0020042D01*
X0150589Y0020154D01*
X0150628Y0020265D01*
X0150671Y0020375D01*
X0150717Y0020482D01*
X0150767Y0020589D01*
X0152845Y0019000D02*
X0152843Y0018883D01*
X0152837Y0018765D01*
X0152828Y0018648D01*
X0152815Y0018531D01*
X0152798Y0018415D01*
X0152777Y0018300D01*
X0152752Y0018185D01*
X0152724Y0018071D01*
X0152692Y0017958D01*
X0152656Y0017846D01*
X0152617Y0017735D01*
X0152574Y0017625D01*
X0152528Y0017517D01*
X0152478Y0017411D01*
X0152477Y0017411D02*
X0152456Y0017356D01*
X0152432Y0017302D01*
X0152404Y0017250D01*
X0152372Y0017200D01*
X0152338Y0017152D01*
X0152300Y0017107D01*
X0152260Y0017064D01*
X0152217Y0017023D01*
X0152171Y0016986D01*
X0152123Y0016952D01*
X0152073Y0016921D01*
X0152021Y0016893D01*
X0151967Y0016868D01*
X0151912Y0016848D01*
X0151855Y0016831D01*
X0151798Y0016817D01*
X0151740Y0016808D01*
X0151681Y0016802D01*
X0151622Y0016800D01*
X0151563Y0016802D01*
X0151504Y0016808D01*
X0151446Y0016817D01*
X0151389Y0016831D01*
X0151332Y0016848D01*
X0151277Y0016868D01*
X0151223Y0016893D01*
X0151171Y0016921D01*
X0151121Y0016952D01*
X0151073Y0016986D01*
X0151027Y0017023D01*
X0150984Y0017064D01*
X0150944Y0017107D01*
X0150906Y0017152D01*
X0150872Y0017200D01*
X0150840Y0017250D01*
X0150812Y0017302D01*
X0150788Y0017356D01*
X0150767Y0017411D01*
X0148344Y0016800D02*
X0145900Y0016800D01*
X0147978Y0019244D01*
X0147244Y0021200D02*
X0147170Y0021198D01*
X0147096Y0021192D01*
X0147023Y0021183D01*
X0146950Y0021169D01*
X0146878Y0021152D01*
X0146807Y0021131D01*
X0146737Y0021106D01*
X0146669Y0021078D01*
X0146602Y0021046D01*
X0146537Y0021010D01*
X0146474Y0020972D01*
X0146413Y0020930D01*
X0146354Y0020885D01*
X0146298Y0020837D01*
X0146244Y0020786D01*
X0146193Y0020732D01*
X0146145Y0020675D01*
X0146100Y0020617D01*
X0146058Y0020556D01*
X0146020Y0020493D01*
X0145984Y0020427D01*
X0145953Y0020361D01*
X0145924Y0020292D01*
X0145900Y0020222D01*
X0147977Y0019245D02*
X0148026Y0019293D01*
X0148071Y0019345D01*
X0148113Y0019398D01*
X0148152Y0019454D01*
X0148188Y0019513D01*
X0148220Y0019573D01*
X0148249Y0019635D01*
X0148274Y0019698D01*
X0148295Y0019763D01*
X0148313Y0019829D01*
X0148326Y0019896D01*
X0148336Y0019964D01*
X0148342Y0020032D01*
X0148344Y0020100D01*
X0148342Y0020164D01*
X0148337Y0020228D01*
X0148327Y0020291D01*
X0148314Y0020354D01*
X0148298Y0020415D01*
X0148278Y0020476D01*
X0148254Y0020536D01*
X0148227Y0020594D01*
X0148197Y0020650D01*
X0148163Y0020704D01*
X0148126Y0020757D01*
X0148087Y0020807D01*
X0148044Y0020855D01*
X0147999Y0020900D01*
X0147951Y0020943D01*
X0147901Y0020982D01*
X0147848Y0021019D01*
X0147794Y0021053D01*
X0147738Y0021083D01*
X0147680Y0021110D01*
X0147620Y0021134D01*
X0147559Y0021154D01*
X0147498Y0021170D01*
X0147435Y0021183D01*
X0147372Y0021193D01*
X0147308Y0021198D01*
X0147244Y0021200D01*
X0151378Y0013200D02*
X0150400Y0009778D01*
X0152844Y0009778D01*
X0152111Y0010756D02*
X0152111Y0008800D01*
X0156122Y0008800D02*
X0157589Y0013200D01*
X0154656Y0013200D02*
X0156122Y0008800D01*
X0159456Y0010511D02*
X0162389Y0010511D01*
X0166577Y0009411D02*
X0166627Y0009517D01*
X0166673Y0009625D01*
X0166716Y0009735D01*
X0166755Y0009846D01*
X0166791Y0009958D01*
X0166823Y0010071D01*
X0166851Y0010185D01*
X0166876Y0010300D01*
X0166897Y0010415D01*
X0166914Y0010531D01*
X0166927Y0010648D01*
X0166936Y0010765D01*
X0166942Y0010883D01*
X0166944Y0011000D01*
X0164500Y0011000D02*
X0164502Y0011117D01*
X0164508Y0011235D01*
X0164517Y0011352D01*
X0164530Y0011469D01*
X0164547Y0011585D01*
X0164568Y0011700D01*
X0164593Y0011815D01*
X0164621Y0011929D01*
X0164653Y0012042D01*
X0164689Y0012154D01*
X0164728Y0012265D01*
X0164771Y0012375D01*
X0164817Y0012482D01*
X0164867Y0012589D01*
X0165722Y0013200D02*
X0165781Y0013198D01*
X0165840Y0013192D01*
X0165898Y0013183D01*
X0165955Y0013169D01*
X0166012Y0013152D01*
X0166067Y0013132D01*
X0166121Y0013107D01*
X0166173Y0013079D01*
X0166223Y0013048D01*
X0166271Y0013014D01*
X0166317Y0012977D01*
X0166360Y0012936D01*
X0166400Y0012893D01*
X0166438Y0012848D01*
X0166472Y0012800D01*
X0166504Y0012750D01*
X0166532Y0012698D01*
X0166556Y0012644D01*
X0166577Y0012589D01*
X0166700Y0012222D02*
X0164744Y0009778D01*
X0165722Y0008800D02*
X0165781Y0008802D01*
X0165840Y0008808D01*
X0165898Y0008817D01*
X0165955Y0008831D01*
X0166012Y0008848D01*
X0166067Y0008868D01*
X0166121Y0008893D01*
X0166173Y0008921D01*
X0166223Y0008952D01*
X0166271Y0008986D01*
X0166317Y0009023D01*
X0166360Y0009064D01*
X0166400Y0009107D01*
X0166438Y0009152D01*
X0166472Y0009200D01*
X0166504Y0009250D01*
X0166532Y0009302D01*
X0166556Y0009356D01*
X0166577Y0009411D01*
X0165722Y0008800D02*
X0165663Y0008802D01*
X0165604Y0008808D01*
X0165546Y0008817D01*
X0165489Y0008831D01*
X0165432Y0008848D01*
X0165377Y0008868D01*
X0165323Y0008893D01*
X0165271Y0008921D01*
X0165221Y0008952D01*
X0165173Y0008986D01*
X0165127Y0009023D01*
X0165084Y0009064D01*
X0165044Y0009107D01*
X0165006Y0009152D01*
X0164972Y0009200D01*
X0164940Y0009250D01*
X0164912Y0009302D01*
X0164888Y0009356D01*
X0164867Y0009411D01*
X0166945Y0011000D02*
X0166943Y0011117D01*
X0166937Y0011235D01*
X0166928Y0011352D01*
X0166915Y0011469D01*
X0166898Y0011585D01*
X0166877Y0011700D01*
X0166852Y0011815D01*
X0166824Y0011929D01*
X0166792Y0012042D01*
X0166756Y0012154D01*
X0166717Y0012265D01*
X0166674Y0012375D01*
X0166628Y0012483D01*
X0166578Y0012589D01*
X0165722Y0013200D02*
X0165663Y0013198D01*
X0165604Y0013192D01*
X0165546Y0013183D01*
X0165489Y0013169D01*
X0165432Y0013152D01*
X0165377Y0013132D01*
X0165323Y0013107D01*
X0165271Y0013079D01*
X0165221Y0013048D01*
X0165173Y0013014D01*
X0165127Y0012977D01*
X0165084Y0012936D01*
X0165044Y0012893D01*
X0165006Y0012848D01*
X0164972Y0012800D01*
X0164940Y0012750D01*
X0164912Y0012698D01*
X0164888Y0012644D01*
X0164867Y0012589D01*
X0164500Y0011000D02*
X0164502Y0010883D01*
X0164508Y0010765D01*
X0164517Y0010648D01*
X0164530Y0010531D01*
X0164547Y0010415D01*
X0164568Y0010300D01*
X0164593Y0010185D01*
X0164621Y0010071D01*
X0164653Y0009958D01*
X0164689Y0009846D01*
X0164728Y0009735D01*
X0164771Y0009626D01*
X0164817Y0009518D01*
X0164867Y0009411D01*
X0148344Y0010756D02*
X0148344Y0011978D01*
X0148342Y0012047D01*
X0148336Y0012115D01*
X0148327Y0012183D01*
X0148313Y0012250D01*
X0148296Y0012316D01*
X0148275Y0012382D01*
X0148251Y0012446D01*
X0148223Y0012508D01*
X0148192Y0012569D01*
X0148157Y0012628D01*
X0148119Y0012685D01*
X0148077Y0012740D01*
X0148033Y0012792D01*
X0147986Y0012842D01*
X0147936Y0012889D01*
X0147884Y0012933D01*
X0147829Y0012975D01*
X0147772Y0013013D01*
X0147713Y0013048D01*
X0147652Y0013079D01*
X0147590Y0013107D01*
X0147526Y0013131D01*
X0147460Y0013152D01*
X0147394Y0013169D01*
X0147327Y0013183D01*
X0147259Y0013192D01*
X0147191Y0013198D01*
X0147122Y0013200D01*
X0147053Y0013198D01*
X0146985Y0013192D01*
X0146917Y0013183D01*
X0146850Y0013169D01*
X0146784Y0013152D01*
X0146718Y0013131D01*
X0146654Y0013107D01*
X0146592Y0013079D01*
X0146531Y0013048D01*
X0146472Y0013013D01*
X0146415Y0012975D01*
X0146360Y0012933D01*
X0146308Y0012889D01*
X0146258Y0012842D01*
X0146211Y0012792D01*
X0146167Y0012740D01*
X0146125Y0012685D01*
X0146087Y0012628D01*
X0146052Y0012569D01*
X0146021Y0012508D01*
X0145993Y0012446D01*
X0145969Y0012382D01*
X0145948Y0012316D01*
X0145931Y0012250D01*
X0145917Y0012183D01*
X0145908Y0012115D01*
X0145902Y0012047D01*
X0145900Y0011978D01*
X0145900Y0011733D01*
X0145902Y0011672D01*
X0145908Y0011610D01*
X0145917Y0011550D01*
X0145931Y0011490D01*
X0145948Y0011431D01*
X0145969Y0011373D01*
X0145993Y0011317D01*
X0146021Y0011262D01*
X0146052Y0011209D01*
X0146087Y0011158D01*
X0146124Y0011110D01*
X0146165Y0011064D01*
X0146209Y0011020D01*
X0146255Y0010979D01*
X0146303Y0010942D01*
X0146354Y0010907D01*
X0146407Y0010876D01*
X0146462Y0010848D01*
X0146518Y0010824D01*
X0146576Y0010803D01*
X0146635Y0010786D01*
X0146695Y0010772D01*
X0146755Y0010763D01*
X0146817Y0010757D01*
X0146878Y0010755D01*
X0146878Y0010756D02*
X0148344Y0010756D01*
X0148345Y0010756D02*
X0148343Y0010668D01*
X0148337Y0010581D01*
X0148327Y0010493D01*
X0148314Y0010407D01*
X0148296Y0010321D01*
X0148275Y0010236D01*
X0148249Y0010152D01*
X0148220Y0010069D01*
X0148188Y0009987D01*
X0148151Y0009907D01*
X0148111Y0009829D01*
X0148068Y0009753D01*
X0148021Y0009678D01*
X0147971Y0009606D01*
X0147918Y0009536D01*
X0147862Y0009469D01*
X0147803Y0009404D01*
X0147741Y0009342D01*
X0147676Y0009283D01*
X0147609Y0009227D01*
X0147539Y0009174D01*
X0147467Y0009124D01*
X0147392Y0009077D01*
X0147316Y0009034D01*
X0147238Y0008994D01*
X0147158Y0008957D01*
X0147076Y0008925D01*
X0146993Y0008896D01*
X0146909Y0008870D01*
X0146824Y0008849D01*
X0146738Y0008831D01*
X0146652Y0008818D01*
X0146564Y0008808D01*
X0146477Y0008802D01*
X0146389Y0008800D01*
X0204900Y0011022D02*
X0204900Y0014200D01*
X0207344Y0014200D02*
X0207344Y0011022D01*
X0207342Y0010953D01*
X0207336Y0010885D01*
X0207327Y0010817D01*
X0207313Y0010750D01*
X0207296Y0010684D01*
X0207275Y0010618D01*
X0207251Y0010554D01*
X0207223Y0010492D01*
X0207192Y0010431D01*
X0207157Y0010372D01*
X0207119Y0010315D01*
X0207077Y0010260D01*
X0207033Y0010208D01*
X0206986Y0010158D01*
X0206936Y0010111D01*
X0206884Y0010067D01*
X0206829Y0010025D01*
X0206772Y0009987D01*
X0206713Y0009952D01*
X0206652Y0009921D01*
X0206590Y0009893D01*
X0206526Y0009869D01*
X0206460Y0009848D01*
X0206394Y0009831D01*
X0206327Y0009817D01*
X0206259Y0009808D01*
X0206191Y0009802D01*
X0206122Y0009800D01*
X0206053Y0009802D01*
X0205985Y0009808D01*
X0205917Y0009817D01*
X0205850Y0009831D01*
X0205784Y0009848D01*
X0205718Y0009869D01*
X0205654Y0009893D01*
X0205592Y0009921D01*
X0205531Y0009952D01*
X0205472Y0009987D01*
X0205415Y0010025D01*
X0205360Y0010067D01*
X0205308Y0010111D01*
X0205258Y0010158D01*
X0205211Y0010208D01*
X0205167Y0010260D01*
X0205125Y0010315D01*
X0205087Y0010372D01*
X0205052Y0010431D01*
X0205021Y0010492D01*
X0204993Y0010554D01*
X0204969Y0010618D01*
X0204948Y0010684D01*
X0204931Y0010750D01*
X0204917Y0010817D01*
X0204908Y0010885D01*
X0204902Y0010953D01*
X0204900Y0011022D01*
X0209250Y0014200D02*
X0211694Y0014200D01*
X0210472Y0014200D02*
X0210472Y0009800D01*
X0213600Y0009800D02*
X0213600Y0014200D01*
X0216044Y0009800D01*
X0216044Y0014200D01*
X0218306Y0011511D02*
X0221239Y0011511D01*
X0223511Y0012244D02*
X0224978Y0012244D01*
X0225467Y0014200D02*
X0223511Y0014200D01*
X0223511Y0009800D01*
X0225467Y0009800D01*
X0229055Y0011634D02*
X0229106Y0011601D01*
X0229156Y0011566D01*
X0229203Y0011527D01*
X0229247Y0011486D01*
X0229289Y0011442D01*
X0229328Y0011396D01*
X0229364Y0011347D01*
X0229398Y0011297D01*
X0229428Y0011244D01*
X0229455Y0011190D01*
X0229478Y0011134D01*
X0229498Y0011077D01*
X0229515Y0011018D01*
X0229527Y0010959D01*
X0229537Y0010899D01*
X0229542Y0010839D01*
X0229544Y0010778D01*
X0229545Y0010778D02*
X0229543Y0010717D01*
X0229537Y0010655D01*
X0229528Y0010595D01*
X0229514Y0010535D01*
X0229497Y0010476D01*
X0229476Y0010418D01*
X0229452Y0010362D01*
X0229424Y0010307D01*
X0229393Y0010254D01*
X0229358Y0010203D01*
X0229321Y0010155D01*
X0229280Y0010109D01*
X0229236Y0010065D01*
X0229190Y0010024D01*
X0229142Y0009987D01*
X0229091Y0009952D01*
X0229038Y0009921D01*
X0228983Y0009893D01*
X0228927Y0009869D01*
X0228869Y0009848D01*
X0228810Y0009831D01*
X0228750Y0009817D01*
X0228690Y0009808D01*
X0228628Y0009802D01*
X0228567Y0009800D01*
X0229056Y0011633D02*
X0227711Y0012367D01*
X0228200Y0014200D02*
X0228284Y0014198D01*
X0228368Y0014192D01*
X0228452Y0014183D01*
X0228535Y0014169D01*
X0228618Y0014152D01*
X0228699Y0014131D01*
X0228780Y0014106D01*
X0228859Y0014077D01*
X0228937Y0014045D01*
X0229013Y0014010D01*
X0229088Y0013971D01*
X0229161Y0013928D01*
X0229231Y0013882D01*
X0229300Y0013833D01*
X0227711Y0012366D02*
X0227660Y0012399D01*
X0227610Y0012434D01*
X0227563Y0012473D01*
X0227519Y0012514D01*
X0227477Y0012558D01*
X0227438Y0012604D01*
X0227402Y0012653D01*
X0227368Y0012703D01*
X0227338Y0012756D01*
X0227311Y0012810D01*
X0227288Y0012866D01*
X0227268Y0012923D01*
X0227251Y0012982D01*
X0227239Y0013041D01*
X0227229Y0013101D01*
X0227224Y0013161D01*
X0227222Y0013222D01*
X0227224Y0013283D01*
X0227230Y0013345D01*
X0227239Y0013405D01*
X0227253Y0013465D01*
X0227270Y0013524D01*
X0227291Y0013582D01*
X0227315Y0013638D01*
X0227343Y0013693D01*
X0227374Y0013746D01*
X0227409Y0013797D01*
X0227446Y0013845D01*
X0227487Y0013891D01*
X0227531Y0013935D01*
X0227577Y0013976D01*
X0227625Y0014013D01*
X0227676Y0014048D01*
X0227729Y0014079D01*
X0227784Y0014107D01*
X0227840Y0014131D01*
X0227898Y0014152D01*
X0227957Y0014169D01*
X0228017Y0014183D01*
X0228077Y0014192D01*
X0228139Y0014198D01*
X0228200Y0014200D01*
X0227100Y0010411D02*
X0227165Y0010348D01*
X0227233Y0010288D01*
X0227304Y0010231D01*
X0227376Y0010177D01*
X0227452Y0010127D01*
X0227529Y0010080D01*
X0227608Y0010036D01*
X0227690Y0009996D01*
X0227772Y0009959D01*
X0227857Y0009926D01*
X0227943Y0009897D01*
X0228029Y0009871D01*
X0228117Y0009849D01*
X0228206Y0009832D01*
X0228296Y0009818D01*
X0228386Y0009808D01*
X0228476Y0009802D01*
X0228567Y0009800D01*
X0231611Y0009800D02*
X0231611Y0014200D01*
X0233567Y0014200D01*
X0235106Y0014200D02*
X0238039Y0009800D01*
X0240772Y0009800D02*
X0240772Y0014200D01*
X0239550Y0014200D02*
X0241994Y0014200D01*
X0246194Y0012000D02*
X0246192Y0011883D01*
X0246186Y0011765D01*
X0246177Y0011648D01*
X0246164Y0011531D01*
X0246147Y0011415D01*
X0246126Y0011300D01*
X0246101Y0011185D01*
X0246073Y0011071D01*
X0246041Y0010958D01*
X0246005Y0010846D01*
X0245966Y0010735D01*
X0245923Y0010625D01*
X0245877Y0010517D01*
X0245827Y0010411D01*
X0245806Y0010356D01*
X0245782Y0010302D01*
X0245754Y0010250D01*
X0245722Y0010200D01*
X0245688Y0010152D01*
X0245650Y0010107D01*
X0245610Y0010064D01*
X0245567Y0010023D01*
X0245521Y0009986D01*
X0245473Y0009952D01*
X0245423Y0009921D01*
X0245371Y0009893D01*
X0245317Y0009868D01*
X0245262Y0009848D01*
X0245205Y0009831D01*
X0245148Y0009817D01*
X0245090Y0009808D01*
X0245031Y0009802D01*
X0244972Y0009800D01*
X0244913Y0009802D01*
X0244854Y0009808D01*
X0244796Y0009817D01*
X0244739Y0009831D01*
X0244682Y0009848D01*
X0244627Y0009868D01*
X0244573Y0009893D01*
X0244521Y0009921D01*
X0244471Y0009952D01*
X0244423Y0009986D01*
X0244377Y0010023D01*
X0244334Y0010064D01*
X0244294Y0010107D01*
X0244256Y0010152D01*
X0244222Y0010200D01*
X0244190Y0010250D01*
X0244162Y0010302D01*
X0244138Y0010356D01*
X0244117Y0010411D01*
X0243994Y0010778D02*
X0245950Y0013222D01*
X0245827Y0013589D02*
X0245806Y0013644D01*
X0245782Y0013698D01*
X0245754Y0013750D01*
X0245722Y0013800D01*
X0245688Y0013848D01*
X0245650Y0013893D01*
X0245610Y0013936D01*
X0245567Y0013977D01*
X0245521Y0014014D01*
X0245473Y0014048D01*
X0245423Y0014079D01*
X0245371Y0014107D01*
X0245317Y0014132D01*
X0245262Y0014152D01*
X0245205Y0014169D01*
X0245148Y0014183D01*
X0245090Y0014192D01*
X0245031Y0014198D01*
X0244972Y0014200D01*
X0244913Y0014198D01*
X0244854Y0014192D01*
X0244796Y0014183D01*
X0244739Y0014169D01*
X0244682Y0014152D01*
X0244627Y0014132D01*
X0244573Y0014107D01*
X0244521Y0014079D01*
X0244471Y0014048D01*
X0244423Y0014014D01*
X0244377Y0013977D01*
X0244334Y0013936D01*
X0244294Y0013893D01*
X0244256Y0013848D01*
X0244222Y0013800D01*
X0244190Y0013750D01*
X0244162Y0013698D01*
X0244138Y0013644D01*
X0244117Y0013589D01*
X0245828Y0013589D02*
X0245878Y0013483D01*
X0245924Y0013375D01*
X0245967Y0013265D01*
X0246006Y0013154D01*
X0246042Y0013042D01*
X0246074Y0012929D01*
X0246102Y0012815D01*
X0246127Y0012700D01*
X0246148Y0012585D01*
X0246165Y0012469D01*
X0246178Y0012352D01*
X0246187Y0012235D01*
X0246193Y0012117D01*
X0246195Y0012000D01*
X0243750Y0012000D02*
X0243752Y0012117D01*
X0243758Y0012235D01*
X0243767Y0012352D01*
X0243780Y0012469D01*
X0243797Y0012585D01*
X0243818Y0012700D01*
X0243843Y0012815D01*
X0243871Y0012929D01*
X0243903Y0013042D01*
X0243939Y0013154D01*
X0243978Y0013265D01*
X0244021Y0013375D01*
X0244067Y0013482D01*
X0244117Y0013589D01*
X0243750Y0012000D02*
X0243752Y0011883D01*
X0243758Y0011765D01*
X0243767Y0011648D01*
X0243780Y0011531D01*
X0243797Y0011415D01*
X0243818Y0011300D01*
X0243843Y0011185D01*
X0243871Y0011071D01*
X0243903Y0010958D01*
X0243939Y0010846D01*
X0243978Y0010735D01*
X0244021Y0010626D01*
X0244067Y0010518D01*
X0244117Y0010411D01*
X0248250Y0009800D02*
X0250694Y0009800D01*
X0249472Y0009800D02*
X0249472Y0014200D01*
X0248250Y0013222D01*
X0253900Y0014200D02*
X0254878Y0014200D01*
X0254389Y0014200D02*
X0254389Y0009800D01*
X0253900Y0009800D02*
X0254878Y0009800D01*
X0256917Y0009800D02*
X0256917Y0014200D01*
X0259361Y0009800D01*
X0259361Y0014200D01*
X0261717Y0014200D02*
X0262939Y0014200D01*
X0263008Y0014198D01*
X0263076Y0014192D01*
X0263144Y0014183D01*
X0263211Y0014169D01*
X0263277Y0014152D01*
X0263343Y0014131D01*
X0263407Y0014107D01*
X0263469Y0014079D01*
X0263530Y0014048D01*
X0263589Y0014013D01*
X0263646Y0013975D01*
X0263701Y0013933D01*
X0263753Y0013889D01*
X0263803Y0013842D01*
X0263850Y0013792D01*
X0263894Y0013740D01*
X0263936Y0013685D01*
X0263974Y0013628D01*
X0264009Y0013569D01*
X0264040Y0013508D01*
X0264068Y0013446D01*
X0264092Y0013382D01*
X0264113Y0013316D01*
X0264130Y0013250D01*
X0264144Y0013183D01*
X0264153Y0013115D01*
X0264159Y0013047D01*
X0264161Y0012978D01*
X0264161Y0011022D01*
X0264159Y0010953D01*
X0264153Y0010885D01*
X0264144Y0010817D01*
X0264130Y0010750D01*
X0264113Y0010684D01*
X0264092Y0010618D01*
X0264068Y0010554D01*
X0264040Y0010492D01*
X0264009Y0010431D01*
X0263974Y0010372D01*
X0263936Y0010315D01*
X0263894Y0010260D01*
X0263850Y0010208D01*
X0263803Y0010158D01*
X0263753Y0010111D01*
X0263701Y0010067D01*
X0263646Y0010025D01*
X0263589Y0009987D01*
X0263530Y0009952D01*
X0263469Y0009921D01*
X0263407Y0009893D01*
X0263343Y0009869D01*
X0263277Y0009848D01*
X0263211Y0009831D01*
X0263144Y0009817D01*
X0263076Y0009808D01*
X0263008Y0009802D01*
X0262939Y0009800D01*
X0261717Y0009800D01*
X0261717Y0014200D01*
X0266517Y0014200D02*
X0266517Y0011022D01*
X0266519Y0010953D01*
X0266525Y0010885D01*
X0266534Y0010817D01*
X0266548Y0010750D01*
X0266565Y0010684D01*
X0266586Y0010618D01*
X0266610Y0010554D01*
X0266638Y0010492D01*
X0266669Y0010431D01*
X0266704Y0010372D01*
X0266742Y0010315D01*
X0266784Y0010260D01*
X0266828Y0010208D01*
X0266875Y0010158D01*
X0266925Y0010111D01*
X0266977Y0010067D01*
X0267032Y0010025D01*
X0267089Y0009987D01*
X0267148Y0009952D01*
X0267209Y0009921D01*
X0267271Y0009893D01*
X0267335Y0009869D01*
X0267401Y0009848D01*
X0267467Y0009831D01*
X0267534Y0009817D01*
X0267602Y0009808D01*
X0267670Y0009802D01*
X0267739Y0009800D01*
X0267808Y0009802D01*
X0267876Y0009808D01*
X0267944Y0009817D01*
X0268011Y0009831D01*
X0268077Y0009848D01*
X0268143Y0009869D01*
X0268207Y0009893D01*
X0268269Y0009921D01*
X0268330Y0009952D01*
X0268389Y0009987D01*
X0268446Y0010025D01*
X0268501Y0010067D01*
X0268553Y0010111D01*
X0268603Y0010158D01*
X0268650Y0010208D01*
X0268694Y0010260D01*
X0268736Y0010315D01*
X0268774Y0010372D01*
X0268809Y0010431D01*
X0268840Y0010492D01*
X0268868Y0010554D01*
X0268892Y0010618D01*
X0268913Y0010684D01*
X0268930Y0010750D01*
X0268944Y0010817D01*
X0268953Y0010885D01*
X0268959Y0010953D01*
X0268961Y0011022D01*
X0268961Y0014200D01*
X0271628Y0012367D02*
X0272972Y0011633D01*
X0272483Y0009800D02*
X0272392Y0009802D01*
X0272302Y0009808D01*
X0272212Y0009818D01*
X0272122Y0009832D01*
X0272033Y0009849D01*
X0271945Y0009871D01*
X0271859Y0009897D01*
X0271773Y0009926D01*
X0271688Y0009959D01*
X0271606Y0009996D01*
X0271524Y0010036D01*
X0271445Y0010080D01*
X0271368Y0010127D01*
X0271292Y0010177D01*
X0271220Y0010231D01*
X0271149Y0010288D01*
X0271081Y0010348D01*
X0271016Y0010411D01*
X0272972Y0011634D02*
X0273023Y0011601D01*
X0273073Y0011566D01*
X0273120Y0011527D01*
X0273164Y0011486D01*
X0273206Y0011442D01*
X0273245Y0011396D01*
X0273281Y0011347D01*
X0273315Y0011297D01*
X0273345Y0011244D01*
X0273372Y0011190D01*
X0273395Y0011134D01*
X0273415Y0011077D01*
X0273432Y0011018D01*
X0273444Y0010959D01*
X0273454Y0010899D01*
X0273459Y0010839D01*
X0273461Y0010778D01*
X0273459Y0010717D01*
X0273453Y0010655D01*
X0273444Y0010595D01*
X0273430Y0010535D01*
X0273413Y0010476D01*
X0273392Y0010418D01*
X0273368Y0010362D01*
X0273340Y0010307D01*
X0273309Y0010254D01*
X0273274Y0010203D01*
X0273237Y0010155D01*
X0273196Y0010109D01*
X0273152Y0010065D01*
X0273106Y0010024D01*
X0273058Y0009987D01*
X0273007Y0009952D01*
X0272954Y0009921D01*
X0272899Y0009893D01*
X0272843Y0009869D01*
X0272785Y0009848D01*
X0272726Y0009831D01*
X0272666Y0009817D01*
X0272606Y0009808D01*
X0272544Y0009802D01*
X0272483Y0009800D01*
X0273217Y0013833D02*
X0273148Y0013882D01*
X0273078Y0013928D01*
X0273005Y0013971D01*
X0272930Y0014010D01*
X0272854Y0014045D01*
X0272776Y0014077D01*
X0272697Y0014106D01*
X0272616Y0014131D01*
X0272535Y0014152D01*
X0272452Y0014169D01*
X0272369Y0014183D01*
X0272285Y0014192D01*
X0272201Y0014198D01*
X0272117Y0014200D01*
X0272056Y0014198D01*
X0271994Y0014192D01*
X0271934Y0014183D01*
X0271874Y0014169D01*
X0271815Y0014152D01*
X0271757Y0014131D01*
X0271701Y0014107D01*
X0271646Y0014079D01*
X0271593Y0014048D01*
X0271542Y0014013D01*
X0271494Y0013976D01*
X0271448Y0013935D01*
X0271404Y0013891D01*
X0271363Y0013845D01*
X0271326Y0013797D01*
X0271291Y0013746D01*
X0271260Y0013693D01*
X0271232Y0013638D01*
X0271208Y0013582D01*
X0271187Y0013524D01*
X0271170Y0013465D01*
X0271156Y0013405D01*
X0271147Y0013345D01*
X0271141Y0013283D01*
X0271139Y0013222D01*
X0271141Y0013161D01*
X0271146Y0013101D01*
X0271156Y0013041D01*
X0271168Y0012982D01*
X0271185Y0012923D01*
X0271205Y0012866D01*
X0271228Y0012810D01*
X0271255Y0012756D01*
X0271285Y0012703D01*
X0271319Y0012653D01*
X0271355Y0012604D01*
X0271394Y0012558D01*
X0271436Y0012514D01*
X0271480Y0012473D01*
X0271527Y0012434D01*
X0271577Y0012399D01*
X0271628Y0012366D01*
X0275067Y0014200D02*
X0277511Y0014200D01*
X0276289Y0014200D02*
X0276289Y0009800D01*
X0279453Y0009800D02*
X0279453Y0014200D01*
X0280675Y0014200D01*
X0280744Y0014198D01*
X0280812Y0014192D01*
X0280880Y0014183D01*
X0280947Y0014169D01*
X0281013Y0014152D01*
X0281079Y0014131D01*
X0281143Y0014107D01*
X0281205Y0014079D01*
X0281266Y0014048D01*
X0281325Y0014013D01*
X0281382Y0013975D01*
X0281437Y0013933D01*
X0281489Y0013889D01*
X0281539Y0013842D01*
X0281586Y0013792D01*
X0281630Y0013740D01*
X0281672Y0013685D01*
X0281710Y0013628D01*
X0281745Y0013569D01*
X0281776Y0013508D01*
X0281804Y0013446D01*
X0281828Y0013382D01*
X0281849Y0013316D01*
X0281866Y0013250D01*
X0281880Y0013183D01*
X0281889Y0013115D01*
X0281895Y0013047D01*
X0281897Y0012978D01*
X0281895Y0012909D01*
X0281889Y0012841D01*
X0281880Y0012773D01*
X0281866Y0012706D01*
X0281849Y0012640D01*
X0281828Y0012574D01*
X0281804Y0012510D01*
X0281776Y0012448D01*
X0281745Y0012387D01*
X0281710Y0012328D01*
X0281672Y0012271D01*
X0281630Y0012216D01*
X0281586Y0012164D01*
X0281539Y0012114D01*
X0281489Y0012067D01*
X0281437Y0012023D01*
X0281382Y0011981D01*
X0281325Y0011943D01*
X0281266Y0011908D01*
X0281205Y0011877D01*
X0281143Y0011849D01*
X0281079Y0011825D01*
X0281013Y0011804D01*
X0280947Y0011787D01*
X0280880Y0011773D01*
X0280812Y0011764D01*
X0280744Y0011758D01*
X0280675Y0011756D01*
X0279453Y0011756D01*
X0280920Y0011756D02*
X0281897Y0009800D01*
X0283750Y0009800D02*
X0284728Y0009800D01*
X0284239Y0009800D02*
X0284239Y0014200D01*
X0283750Y0014200D02*
X0284728Y0014200D01*
X0287839Y0014200D02*
X0289306Y0009800D01*
X0288939Y0010900D02*
X0286739Y0010900D01*
X0286372Y0009800D02*
X0287839Y0014200D01*
X0293639Y0010900D02*
X0295839Y0010900D01*
X0296205Y0009800D02*
X0294739Y0014200D01*
X0293272Y0009800D01*
X0298203Y0009800D02*
X0298203Y0014200D01*
X0299425Y0014200D01*
X0299494Y0014198D01*
X0299562Y0014192D01*
X0299630Y0014183D01*
X0299697Y0014169D01*
X0299763Y0014152D01*
X0299829Y0014131D01*
X0299893Y0014107D01*
X0299955Y0014079D01*
X0300016Y0014048D01*
X0300075Y0014013D01*
X0300132Y0013975D01*
X0300187Y0013933D01*
X0300239Y0013889D01*
X0300289Y0013842D01*
X0300336Y0013792D01*
X0300380Y0013740D01*
X0300422Y0013685D01*
X0300460Y0013628D01*
X0300495Y0013569D01*
X0300526Y0013508D01*
X0300554Y0013446D01*
X0300578Y0013382D01*
X0300599Y0013316D01*
X0300616Y0013250D01*
X0300630Y0013183D01*
X0300639Y0013115D01*
X0300645Y0013047D01*
X0300647Y0012978D01*
X0300645Y0012909D01*
X0300639Y0012841D01*
X0300630Y0012773D01*
X0300616Y0012706D01*
X0300599Y0012640D01*
X0300578Y0012574D01*
X0300554Y0012510D01*
X0300526Y0012448D01*
X0300495Y0012387D01*
X0300460Y0012328D01*
X0300422Y0012271D01*
X0300380Y0012216D01*
X0300336Y0012164D01*
X0300289Y0012114D01*
X0300239Y0012067D01*
X0300187Y0012023D01*
X0300132Y0011981D01*
X0300075Y0011943D01*
X0300016Y0011908D01*
X0299955Y0011877D01*
X0299893Y0011849D01*
X0299829Y0011825D01*
X0299763Y0011804D01*
X0299697Y0011787D01*
X0299630Y0011773D01*
X0299562Y0011764D01*
X0299494Y0011758D01*
X0299425Y0011756D01*
X0298203Y0011756D01*
X0299669Y0011756D02*
X0300647Y0009800D01*
X0302817Y0010778D02*
X0302817Y0013222D01*
X0302816Y0013222D02*
X0302818Y0013283D01*
X0302824Y0013345D01*
X0302833Y0013405D01*
X0302847Y0013465D01*
X0302864Y0013524D01*
X0302885Y0013582D01*
X0302909Y0013638D01*
X0302937Y0013693D01*
X0302968Y0013746D01*
X0303003Y0013797D01*
X0303040Y0013845D01*
X0303081Y0013891D01*
X0303125Y0013935D01*
X0303171Y0013976D01*
X0303219Y0014013D01*
X0303270Y0014048D01*
X0303323Y0014079D01*
X0303378Y0014107D01*
X0303434Y0014131D01*
X0303492Y0014152D01*
X0303551Y0014169D01*
X0303611Y0014183D01*
X0303671Y0014192D01*
X0303733Y0014198D01*
X0303794Y0014200D01*
X0305261Y0014200D01*
X0305261Y0012244D02*
X0305261Y0009800D01*
X0303794Y0009800D01*
X0303733Y0009802D01*
X0303671Y0009808D01*
X0303611Y0009817D01*
X0303551Y0009831D01*
X0303492Y0009848D01*
X0303434Y0009869D01*
X0303378Y0009893D01*
X0303323Y0009921D01*
X0303270Y0009952D01*
X0303219Y0009987D01*
X0303171Y0010024D01*
X0303125Y0010065D01*
X0303081Y0010109D01*
X0303040Y0010155D01*
X0303003Y0010203D01*
X0302968Y0010254D01*
X0302937Y0010307D01*
X0302909Y0010362D01*
X0302885Y0010418D01*
X0302864Y0010476D01*
X0302847Y0010535D01*
X0302833Y0010595D01*
X0302824Y0010655D01*
X0302818Y0010717D01*
X0302816Y0010778D01*
X0304528Y0012244D02*
X0305261Y0012244D01*
X0307628Y0012244D02*
X0309094Y0012244D01*
X0309583Y0014200D02*
X0307628Y0014200D01*
X0307628Y0009800D01*
X0309583Y0009800D01*
X0311517Y0009800D02*
X0311517Y0014200D01*
X0313961Y0009800D01*
X0313961Y0014200D01*
X0315867Y0014200D02*
X0318311Y0014200D01*
X0317089Y0014200D02*
X0317089Y0009800D01*
X0319900Y0009800D02*
X0320878Y0009800D01*
X0320389Y0009800D02*
X0320389Y0014200D01*
X0319900Y0014200D02*
X0320878Y0014200D01*
X0322917Y0014200D02*
X0325361Y0009800D01*
X0325361Y0014200D01*
X0322917Y0014200D02*
X0322917Y0009800D01*
X0327322Y0009800D02*
X0328789Y0014200D01*
X0330255Y0009800D01*
X0329889Y0010900D02*
X0327689Y0010900D01*
X0307100Y0033500D02*
X0307104Y0033831D01*
X0307116Y0034162D01*
X0307137Y0034493D01*
X0307165Y0034823D01*
X0307202Y0035153D01*
X0307246Y0035481D01*
X0307299Y0035808D01*
X0307359Y0036134D01*
X0307428Y0036458D01*
X0307505Y0036780D01*
X0307589Y0037101D01*
X0307681Y0037419D01*
X0307781Y0037735D01*
X0307889Y0038048D01*
X0308005Y0038359D01*
X0308128Y0038666D01*
X0308258Y0038971D01*
X0308396Y0039272D01*
X0308541Y0039570D01*
X0308694Y0039864D01*
X0308854Y0040154D01*
X0309021Y0040440D01*
X0309194Y0040722D01*
X0309375Y0041000D01*
X0309563Y0041273D01*
X0309757Y0041542D01*
X0309957Y0041806D01*
X0310164Y0042064D01*
X0310378Y0042318D01*
X0310597Y0042566D01*
X0310823Y0042809D01*
X0311054Y0043046D01*
X0311291Y0043277D01*
X0311534Y0043503D01*
X0311782Y0043722D01*
X0312036Y0043936D01*
X0312294Y0044143D01*
X0312558Y0044343D01*
X0312827Y0044537D01*
X0313100Y0044725D01*
X0313378Y0044906D01*
X0313660Y0045079D01*
X0313946Y0045246D01*
X0314236Y0045406D01*
X0314530Y0045559D01*
X0314828Y0045704D01*
X0315129Y0045842D01*
X0315434Y0045972D01*
X0315741Y0046095D01*
X0316052Y0046211D01*
X0316365Y0046319D01*
X0316681Y0046419D01*
X0316999Y0046511D01*
X0317320Y0046595D01*
X0317642Y0046672D01*
X0317966Y0046741D01*
X0318292Y0046801D01*
X0318619Y0046854D01*
X0318947Y0046898D01*
X0319277Y0046935D01*
X0319607Y0046963D01*
X0319938Y0046984D01*
X0320269Y0046996D01*
X0320600Y0047000D01*
X0320931Y0046996D01*
X0321262Y0046984D01*
X0321593Y0046963D01*
X0321923Y0046935D01*
X0322253Y0046898D01*
X0322581Y0046854D01*
X0322908Y0046801D01*
X0323234Y0046741D01*
X0323558Y0046672D01*
X0323880Y0046595D01*
X0324201Y0046511D01*
X0324519Y0046419D01*
X0324835Y0046319D01*
X0325148Y0046211D01*
X0325459Y0046095D01*
X0325766Y0045972D01*
X0326071Y0045842D01*
X0326372Y0045704D01*
X0326670Y0045559D01*
X0326964Y0045406D01*
X0327254Y0045246D01*
X0327540Y0045079D01*
X0327822Y0044906D01*
X0328100Y0044725D01*
X0328373Y0044537D01*
X0328642Y0044343D01*
X0328906Y0044143D01*
X0329164Y0043936D01*
X0329418Y0043722D01*
X0329666Y0043503D01*
X0329909Y0043277D01*
X0330146Y0043046D01*
X0330377Y0042809D01*
X0330603Y0042566D01*
X0330822Y0042318D01*
X0331036Y0042064D01*
X0331243Y0041806D01*
X0331443Y0041542D01*
X0331637Y0041273D01*
X0331825Y0041000D01*
X0332006Y0040722D01*
X0332179Y0040440D01*
X0332346Y0040154D01*
X0332506Y0039864D01*
X0332659Y0039570D01*
X0332804Y0039272D01*
X0332942Y0038971D01*
X0333072Y0038666D01*
X0333195Y0038359D01*
X0333311Y0038048D01*
X0333419Y0037735D01*
X0333519Y0037419D01*
X0333611Y0037101D01*
X0333695Y0036780D01*
X0333772Y0036458D01*
X0333841Y0036134D01*
X0333901Y0035808D01*
X0333954Y0035481D01*
X0333998Y0035153D01*
X0334035Y0034823D01*
X0334063Y0034493D01*
X0334084Y0034162D01*
X0334096Y0033831D01*
X0334100Y0033500D01*
X0334096Y0033169D01*
X0334084Y0032838D01*
X0334063Y0032507D01*
X0334035Y0032177D01*
X0333998Y0031847D01*
X0333954Y0031519D01*
X0333901Y0031192D01*
X0333841Y0030866D01*
X0333772Y0030542D01*
X0333695Y0030220D01*
X0333611Y0029899D01*
X0333519Y0029581D01*
X0333419Y0029265D01*
X0333311Y0028952D01*
X0333195Y0028641D01*
X0333072Y0028334D01*
X0332942Y0028029D01*
X0332804Y0027728D01*
X0332659Y0027430D01*
X0332506Y0027136D01*
X0332346Y0026846D01*
X0332179Y0026560D01*
X0332006Y0026278D01*
X0331825Y0026000D01*
X0331637Y0025727D01*
X0331443Y0025458D01*
X0331243Y0025194D01*
X0331036Y0024936D01*
X0330822Y0024682D01*
X0330603Y0024434D01*
X0330377Y0024191D01*
X0330146Y0023954D01*
X0329909Y0023723D01*
X0329666Y0023497D01*
X0329418Y0023278D01*
X0329164Y0023064D01*
X0328906Y0022857D01*
X0328642Y0022657D01*
X0328373Y0022463D01*
X0328100Y0022275D01*
X0327822Y0022094D01*
X0327540Y0021921D01*
X0327254Y0021754D01*
X0326964Y0021594D01*
X0326670Y0021441D01*
X0326372Y0021296D01*
X0326071Y0021158D01*
X0325766Y0021028D01*
X0325459Y0020905D01*
X0325148Y0020789D01*
X0324835Y0020681D01*
X0324519Y0020581D01*
X0324201Y0020489D01*
X0323880Y0020405D01*
X0323558Y0020328D01*
X0323234Y0020259D01*
X0322908Y0020199D01*
X0322581Y0020146D01*
X0322253Y0020102D01*
X0321923Y0020065D01*
X0321593Y0020037D01*
X0321262Y0020016D01*
X0320931Y0020004D01*
X0320600Y0020000D01*
X0320269Y0020004D01*
X0319938Y0020016D01*
X0319607Y0020037D01*
X0319277Y0020065D01*
X0318947Y0020102D01*
X0318619Y0020146D01*
X0318292Y0020199D01*
X0317966Y0020259D01*
X0317642Y0020328D01*
X0317320Y0020405D01*
X0316999Y0020489D01*
X0316681Y0020581D01*
X0316365Y0020681D01*
X0316052Y0020789D01*
X0315741Y0020905D01*
X0315434Y0021028D01*
X0315129Y0021158D01*
X0314828Y0021296D01*
X0314530Y0021441D01*
X0314236Y0021594D01*
X0313946Y0021754D01*
X0313660Y0021921D01*
X0313378Y0022094D01*
X0313100Y0022275D01*
X0312827Y0022463D01*
X0312558Y0022657D01*
X0312294Y0022857D01*
X0312036Y0023064D01*
X0311782Y0023278D01*
X0311534Y0023497D01*
X0311291Y0023723D01*
X0311054Y0023954D01*
X0310823Y0024191D01*
X0310597Y0024434D01*
X0310378Y0024682D01*
X0310164Y0024936D01*
X0309957Y0025194D01*
X0309757Y0025458D01*
X0309563Y0025727D01*
X0309375Y0026000D01*
X0309194Y0026278D01*
X0309021Y0026560D01*
X0308854Y0026846D01*
X0308694Y0027136D01*
X0308541Y0027430D01*
X0308396Y0027728D01*
X0308258Y0028029D01*
X0308128Y0028334D01*
X0308005Y0028641D01*
X0307889Y0028952D01*
X0307781Y0029265D01*
X0307681Y0029581D01*
X0307589Y0029899D01*
X0307505Y0030220D01*
X0307428Y0030542D01*
X0307359Y0030866D01*
X0307299Y0031192D01*
X0307246Y0031519D01*
X0307202Y0031847D01*
X0307165Y0032177D01*
X0307137Y0032507D01*
X0307116Y0032838D01*
X0307104Y0033169D01*
X0307100Y0033500D01*
X0286100Y0031000D02*
X0286100Y0046000D01*
X0286098Y0046060D01*
X0286093Y0046121D01*
X0286084Y0046180D01*
X0286071Y0046239D01*
X0286055Y0046298D01*
X0286035Y0046355D01*
X0286012Y0046410D01*
X0285985Y0046465D01*
X0285956Y0046517D01*
X0285923Y0046568D01*
X0285887Y0046617D01*
X0285849Y0046663D01*
X0285807Y0046707D01*
X0285763Y0046749D01*
X0285717Y0046787D01*
X0285668Y0046823D01*
X0285617Y0046856D01*
X0285565Y0046885D01*
X0285510Y0046912D01*
X0285455Y0046935D01*
X0285398Y0046955D01*
X0285339Y0046971D01*
X0285280Y0046984D01*
X0285221Y0046993D01*
X0285160Y0046998D01*
X0285100Y0047000D01*
X0279100Y0049500D01*
X0226100Y0049500D01*
X0220100Y0047000D01*
X0220040Y0046998D01*
X0219979Y0046993D01*
X0219920Y0046984D01*
X0219861Y0046971D01*
X0219802Y0046955D01*
X0219745Y0046935D01*
X0219690Y0046912D01*
X0219635Y0046885D01*
X0219583Y0046856D01*
X0219532Y0046823D01*
X0219483Y0046787D01*
X0219437Y0046749D01*
X0219393Y0046707D01*
X0219351Y0046663D01*
X0219313Y0046617D01*
X0219277Y0046568D01*
X0219244Y0046517D01*
X0219215Y0046465D01*
X0219188Y0046410D01*
X0219165Y0046355D01*
X0219145Y0046298D01*
X0219129Y0046239D01*
X0219116Y0046180D01*
X0219107Y0046121D01*
X0219102Y0046060D01*
X0219100Y0046000D01*
X0219100Y0031000D01*
X0219102Y0030940D01*
X0219107Y0030879D01*
X0219116Y0030820D01*
X0219129Y0030761D01*
X0219145Y0030702D01*
X0219165Y0030645D01*
X0219188Y0030590D01*
X0219215Y0030535D01*
X0219244Y0030483D01*
X0219277Y0030432D01*
X0219313Y0030383D01*
X0219351Y0030337D01*
X0219393Y0030293D01*
X0219437Y0030251D01*
X0219483Y0030213D01*
X0219532Y0030177D01*
X0219583Y0030144D01*
X0219635Y0030115D01*
X0219690Y0030088D01*
X0219745Y0030065D01*
X0219802Y0030045D01*
X0219861Y0030029D01*
X0219920Y0030016D01*
X0219979Y0030007D01*
X0220040Y0030002D01*
X0220100Y0030000D01*
X0226100Y0027500D01*
X0279100Y0027500D01*
X0285100Y0030000D01*
X0285160Y0030002D01*
X0285221Y0030007D01*
X0285280Y0030016D01*
X0285339Y0030029D01*
X0285398Y0030045D01*
X0285455Y0030065D01*
X0285510Y0030088D01*
X0285565Y0030115D01*
X0285617Y0030144D01*
X0285668Y0030177D01*
X0285717Y0030213D01*
X0285763Y0030251D01*
X0285807Y0030293D01*
X0285849Y0030337D01*
X0285887Y0030383D01*
X0285923Y0030432D01*
X0285956Y0030483D01*
X0285985Y0030535D01*
X0286012Y0030590D01*
X0286035Y0030645D01*
X0286055Y0030702D01*
X0286071Y0030761D01*
X0286084Y0030820D01*
X0286093Y0030879D01*
X0286098Y0030940D01*
X0286100Y0031000D01*
X0238039Y0014200D02*
X0235106Y0009800D01*
X0233567Y0009800D02*
X0231611Y0009800D01*
X0231611Y0012244D02*
X0233078Y0012244D01*
D11*
X0076129Y0133731D02*
X0076129Y0134271D01*
X0076130Y0134270D02*
X0076210Y0134274D01*
X0076291Y0134281D01*
X0076370Y0134291D01*
X0076450Y0134306D01*
X0076528Y0134324D01*
X0076606Y0134346D01*
X0076682Y0134371D01*
X0076757Y0134400D01*
X0076831Y0134432D01*
X0076903Y0134468D01*
X0076974Y0134507D01*
X0077042Y0134549D01*
X0077109Y0134594D01*
X0077173Y0134643D01*
X0077235Y0134694D01*
X0077294Y0134749D01*
X0077351Y0134806D01*
X0077406Y0134865D01*
X0077457Y0134927D01*
X0077506Y0134991D01*
X0077551Y0135058D01*
X0077593Y0135126D01*
X0077632Y0135197D01*
X0077668Y0135269D01*
X0077700Y0135343D01*
X0077729Y0135418D01*
X0077754Y0135494D01*
X0077776Y0135572D01*
X0077794Y0135650D01*
X0077809Y0135730D01*
X0077819Y0135809D01*
X0077826Y0135890D01*
X0077830Y0135970D01*
X0078369Y0135971D01*
X0078370Y0135970D01*
X0078367Y0135875D01*
X0078359Y0135781D01*
X0078348Y0135687D01*
X0078333Y0135593D01*
X0078314Y0135500D01*
X0078292Y0135408D01*
X0078265Y0135317D01*
X0078235Y0135228D01*
X0078201Y0135139D01*
X0078163Y0135052D01*
X0078121Y0134967D01*
X0078077Y0134884D01*
X0078028Y0134802D01*
X0077977Y0134723D01*
X0077922Y0134646D01*
X0077864Y0134571D01*
X0077802Y0134498D01*
X0077738Y0134429D01*
X0077671Y0134362D01*
X0077602Y0134298D01*
X0077529Y0134236D01*
X0077454Y0134178D01*
X0077377Y0134123D01*
X0077298Y0134072D01*
X0077216Y0134023D01*
X0077133Y0133979D01*
X0077048Y0133937D01*
X0076961Y0133899D01*
X0076872Y0133865D01*
X0076783Y0133835D01*
X0076692Y0133808D01*
X0076600Y0133786D01*
X0076507Y0133767D01*
X0076413Y0133752D01*
X0076319Y0133741D01*
X0076225Y0133733D01*
X0076130Y0133730D01*
X0076130Y0133786D01*
X0076222Y0133789D01*
X0076314Y0133796D01*
X0076406Y0133807D01*
X0076497Y0133822D01*
X0076588Y0133840D01*
X0076677Y0133863D01*
X0076766Y0133889D01*
X0076854Y0133918D01*
X0076940Y0133951D01*
X0077024Y0133988D01*
X0077108Y0134029D01*
X0077189Y0134072D01*
X0077268Y0134119D01*
X0077346Y0134170D01*
X0077421Y0134223D01*
X0077494Y0134280D01*
X0077565Y0134340D01*
X0077633Y0134402D01*
X0077698Y0134467D01*
X0077760Y0134535D01*
X0077820Y0134606D01*
X0077877Y0134679D01*
X0077930Y0134754D01*
X0077981Y0134832D01*
X0078028Y0134911D01*
X0078071Y0134992D01*
X0078112Y0135076D01*
X0078149Y0135160D01*
X0078182Y0135246D01*
X0078211Y0135334D01*
X0078237Y0135423D01*
X0078260Y0135512D01*
X0078278Y0135603D01*
X0078293Y0135694D01*
X0078304Y0135786D01*
X0078311Y0135878D01*
X0078314Y0135970D01*
X0078258Y0135970D01*
X0078255Y0135878D01*
X0078247Y0135785D01*
X0078236Y0135694D01*
X0078221Y0135602D01*
X0078202Y0135512D01*
X0078179Y0135422D01*
X0078153Y0135334D01*
X0078122Y0135246D01*
X0078088Y0135160D01*
X0078050Y0135076D01*
X0078009Y0134993D01*
X0077964Y0134912D01*
X0077916Y0134833D01*
X0077864Y0134757D01*
X0077809Y0134682D01*
X0077751Y0134610D01*
X0077690Y0134541D01*
X0077626Y0134474D01*
X0077559Y0134410D01*
X0077490Y0134349D01*
X0077418Y0134291D01*
X0077343Y0134236D01*
X0077267Y0134184D01*
X0077188Y0134136D01*
X0077107Y0134091D01*
X0077024Y0134050D01*
X0076940Y0134012D01*
X0076854Y0133978D01*
X0076766Y0133947D01*
X0076678Y0133921D01*
X0076588Y0133898D01*
X0076498Y0133879D01*
X0076406Y0133864D01*
X0076315Y0133853D01*
X0076222Y0133845D01*
X0076130Y0133842D01*
X0076130Y0133898D01*
X0076220Y0133901D01*
X0076310Y0133908D01*
X0076399Y0133919D01*
X0076488Y0133934D01*
X0076576Y0133953D01*
X0076663Y0133975D01*
X0076750Y0134001D01*
X0076835Y0134031D01*
X0076918Y0134064D01*
X0077000Y0134101D01*
X0077081Y0134141D01*
X0077160Y0134185D01*
X0077236Y0134232D01*
X0077311Y0134282D01*
X0077384Y0134335D01*
X0077454Y0134392D01*
X0077521Y0134451D01*
X0077586Y0134514D01*
X0077649Y0134579D01*
X0077708Y0134646D01*
X0077765Y0134716D01*
X0077818Y0134789D01*
X0077868Y0134864D01*
X0077915Y0134940D01*
X0077959Y0135019D01*
X0077999Y0135100D01*
X0078036Y0135182D01*
X0078069Y0135265D01*
X0078099Y0135350D01*
X0078125Y0135437D01*
X0078147Y0135524D01*
X0078166Y0135612D01*
X0078181Y0135701D01*
X0078192Y0135790D01*
X0078199Y0135880D01*
X0078202Y0135970D01*
X0078146Y0135970D01*
X0078143Y0135882D01*
X0078136Y0135795D01*
X0078125Y0135708D01*
X0078111Y0135622D01*
X0078093Y0135536D01*
X0078071Y0135451D01*
X0078046Y0135367D01*
X0078017Y0135285D01*
X0077984Y0135203D01*
X0077949Y0135123D01*
X0077909Y0135045D01*
X0077867Y0134968D01*
X0077821Y0134894D01*
X0077772Y0134821D01*
X0077720Y0134751D01*
X0077665Y0134682D01*
X0077607Y0134617D01*
X0077547Y0134553D01*
X0077483Y0134493D01*
X0077418Y0134435D01*
X0077349Y0134380D01*
X0077279Y0134328D01*
X0077206Y0134279D01*
X0077132Y0134233D01*
X0077055Y0134191D01*
X0076977Y0134151D01*
X0076897Y0134116D01*
X0076815Y0134083D01*
X0076733Y0134054D01*
X0076649Y0134029D01*
X0076564Y0134007D01*
X0076478Y0133989D01*
X0076392Y0133975D01*
X0076305Y0133964D01*
X0076218Y0133957D01*
X0076130Y0133954D01*
X0076130Y0134010D01*
X0076218Y0134013D01*
X0076305Y0134021D01*
X0076392Y0134032D01*
X0076478Y0134046D01*
X0076564Y0134065D01*
X0076648Y0134087D01*
X0076732Y0134113D01*
X0076814Y0134143D01*
X0076895Y0134176D01*
X0076975Y0134213D01*
X0077053Y0134253D01*
X0077129Y0134297D01*
X0077203Y0134343D01*
X0077275Y0134394D01*
X0077344Y0134447D01*
X0077411Y0134503D01*
X0077476Y0134562D01*
X0077538Y0134624D01*
X0077597Y0134689D01*
X0077653Y0134756D01*
X0077706Y0134825D01*
X0077757Y0134897D01*
X0077803Y0134971D01*
X0077847Y0135047D01*
X0077887Y0135125D01*
X0077924Y0135205D01*
X0077957Y0135286D01*
X0077987Y0135368D01*
X0078013Y0135452D01*
X0078035Y0135536D01*
X0078054Y0135622D01*
X0078068Y0135708D01*
X0078079Y0135795D01*
X0078087Y0135882D01*
X0078090Y0135970D01*
X0078034Y0135970D01*
X0078031Y0135885D01*
X0078024Y0135800D01*
X0078013Y0135716D01*
X0077999Y0135632D01*
X0077981Y0135549D01*
X0077959Y0135467D01*
X0077934Y0135385D01*
X0077905Y0135305D01*
X0077873Y0135227D01*
X0077837Y0135149D01*
X0077798Y0135074D01*
X0077755Y0135000D01*
X0077710Y0134928D01*
X0077661Y0134858D01*
X0077609Y0134791D01*
X0077555Y0134726D01*
X0077497Y0134663D01*
X0077437Y0134603D01*
X0077374Y0134545D01*
X0077309Y0134491D01*
X0077242Y0134439D01*
X0077172Y0134390D01*
X0077100Y0134345D01*
X0077026Y0134302D01*
X0076951Y0134263D01*
X0076873Y0134227D01*
X0076795Y0134195D01*
X0076715Y0134166D01*
X0076633Y0134141D01*
X0076551Y0134119D01*
X0076468Y0134101D01*
X0076384Y0134087D01*
X0076300Y0134076D01*
X0076215Y0134069D01*
X0076130Y0134066D01*
X0076130Y0134122D01*
X0076215Y0134126D01*
X0076300Y0134133D01*
X0076384Y0134144D01*
X0076468Y0134158D01*
X0076551Y0134177D01*
X0076633Y0134199D01*
X0076714Y0134225D01*
X0076793Y0134255D01*
X0076871Y0134288D01*
X0076948Y0134324D01*
X0077023Y0134365D01*
X0077096Y0134408D01*
X0077167Y0134455D01*
X0077236Y0134505D01*
X0077302Y0134557D01*
X0077367Y0134613D01*
X0077428Y0134672D01*
X0077487Y0134733D01*
X0077543Y0134798D01*
X0077595Y0134864D01*
X0077645Y0134933D01*
X0077692Y0135004D01*
X0077735Y0135077D01*
X0077776Y0135152D01*
X0077812Y0135229D01*
X0077845Y0135307D01*
X0077875Y0135386D01*
X0077901Y0135467D01*
X0077923Y0135549D01*
X0077942Y0135632D01*
X0077956Y0135716D01*
X0077967Y0135800D01*
X0077974Y0135885D01*
X0077978Y0135970D01*
X0077922Y0135970D01*
X0077919Y0135888D01*
X0077912Y0135806D01*
X0077901Y0135724D01*
X0077887Y0135643D01*
X0077869Y0135562D01*
X0077847Y0135483D01*
X0077822Y0135404D01*
X0077793Y0135327D01*
X0077761Y0135251D01*
X0077725Y0135177D01*
X0077687Y0135104D01*
X0077644Y0135033D01*
X0077599Y0134965D01*
X0077551Y0134898D01*
X0077499Y0134833D01*
X0077445Y0134771D01*
X0077388Y0134712D01*
X0077329Y0134655D01*
X0077267Y0134601D01*
X0077202Y0134549D01*
X0077135Y0134501D01*
X0077067Y0134456D01*
X0076996Y0134413D01*
X0076923Y0134375D01*
X0076849Y0134339D01*
X0076773Y0134307D01*
X0076696Y0134278D01*
X0076617Y0134253D01*
X0076538Y0134231D01*
X0076457Y0134213D01*
X0076376Y0134199D01*
X0076294Y0134188D01*
X0076212Y0134181D01*
X0076130Y0134178D01*
X0076130Y0134234D01*
X0076212Y0134238D01*
X0076294Y0134245D01*
X0076376Y0134256D01*
X0076457Y0134270D01*
X0076537Y0134289D01*
X0076616Y0134311D01*
X0076694Y0134337D01*
X0076771Y0134366D01*
X0076846Y0134399D01*
X0076920Y0134436D01*
X0076992Y0134476D01*
X0077062Y0134519D01*
X0077130Y0134565D01*
X0077195Y0134615D01*
X0077259Y0134667D01*
X0077319Y0134723D01*
X0077377Y0134781D01*
X0077433Y0134841D01*
X0077485Y0134905D01*
X0077535Y0134970D01*
X0077581Y0135038D01*
X0077624Y0135108D01*
X0077664Y0135180D01*
X0077701Y0135254D01*
X0077734Y0135329D01*
X0077763Y0135406D01*
X0077789Y0135484D01*
X0077811Y0135563D01*
X0077830Y0135643D01*
X0077844Y0135724D01*
X0077855Y0135806D01*
X0077862Y0135888D01*
X0077866Y0135970D01*
X0068831Y0135971D02*
X0069371Y0135971D01*
X0069370Y0135970D02*
X0069374Y0135890D01*
X0069381Y0135809D01*
X0069391Y0135730D01*
X0069406Y0135650D01*
X0069424Y0135572D01*
X0069446Y0135494D01*
X0069471Y0135418D01*
X0069500Y0135343D01*
X0069532Y0135269D01*
X0069568Y0135197D01*
X0069607Y0135126D01*
X0069649Y0135058D01*
X0069694Y0134991D01*
X0069743Y0134927D01*
X0069794Y0134865D01*
X0069849Y0134806D01*
X0069906Y0134749D01*
X0069965Y0134694D01*
X0070027Y0134643D01*
X0070091Y0134594D01*
X0070158Y0134549D01*
X0070226Y0134507D01*
X0070297Y0134468D01*
X0070369Y0134432D01*
X0070443Y0134400D01*
X0070518Y0134371D01*
X0070594Y0134346D01*
X0070672Y0134324D01*
X0070750Y0134306D01*
X0070830Y0134291D01*
X0070909Y0134281D01*
X0070990Y0134274D01*
X0071070Y0134270D01*
X0071071Y0133731D01*
X0071070Y0133730D01*
X0070975Y0133733D01*
X0070881Y0133741D01*
X0070787Y0133752D01*
X0070693Y0133767D01*
X0070600Y0133786D01*
X0070508Y0133808D01*
X0070417Y0133835D01*
X0070328Y0133865D01*
X0070239Y0133899D01*
X0070152Y0133937D01*
X0070067Y0133979D01*
X0069984Y0134023D01*
X0069902Y0134072D01*
X0069823Y0134123D01*
X0069746Y0134178D01*
X0069671Y0134236D01*
X0069598Y0134298D01*
X0069529Y0134362D01*
X0069462Y0134429D01*
X0069398Y0134498D01*
X0069336Y0134571D01*
X0069278Y0134646D01*
X0069223Y0134723D01*
X0069172Y0134802D01*
X0069123Y0134884D01*
X0069079Y0134967D01*
X0069037Y0135052D01*
X0068999Y0135139D01*
X0068965Y0135228D01*
X0068935Y0135317D01*
X0068908Y0135408D01*
X0068886Y0135500D01*
X0068867Y0135593D01*
X0068852Y0135687D01*
X0068841Y0135781D01*
X0068833Y0135875D01*
X0068830Y0135970D01*
X0068886Y0135970D01*
X0068889Y0135878D01*
X0068896Y0135786D01*
X0068907Y0135694D01*
X0068922Y0135603D01*
X0068940Y0135512D01*
X0068963Y0135423D01*
X0068989Y0135334D01*
X0069018Y0135246D01*
X0069051Y0135160D01*
X0069088Y0135076D01*
X0069129Y0134992D01*
X0069172Y0134911D01*
X0069219Y0134832D01*
X0069270Y0134754D01*
X0069323Y0134679D01*
X0069380Y0134606D01*
X0069440Y0134535D01*
X0069502Y0134467D01*
X0069567Y0134402D01*
X0069635Y0134340D01*
X0069706Y0134280D01*
X0069779Y0134223D01*
X0069854Y0134170D01*
X0069932Y0134119D01*
X0070011Y0134072D01*
X0070092Y0134029D01*
X0070176Y0133988D01*
X0070260Y0133951D01*
X0070346Y0133918D01*
X0070434Y0133889D01*
X0070523Y0133863D01*
X0070612Y0133840D01*
X0070703Y0133822D01*
X0070794Y0133807D01*
X0070886Y0133796D01*
X0070978Y0133789D01*
X0071070Y0133786D01*
X0071070Y0133842D01*
X0070978Y0133845D01*
X0070885Y0133853D01*
X0070794Y0133864D01*
X0070702Y0133879D01*
X0070612Y0133898D01*
X0070522Y0133921D01*
X0070434Y0133947D01*
X0070346Y0133978D01*
X0070260Y0134012D01*
X0070176Y0134050D01*
X0070093Y0134091D01*
X0070012Y0134136D01*
X0069933Y0134184D01*
X0069857Y0134236D01*
X0069782Y0134291D01*
X0069710Y0134349D01*
X0069641Y0134410D01*
X0069574Y0134474D01*
X0069510Y0134541D01*
X0069449Y0134610D01*
X0069391Y0134682D01*
X0069336Y0134757D01*
X0069284Y0134833D01*
X0069236Y0134912D01*
X0069191Y0134993D01*
X0069150Y0135076D01*
X0069112Y0135160D01*
X0069078Y0135246D01*
X0069047Y0135334D01*
X0069021Y0135422D01*
X0068998Y0135512D01*
X0068979Y0135602D01*
X0068964Y0135694D01*
X0068953Y0135785D01*
X0068945Y0135878D01*
X0068942Y0135970D01*
X0068998Y0135970D01*
X0069001Y0135880D01*
X0069008Y0135790D01*
X0069019Y0135701D01*
X0069034Y0135612D01*
X0069053Y0135524D01*
X0069075Y0135437D01*
X0069101Y0135350D01*
X0069131Y0135265D01*
X0069164Y0135182D01*
X0069201Y0135100D01*
X0069241Y0135019D01*
X0069285Y0134940D01*
X0069332Y0134864D01*
X0069382Y0134789D01*
X0069435Y0134716D01*
X0069492Y0134646D01*
X0069551Y0134579D01*
X0069614Y0134514D01*
X0069679Y0134451D01*
X0069746Y0134392D01*
X0069816Y0134335D01*
X0069889Y0134282D01*
X0069964Y0134232D01*
X0070040Y0134185D01*
X0070119Y0134141D01*
X0070200Y0134101D01*
X0070282Y0134064D01*
X0070365Y0134031D01*
X0070450Y0134001D01*
X0070537Y0133975D01*
X0070624Y0133953D01*
X0070712Y0133934D01*
X0070801Y0133919D01*
X0070890Y0133908D01*
X0070980Y0133901D01*
X0071070Y0133898D01*
X0071070Y0133954D01*
X0070982Y0133957D01*
X0070895Y0133964D01*
X0070808Y0133975D01*
X0070722Y0133989D01*
X0070636Y0134007D01*
X0070551Y0134029D01*
X0070467Y0134054D01*
X0070385Y0134083D01*
X0070303Y0134116D01*
X0070223Y0134151D01*
X0070145Y0134191D01*
X0070068Y0134233D01*
X0069994Y0134279D01*
X0069921Y0134328D01*
X0069851Y0134380D01*
X0069782Y0134435D01*
X0069717Y0134493D01*
X0069653Y0134553D01*
X0069593Y0134617D01*
X0069535Y0134682D01*
X0069480Y0134751D01*
X0069428Y0134821D01*
X0069379Y0134894D01*
X0069333Y0134968D01*
X0069291Y0135045D01*
X0069251Y0135123D01*
X0069216Y0135203D01*
X0069183Y0135285D01*
X0069154Y0135367D01*
X0069129Y0135451D01*
X0069107Y0135536D01*
X0069089Y0135622D01*
X0069075Y0135708D01*
X0069064Y0135795D01*
X0069057Y0135882D01*
X0069054Y0135970D01*
X0069110Y0135970D01*
X0069113Y0135882D01*
X0069121Y0135795D01*
X0069132Y0135708D01*
X0069146Y0135622D01*
X0069165Y0135536D01*
X0069187Y0135452D01*
X0069213Y0135368D01*
X0069243Y0135286D01*
X0069276Y0135205D01*
X0069313Y0135125D01*
X0069353Y0135047D01*
X0069397Y0134971D01*
X0069443Y0134897D01*
X0069494Y0134825D01*
X0069547Y0134756D01*
X0069603Y0134689D01*
X0069662Y0134624D01*
X0069724Y0134562D01*
X0069789Y0134503D01*
X0069856Y0134447D01*
X0069925Y0134394D01*
X0069997Y0134343D01*
X0070071Y0134297D01*
X0070147Y0134253D01*
X0070225Y0134213D01*
X0070305Y0134176D01*
X0070386Y0134143D01*
X0070468Y0134113D01*
X0070552Y0134087D01*
X0070636Y0134065D01*
X0070722Y0134046D01*
X0070808Y0134032D01*
X0070895Y0134021D01*
X0070982Y0134013D01*
X0071070Y0134010D01*
X0071070Y0134066D01*
X0070985Y0134069D01*
X0070900Y0134076D01*
X0070816Y0134087D01*
X0070732Y0134101D01*
X0070649Y0134119D01*
X0070567Y0134141D01*
X0070485Y0134166D01*
X0070405Y0134195D01*
X0070327Y0134227D01*
X0070249Y0134263D01*
X0070174Y0134302D01*
X0070100Y0134345D01*
X0070028Y0134390D01*
X0069958Y0134439D01*
X0069891Y0134491D01*
X0069826Y0134545D01*
X0069763Y0134603D01*
X0069703Y0134663D01*
X0069645Y0134726D01*
X0069591Y0134791D01*
X0069539Y0134858D01*
X0069490Y0134928D01*
X0069445Y0135000D01*
X0069402Y0135074D01*
X0069363Y0135149D01*
X0069327Y0135227D01*
X0069295Y0135305D01*
X0069266Y0135385D01*
X0069241Y0135467D01*
X0069219Y0135549D01*
X0069201Y0135632D01*
X0069187Y0135716D01*
X0069176Y0135800D01*
X0069169Y0135885D01*
X0069166Y0135970D01*
X0069222Y0135970D01*
X0069226Y0135885D01*
X0069233Y0135800D01*
X0069244Y0135716D01*
X0069258Y0135632D01*
X0069277Y0135549D01*
X0069299Y0135467D01*
X0069325Y0135386D01*
X0069355Y0135307D01*
X0069388Y0135229D01*
X0069424Y0135152D01*
X0069465Y0135077D01*
X0069508Y0135004D01*
X0069555Y0134933D01*
X0069605Y0134864D01*
X0069657Y0134798D01*
X0069713Y0134733D01*
X0069772Y0134672D01*
X0069833Y0134613D01*
X0069898Y0134557D01*
X0069964Y0134505D01*
X0070033Y0134455D01*
X0070104Y0134408D01*
X0070177Y0134365D01*
X0070252Y0134324D01*
X0070329Y0134288D01*
X0070407Y0134255D01*
X0070486Y0134225D01*
X0070567Y0134199D01*
X0070649Y0134177D01*
X0070732Y0134158D01*
X0070816Y0134144D01*
X0070900Y0134133D01*
X0070985Y0134126D01*
X0071070Y0134122D01*
X0071070Y0134178D01*
X0070988Y0134181D01*
X0070906Y0134188D01*
X0070824Y0134199D01*
X0070743Y0134213D01*
X0070662Y0134231D01*
X0070583Y0134253D01*
X0070504Y0134278D01*
X0070427Y0134307D01*
X0070351Y0134339D01*
X0070277Y0134375D01*
X0070204Y0134413D01*
X0070133Y0134456D01*
X0070065Y0134501D01*
X0069998Y0134549D01*
X0069933Y0134601D01*
X0069871Y0134655D01*
X0069812Y0134712D01*
X0069755Y0134771D01*
X0069701Y0134833D01*
X0069649Y0134898D01*
X0069601Y0134965D01*
X0069556Y0135033D01*
X0069513Y0135104D01*
X0069475Y0135177D01*
X0069439Y0135251D01*
X0069407Y0135327D01*
X0069378Y0135404D01*
X0069353Y0135483D01*
X0069331Y0135562D01*
X0069313Y0135643D01*
X0069299Y0135724D01*
X0069288Y0135806D01*
X0069281Y0135888D01*
X0069278Y0135970D01*
X0069334Y0135970D01*
X0069338Y0135888D01*
X0069345Y0135806D01*
X0069356Y0135724D01*
X0069370Y0135643D01*
X0069389Y0135563D01*
X0069411Y0135484D01*
X0069437Y0135406D01*
X0069466Y0135329D01*
X0069499Y0135254D01*
X0069536Y0135180D01*
X0069576Y0135108D01*
X0069619Y0135038D01*
X0069665Y0134970D01*
X0069715Y0134905D01*
X0069767Y0134841D01*
X0069823Y0134781D01*
X0069881Y0134723D01*
X0069941Y0134667D01*
X0070005Y0134615D01*
X0070070Y0134565D01*
X0070138Y0134519D01*
X0070208Y0134476D01*
X0070280Y0134436D01*
X0070354Y0134399D01*
X0070429Y0134366D01*
X0070506Y0134337D01*
X0070584Y0134311D01*
X0070663Y0134289D01*
X0070743Y0134270D01*
X0070824Y0134256D01*
X0070906Y0134245D01*
X0070988Y0134238D01*
X0071070Y0134234D01*
X0071071Y0151269D02*
X0071071Y0150729D01*
X0071070Y0150730D02*
X0070990Y0150726D01*
X0070909Y0150719D01*
X0070830Y0150709D01*
X0070750Y0150694D01*
X0070672Y0150676D01*
X0070594Y0150654D01*
X0070518Y0150629D01*
X0070443Y0150600D01*
X0070369Y0150568D01*
X0070297Y0150532D01*
X0070226Y0150493D01*
X0070158Y0150451D01*
X0070091Y0150406D01*
X0070027Y0150357D01*
X0069965Y0150306D01*
X0069906Y0150251D01*
X0069849Y0150194D01*
X0069794Y0150135D01*
X0069743Y0150073D01*
X0069694Y0150009D01*
X0069649Y0149942D01*
X0069607Y0149874D01*
X0069568Y0149803D01*
X0069532Y0149731D01*
X0069500Y0149657D01*
X0069471Y0149582D01*
X0069446Y0149506D01*
X0069424Y0149428D01*
X0069406Y0149350D01*
X0069391Y0149270D01*
X0069381Y0149191D01*
X0069374Y0149110D01*
X0069370Y0149030D01*
X0068831Y0149029D01*
X0068830Y0149030D01*
X0068833Y0149125D01*
X0068841Y0149219D01*
X0068852Y0149313D01*
X0068867Y0149407D01*
X0068886Y0149500D01*
X0068908Y0149592D01*
X0068935Y0149683D01*
X0068965Y0149772D01*
X0068999Y0149861D01*
X0069037Y0149948D01*
X0069079Y0150033D01*
X0069123Y0150116D01*
X0069172Y0150198D01*
X0069223Y0150277D01*
X0069278Y0150354D01*
X0069336Y0150429D01*
X0069398Y0150502D01*
X0069462Y0150571D01*
X0069529Y0150638D01*
X0069598Y0150702D01*
X0069671Y0150764D01*
X0069746Y0150822D01*
X0069823Y0150877D01*
X0069902Y0150928D01*
X0069984Y0150977D01*
X0070067Y0151021D01*
X0070152Y0151063D01*
X0070239Y0151101D01*
X0070328Y0151135D01*
X0070417Y0151165D01*
X0070508Y0151192D01*
X0070600Y0151214D01*
X0070693Y0151233D01*
X0070787Y0151248D01*
X0070881Y0151259D01*
X0070975Y0151267D01*
X0071070Y0151270D01*
X0071070Y0151214D01*
X0070978Y0151211D01*
X0070886Y0151204D01*
X0070794Y0151193D01*
X0070703Y0151178D01*
X0070612Y0151160D01*
X0070523Y0151137D01*
X0070434Y0151111D01*
X0070346Y0151082D01*
X0070260Y0151049D01*
X0070176Y0151012D01*
X0070092Y0150971D01*
X0070011Y0150928D01*
X0069932Y0150881D01*
X0069854Y0150830D01*
X0069779Y0150777D01*
X0069706Y0150720D01*
X0069635Y0150660D01*
X0069567Y0150598D01*
X0069502Y0150533D01*
X0069440Y0150465D01*
X0069380Y0150394D01*
X0069323Y0150321D01*
X0069270Y0150246D01*
X0069219Y0150168D01*
X0069172Y0150089D01*
X0069129Y0150008D01*
X0069088Y0149924D01*
X0069051Y0149840D01*
X0069018Y0149754D01*
X0068989Y0149666D01*
X0068963Y0149577D01*
X0068940Y0149488D01*
X0068922Y0149397D01*
X0068907Y0149306D01*
X0068896Y0149214D01*
X0068889Y0149122D01*
X0068886Y0149030D01*
X0068942Y0149030D01*
X0068945Y0149122D01*
X0068953Y0149215D01*
X0068964Y0149306D01*
X0068979Y0149398D01*
X0068998Y0149488D01*
X0069021Y0149578D01*
X0069047Y0149666D01*
X0069078Y0149754D01*
X0069112Y0149840D01*
X0069150Y0149924D01*
X0069191Y0150007D01*
X0069236Y0150088D01*
X0069284Y0150167D01*
X0069336Y0150243D01*
X0069391Y0150318D01*
X0069449Y0150390D01*
X0069510Y0150459D01*
X0069574Y0150526D01*
X0069641Y0150590D01*
X0069710Y0150651D01*
X0069782Y0150709D01*
X0069857Y0150764D01*
X0069933Y0150816D01*
X0070012Y0150864D01*
X0070093Y0150909D01*
X0070176Y0150950D01*
X0070260Y0150988D01*
X0070346Y0151022D01*
X0070434Y0151053D01*
X0070522Y0151079D01*
X0070612Y0151102D01*
X0070702Y0151121D01*
X0070794Y0151136D01*
X0070885Y0151147D01*
X0070978Y0151155D01*
X0071070Y0151158D01*
X0071070Y0151102D01*
X0070980Y0151099D01*
X0070890Y0151092D01*
X0070801Y0151081D01*
X0070712Y0151066D01*
X0070624Y0151047D01*
X0070537Y0151025D01*
X0070450Y0150999D01*
X0070365Y0150969D01*
X0070282Y0150936D01*
X0070200Y0150899D01*
X0070119Y0150859D01*
X0070040Y0150815D01*
X0069964Y0150768D01*
X0069889Y0150718D01*
X0069816Y0150665D01*
X0069746Y0150608D01*
X0069679Y0150549D01*
X0069614Y0150486D01*
X0069551Y0150421D01*
X0069492Y0150354D01*
X0069435Y0150284D01*
X0069382Y0150211D01*
X0069332Y0150136D01*
X0069285Y0150060D01*
X0069241Y0149981D01*
X0069201Y0149900D01*
X0069164Y0149818D01*
X0069131Y0149735D01*
X0069101Y0149650D01*
X0069075Y0149563D01*
X0069053Y0149476D01*
X0069034Y0149388D01*
X0069019Y0149299D01*
X0069008Y0149210D01*
X0069001Y0149120D01*
X0068998Y0149030D01*
X0069054Y0149030D01*
X0069057Y0149118D01*
X0069064Y0149205D01*
X0069075Y0149292D01*
X0069089Y0149378D01*
X0069107Y0149464D01*
X0069129Y0149549D01*
X0069154Y0149633D01*
X0069183Y0149715D01*
X0069216Y0149797D01*
X0069251Y0149877D01*
X0069291Y0149955D01*
X0069333Y0150032D01*
X0069379Y0150106D01*
X0069428Y0150179D01*
X0069480Y0150249D01*
X0069535Y0150318D01*
X0069593Y0150383D01*
X0069653Y0150447D01*
X0069717Y0150507D01*
X0069782Y0150565D01*
X0069851Y0150620D01*
X0069921Y0150672D01*
X0069994Y0150721D01*
X0070068Y0150767D01*
X0070145Y0150809D01*
X0070223Y0150849D01*
X0070303Y0150884D01*
X0070385Y0150917D01*
X0070467Y0150946D01*
X0070551Y0150971D01*
X0070636Y0150993D01*
X0070722Y0151011D01*
X0070808Y0151025D01*
X0070895Y0151036D01*
X0070982Y0151043D01*
X0071070Y0151046D01*
X0071070Y0150990D01*
X0070982Y0150987D01*
X0070895Y0150979D01*
X0070808Y0150968D01*
X0070722Y0150954D01*
X0070636Y0150935D01*
X0070552Y0150913D01*
X0070468Y0150887D01*
X0070386Y0150857D01*
X0070305Y0150824D01*
X0070225Y0150787D01*
X0070147Y0150747D01*
X0070071Y0150703D01*
X0069997Y0150657D01*
X0069925Y0150606D01*
X0069856Y0150553D01*
X0069789Y0150497D01*
X0069724Y0150438D01*
X0069662Y0150376D01*
X0069603Y0150311D01*
X0069547Y0150244D01*
X0069494Y0150175D01*
X0069443Y0150103D01*
X0069397Y0150029D01*
X0069353Y0149953D01*
X0069313Y0149875D01*
X0069276Y0149795D01*
X0069243Y0149714D01*
X0069213Y0149632D01*
X0069187Y0149548D01*
X0069165Y0149464D01*
X0069146Y0149378D01*
X0069132Y0149292D01*
X0069121Y0149205D01*
X0069113Y0149118D01*
X0069110Y0149030D01*
X0069166Y0149030D01*
X0069169Y0149115D01*
X0069176Y0149200D01*
X0069187Y0149284D01*
X0069201Y0149368D01*
X0069219Y0149451D01*
X0069241Y0149533D01*
X0069266Y0149615D01*
X0069295Y0149695D01*
X0069327Y0149773D01*
X0069363Y0149851D01*
X0069402Y0149926D01*
X0069445Y0150000D01*
X0069490Y0150072D01*
X0069539Y0150142D01*
X0069591Y0150209D01*
X0069645Y0150274D01*
X0069703Y0150337D01*
X0069763Y0150397D01*
X0069826Y0150455D01*
X0069891Y0150509D01*
X0069958Y0150561D01*
X0070028Y0150610D01*
X0070100Y0150655D01*
X0070174Y0150698D01*
X0070249Y0150737D01*
X0070327Y0150773D01*
X0070405Y0150805D01*
X0070485Y0150834D01*
X0070567Y0150859D01*
X0070649Y0150881D01*
X0070732Y0150899D01*
X0070816Y0150913D01*
X0070900Y0150924D01*
X0070985Y0150931D01*
X0071070Y0150934D01*
X0071070Y0150878D01*
X0070985Y0150874D01*
X0070900Y0150867D01*
X0070816Y0150856D01*
X0070732Y0150842D01*
X0070649Y0150823D01*
X0070567Y0150801D01*
X0070486Y0150775D01*
X0070407Y0150745D01*
X0070329Y0150712D01*
X0070252Y0150676D01*
X0070177Y0150635D01*
X0070104Y0150592D01*
X0070033Y0150545D01*
X0069964Y0150495D01*
X0069898Y0150443D01*
X0069833Y0150387D01*
X0069772Y0150328D01*
X0069713Y0150267D01*
X0069657Y0150202D01*
X0069605Y0150136D01*
X0069555Y0150067D01*
X0069508Y0149996D01*
X0069465Y0149923D01*
X0069424Y0149848D01*
X0069388Y0149771D01*
X0069355Y0149693D01*
X0069325Y0149614D01*
X0069299Y0149533D01*
X0069277Y0149451D01*
X0069258Y0149368D01*
X0069244Y0149284D01*
X0069233Y0149200D01*
X0069226Y0149115D01*
X0069222Y0149030D01*
X0069278Y0149030D01*
X0069281Y0149112D01*
X0069288Y0149194D01*
X0069299Y0149276D01*
X0069313Y0149357D01*
X0069331Y0149438D01*
X0069353Y0149517D01*
X0069378Y0149596D01*
X0069407Y0149673D01*
X0069439Y0149749D01*
X0069475Y0149823D01*
X0069513Y0149896D01*
X0069556Y0149967D01*
X0069601Y0150035D01*
X0069649Y0150102D01*
X0069701Y0150167D01*
X0069755Y0150229D01*
X0069812Y0150288D01*
X0069871Y0150345D01*
X0069933Y0150399D01*
X0069998Y0150451D01*
X0070065Y0150499D01*
X0070133Y0150544D01*
X0070204Y0150587D01*
X0070277Y0150625D01*
X0070351Y0150661D01*
X0070427Y0150693D01*
X0070504Y0150722D01*
X0070583Y0150747D01*
X0070662Y0150769D01*
X0070743Y0150787D01*
X0070824Y0150801D01*
X0070906Y0150812D01*
X0070988Y0150819D01*
X0071070Y0150822D01*
X0071070Y0150766D01*
X0070988Y0150762D01*
X0070906Y0150755D01*
X0070824Y0150744D01*
X0070743Y0150730D01*
X0070663Y0150711D01*
X0070584Y0150689D01*
X0070506Y0150663D01*
X0070429Y0150634D01*
X0070354Y0150601D01*
X0070280Y0150564D01*
X0070208Y0150524D01*
X0070138Y0150481D01*
X0070070Y0150435D01*
X0070005Y0150385D01*
X0069941Y0150333D01*
X0069881Y0150277D01*
X0069823Y0150219D01*
X0069767Y0150159D01*
X0069715Y0150095D01*
X0069665Y0150030D01*
X0069619Y0149962D01*
X0069576Y0149892D01*
X0069536Y0149820D01*
X0069499Y0149746D01*
X0069466Y0149671D01*
X0069437Y0149594D01*
X0069411Y0149516D01*
X0069389Y0149437D01*
X0069370Y0149357D01*
X0069356Y0149276D01*
X0069345Y0149194D01*
X0069338Y0149112D01*
X0069334Y0149030D01*
X0078369Y0149029D02*
X0077829Y0149029D01*
X0077830Y0149030D02*
X0077826Y0149110D01*
X0077819Y0149191D01*
X0077809Y0149270D01*
X0077794Y0149350D01*
X0077776Y0149428D01*
X0077754Y0149506D01*
X0077729Y0149582D01*
X0077700Y0149657D01*
X0077668Y0149731D01*
X0077632Y0149803D01*
X0077593Y0149874D01*
X0077551Y0149942D01*
X0077506Y0150009D01*
X0077457Y0150073D01*
X0077406Y0150135D01*
X0077351Y0150194D01*
X0077294Y0150251D01*
X0077235Y0150306D01*
X0077173Y0150357D01*
X0077109Y0150406D01*
X0077042Y0150451D01*
X0076974Y0150493D01*
X0076903Y0150532D01*
X0076831Y0150568D01*
X0076757Y0150600D01*
X0076682Y0150629D01*
X0076606Y0150654D01*
X0076528Y0150676D01*
X0076450Y0150694D01*
X0076370Y0150709D01*
X0076291Y0150719D01*
X0076210Y0150726D01*
X0076130Y0150730D01*
X0076129Y0151269D01*
X0076130Y0151270D01*
X0076225Y0151267D01*
X0076319Y0151259D01*
X0076413Y0151248D01*
X0076507Y0151233D01*
X0076600Y0151214D01*
X0076692Y0151192D01*
X0076783Y0151165D01*
X0076872Y0151135D01*
X0076961Y0151101D01*
X0077048Y0151063D01*
X0077133Y0151021D01*
X0077216Y0150977D01*
X0077298Y0150928D01*
X0077377Y0150877D01*
X0077454Y0150822D01*
X0077529Y0150764D01*
X0077602Y0150702D01*
X0077671Y0150638D01*
X0077738Y0150571D01*
X0077802Y0150502D01*
X0077864Y0150429D01*
X0077922Y0150354D01*
X0077977Y0150277D01*
X0078028Y0150198D01*
X0078077Y0150116D01*
X0078121Y0150033D01*
X0078163Y0149948D01*
X0078201Y0149861D01*
X0078235Y0149772D01*
X0078265Y0149683D01*
X0078292Y0149592D01*
X0078314Y0149500D01*
X0078333Y0149407D01*
X0078348Y0149313D01*
X0078359Y0149219D01*
X0078367Y0149125D01*
X0078370Y0149030D01*
X0078314Y0149030D01*
X0078311Y0149122D01*
X0078304Y0149214D01*
X0078293Y0149306D01*
X0078278Y0149397D01*
X0078260Y0149488D01*
X0078237Y0149577D01*
X0078211Y0149666D01*
X0078182Y0149754D01*
X0078149Y0149840D01*
X0078112Y0149924D01*
X0078071Y0150008D01*
X0078028Y0150089D01*
X0077981Y0150168D01*
X0077930Y0150246D01*
X0077877Y0150321D01*
X0077820Y0150394D01*
X0077760Y0150465D01*
X0077698Y0150533D01*
X0077633Y0150598D01*
X0077565Y0150660D01*
X0077494Y0150720D01*
X0077421Y0150777D01*
X0077346Y0150830D01*
X0077268Y0150881D01*
X0077189Y0150928D01*
X0077108Y0150971D01*
X0077024Y0151012D01*
X0076940Y0151049D01*
X0076854Y0151082D01*
X0076766Y0151111D01*
X0076677Y0151137D01*
X0076588Y0151160D01*
X0076497Y0151178D01*
X0076406Y0151193D01*
X0076314Y0151204D01*
X0076222Y0151211D01*
X0076130Y0151214D01*
X0076130Y0151158D01*
X0076222Y0151155D01*
X0076315Y0151147D01*
X0076406Y0151136D01*
X0076498Y0151121D01*
X0076588Y0151102D01*
X0076678Y0151079D01*
X0076766Y0151053D01*
X0076854Y0151022D01*
X0076940Y0150988D01*
X0077024Y0150950D01*
X0077107Y0150909D01*
X0077188Y0150864D01*
X0077267Y0150816D01*
X0077343Y0150764D01*
X0077418Y0150709D01*
X0077490Y0150651D01*
X0077559Y0150590D01*
X0077626Y0150526D01*
X0077690Y0150459D01*
X0077751Y0150390D01*
X0077809Y0150318D01*
X0077864Y0150243D01*
X0077916Y0150167D01*
X0077964Y0150088D01*
X0078009Y0150007D01*
X0078050Y0149924D01*
X0078088Y0149840D01*
X0078122Y0149754D01*
X0078153Y0149666D01*
X0078179Y0149578D01*
X0078202Y0149488D01*
X0078221Y0149398D01*
X0078236Y0149306D01*
X0078247Y0149215D01*
X0078255Y0149122D01*
X0078258Y0149030D01*
X0078202Y0149030D01*
X0078199Y0149120D01*
X0078192Y0149210D01*
X0078181Y0149299D01*
X0078166Y0149388D01*
X0078147Y0149476D01*
X0078125Y0149563D01*
X0078099Y0149650D01*
X0078069Y0149735D01*
X0078036Y0149818D01*
X0077999Y0149900D01*
X0077959Y0149981D01*
X0077915Y0150060D01*
X0077868Y0150136D01*
X0077818Y0150211D01*
X0077765Y0150284D01*
X0077708Y0150354D01*
X0077649Y0150421D01*
X0077586Y0150486D01*
X0077521Y0150549D01*
X0077454Y0150608D01*
X0077384Y0150665D01*
X0077311Y0150718D01*
X0077236Y0150768D01*
X0077160Y0150815D01*
X0077081Y0150859D01*
X0077000Y0150899D01*
X0076918Y0150936D01*
X0076835Y0150969D01*
X0076750Y0150999D01*
X0076663Y0151025D01*
X0076576Y0151047D01*
X0076488Y0151066D01*
X0076399Y0151081D01*
X0076310Y0151092D01*
X0076220Y0151099D01*
X0076130Y0151102D01*
X0076130Y0151046D01*
X0076218Y0151043D01*
X0076305Y0151036D01*
X0076392Y0151025D01*
X0076478Y0151011D01*
X0076564Y0150993D01*
X0076649Y0150971D01*
X0076733Y0150946D01*
X0076815Y0150917D01*
X0076897Y0150884D01*
X0076977Y0150849D01*
X0077055Y0150809D01*
X0077132Y0150767D01*
X0077206Y0150721D01*
X0077279Y0150672D01*
X0077349Y0150620D01*
X0077418Y0150565D01*
X0077483Y0150507D01*
X0077547Y0150447D01*
X0077607Y0150383D01*
X0077665Y0150318D01*
X0077720Y0150249D01*
X0077772Y0150179D01*
X0077821Y0150106D01*
X0077867Y0150032D01*
X0077909Y0149955D01*
X0077949Y0149877D01*
X0077984Y0149797D01*
X0078017Y0149715D01*
X0078046Y0149633D01*
X0078071Y0149549D01*
X0078093Y0149464D01*
X0078111Y0149378D01*
X0078125Y0149292D01*
X0078136Y0149205D01*
X0078143Y0149118D01*
X0078146Y0149030D01*
X0078090Y0149030D01*
X0078087Y0149118D01*
X0078079Y0149205D01*
X0078068Y0149292D01*
X0078054Y0149378D01*
X0078035Y0149464D01*
X0078013Y0149548D01*
X0077987Y0149632D01*
X0077957Y0149714D01*
X0077924Y0149795D01*
X0077887Y0149875D01*
X0077847Y0149953D01*
X0077803Y0150029D01*
X0077757Y0150103D01*
X0077706Y0150175D01*
X0077653Y0150244D01*
X0077597Y0150311D01*
X0077538Y0150376D01*
X0077476Y0150438D01*
X0077411Y0150497D01*
X0077344Y0150553D01*
X0077275Y0150606D01*
X0077203Y0150657D01*
X0077129Y0150703D01*
X0077053Y0150747D01*
X0076975Y0150787D01*
X0076895Y0150824D01*
X0076814Y0150857D01*
X0076732Y0150887D01*
X0076648Y0150913D01*
X0076564Y0150935D01*
X0076478Y0150954D01*
X0076392Y0150968D01*
X0076305Y0150979D01*
X0076218Y0150987D01*
X0076130Y0150990D01*
X0076130Y0150934D01*
X0076215Y0150931D01*
X0076300Y0150924D01*
X0076384Y0150913D01*
X0076468Y0150899D01*
X0076551Y0150881D01*
X0076633Y0150859D01*
X0076715Y0150834D01*
X0076795Y0150805D01*
X0076873Y0150773D01*
X0076951Y0150737D01*
X0077026Y0150698D01*
X0077100Y0150655D01*
X0077172Y0150610D01*
X0077242Y0150561D01*
X0077309Y0150509D01*
X0077374Y0150455D01*
X0077437Y0150397D01*
X0077497Y0150337D01*
X0077555Y0150274D01*
X0077609Y0150209D01*
X0077661Y0150142D01*
X0077710Y0150072D01*
X0077755Y0150000D01*
X0077798Y0149926D01*
X0077837Y0149851D01*
X0077873Y0149773D01*
X0077905Y0149695D01*
X0077934Y0149615D01*
X0077959Y0149533D01*
X0077981Y0149451D01*
X0077999Y0149368D01*
X0078013Y0149284D01*
X0078024Y0149200D01*
X0078031Y0149115D01*
X0078034Y0149030D01*
X0077978Y0149030D01*
X0077974Y0149115D01*
X0077967Y0149200D01*
X0077956Y0149284D01*
X0077942Y0149368D01*
X0077923Y0149451D01*
X0077901Y0149533D01*
X0077875Y0149614D01*
X0077845Y0149693D01*
X0077812Y0149771D01*
X0077776Y0149848D01*
X0077735Y0149923D01*
X0077692Y0149996D01*
X0077645Y0150067D01*
X0077595Y0150136D01*
X0077543Y0150202D01*
X0077487Y0150267D01*
X0077428Y0150328D01*
X0077367Y0150387D01*
X0077302Y0150443D01*
X0077236Y0150495D01*
X0077167Y0150545D01*
X0077096Y0150592D01*
X0077023Y0150635D01*
X0076948Y0150676D01*
X0076871Y0150712D01*
X0076793Y0150745D01*
X0076714Y0150775D01*
X0076633Y0150801D01*
X0076551Y0150823D01*
X0076468Y0150842D01*
X0076384Y0150856D01*
X0076300Y0150867D01*
X0076215Y0150874D01*
X0076130Y0150878D01*
X0076130Y0150822D01*
X0076212Y0150819D01*
X0076294Y0150812D01*
X0076376Y0150801D01*
X0076457Y0150787D01*
X0076538Y0150769D01*
X0076617Y0150747D01*
X0076696Y0150722D01*
X0076773Y0150693D01*
X0076849Y0150661D01*
X0076923Y0150625D01*
X0076996Y0150587D01*
X0077067Y0150544D01*
X0077135Y0150499D01*
X0077202Y0150451D01*
X0077267Y0150399D01*
X0077329Y0150345D01*
X0077388Y0150288D01*
X0077445Y0150229D01*
X0077499Y0150167D01*
X0077551Y0150102D01*
X0077599Y0150035D01*
X0077644Y0149967D01*
X0077687Y0149896D01*
X0077725Y0149823D01*
X0077761Y0149749D01*
X0077793Y0149673D01*
X0077822Y0149596D01*
X0077847Y0149517D01*
X0077869Y0149438D01*
X0077887Y0149357D01*
X0077901Y0149276D01*
X0077912Y0149194D01*
X0077919Y0149112D01*
X0077922Y0149030D01*
X0077866Y0149030D01*
X0077862Y0149112D01*
X0077855Y0149194D01*
X0077844Y0149276D01*
X0077830Y0149357D01*
X0077811Y0149437D01*
X0077789Y0149516D01*
X0077763Y0149594D01*
X0077734Y0149671D01*
X0077701Y0149746D01*
X0077664Y0149820D01*
X0077624Y0149892D01*
X0077581Y0149962D01*
X0077535Y0150030D01*
X0077485Y0150095D01*
X0077433Y0150159D01*
X0077377Y0150219D01*
X0077319Y0150277D01*
X0077259Y0150333D01*
X0077195Y0150385D01*
X0077130Y0150435D01*
X0077062Y0150481D01*
X0076992Y0150524D01*
X0076920Y0150564D01*
X0076846Y0150601D01*
X0076771Y0150634D01*
X0076694Y0150663D01*
X0076616Y0150689D01*
X0076537Y0150711D01*
X0076457Y0150730D01*
X0076376Y0150744D01*
X0076294Y0150755D01*
X0076212Y0150762D01*
X0076130Y0150766D01*
D12*
X0076600Y0143700D02*
X0073600Y0143700D01*
X0070600Y0143700D01*
X0070600Y0141200D02*
X0073600Y0141200D01*
X0076600Y0141200D01*
D13*
X0081149Y0147200D02*
X0083114Y0147200D01*
X0083168Y0147202D01*
X0083221Y0147207D01*
X0083274Y0147216D01*
X0083326Y0147229D01*
X0083377Y0147245D01*
X0083427Y0147265D01*
X0083476Y0147288D01*
X0083522Y0147314D01*
X0083567Y0147344D01*
X0083610Y0147376D01*
X0083650Y0147412D01*
X0083688Y0147450D01*
X0083724Y0147490D01*
X0083756Y0147533D01*
X0083786Y0147578D01*
X0083812Y0147624D01*
X0083835Y0147673D01*
X0083855Y0147723D01*
X0083871Y0147774D01*
X0083884Y0147826D01*
X0083893Y0147879D01*
X0083898Y0147932D01*
X0083900Y0147986D01*
X0083900Y0148772D01*
X0083900Y0150164D02*
X0083900Y0152129D01*
X0083900Y0150164D02*
X0081935Y0151835D01*
X0080363Y0151245D02*
X0080365Y0151180D01*
X0080370Y0151115D01*
X0080380Y0151051D01*
X0080393Y0150988D01*
X0080409Y0150925D01*
X0080429Y0150863D01*
X0080453Y0150802D01*
X0080480Y0150743D01*
X0080510Y0150686D01*
X0080544Y0150630D01*
X0080580Y0150577D01*
X0080620Y0150525D01*
X0080663Y0150476D01*
X0080708Y0150430D01*
X0080756Y0150386D01*
X0080806Y0150345D01*
X0080858Y0150307D01*
X0080913Y0150272D01*
X0080970Y0150240D01*
X0081028Y0150211D01*
X0081088Y0150186D01*
X0081149Y0150164D01*
X0081935Y0151835D02*
X0081893Y0151877D01*
X0081848Y0151916D01*
X0081801Y0151952D01*
X0081752Y0151985D01*
X0081701Y0152014D01*
X0081648Y0152041D01*
X0081594Y0152064D01*
X0081538Y0152084D01*
X0081481Y0152101D01*
X0081423Y0152113D01*
X0081365Y0152123D01*
X0081306Y0152128D01*
X0081247Y0152130D01*
X0081247Y0152129D02*
X0081189Y0152127D01*
X0081132Y0152121D01*
X0081075Y0152112D01*
X0081018Y0152099D01*
X0080963Y0152082D01*
X0080909Y0152062D01*
X0080856Y0152038D01*
X0080805Y0152011D01*
X0080756Y0151980D01*
X0080709Y0151946D01*
X0080664Y0151910D01*
X0080622Y0151870D01*
X0080582Y0151828D01*
X0080546Y0151783D01*
X0080512Y0151736D01*
X0080481Y0151687D01*
X0080454Y0151636D01*
X0080430Y0151583D01*
X0080410Y0151529D01*
X0080393Y0151474D01*
X0080380Y0151417D01*
X0080371Y0151360D01*
X0080365Y0151303D01*
X0080363Y0151245D01*
X0080363Y0148772D02*
X0080363Y0147986D01*
X0080365Y0147932D01*
X0080370Y0147879D01*
X0080379Y0147826D01*
X0080392Y0147774D01*
X0080408Y0147723D01*
X0080428Y0147673D01*
X0080451Y0147624D01*
X0080477Y0147578D01*
X0080507Y0147533D01*
X0080539Y0147490D01*
X0080575Y0147450D01*
X0080613Y0147412D01*
X0080653Y0147376D01*
X0080696Y0147344D01*
X0080741Y0147314D01*
X0080787Y0147288D01*
X0080836Y0147265D01*
X0080886Y0147245D01*
X0080937Y0147229D01*
X0080989Y0147216D01*
X0081042Y0147207D01*
X0081095Y0147202D01*
X0081149Y0147200D01*
X0060400Y0132416D02*
X0060398Y0132474D01*
X0060392Y0132531D01*
X0060383Y0132588D01*
X0060370Y0132645D01*
X0060353Y0132700D01*
X0060333Y0132754D01*
X0060309Y0132807D01*
X0060282Y0132858D01*
X0060251Y0132907D01*
X0060217Y0132954D01*
X0060181Y0132999D01*
X0060141Y0133041D01*
X0060099Y0133081D01*
X0060054Y0133117D01*
X0060007Y0133151D01*
X0059958Y0133182D01*
X0059907Y0133209D01*
X0059854Y0133233D01*
X0059800Y0133253D01*
X0059745Y0133270D01*
X0059688Y0133283D01*
X0059631Y0133292D01*
X0059574Y0133298D01*
X0059516Y0133300D01*
X0060400Y0132416D02*
X0060398Y0132357D01*
X0060393Y0132298D01*
X0060383Y0132240D01*
X0060371Y0132182D01*
X0060354Y0132125D01*
X0060334Y0132069D01*
X0060311Y0132015D01*
X0060284Y0131962D01*
X0060255Y0131911D01*
X0060222Y0131862D01*
X0060186Y0131815D01*
X0060147Y0131770D01*
X0060105Y0131728D01*
X0058435Y0129763D01*
X0060400Y0129763D01*
X0056883Y0129763D02*
X0056097Y0131335D01*
X0055900Y0131335D02*
X0054918Y0131335D01*
X0055900Y0131334D02*
X0055962Y0131336D01*
X0056023Y0131342D01*
X0056084Y0131351D01*
X0056144Y0131365D01*
X0056204Y0131382D01*
X0056262Y0131403D01*
X0056319Y0131428D01*
X0056374Y0131456D01*
X0056427Y0131487D01*
X0056478Y0131522D01*
X0056527Y0131560D01*
X0056573Y0131600D01*
X0056617Y0131644D01*
X0056657Y0131690D01*
X0056695Y0131739D01*
X0056730Y0131790D01*
X0056761Y0131843D01*
X0056789Y0131898D01*
X0056814Y0131955D01*
X0056835Y0132013D01*
X0056852Y0132073D01*
X0056866Y0132133D01*
X0056875Y0132194D01*
X0056881Y0132255D01*
X0056883Y0132317D01*
X0056881Y0132379D01*
X0056875Y0132440D01*
X0056866Y0132501D01*
X0056852Y0132561D01*
X0056835Y0132621D01*
X0056814Y0132679D01*
X0056789Y0132736D01*
X0056761Y0132791D01*
X0056730Y0132844D01*
X0056695Y0132895D01*
X0056657Y0132944D01*
X0056617Y0132990D01*
X0056573Y0133034D01*
X0056527Y0133074D01*
X0056478Y0133112D01*
X0056427Y0133147D01*
X0056374Y0133178D01*
X0056319Y0133206D01*
X0056262Y0133231D01*
X0056204Y0133252D01*
X0056144Y0133269D01*
X0056084Y0133283D01*
X0056023Y0133292D01*
X0055962Y0133298D01*
X0055900Y0133300D01*
X0054918Y0133300D01*
X0054918Y0129763D01*
X0058435Y0132514D02*
X0058457Y0132575D01*
X0058482Y0132635D01*
X0058511Y0132693D01*
X0058543Y0132750D01*
X0058578Y0132805D01*
X0058616Y0132857D01*
X0058657Y0132907D01*
X0058701Y0132955D01*
X0058747Y0133001D01*
X0058796Y0133043D01*
X0058848Y0133083D01*
X0058901Y0133119D01*
X0058957Y0133153D01*
X0059014Y0133183D01*
X0059073Y0133210D01*
X0059134Y0133234D01*
X0059196Y0133254D01*
X0059259Y0133270D01*
X0059322Y0133283D01*
X0059386Y0133293D01*
X0059451Y0133298D01*
X0059516Y0133300D01*
X0030151Y0201724D02*
X0027595Y0201724D01*
X0028873Y0201724D02*
X0028873Y0206324D01*
X0027595Y0205301D01*
X0025501Y0205046D02*
X0025501Y0203001D01*
X0025499Y0202932D01*
X0025494Y0202863D01*
X0025484Y0202794D01*
X0025471Y0202726D01*
X0025454Y0202659D01*
X0025434Y0202593D01*
X0025410Y0202528D01*
X0025383Y0202464D01*
X0025352Y0202402D01*
X0025318Y0202342D01*
X0025281Y0202284D01*
X0025240Y0202228D01*
X0025197Y0202174D01*
X0025151Y0202122D01*
X0025102Y0202073D01*
X0025050Y0202027D01*
X0024996Y0201984D01*
X0024940Y0201943D01*
X0024882Y0201906D01*
X0024822Y0201872D01*
X0024760Y0201841D01*
X0024696Y0201814D01*
X0024631Y0201790D01*
X0024565Y0201770D01*
X0024498Y0201753D01*
X0024430Y0201740D01*
X0024361Y0201730D01*
X0024292Y0201725D01*
X0024223Y0201723D01*
X0024223Y0201724D02*
X0022945Y0201724D01*
X0022945Y0206324D01*
X0024223Y0206324D01*
X0024292Y0206322D01*
X0024361Y0206317D01*
X0024430Y0206307D01*
X0024498Y0206294D01*
X0024565Y0206277D01*
X0024631Y0206257D01*
X0024696Y0206233D01*
X0024760Y0206206D01*
X0024822Y0206175D01*
X0024882Y0206141D01*
X0024940Y0206104D01*
X0024996Y0206063D01*
X0025050Y0206020D01*
X0025102Y0205974D01*
X0025151Y0205925D01*
X0025197Y0205873D01*
X0025240Y0205819D01*
X0025281Y0205763D01*
X0025318Y0205705D01*
X0025352Y0205645D01*
X0025383Y0205583D01*
X0025410Y0205519D01*
X0025434Y0205454D01*
X0025454Y0205388D01*
X0025471Y0205321D01*
X0025484Y0205253D01*
X0025494Y0205184D01*
X0025499Y0205115D01*
X0025501Y0205046D01*
X0021076Y0206324D02*
X0020054Y0206324D01*
X0020054Y0206323D02*
X0019992Y0206321D01*
X0019931Y0206316D01*
X0019870Y0206306D01*
X0019809Y0206293D01*
X0019750Y0206277D01*
X0019692Y0206257D01*
X0019635Y0206233D01*
X0019579Y0206206D01*
X0019525Y0206176D01*
X0019473Y0206142D01*
X0019424Y0206105D01*
X0019376Y0206066D01*
X0019331Y0206024D01*
X0019289Y0205979D01*
X0019249Y0205931D01*
X0019213Y0205882D01*
X0019179Y0205830D01*
X0019149Y0205776D01*
X0019122Y0205720D01*
X0019098Y0205663D01*
X0019078Y0205605D01*
X0019062Y0205546D01*
X0019049Y0205485D01*
X0019039Y0205424D01*
X0019034Y0205363D01*
X0019032Y0205301D01*
X0019032Y0202746D01*
X0019034Y0202684D01*
X0019039Y0202623D01*
X0019049Y0202562D01*
X0019062Y0202501D01*
X0019078Y0202442D01*
X0019098Y0202384D01*
X0019122Y0202327D01*
X0019149Y0202271D01*
X0019179Y0202217D01*
X0019213Y0202165D01*
X0019249Y0202116D01*
X0019289Y0202068D01*
X0019331Y0202023D01*
X0019376Y0201981D01*
X0019424Y0201941D01*
X0019473Y0201905D01*
X0019525Y0201871D01*
X0019579Y0201841D01*
X0019635Y0201814D01*
X0019692Y0201790D01*
X0019750Y0201770D01*
X0019809Y0201754D01*
X0019870Y0201741D01*
X0019931Y0201731D01*
X0019992Y0201726D01*
X0020054Y0201724D01*
X0021076Y0201724D01*
X0017348Y0201724D02*
X0015304Y0201724D01*
X0015304Y0206324D01*
X0226300Y0136231D02*
X0226302Y0136298D01*
X0226308Y0136365D01*
X0226317Y0136431D01*
X0226331Y0136496D01*
X0226348Y0136561D01*
X0226369Y0136624D01*
X0226394Y0136686D01*
X0226422Y0136747D01*
X0226454Y0136806D01*
X0226489Y0136863D01*
X0226528Y0136918D01*
X0226569Y0136970D01*
X0226614Y0137020D01*
X0226661Y0137067D01*
X0226711Y0137112D01*
X0226763Y0137153D01*
X0226818Y0137192D01*
X0226875Y0137227D01*
X0226934Y0137259D01*
X0226995Y0137287D01*
X0227057Y0137312D01*
X0227120Y0137333D01*
X0227185Y0137350D01*
X0227250Y0137364D01*
X0227316Y0137373D01*
X0227383Y0137379D01*
X0227450Y0137381D01*
X0228344Y0136997D02*
X0230900Y0134825D01*
X0230900Y0137381D01*
X0227322Y0134826D02*
X0227252Y0134851D01*
X0227183Y0134879D01*
X0227116Y0134910D01*
X0227050Y0134945D01*
X0226987Y0134983D01*
X0226925Y0135025D01*
X0226865Y0135069D01*
X0226808Y0135116D01*
X0226753Y0135166D01*
X0226701Y0135219D01*
X0226651Y0135275D01*
X0226605Y0135332D01*
X0226561Y0135393D01*
X0226520Y0135455D01*
X0226483Y0135519D01*
X0226449Y0135585D01*
X0226418Y0135653D01*
X0226391Y0135722D01*
X0226367Y0135792D01*
X0226346Y0135863D01*
X0226330Y0135936D01*
X0226317Y0136009D01*
X0226307Y0136083D01*
X0226302Y0136157D01*
X0226300Y0136231D01*
X0227450Y0137380D02*
X0227517Y0137378D01*
X0227583Y0137373D01*
X0227649Y0137364D01*
X0227715Y0137351D01*
X0227779Y0137335D01*
X0227843Y0137316D01*
X0227906Y0137293D01*
X0227967Y0137267D01*
X0228027Y0137237D01*
X0228085Y0137204D01*
X0228141Y0137169D01*
X0228195Y0137130D01*
X0228247Y0137088D01*
X0228297Y0137044D01*
X0228344Y0136997D01*
X0226300Y0132686D02*
X0230900Y0132686D01*
X0228856Y0131153D02*
X0226300Y0132686D01*
X0228856Y0131153D02*
X0226300Y0129619D01*
X0230900Y0129619D01*
X0249979Y0057337D02*
X0251158Y0053800D01*
X0250863Y0054684D02*
X0249095Y0054684D01*
X0248800Y0053800D02*
X0249979Y0057337D01*
X0252658Y0057337D02*
X0254623Y0053800D01*
X0254623Y0057337D01*
X0256083Y0057337D02*
X0258048Y0057337D01*
X0257066Y0057337D02*
X0257066Y0053800D01*
X0252658Y0053800D02*
X0252658Y0057337D01*
D14*
X0279100Y0048000D02*
X0279100Y0029000D01*
X0226100Y0029000D02*
X0226100Y0048000D01*
X0196600Y0040000D02*
X0195600Y0040000D01*
X0195600Y0030500D01*
X0196600Y0030500D01*
X0173600Y0030500D02*
X0173600Y0040500D01*
X0172600Y0040500D01*
X0172600Y0030500D02*
X0173600Y0030500D01*
D15*
X0218450Y0038500D03*
X0286750Y0038500D03*
D16*
X0185600Y0120300D03*
X0185600Y0148700D03*
X0057600Y0116700D03*
X0057600Y0088300D03*
D17*
X0042600Y0043000D02*
X0042600Y0021500D01*
X0055100Y0021500D01*
X0055100Y0028000D01*
X0060100Y0028000D01*
X0060100Y0021500D01*
X0055100Y0021500D01*
X0060100Y0021500D02*
X0065100Y0021500D01*
X0065100Y0028000D01*
X0070100Y0028000D01*
X0070100Y0021500D01*
X0065100Y0021500D01*
X0070100Y0021500D02*
X0075100Y0021500D01*
X0075100Y0028000D01*
X0080100Y0028000D01*
X0080100Y0021500D01*
X0075100Y0021500D01*
X0080100Y0021500D02*
X0092600Y0021500D01*
X0092600Y0043000D01*
X0042600Y0043000D01*
X0042600Y0045500D01*
X0092600Y0045500D01*
X0092600Y0043000D01*
X0034789Y0080264D02*
X0310380Y0080264D01*
X0310380Y0178689D01*
X0034789Y0178689D01*
X0034789Y0080264D01*
X0015104Y0058610D02*
X0015104Y0200343D01*
X0330065Y0200343D01*
X0330065Y0058610D01*
X0289600Y0073500D02*
X0235600Y0073500D01*
X0235600Y0193500D01*
X0289600Y0193500D01*
X0289600Y0073500D01*
X0286100Y0076000D02*
X0281100Y0076000D01*
X0278600Y0078500D01*
X0278600Y0083500D01*
X0281100Y0086000D01*
X0286100Y0086000D01*
X0288600Y0083500D01*
X0288600Y0078500D01*
X0286100Y0076000D01*
X0196350Y0139283D02*
X0191850Y0139283D01*
X0191850Y0140533D01*
X0191852Y0140602D01*
X0191858Y0140671D01*
X0191867Y0140739D01*
X0191880Y0140806D01*
X0191897Y0140873D01*
X0191918Y0140939D01*
X0191942Y0141003D01*
X0191970Y0141066D01*
X0192001Y0141128D01*
X0192035Y0141188D01*
X0192073Y0141245D01*
X0192114Y0141301D01*
X0192157Y0141354D01*
X0192204Y0141405D01*
X0192253Y0141453D01*
X0192305Y0141498D01*
X0192360Y0141540D01*
X0192416Y0141579D01*
X0192475Y0141616D01*
X0192536Y0141648D01*
X0192598Y0141678D01*
X0192662Y0141704D01*
X0192727Y0141726D01*
X0192793Y0141745D01*
X0192860Y0141760D01*
X0192928Y0141771D01*
X0192997Y0141779D01*
X0193066Y0141783D01*
X0193134Y0141783D01*
X0193203Y0141779D01*
X0193272Y0141771D01*
X0193340Y0141760D01*
X0193407Y0141745D01*
X0193473Y0141726D01*
X0193538Y0141704D01*
X0193602Y0141678D01*
X0193664Y0141648D01*
X0193725Y0141616D01*
X0193784Y0141579D01*
X0193840Y0141540D01*
X0193895Y0141498D01*
X0193947Y0141453D01*
X0193996Y0141405D01*
X0194043Y0141354D01*
X0194086Y0141301D01*
X0194127Y0141245D01*
X0194165Y0141188D01*
X0194199Y0141128D01*
X0194230Y0141066D01*
X0194258Y0141003D01*
X0194282Y0140939D01*
X0194303Y0140873D01*
X0194320Y0140806D01*
X0194333Y0140739D01*
X0194342Y0140671D01*
X0194348Y0140602D01*
X0194350Y0140533D01*
X0194350Y0139283D01*
X0194350Y0140783D02*
X0196350Y0141783D01*
X0196350Y0143750D02*
X0196350Y0145000D01*
X0196348Y0145069D01*
X0196342Y0145138D01*
X0196333Y0145206D01*
X0196320Y0145273D01*
X0196303Y0145340D01*
X0196282Y0145406D01*
X0196258Y0145470D01*
X0196230Y0145533D01*
X0196199Y0145595D01*
X0196165Y0145655D01*
X0196127Y0145712D01*
X0196086Y0145768D01*
X0196043Y0145821D01*
X0195996Y0145872D01*
X0195947Y0145920D01*
X0195895Y0145965D01*
X0195840Y0146007D01*
X0195784Y0146046D01*
X0195725Y0146083D01*
X0195664Y0146115D01*
X0195602Y0146145D01*
X0195538Y0146171D01*
X0195473Y0146193D01*
X0195407Y0146212D01*
X0195340Y0146227D01*
X0195272Y0146238D01*
X0195203Y0146246D01*
X0195134Y0146250D01*
X0195066Y0146250D01*
X0194997Y0146246D01*
X0194928Y0146238D01*
X0194860Y0146227D01*
X0194793Y0146212D01*
X0194727Y0146193D01*
X0194662Y0146171D01*
X0194598Y0146145D01*
X0194536Y0146115D01*
X0194475Y0146083D01*
X0194416Y0146046D01*
X0194360Y0146007D01*
X0194305Y0145965D01*
X0194253Y0145920D01*
X0194204Y0145872D01*
X0194157Y0145821D01*
X0194114Y0145768D01*
X0194073Y0145712D01*
X0194035Y0145655D01*
X0194001Y0145595D01*
X0193970Y0145533D01*
X0193942Y0145470D01*
X0193918Y0145406D01*
X0193897Y0145340D01*
X0193880Y0145273D01*
X0193867Y0145206D01*
X0193858Y0145138D01*
X0193852Y0145069D01*
X0193850Y0145000D01*
X0193850Y0145250D02*
X0193850Y0144250D01*
X0193850Y0145250D02*
X0193848Y0145312D01*
X0193842Y0145373D01*
X0193833Y0145434D01*
X0193820Y0145494D01*
X0193803Y0145553D01*
X0193782Y0145611D01*
X0193758Y0145668D01*
X0193731Y0145723D01*
X0193700Y0145776D01*
X0193666Y0145828D01*
X0193629Y0145877D01*
X0193589Y0145924D01*
X0193546Y0145968D01*
X0193501Y0146009D01*
X0193453Y0146048D01*
X0193402Y0146084D01*
X0193350Y0146116D01*
X0193296Y0146145D01*
X0193240Y0146171D01*
X0193182Y0146193D01*
X0193124Y0146212D01*
X0193064Y0146227D01*
X0193003Y0146238D01*
X0192942Y0146246D01*
X0192881Y0146250D01*
X0192819Y0146250D01*
X0192758Y0146246D01*
X0192697Y0146238D01*
X0192636Y0146227D01*
X0192576Y0146212D01*
X0192518Y0146193D01*
X0192460Y0146171D01*
X0192404Y0146145D01*
X0192350Y0146116D01*
X0192298Y0146084D01*
X0192247Y0146048D01*
X0192199Y0146009D01*
X0192154Y0145968D01*
X0192111Y0145924D01*
X0192071Y0145877D01*
X0192034Y0145828D01*
X0192000Y0145776D01*
X0191969Y0145723D01*
X0191942Y0145668D01*
X0191918Y0145611D01*
X0191897Y0145553D01*
X0191880Y0145494D01*
X0191867Y0145434D01*
X0191858Y0145373D01*
X0191852Y0145312D01*
X0191850Y0145250D01*
X0191850Y0143750D01*
X0278600Y0146000D02*
X0278600Y0151000D01*
X0281100Y0153500D01*
X0278600Y0156000D01*
X0278600Y0161000D01*
X0281100Y0163500D01*
X0278600Y0166000D01*
X0278600Y0171000D01*
X0281100Y0173500D01*
X0278600Y0176000D01*
X0278600Y0181000D01*
X0281100Y0183500D01*
X0286100Y0183500D01*
X0288600Y0181000D01*
X0288600Y0176000D01*
X0286100Y0173500D01*
X0288600Y0171000D01*
X0288600Y0166000D01*
X0286100Y0163500D01*
X0288600Y0161000D01*
X0288600Y0156000D01*
X0286100Y0153500D01*
X0288600Y0151000D01*
X0288600Y0146000D01*
X0286100Y0143500D01*
X0281100Y0143500D01*
X0278600Y0146000D01*
X0106817Y0087750D02*
X0104317Y0087750D01*
X0105317Y0091250D01*
X0106067Y0088750D02*
X0106067Y0086750D01*
X0102350Y0086750D02*
X0101350Y0088750D01*
X0101100Y0088750D02*
X0099850Y0088750D01*
X0101100Y0088750D02*
X0101169Y0088752D01*
X0101238Y0088758D01*
X0101306Y0088767D01*
X0101373Y0088780D01*
X0101440Y0088797D01*
X0101506Y0088818D01*
X0101570Y0088842D01*
X0101633Y0088870D01*
X0101695Y0088901D01*
X0101755Y0088935D01*
X0101812Y0088973D01*
X0101868Y0089014D01*
X0101921Y0089057D01*
X0101972Y0089104D01*
X0102020Y0089153D01*
X0102065Y0089205D01*
X0102107Y0089260D01*
X0102146Y0089316D01*
X0102183Y0089375D01*
X0102215Y0089436D01*
X0102245Y0089498D01*
X0102271Y0089562D01*
X0102293Y0089627D01*
X0102312Y0089693D01*
X0102327Y0089760D01*
X0102338Y0089828D01*
X0102346Y0089897D01*
X0102350Y0089966D01*
X0102350Y0090034D01*
X0102346Y0090103D01*
X0102338Y0090172D01*
X0102327Y0090240D01*
X0102312Y0090307D01*
X0102293Y0090373D01*
X0102271Y0090438D01*
X0102245Y0090502D01*
X0102215Y0090564D01*
X0102183Y0090625D01*
X0102146Y0090684D01*
X0102107Y0090740D01*
X0102065Y0090795D01*
X0102020Y0090847D01*
X0101972Y0090896D01*
X0101921Y0090943D01*
X0101868Y0090986D01*
X0101812Y0091027D01*
X0101755Y0091065D01*
X0101695Y0091099D01*
X0101633Y0091130D01*
X0101570Y0091158D01*
X0101506Y0091182D01*
X0101440Y0091203D01*
X0101373Y0091220D01*
X0101306Y0091233D01*
X0101238Y0091242D01*
X0101169Y0091248D01*
X0101100Y0091250D01*
X0099850Y0091250D01*
X0099850Y0086750D01*
X0169850Y0030600D02*
X0169850Y0028100D01*
X0169850Y0029350D02*
X0165350Y0029350D01*
X0166350Y0028100D01*
X0167975Y0025750D02*
X0167225Y0024375D01*
X0165350Y0024875D02*
X0165352Y0024955D01*
X0165357Y0025036D01*
X0165366Y0025116D01*
X0165378Y0025195D01*
X0165393Y0025274D01*
X0165412Y0025352D01*
X0165434Y0025430D01*
X0165459Y0025506D01*
X0165488Y0025581D01*
X0165520Y0025655D01*
X0165555Y0025727D01*
X0165593Y0025798D01*
X0165634Y0025867D01*
X0165678Y0025935D01*
X0165725Y0026000D01*
X0167225Y0024375D02*
X0167192Y0024323D01*
X0167156Y0024272D01*
X0167117Y0024224D01*
X0167075Y0024179D01*
X0167030Y0024136D01*
X0166982Y0024096D01*
X0166933Y0024059D01*
X0166881Y0024025D01*
X0166827Y0023994D01*
X0166771Y0023966D01*
X0166714Y0023942D01*
X0166655Y0023922D01*
X0166596Y0023905D01*
X0166535Y0023892D01*
X0166474Y0023883D01*
X0166412Y0023877D01*
X0166350Y0023875D01*
X0166290Y0023877D01*
X0166229Y0023882D01*
X0166170Y0023891D01*
X0166111Y0023904D01*
X0166052Y0023920D01*
X0165995Y0023940D01*
X0165940Y0023963D01*
X0165885Y0023990D01*
X0165833Y0024019D01*
X0165782Y0024052D01*
X0165733Y0024088D01*
X0165687Y0024126D01*
X0165643Y0024168D01*
X0165601Y0024212D01*
X0165563Y0024258D01*
X0165527Y0024307D01*
X0165494Y0024358D01*
X0165465Y0024410D01*
X0165438Y0024465D01*
X0165415Y0024520D01*
X0165395Y0024577D01*
X0165379Y0024636D01*
X0165366Y0024695D01*
X0165357Y0024754D01*
X0165352Y0024815D01*
X0165350Y0024875D01*
X0169226Y0023750D02*
X0169287Y0023813D01*
X0169345Y0023878D01*
X0169401Y0023946D01*
X0169454Y0024017D01*
X0169503Y0024089D01*
X0169550Y0024163D01*
X0169594Y0024239D01*
X0169634Y0024317D01*
X0169671Y0024397D01*
X0169705Y0024478D01*
X0169735Y0024560D01*
X0169762Y0024644D01*
X0169786Y0024729D01*
X0169806Y0024814D01*
X0169822Y0024900D01*
X0169835Y0024987D01*
X0169844Y0025075D01*
X0169849Y0025162D01*
X0169851Y0025250D01*
X0169850Y0025250D02*
X0169848Y0025310D01*
X0169843Y0025371D01*
X0169834Y0025430D01*
X0169821Y0025489D01*
X0169805Y0025548D01*
X0169785Y0025605D01*
X0169762Y0025660D01*
X0169735Y0025715D01*
X0169706Y0025767D01*
X0169673Y0025818D01*
X0169637Y0025867D01*
X0169599Y0025913D01*
X0169557Y0025957D01*
X0169513Y0025999D01*
X0169467Y0026037D01*
X0169418Y0026073D01*
X0169367Y0026106D01*
X0169315Y0026135D01*
X0169260Y0026162D01*
X0169205Y0026185D01*
X0169148Y0026205D01*
X0169089Y0026221D01*
X0169030Y0026234D01*
X0168971Y0026243D01*
X0168910Y0026248D01*
X0168850Y0026250D01*
X0168788Y0026248D01*
X0168726Y0026242D01*
X0168665Y0026233D01*
X0168604Y0026220D01*
X0168545Y0026203D01*
X0168486Y0026183D01*
X0168429Y0026159D01*
X0168373Y0026131D01*
X0168319Y0026100D01*
X0168267Y0026066D01*
X0168218Y0026029D01*
X0168170Y0025989D01*
X0168125Y0025946D01*
X0168083Y0025901D01*
X0168044Y0025853D01*
X0168008Y0025802D01*
X0167975Y0025750D01*
X0026317Y0165250D02*
X0023817Y0165250D01*
X0025067Y0165250D02*
X0025067Y0169750D01*
X0023817Y0168750D01*
X0020600Y0169750D02*
X0020669Y0169748D01*
X0020738Y0169742D01*
X0020806Y0169733D01*
X0020873Y0169720D01*
X0020940Y0169703D01*
X0021006Y0169682D01*
X0021070Y0169658D01*
X0021133Y0169630D01*
X0021195Y0169599D01*
X0021255Y0169565D01*
X0021312Y0169527D01*
X0021368Y0169486D01*
X0021421Y0169443D01*
X0021472Y0169396D01*
X0021520Y0169347D01*
X0021565Y0169295D01*
X0021607Y0169240D01*
X0021646Y0169184D01*
X0021683Y0169125D01*
X0021715Y0169064D01*
X0021745Y0169002D01*
X0021771Y0168938D01*
X0021793Y0168873D01*
X0021812Y0168807D01*
X0021827Y0168740D01*
X0021838Y0168672D01*
X0021846Y0168603D01*
X0021850Y0168534D01*
X0021850Y0168466D01*
X0021846Y0168397D01*
X0021838Y0168328D01*
X0021827Y0168260D01*
X0021812Y0168193D01*
X0021793Y0168127D01*
X0021771Y0168062D01*
X0021745Y0167998D01*
X0021715Y0167936D01*
X0021683Y0167875D01*
X0021646Y0167816D01*
X0021607Y0167760D01*
X0021565Y0167705D01*
X0021520Y0167653D01*
X0021472Y0167604D01*
X0021421Y0167557D01*
X0021368Y0167514D01*
X0021312Y0167473D01*
X0021255Y0167435D01*
X0021195Y0167401D01*
X0021133Y0167370D01*
X0021070Y0167342D01*
X0021006Y0167318D01*
X0020940Y0167297D01*
X0020873Y0167280D01*
X0020806Y0167267D01*
X0020738Y0167258D01*
X0020669Y0167252D01*
X0020600Y0167250D01*
X0019350Y0167250D01*
X0020850Y0167250D02*
X0021850Y0165250D01*
X0019350Y0165250D02*
X0019350Y0169750D01*
X0020600Y0169750D01*
D18*
X0096429Y0036798D02*
X0098450Y0035080D01*
X0098450Y0037101D01*
X0095621Y0035081D02*
X0095558Y0035103D01*
X0095497Y0035129D01*
X0095437Y0035159D01*
X0095379Y0035191D01*
X0095322Y0035227D01*
X0095268Y0035267D01*
X0095217Y0035309D01*
X0095167Y0035354D01*
X0095121Y0035402D01*
X0095077Y0035452D01*
X0095036Y0035505D01*
X0094999Y0035560D01*
X0094964Y0035617D01*
X0094933Y0035676D01*
X0094905Y0035737D01*
X0094881Y0035799D01*
X0094860Y0035863D01*
X0094843Y0035927D01*
X0094830Y0035993D01*
X0094821Y0036059D01*
X0094815Y0036125D01*
X0094813Y0036192D01*
X0094815Y0036251D01*
X0094821Y0036311D01*
X0094830Y0036369D01*
X0094844Y0036427D01*
X0094861Y0036484D01*
X0094882Y0036540D01*
X0094907Y0036594D01*
X0094935Y0036647D01*
X0094966Y0036697D01*
X0095001Y0036745D01*
X0095039Y0036791D01*
X0095079Y0036835D01*
X0095123Y0036875D01*
X0095169Y0036913D01*
X0095217Y0036948D01*
X0095268Y0036979D01*
X0095320Y0037007D01*
X0095374Y0037032D01*
X0095430Y0037053D01*
X0095487Y0037070D01*
X0095545Y0037084D01*
X0095603Y0037093D01*
X0095663Y0037099D01*
X0095722Y0037101D01*
X0095783Y0037099D01*
X0095843Y0037093D01*
X0095904Y0037084D01*
X0095963Y0037071D01*
X0096021Y0037054D01*
X0096079Y0037034D01*
X0096135Y0037010D01*
X0096189Y0036982D01*
X0096241Y0036951D01*
X0096292Y0036917D01*
X0096340Y0036880D01*
X0096386Y0036841D01*
X0096429Y0036798D01*
X0094813Y0033734D02*
X0094813Y0032926D01*
X0094815Y0032871D01*
X0094821Y0032816D01*
X0094830Y0032762D01*
X0094843Y0032708D01*
X0094860Y0032655D01*
X0094880Y0032604D01*
X0094904Y0032554D01*
X0094931Y0032506D01*
X0094961Y0032460D01*
X0094994Y0032416D01*
X0095030Y0032374D01*
X0095070Y0032335D01*
X0095111Y0032299D01*
X0095155Y0032266D01*
X0095201Y0032236D01*
X0095249Y0032209D01*
X0095299Y0032185D01*
X0095350Y0032165D01*
X0095403Y0032148D01*
X0095457Y0032135D01*
X0095511Y0032126D01*
X0095566Y0032120D01*
X0095621Y0032118D01*
X0097642Y0032118D01*
X0097697Y0032120D01*
X0097752Y0032126D01*
X0097806Y0032135D01*
X0097860Y0032148D01*
X0097913Y0032165D01*
X0097964Y0032185D01*
X0098014Y0032209D01*
X0098062Y0032236D01*
X0098108Y0032266D01*
X0098152Y0032299D01*
X0098194Y0032335D01*
X0098233Y0032374D01*
X0098269Y0032416D01*
X0098302Y0032460D01*
X0098332Y0032506D01*
X0098359Y0032554D01*
X0098383Y0032604D01*
X0098403Y0032655D01*
X0098420Y0032708D01*
X0098433Y0032762D01*
X0098442Y0032816D01*
X0098448Y0032871D01*
X0098450Y0032926D01*
X0098450Y0033734D01*
X0098450Y0030707D02*
X0098450Y0029899D01*
X0098450Y0030303D02*
X0094813Y0030303D01*
X0094813Y0029899D02*
X0094813Y0030707D01*
D19*
X0014301Y0029500D02*
X0014303Y0029658D01*
X0014309Y0029816D01*
X0014319Y0029974D01*
X0014333Y0030132D01*
X0014351Y0030289D01*
X0014372Y0030446D01*
X0014398Y0030602D01*
X0014428Y0030758D01*
X0014461Y0030913D01*
X0014499Y0031066D01*
X0014540Y0031219D01*
X0014585Y0031371D01*
X0014634Y0031522D01*
X0014687Y0031671D01*
X0014743Y0031819D01*
X0014803Y0031965D01*
X0014867Y0032110D01*
X0014935Y0032253D01*
X0015006Y0032395D01*
X0015080Y0032535D01*
X0015158Y0032672D01*
X0015240Y0032808D01*
X0015324Y0032942D01*
X0015413Y0033073D01*
X0015504Y0033202D01*
X0015599Y0033329D01*
X0015696Y0033454D01*
X0015797Y0033576D01*
X0015901Y0033695D01*
X0016008Y0033812D01*
X0016118Y0033926D01*
X0016231Y0034037D01*
X0016346Y0034146D01*
X0016464Y0034251D01*
X0016585Y0034353D01*
X0016708Y0034453D01*
X0016834Y0034549D01*
X0016962Y0034642D01*
X0017092Y0034732D01*
X0017225Y0034818D01*
X0017360Y0034902D01*
X0017496Y0034981D01*
X0017635Y0035058D01*
X0017776Y0035130D01*
X0017918Y0035200D01*
X0018062Y0035265D01*
X0018208Y0035327D01*
X0018355Y0035385D01*
X0018504Y0035440D01*
X0018654Y0035491D01*
X0018805Y0035538D01*
X0018957Y0035581D01*
X0019110Y0035620D01*
X0019265Y0035656D01*
X0019420Y0035687D01*
X0019576Y0035715D01*
X0019732Y0035739D01*
X0019889Y0035759D01*
X0020047Y0035775D01*
X0020204Y0035787D01*
X0020363Y0035795D01*
X0020521Y0035799D01*
X0020679Y0035799D01*
X0020837Y0035795D01*
X0020996Y0035787D01*
X0021153Y0035775D01*
X0021311Y0035759D01*
X0021468Y0035739D01*
X0021624Y0035715D01*
X0021780Y0035687D01*
X0021935Y0035656D01*
X0022090Y0035620D01*
X0022243Y0035581D01*
X0022395Y0035538D01*
X0022546Y0035491D01*
X0022696Y0035440D01*
X0022845Y0035385D01*
X0022992Y0035327D01*
X0023138Y0035265D01*
X0023282Y0035200D01*
X0023424Y0035130D01*
X0023565Y0035058D01*
X0023704Y0034981D01*
X0023840Y0034902D01*
X0023975Y0034818D01*
X0024108Y0034732D01*
X0024238Y0034642D01*
X0024366Y0034549D01*
X0024492Y0034453D01*
X0024615Y0034353D01*
X0024736Y0034251D01*
X0024854Y0034146D01*
X0024969Y0034037D01*
X0025082Y0033926D01*
X0025192Y0033812D01*
X0025299Y0033695D01*
X0025403Y0033576D01*
X0025504Y0033454D01*
X0025601Y0033329D01*
X0025696Y0033202D01*
X0025787Y0033073D01*
X0025876Y0032942D01*
X0025960Y0032808D01*
X0026042Y0032672D01*
X0026120Y0032535D01*
X0026194Y0032395D01*
X0026265Y0032253D01*
X0026333Y0032110D01*
X0026397Y0031965D01*
X0026457Y0031819D01*
X0026513Y0031671D01*
X0026566Y0031522D01*
X0026615Y0031371D01*
X0026660Y0031219D01*
X0026701Y0031066D01*
X0026739Y0030913D01*
X0026772Y0030758D01*
X0026802Y0030602D01*
X0026828Y0030446D01*
X0026849Y0030289D01*
X0026867Y0030132D01*
X0026881Y0029974D01*
X0026891Y0029816D01*
X0026897Y0029658D01*
X0026899Y0029500D01*
X0026897Y0029342D01*
X0026891Y0029184D01*
X0026881Y0029026D01*
X0026867Y0028868D01*
X0026849Y0028711D01*
X0026828Y0028554D01*
X0026802Y0028398D01*
X0026772Y0028242D01*
X0026739Y0028087D01*
X0026701Y0027934D01*
X0026660Y0027781D01*
X0026615Y0027629D01*
X0026566Y0027478D01*
X0026513Y0027329D01*
X0026457Y0027181D01*
X0026397Y0027035D01*
X0026333Y0026890D01*
X0026265Y0026747D01*
X0026194Y0026605D01*
X0026120Y0026465D01*
X0026042Y0026328D01*
X0025960Y0026192D01*
X0025876Y0026058D01*
X0025787Y0025927D01*
X0025696Y0025798D01*
X0025601Y0025671D01*
X0025504Y0025546D01*
X0025403Y0025424D01*
X0025299Y0025305D01*
X0025192Y0025188D01*
X0025082Y0025074D01*
X0024969Y0024963D01*
X0024854Y0024854D01*
X0024736Y0024749D01*
X0024615Y0024647D01*
X0024492Y0024547D01*
X0024366Y0024451D01*
X0024238Y0024358D01*
X0024108Y0024268D01*
X0023975Y0024182D01*
X0023840Y0024098D01*
X0023704Y0024019D01*
X0023565Y0023942D01*
X0023424Y0023870D01*
X0023282Y0023800D01*
X0023138Y0023735D01*
X0022992Y0023673D01*
X0022845Y0023615D01*
X0022696Y0023560D01*
X0022546Y0023509D01*
X0022395Y0023462D01*
X0022243Y0023419D01*
X0022090Y0023380D01*
X0021935Y0023344D01*
X0021780Y0023313D01*
X0021624Y0023285D01*
X0021468Y0023261D01*
X0021311Y0023241D01*
X0021153Y0023225D01*
X0020996Y0023213D01*
X0020837Y0023205D01*
X0020679Y0023201D01*
X0020521Y0023201D01*
X0020363Y0023205D01*
X0020204Y0023213D01*
X0020047Y0023225D01*
X0019889Y0023241D01*
X0019732Y0023261D01*
X0019576Y0023285D01*
X0019420Y0023313D01*
X0019265Y0023344D01*
X0019110Y0023380D01*
X0018957Y0023419D01*
X0018805Y0023462D01*
X0018654Y0023509D01*
X0018504Y0023560D01*
X0018355Y0023615D01*
X0018208Y0023673D01*
X0018062Y0023735D01*
X0017918Y0023800D01*
X0017776Y0023870D01*
X0017635Y0023942D01*
X0017496Y0024019D01*
X0017360Y0024098D01*
X0017225Y0024182D01*
X0017092Y0024268D01*
X0016962Y0024358D01*
X0016834Y0024451D01*
X0016708Y0024547D01*
X0016585Y0024647D01*
X0016464Y0024749D01*
X0016346Y0024854D01*
X0016231Y0024963D01*
X0016118Y0025074D01*
X0016008Y0025188D01*
X0015901Y0025305D01*
X0015797Y0025424D01*
X0015696Y0025546D01*
X0015599Y0025671D01*
X0015504Y0025798D01*
X0015413Y0025927D01*
X0015324Y0026058D01*
X0015240Y0026192D01*
X0015158Y0026328D01*
X0015080Y0026465D01*
X0015006Y0026605D01*
X0014935Y0026747D01*
X0014867Y0026890D01*
X0014803Y0027035D01*
X0014743Y0027181D01*
X0014687Y0027329D01*
X0014634Y0027478D01*
X0014585Y0027629D01*
X0014540Y0027781D01*
X0014499Y0027934D01*
X0014461Y0028087D01*
X0014428Y0028242D01*
X0014398Y0028398D01*
X0014372Y0028554D01*
X0014351Y0028711D01*
X0014333Y0028868D01*
X0014319Y0029026D01*
X0014309Y0029184D01*
X0014303Y0029342D01*
X0014301Y0029500D01*
X0314301Y0033500D02*
X0314303Y0033658D01*
X0314309Y0033816D01*
X0314319Y0033974D01*
X0314333Y0034132D01*
X0314351Y0034289D01*
X0314372Y0034446D01*
X0314398Y0034602D01*
X0314428Y0034758D01*
X0314461Y0034913D01*
X0314499Y0035066D01*
X0314540Y0035219D01*
X0314585Y0035371D01*
X0314634Y0035522D01*
X0314687Y0035671D01*
X0314743Y0035819D01*
X0314803Y0035965D01*
X0314867Y0036110D01*
X0314935Y0036253D01*
X0315006Y0036395D01*
X0315080Y0036535D01*
X0315158Y0036672D01*
X0315240Y0036808D01*
X0315324Y0036942D01*
X0315413Y0037073D01*
X0315504Y0037202D01*
X0315599Y0037329D01*
X0315696Y0037454D01*
X0315797Y0037576D01*
X0315901Y0037695D01*
X0316008Y0037812D01*
X0316118Y0037926D01*
X0316231Y0038037D01*
X0316346Y0038146D01*
X0316464Y0038251D01*
X0316585Y0038353D01*
X0316708Y0038453D01*
X0316834Y0038549D01*
X0316962Y0038642D01*
X0317092Y0038732D01*
X0317225Y0038818D01*
X0317360Y0038902D01*
X0317496Y0038981D01*
X0317635Y0039058D01*
X0317776Y0039130D01*
X0317918Y0039200D01*
X0318062Y0039265D01*
X0318208Y0039327D01*
X0318355Y0039385D01*
X0318504Y0039440D01*
X0318654Y0039491D01*
X0318805Y0039538D01*
X0318957Y0039581D01*
X0319110Y0039620D01*
X0319265Y0039656D01*
X0319420Y0039687D01*
X0319576Y0039715D01*
X0319732Y0039739D01*
X0319889Y0039759D01*
X0320047Y0039775D01*
X0320204Y0039787D01*
X0320363Y0039795D01*
X0320521Y0039799D01*
X0320679Y0039799D01*
X0320837Y0039795D01*
X0320996Y0039787D01*
X0321153Y0039775D01*
X0321311Y0039759D01*
X0321468Y0039739D01*
X0321624Y0039715D01*
X0321780Y0039687D01*
X0321935Y0039656D01*
X0322090Y0039620D01*
X0322243Y0039581D01*
X0322395Y0039538D01*
X0322546Y0039491D01*
X0322696Y0039440D01*
X0322845Y0039385D01*
X0322992Y0039327D01*
X0323138Y0039265D01*
X0323282Y0039200D01*
X0323424Y0039130D01*
X0323565Y0039058D01*
X0323704Y0038981D01*
X0323840Y0038902D01*
X0323975Y0038818D01*
X0324108Y0038732D01*
X0324238Y0038642D01*
X0324366Y0038549D01*
X0324492Y0038453D01*
X0324615Y0038353D01*
X0324736Y0038251D01*
X0324854Y0038146D01*
X0324969Y0038037D01*
X0325082Y0037926D01*
X0325192Y0037812D01*
X0325299Y0037695D01*
X0325403Y0037576D01*
X0325504Y0037454D01*
X0325601Y0037329D01*
X0325696Y0037202D01*
X0325787Y0037073D01*
X0325876Y0036942D01*
X0325960Y0036808D01*
X0326042Y0036672D01*
X0326120Y0036535D01*
X0326194Y0036395D01*
X0326265Y0036253D01*
X0326333Y0036110D01*
X0326397Y0035965D01*
X0326457Y0035819D01*
X0326513Y0035671D01*
X0326566Y0035522D01*
X0326615Y0035371D01*
X0326660Y0035219D01*
X0326701Y0035066D01*
X0326739Y0034913D01*
X0326772Y0034758D01*
X0326802Y0034602D01*
X0326828Y0034446D01*
X0326849Y0034289D01*
X0326867Y0034132D01*
X0326881Y0033974D01*
X0326891Y0033816D01*
X0326897Y0033658D01*
X0326899Y0033500D01*
X0326897Y0033342D01*
X0326891Y0033184D01*
X0326881Y0033026D01*
X0326867Y0032868D01*
X0326849Y0032711D01*
X0326828Y0032554D01*
X0326802Y0032398D01*
X0326772Y0032242D01*
X0326739Y0032087D01*
X0326701Y0031934D01*
X0326660Y0031781D01*
X0326615Y0031629D01*
X0326566Y0031478D01*
X0326513Y0031329D01*
X0326457Y0031181D01*
X0326397Y0031035D01*
X0326333Y0030890D01*
X0326265Y0030747D01*
X0326194Y0030605D01*
X0326120Y0030465D01*
X0326042Y0030328D01*
X0325960Y0030192D01*
X0325876Y0030058D01*
X0325787Y0029927D01*
X0325696Y0029798D01*
X0325601Y0029671D01*
X0325504Y0029546D01*
X0325403Y0029424D01*
X0325299Y0029305D01*
X0325192Y0029188D01*
X0325082Y0029074D01*
X0324969Y0028963D01*
X0324854Y0028854D01*
X0324736Y0028749D01*
X0324615Y0028647D01*
X0324492Y0028547D01*
X0324366Y0028451D01*
X0324238Y0028358D01*
X0324108Y0028268D01*
X0323975Y0028182D01*
X0323840Y0028098D01*
X0323704Y0028019D01*
X0323565Y0027942D01*
X0323424Y0027870D01*
X0323282Y0027800D01*
X0323138Y0027735D01*
X0322992Y0027673D01*
X0322845Y0027615D01*
X0322696Y0027560D01*
X0322546Y0027509D01*
X0322395Y0027462D01*
X0322243Y0027419D01*
X0322090Y0027380D01*
X0321935Y0027344D01*
X0321780Y0027313D01*
X0321624Y0027285D01*
X0321468Y0027261D01*
X0321311Y0027241D01*
X0321153Y0027225D01*
X0320996Y0027213D01*
X0320837Y0027205D01*
X0320679Y0027201D01*
X0320521Y0027201D01*
X0320363Y0027205D01*
X0320204Y0027213D01*
X0320047Y0027225D01*
X0319889Y0027241D01*
X0319732Y0027261D01*
X0319576Y0027285D01*
X0319420Y0027313D01*
X0319265Y0027344D01*
X0319110Y0027380D01*
X0318957Y0027419D01*
X0318805Y0027462D01*
X0318654Y0027509D01*
X0318504Y0027560D01*
X0318355Y0027615D01*
X0318208Y0027673D01*
X0318062Y0027735D01*
X0317918Y0027800D01*
X0317776Y0027870D01*
X0317635Y0027942D01*
X0317496Y0028019D01*
X0317360Y0028098D01*
X0317225Y0028182D01*
X0317092Y0028268D01*
X0316962Y0028358D01*
X0316834Y0028451D01*
X0316708Y0028547D01*
X0316585Y0028647D01*
X0316464Y0028749D01*
X0316346Y0028854D01*
X0316231Y0028963D01*
X0316118Y0029074D01*
X0316008Y0029188D01*
X0315901Y0029305D01*
X0315797Y0029424D01*
X0315696Y0029546D01*
X0315599Y0029671D01*
X0315504Y0029798D01*
X0315413Y0029927D01*
X0315324Y0030058D01*
X0315240Y0030192D01*
X0315158Y0030328D01*
X0315080Y0030465D01*
X0315006Y0030605D01*
X0314935Y0030747D01*
X0314867Y0030890D01*
X0314803Y0031035D01*
X0314743Y0031181D01*
X0314687Y0031329D01*
X0314634Y0031478D01*
X0314585Y0031629D01*
X0314540Y0031781D01*
X0314499Y0031934D01*
X0314461Y0032087D01*
X0314428Y0032242D01*
X0314398Y0032398D01*
X0314372Y0032554D01*
X0314351Y0032711D01*
X0314333Y0032868D01*
X0314319Y0033026D01*
X0314309Y0033184D01*
X0314303Y0033342D01*
X0314301Y0033500D01*
D20*
X0155050Y0037300D03*
X0154950Y0037600D03*
X0154950Y0037700D03*
X0154950Y0037800D03*
X0154850Y0037900D03*
X0154850Y0038000D03*
X0154750Y0038200D03*
X0139650Y0036100D03*
X0139650Y0036000D03*
X0139650Y0035900D03*
X0139650Y0035800D03*
X0139650Y0035700D03*
X0139650Y0035600D03*
X0139650Y0035500D03*
X0139950Y0056700D03*
X0139950Y0056800D03*
X0139850Y0056900D03*
X0139850Y0057000D03*
X0139850Y0057100D03*
X0139750Y0057400D03*
X0155150Y0058300D03*
X0155150Y0058400D03*
X0155150Y0058500D03*
X0155150Y0058600D03*
X0155150Y0058700D03*
X0155150Y0058800D03*
X0155150Y0058900D03*
X0155150Y0059000D03*
X0155150Y0059100D03*
D21*
X0155100Y0058200D03*
X0155100Y0058100D03*
X0155100Y0058000D03*
X0155100Y0057900D03*
X0155100Y0057800D03*
X0155000Y0057700D03*
X0155000Y0057600D03*
X0155000Y0057500D03*
X0147400Y0057500D03*
X0147400Y0057600D03*
X0147400Y0057700D03*
X0147400Y0057800D03*
X0147400Y0057900D03*
X0147400Y0058000D03*
X0147400Y0058100D03*
X0147400Y0058200D03*
X0147400Y0058300D03*
X0147400Y0058400D03*
X0147400Y0058500D03*
X0147400Y0058600D03*
X0147400Y0058700D03*
X0147400Y0058800D03*
X0147400Y0058900D03*
X0147400Y0059000D03*
X0147400Y0059100D03*
X0147400Y0057400D03*
X0147400Y0057300D03*
X0147400Y0057200D03*
X0147400Y0057100D03*
X0147400Y0057000D03*
X0147400Y0056900D03*
X0147400Y0056800D03*
X0147400Y0056700D03*
X0147400Y0056600D03*
X0147400Y0056500D03*
X0147400Y0056400D03*
X0147400Y0056300D03*
X0147400Y0056200D03*
X0147400Y0056100D03*
X0147400Y0056000D03*
X0147400Y0055900D03*
X0147400Y0055800D03*
X0147400Y0055700D03*
X0147400Y0055600D03*
X0147400Y0055500D03*
X0147400Y0055400D03*
X0147400Y0055300D03*
X0147400Y0055200D03*
X0147400Y0055100D03*
X0147400Y0055000D03*
X0147400Y0054900D03*
X0147400Y0054800D03*
X0147400Y0054700D03*
X0147400Y0054600D03*
X0147400Y0054500D03*
X0147400Y0054400D03*
X0147400Y0054300D03*
X0147400Y0054200D03*
X0147400Y0054100D03*
X0147400Y0054000D03*
X0147400Y0053900D03*
X0147400Y0049500D03*
X0147400Y0045300D03*
X0147400Y0045200D03*
X0147400Y0040700D03*
X0147400Y0040600D03*
X0147400Y0040500D03*
X0147400Y0040400D03*
X0147400Y0040300D03*
X0147400Y0040200D03*
X0147400Y0040100D03*
X0147400Y0040000D03*
X0147400Y0039900D03*
X0147400Y0039800D03*
X0147400Y0039700D03*
X0147400Y0039600D03*
X0147400Y0039500D03*
X0147400Y0039400D03*
X0147400Y0039300D03*
X0147400Y0039200D03*
X0147400Y0039100D03*
X0147400Y0039000D03*
X0147400Y0038900D03*
X0147400Y0038800D03*
X0147400Y0038700D03*
X0147400Y0038600D03*
X0147400Y0038500D03*
X0147400Y0038400D03*
X0147400Y0038300D03*
X0147400Y0038200D03*
X0147400Y0038100D03*
X0147400Y0038000D03*
X0147400Y0037900D03*
X0147400Y0037800D03*
X0147400Y0037700D03*
X0147400Y0037600D03*
X0147400Y0037500D03*
X0147400Y0037400D03*
X0147400Y0037300D03*
X0147400Y0037200D03*
X0147400Y0037100D03*
X0147400Y0037000D03*
X0147400Y0036900D03*
X0147400Y0036800D03*
X0147400Y0036700D03*
X0147400Y0036600D03*
X0147400Y0036500D03*
X0147400Y0036400D03*
X0147400Y0036300D03*
X0147400Y0036200D03*
X0147400Y0036100D03*
X0147400Y0036000D03*
X0147400Y0035900D03*
X0147400Y0035800D03*
X0147400Y0035700D03*
X0147400Y0035600D03*
X0147400Y0035500D03*
X0154600Y0038500D03*
X0154700Y0038300D03*
X0154800Y0038100D03*
X0139700Y0036600D03*
X0139700Y0036500D03*
X0139700Y0036400D03*
X0139700Y0036300D03*
X0139700Y0036200D03*
X0140100Y0056300D03*
X0140100Y0056400D03*
X0140000Y0056500D03*
X0140000Y0056600D03*
D22*
X0155300Y0035600D03*
X0155300Y0035500D03*
D23*
X0155250Y0035700D03*
X0155250Y0035800D03*
X0155250Y0035900D03*
X0155250Y0036000D03*
X0155250Y0036100D03*
X0155250Y0036200D03*
X0155250Y0036300D03*
X0155250Y0036400D03*
X0155150Y0036700D03*
X0155150Y0036800D03*
X0155150Y0036900D03*
X0139650Y0057900D03*
X0139650Y0058000D03*
X0139650Y0058100D03*
X0139550Y0058300D03*
X0139550Y0058400D03*
X0139550Y0058500D03*
X0139550Y0058600D03*
X0139550Y0058700D03*
X0139550Y0058800D03*
X0139550Y0058900D03*
X0139550Y0059000D03*
X0139550Y0059100D03*
D24*
X0139600Y0058200D03*
X0139700Y0057800D03*
X0139700Y0057700D03*
X0139700Y0057600D03*
X0139700Y0057500D03*
X0139800Y0057300D03*
X0139800Y0057200D03*
X0155000Y0037500D03*
X0155000Y0037400D03*
X0155100Y0037200D03*
X0155100Y0037100D03*
X0155100Y0037000D03*
X0155200Y0036600D03*
X0155200Y0036500D03*
D25*
X0154650Y0038400D03*
X0154550Y0038600D03*
X0154450Y0038800D03*
X0139950Y0037600D03*
X0139850Y0037300D03*
X0139850Y0037200D03*
X0139850Y0037100D03*
X0139750Y0037000D03*
X0139750Y0036900D03*
X0139750Y0036800D03*
X0139750Y0036700D03*
X0140250Y0056000D03*
X0140250Y0056100D03*
X0140150Y0056200D03*
X0154750Y0056700D03*
X0154850Y0056900D03*
X0154850Y0057000D03*
X0154950Y0057200D03*
X0154950Y0057300D03*
X0154950Y0057400D03*
D26*
X0154900Y0057100D03*
X0154800Y0056800D03*
X0154700Y0056600D03*
X0154700Y0056500D03*
X0154600Y0056300D03*
X0140400Y0055800D03*
X0140400Y0055700D03*
X0140300Y0055900D03*
X0147400Y0045100D03*
X0154300Y0039100D03*
X0154400Y0038900D03*
X0154500Y0038700D03*
X0140000Y0037800D03*
X0140000Y0037700D03*
X0139900Y0037500D03*
X0139900Y0037400D03*
D27*
X0140050Y0037900D03*
X0140050Y0038000D03*
X0140150Y0038100D03*
X0140150Y0038200D03*
X0140250Y0038400D03*
X0154250Y0039200D03*
X0154350Y0039000D03*
X0154450Y0056000D03*
X0154550Y0056100D03*
X0154550Y0056200D03*
X0154650Y0056400D03*
X0140550Y0055500D03*
X0140450Y0055600D03*
D28*
X0140600Y0055400D03*
X0140700Y0055300D03*
X0154300Y0055700D03*
X0154400Y0055800D03*
X0154400Y0055900D03*
X0154100Y0039400D03*
X0154200Y0039300D03*
X0140400Y0038700D03*
X0140300Y0038600D03*
X0140300Y0038500D03*
X0140200Y0038300D03*
D29*
X0140450Y0038800D03*
X0153950Y0039600D03*
X0154050Y0039500D03*
X0154250Y0055600D03*
X0140850Y0055100D03*
X0140850Y0055000D03*
X0140750Y0055200D03*
D30*
X0140900Y0054900D03*
X0141000Y0054800D03*
X0154000Y0055200D03*
X0154100Y0055300D03*
X0154100Y0055400D03*
X0154200Y0055500D03*
X0153800Y0039800D03*
X0153900Y0039700D03*
X0140600Y0039100D03*
X0140600Y0039000D03*
X0140500Y0038900D03*
D31*
X0140650Y0039200D03*
X0140750Y0039300D03*
X0147450Y0049600D03*
X0153850Y0055000D03*
X0153950Y0055100D03*
D32*
X0153800Y0054900D03*
X0141300Y0054500D03*
X0141200Y0054600D03*
X0141100Y0054700D03*
X0153600Y0040000D03*
X0153700Y0039900D03*
X0140900Y0039500D03*
X0140800Y0039400D03*
D33*
X0140950Y0039600D03*
X0141050Y0039700D03*
X0153550Y0040100D03*
X0153650Y0054800D03*
D34*
X0153600Y0054700D03*
X0153500Y0054600D03*
X0141500Y0054300D03*
X0141400Y0054400D03*
X0147400Y0045000D03*
X0153400Y0040200D03*
X0141100Y0039800D03*
D35*
X0141250Y0039900D03*
X0153350Y0040300D03*
X0153450Y0054500D03*
D36*
X0153300Y0054400D03*
X0141600Y0054200D03*
X0141400Y0040100D03*
X0141300Y0040000D03*
X0153200Y0040400D03*
D37*
X0141450Y0040200D03*
X0141750Y0054100D03*
X0153250Y0054300D03*
D38*
X0153100Y0054200D03*
X0147400Y0049700D03*
X0153100Y0040500D03*
X0141600Y0040300D03*
D39*
X0141700Y0040400D03*
X0141800Y0040500D03*
X0142000Y0053900D03*
X0152900Y0054000D03*
D40*
X0142150Y0053800D03*
X0147350Y0044900D03*
X0141950Y0040600D03*
D41*
X0152850Y0040700D03*
X0152950Y0040600D03*
X0153050Y0054100D03*
X0141850Y0054000D03*
D42*
X0142050Y0040700D03*
D43*
X0144300Y0040800D03*
X0147400Y0050800D03*
X0150500Y0053800D03*
D44*
X0152700Y0053900D03*
X0152700Y0040800D03*
D45*
X0147350Y0040900D03*
D46*
X0147350Y0041000D03*
D47*
X0147400Y0041100D03*
X0147400Y0053600D03*
D48*
X0147450Y0053500D03*
X0147350Y0041200D03*
D49*
X0147350Y0041300D03*
X0147450Y0053400D03*
D50*
X0147400Y0053300D03*
X0147400Y0041400D03*
D51*
X0147400Y0041500D03*
X0147400Y0053200D03*
D52*
X0147400Y0041600D03*
D53*
X0147350Y0041700D03*
X0147450Y0053000D03*
D54*
X0147350Y0041800D03*
D55*
X0147350Y0041900D03*
D56*
X0147350Y0042000D03*
X0147450Y0052600D03*
D57*
X0147400Y0042100D03*
D58*
X0147400Y0042200D03*
D59*
X0147400Y0042300D03*
X0147400Y0052300D03*
D60*
X0147400Y0052200D03*
X0147400Y0042400D03*
D61*
X0147350Y0042500D03*
D62*
X0147400Y0042600D03*
D63*
X0147400Y0042700D03*
D64*
X0147400Y0042800D03*
D65*
X0147350Y0042900D03*
X0147450Y0051700D03*
D66*
X0147350Y0043000D03*
D67*
X0147350Y0043100D03*
D68*
X0147350Y0043200D03*
D69*
X0147400Y0043300D03*
D70*
X0147350Y0043400D03*
D71*
X0147350Y0043500D03*
D72*
X0147400Y0043600D03*
D73*
X0147350Y0043700D03*
D74*
X0147400Y0043800D03*
D75*
X0147350Y0043900D03*
D76*
X0147350Y0044000D03*
D77*
X0147400Y0044100D03*
D78*
X0147400Y0044200D03*
D79*
X0147400Y0044300D03*
D80*
X0147400Y0044400D03*
D81*
X0147400Y0044500D03*
D82*
X0147350Y0044600D03*
D83*
X0147350Y0044700D03*
D84*
X0147350Y0044800D03*
D85*
X0147400Y0045400D03*
X0147400Y0045500D03*
X0147400Y0045600D03*
X0147400Y0045700D03*
X0147400Y0045800D03*
X0147400Y0045900D03*
X0147400Y0046000D03*
X0147400Y0046100D03*
X0147400Y0046200D03*
X0147400Y0046300D03*
X0147400Y0046400D03*
X0147400Y0046500D03*
X0147400Y0046600D03*
X0147400Y0046700D03*
X0147400Y0046800D03*
X0147400Y0046900D03*
X0147400Y0047000D03*
X0147400Y0047100D03*
X0147400Y0047200D03*
X0147400Y0047300D03*
X0147400Y0047400D03*
X0147400Y0047500D03*
X0147400Y0047600D03*
X0147400Y0047700D03*
X0147400Y0047800D03*
X0147400Y0047900D03*
X0147400Y0048000D03*
X0147400Y0048100D03*
X0147400Y0048200D03*
X0147400Y0048300D03*
X0147400Y0048400D03*
X0147400Y0048500D03*
X0147400Y0048600D03*
X0147400Y0048700D03*
X0147400Y0048800D03*
X0147400Y0048900D03*
X0147400Y0049000D03*
X0147400Y0049100D03*
X0147400Y0049200D03*
X0147400Y0049300D03*
X0147400Y0049400D03*
D86*
X0147400Y0049800D03*
D87*
X0147400Y0049900D03*
D88*
X0147450Y0050000D03*
D89*
X0147450Y0050100D03*
D90*
X0147400Y0050200D03*
D91*
X0147400Y0050300D03*
D92*
X0147400Y0050400D03*
D93*
X0147400Y0050500D03*
D94*
X0147400Y0050600D03*
D95*
X0147400Y0050700D03*
D96*
X0147400Y0050900D03*
D97*
X0147400Y0051000D03*
D98*
X0147450Y0051100D03*
D99*
X0147400Y0051200D03*
D100*
X0147450Y0051300D03*
D101*
X0147450Y0051400D03*
D102*
X0147400Y0051500D03*
D103*
X0147400Y0051600D03*
D104*
X0147450Y0051800D03*
D105*
X0147450Y0051900D03*
D106*
X0147450Y0052000D03*
D107*
X0147400Y0052100D03*
D108*
X0147450Y0052400D03*
D109*
X0147450Y0052500D03*
D110*
X0147400Y0052700D03*
D111*
X0147400Y0052800D03*
D112*
X0147400Y0052900D03*
D113*
X0147450Y0053100D03*
D114*
X0147400Y0053700D03*
D115*
X0125800Y0080500D03*
X0097400Y0080500D03*
M02*
