G75*
%MOIN*%
%OFA0B0*%
%FSLAX25Y25*%
%IPPOS*%
%LPD*%
%AMOC8*
5,1,8,0,0,1.08239X$1,22.5*
%
%ADD10OC8,0.06800*%
%ADD11C,0.07600*%
%ADD12R,0.06750X0.06750*%
%ADD13C,0.06750*%
%ADD14C,0.06800*%
%ADD15R,0.07537X0.07537*%
%ADD16C,0.07537*%
%ADD17OC8,0.07000*%
%ADD18C,0.00400*%
%ADD19C,0.01200*%
%ADD20C,0.02978*%
D10*
X0091600Y0080500D03*
X0057600Y0082500D03*
X0057600Y0122500D03*
X0073600Y0132500D03*
X0073600Y0152500D03*
X0185600Y0154500D03*
X0185600Y0114500D03*
X0131600Y0080500D03*
D11*
X0175700Y0052100D02*
X0175700Y0044500D01*
X0193500Y0044500D02*
X0193500Y0052100D01*
X0208800Y0038500D02*
X0216400Y0038500D01*
X0193500Y0026500D02*
X0193500Y0018900D01*
X0175700Y0018900D02*
X0175700Y0026500D01*
X0288800Y0038500D02*
X0296400Y0038500D01*
X0196600Y0186700D02*
X0196600Y0194300D01*
X0186600Y0194300D02*
X0186600Y0186700D01*
X0176600Y0186700D02*
X0176600Y0194300D01*
X0166600Y0194300D02*
X0166600Y0186700D01*
X0156600Y0186700D02*
X0156600Y0194300D01*
X0146600Y0194300D02*
X0146600Y0186700D01*
X0136600Y0186700D02*
X0136600Y0194300D01*
X0126600Y0194300D02*
X0126600Y0186700D01*
X0116600Y0186700D02*
X0116600Y0194300D01*
X0106600Y0194300D02*
X0106600Y0186700D01*
X0096600Y0186700D02*
X0096600Y0194300D01*
X0086600Y0194300D02*
X0086600Y0186700D01*
X0076600Y0186700D02*
X0076600Y0194300D01*
X0066600Y0194300D02*
X0066600Y0186700D01*
X0056600Y0186700D02*
X0056600Y0194300D01*
X0046600Y0194300D02*
X0046600Y0186700D01*
D12*
X0052600Y0035500D03*
D13*
X0062600Y0035500D03*
X0072600Y0035500D03*
X0082600Y0035500D03*
D14*
X0041600Y0152100D02*
X0041600Y0158900D01*
X0031600Y0158900D02*
X0031600Y0152100D01*
X0021600Y0152100D02*
X0021600Y0158900D01*
D15*
X0283600Y0178500D03*
D16*
X0283600Y0168500D03*
X0283600Y0158500D03*
X0283600Y0148500D03*
X0283600Y0081000D03*
D17*
X0156600Y0028500D03*
X0146600Y0028500D03*
D18*
X0142083Y0025772D02*
X0142083Y0022706D01*
X0140550Y0024239D02*
X0143617Y0024239D01*
X0160550Y0024239D02*
X0163617Y0024239D01*
D19*
X0175700Y0048300D02*
X0181600Y0048300D01*
X0185600Y0052300D01*
X0185600Y0114500D01*
X0185600Y0154500D02*
X0185600Y0166500D01*
X0186600Y0167500D01*
X0186600Y0190500D01*
X0283600Y0148500D02*
X0086600Y0148500D01*
X0082600Y0152500D01*
X0073600Y0152500D01*
X0060600Y0152500D01*
X0054600Y0146500D01*
X0057600Y0143500D01*
X0057600Y0122500D01*
X0065600Y0139500D02*
X0072600Y0146500D01*
X0080600Y0146500D01*
X0065600Y0139500D02*
X0065600Y0082500D01*
X0057600Y0082500D02*
X0057600Y0073500D01*
X0062600Y0068500D01*
X0062600Y0035500D01*
X0054600Y0146500D02*
X0021600Y0146500D01*
X0021600Y0155500D01*
X0031600Y0155500D02*
X0031600Y0174500D01*
X0034600Y0177500D01*
X0063600Y0177500D01*
X0066600Y0180500D01*
X0066600Y0190500D01*
X0282600Y0065500D02*
X0282600Y0038500D01*
X0292600Y0038500D01*
X0282600Y0065500D02*
X0283600Y0066500D01*
X0283600Y0081000D01*
D20*
X0080600Y0146500D03*
X0065600Y0082500D03*
M02*
