G75*
%MOIN*%
%OFA0B0*%
%FSLAX25Y25*%
%IPPOS*%
%LPD*%
%AMOC8*
5,1,8,0,0,1.08239X$1,22.5*
%
%ADD10C,0.00000*%
D10*
X0001600Y0004500D02*
X0002600Y0207461D01*
X0339301Y0207461D01*
X0339301Y0004500D01*
X0001600Y0004500D01*
X0014694Y0029500D02*
X0014696Y0029653D01*
X0014702Y0029807D01*
X0014712Y0029960D01*
X0014726Y0030112D01*
X0014744Y0030265D01*
X0014766Y0030416D01*
X0014791Y0030567D01*
X0014821Y0030718D01*
X0014855Y0030868D01*
X0014892Y0031016D01*
X0014933Y0031164D01*
X0014978Y0031310D01*
X0015027Y0031456D01*
X0015080Y0031600D01*
X0015136Y0031742D01*
X0015196Y0031883D01*
X0015260Y0032023D01*
X0015327Y0032161D01*
X0015398Y0032297D01*
X0015473Y0032431D01*
X0015550Y0032563D01*
X0015632Y0032693D01*
X0015716Y0032821D01*
X0015804Y0032947D01*
X0015895Y0033070D01*
X0015989Y0033191D01*
X0016087Y0033309D01*
X0016187Y0033425D01*
X0016291Y0033538D01*
X0016397Y0033649D01*
X0016506Y0033757D01*
X0016618Y0033862D01*
X0016732Y0033963D01*
X0016850Y0034062D01*
X0016969Y0034158D01*
X0017091Y0034251D01*
X0017216Y0034340D01*
X0017343Y0034427D01*
X0017472Y0034509D01*
X0017603Y0034589D01*
X0017736Y0034665D01*
X0017871Y0034738D01*
X0018008Y0034807D01*
X0018147Y0034872D01*
X0018287Y0034934D01*
X0018429Y0034992D01*
X0018572Y0035047D01*
X0018717Y0035098D01*
X0018863Y0035145D01*
X0019010Y0035188D01*
X0019158Y0035227D01*
X0019307Y0035263D01*
X0019457Y0035294D01*
X0019608Y0035322D01*
X0019759Y0035346D01*
X0019912Y0035366D01*
X0020064Y0035382D01*
X0020217Y0035394D01*
X0020370Y0035402D01*
X0020523Y0035406D01*
X0020677Y0035406D01*
X0020830Y0035402D01*
X0020983Y0035394D01*
X0021136Y0035382D01*
X0021288Y0035366D01*
X0021441Y0035346D01*
X0021592Y0035322D01*
X0021743Y0035294D01*
X0021893Y0035263D01*
X0022042Y0035227D01*
X0022190Y0035188D01*
X0022337Y0035145D01*
X0022483Y0035098D01*
X0022628Y0035047D01*
X0022771Y0034992D01*
X0022913Y0034934D01*
X0023053Y0034872D01*
X0023192Y0034807D01*
X0023329Y0034738D01*
X0023464Y0034665D01*
X0023597Y0034589D01*
X0023728Y0034509D01*
X0023857Y0034427D01*
X0023984Y0034340D01*
X0024109Y0034251D01*
X0024231Y0034158D01*
X0024350Y0034062D01*
X0024468Y0033963D01*
X0024582Y0033862D01*
X0024694Y0033757D01*
X0024803Y0033649D01*
X0024909Y0033538D01*
X0025013Y0033425D01*
X0025113Y0033309D01*
X0025211Y0033191D01*
X0025305Y0033070D01*
X0025396Y0032947D01*
X0025484Y0032821D01*
X0025568Y0032693D01*
X0025650Y0032563D01*
X0025727Y0032431D01*
X0025802Y0032297D01*
X0025873Y0032161D01*
X0025940Y0032023D01*
X0026004Y0031883D01*
X0026064Y0031742D01*
X0026120Y0031600D01*
X0026173Y0031456D01*
X0026222Y0031310D01*
X0026267Y0031164D01*
X0026308Y0031016D01*
X0026345Y0030868D01*
X0026379Y0030718D01*
X0026409Y0030567D01*
X0026434Y0030416D01*
X0026456Y0030265D01*
X0026474Y0030112D01*
X0026488Y0029960D01*
X0026498Y0029807D01*
X0026504Y0029653D01*
X0026506Y0029500D01*
X0026504Y0029347D01*
X0026498Y0029193D01*
X0026488Y0029040D01*
X0026474Y0028888D01*
X0026456Y0028735D01*
X0026434Y0028584D01*
X0026409Y0028433D01*
X0026379Y0028282D01*
X0026345Y0028132D01*
X0026308Y0027984D01*
X0026267Y0027836D01*
X0026222Y0027690D01*
X0026173Y0027544D01*
X0026120Y0027400D01*
X0026064Y0027258D01*
X0026004Y0027117D01*
X0025940Y0026977D01*
X0025873Y0026839D01*
X0025802Y0026703D01*
X0025727Y0026569D01*
X0025650Y0026437D01*
X0025568Y0026307D01*
X0025484Y0026179D01*
X0025396Y0026053D01*
X0025305Y0025930D01*
X0025211Y0025809D01*
X0025113Y0025691D01*
X0025013Y0025575D01*
X0024909Y0025462D01*
X0024803Y0025351D01*
X0024694Y0025243D01*
X0024582Y0025138D01*
X0024468Y0025037D01*
X0024350Y0024938D01*
X0024231Y0024842D01*
X0024109Y0024749D01*
X0023984Y0024660D01*
X0023857Y0024573D01*
X0023728Y0024491D01*
X0023597Y0024411D01*
X0023464Y0024335D01*
X0023329Y0024262D01*
X0023192Y0024193D01*
X0023053Y0024128D01*
X0022913Y0024066D01*
X0022771Y0024008D01*
X0022628Y0023953D01*
X0022483Y0023902D01*
X0022337Y0023855D01*
X0022190Y0023812D01*
X0022042Y0023773D01*
X0021893Y0023737D01*
X0021743Y0023706D01*
X0021592Y0023678D01*
X0021441Y0023654D01*
X0021288Y0023634D01*
X0021136Y0023618D01*
X0020983Y0023606D01*
X0020830Y0023598D01*
X0020677Y0023594D01*
X0020523Y0023594D01*
X0020370Y0023598D01*
X0020217Y0023606D01*
X0020064Y0023618D01*
X0019912Y0023634D01*
X0019759Y0023654D01*
X0019608Y0023678D01*
X0019457Y0023706D01*
X0019307Y0023737D01*
X0019158Y0023773D01*
X0019010Y0023812D01*
X0018863Y0023855D01*
X0018717Y0023902D01*
X0018572Y0023953D01*
X0018429Y0024008D01*
X0018287Y0024066D01*
X0018147Y0024128D01*
X0018008Y0024193D01*
X0017871Y0024262D01*
X0017736Y0024335D01*
X0017603Y0024411D01*
X0017472Y0024491D01*
X0017343Y0024573D01*
X0017216Y0024660D01*
X0017091Y0024749D01*
X0016969Y0024842D01*
X0016850Y0024938D01*
X0016732Y0025037D01*
X0016618Y0025138D01*
X0016506Y0025243D01*
X0016397Y0025351D01*
X0016291Y0025462D01*
X0016187Y0025575D01*
X0016087Y0025691D01*
X0015989Y0025809D01*
X0015895Y0025930D01*
X0015804Y0026053D01*
X0015716Y0026179D01*
X0015632Y0026307D01*
X0015550Y0026437D01*
X0015473Y0026569D01*
X0015398Y0026703D01*
X0015327Y0026839D01*
X0015260Y0026977D01*
X0015196Y0027117D01*
X0015136Y0027258D01*
X0015080Y0027400D01*
X0015027Y0027544D01*
X0014978Y0027690D01*
X0014933Y0027836D01*
X0014892Y0027984D01*
X0014855Y0028132D01*
X0014821Y0028282D01*
X0014791Y0028433D01*
X0014766Y0028584D01*
X0014744Y0028735D01*
X0014726Y0028888D01*
X0014712Y0029040D01*
X0014702Y0029193D01*
X0014696Y0029347D01*
X0014694Y0029500D01*
X0020025Y0068453D02*
X0020027Y0068593D01*
X0020033Y0068733D01*
X0020043Y0068872D01*
X0020057Y0069011D01*
X0020075Y0069150D01*
X0020096Y0069288D01*
X0020122Y0069426D01*
X0020152Y0069563D01*
X0020185Y0069698D01*
X0020223Y0069833D01*
X0020264Y0069967D01*
X0020309Y0070100D01*
X0020357Y0070231D01*
X0020410Y0070360D01*
X0020466Y0070489D01*
X0020525Y0070615D01*
X0020589Y0070740D01*
X0020655Y0070863D01*
X0020726Y0070984D01*
X0020799Y0071103D01*
X0020876Y0071220D01*
X0020957Y0071334D01*
X0021040Y0071446D01*
X0021127Y0071556D01*
X0021217Y0071664D01*
X0021309Y0071768D01*
X0021405Y0071870D01*
X0021504Y0071970D01*
X0021605Y0072066D01*
X0021709Y0072160D01*
X0021816Y0072250D01*
X0021925Y0072337D01*
X0022037Y0072422D01*
X0022151Y0072503D01*
X0022267Y0072581D01*
X0022385Y0072655D01*
X0022506Y0072726D01*
X0022628Y0072794D01*
X0022753Y0072858D01*
X0022879Y0072919D01*
X0023006Y0072976D01*
X0023136Y0073029D01*
X0023267Y0073079D01*
X0023399Y0073124D01*
X0023532Y0073167D01*
X0023667Y0073205D01*
X0023802Y0073239D01*
X0023939Y0073270D01*
X0024076Y0073297D01*
X0024214Y0073319D01*
X0024353Y0073338D01*
X0024492Y0073353D01*
X0024631Y0073364D01*
X0024771Y0073371D01*
X0024911Y0073374D01*
X0025051Y0073373D01*
X0025191Y0073368D01*
X0025330Y0073359D01*
X0025470Y0073346D01*
X0025609Y0073329D01*
X0025747Y0073308D01*
X0025885Y0073284D01*
X0026022Y0073255D01*
X0026158Y0073223D01*
X0026293Y0073186D01*
X0026427Y0073146D01*
X0026560Y0073102D01*
X0026691Y0073054D01*
X0026821Y0073003D01*
X0026950Y0072948D01*
X0027077Y0072889D01*
X0027202Y0072826D01*
X0027325Y0072761D01*
X0027447Y0072691D01*
X0027566Y0072618D01*
X0027684Y0072542D01*
X0027799Y0072463D01*
X0027912Y0072380D01*
X0028022Y0072294D01*
X0028130Y0072205D01*
X0028235Y0072113D01*
X0028338Y0072018D01*
X0028438Y0071920D01*
X0028535Y0071820D01*
X0028629Y0071716D01*
X0028721Y0071610D01*
X0028809Y0071502D01*
X0028894Y0071391D01*
X0028976Y0071277D01*
X0029055Y0071161D01*
X0029130Y0071044D01*
X0029202Y0070924D01*
X0029270Y0070802D01*
X0029335Y0070678D01*
X0029397Y0070552D01*
X0029455Y0070425D01*
X0029509Y0070296D01*
X0029560Y0070165D01*
X0029606Y0070033D01*
X0029649Y0069900D01*
X0029689Y0069766D01*
X0029724Y0069631D01*
X0029756Y0069494D01*
X0029783Y0069357D01*
X0029807Y0069219D01*
X0029827Y0069081D01*
X0029843Y0068942D01*
X0029855Y0068802D01*
X0029863Y0068663D01*
X0029867Y0068523D01*
X0029867Y0068383D01*
X0029863Y0068243D01*
X0029855Y0068104D01*
X0029843Y0067964D01*
X0029827Y0067825D01*
X0029807Y0067687D01*
X0029783Y0067549D01*
X0029756Y0067412D01*
X0029724Y0067275D01*
X0029689Y0067140D01*
X0029649Y0067006D01*
X0029606Y0066873D01*
X0029560Y0066741D01*
X0029509Y0066610D01*
X0029455Y0066481D01*
X0029397Y0066354D01*
X0029335Y0066228D01*
X0029270Y0066104D01*
X0029202Y0065982D01*
X0029130Y0065862D01*
X0029055Y0065745D01*
X0028976Y0065629D01*
X0028894Y0065515D01*
X0028809Y0065404D01*
X0028721Y0065296D01*
X0028629Y0065190D01*
X0028535Y0065086D01*
X0028438Y0064986D01*
X0028338Y0064888D01*
X0028235Y0064793D01*
X0028130Y0064701D01*
X0028022Y0064612D01*
X0027912Y0064526D01*
X0027799Y0064443D01*
X0027684Y0064364D01*
X0027566Y0064288D01*
X0027447Y0064215D01*
X0027325Y0064145D01*
X0027202Y0064080D01*
X0027077Y0064017D01*
X0026950Y0063958D01*
X0026821Y0063903D01*
X0026691Y0063852D01*
X0026560Y0063804D01*
X0026427Y0063760D01*
X0026293Y0063720D01*
X0026158Y0063683D01*
X0026022Y0063651D01*
X0025885Y0063622D01*
X0025747Y0063598D01*
X0025609Y0063577D01*
X0025470Y0063560D01*
X0025330Y0063547D01*
X0025191Y0063538D01*
X0025051Y0063533D01*
X0024911Y0063532D01*
X0024771Y0063535D01*
X0024631Y0063542D01*
X0024492Y0063553D01*
X0024353Y0063568D01*
X0024214Y0063587D01*
X0024076Y0063609D01*
X0023939Y0063636D01*
X0023802Y0063667D01*
X0023667Y0063701D01*
X0023532Y0063739D01*
X0023399Y0063782D01*
X0023267Y0063827D01*
X0023136Y0063877D01*
X0023006Y0063930D01*
X0022879Y0063987D01*
X0022753Y0064048D01*
X0022628Y0064112D01*
X0022506Y0064180D01*
X0022385Y0064251D01*
X0022267Y0064325D01*
X0022151Y0064403D01*
X0022037Y0064484D01*
X0021925Y0064569D01*
X0021816Y0064656D01*
X0021709Y0064746D01*
X0021605Y0064840D01*
X0021504Y0064936D01*
X0021405Y0065036D01*
X0021309Y0065138D01*
X0021217Y0065242D01*
X0021127Y0065350D01*
X0021040Y0065460D01*
X0020957Y0065572D01*
X0020876Y0065686D01*
X0020799Y0065803D01*
X0020726Y0065922D01*
X0020655Y0066043D01*
X0020589Y0066166D01*
X0020525Y0066291D01*
X0020466Y0066417D01*
X0020410Y0066546D01*
X0020357Y0066675D01*
X0020309Y0066806D01*
X0020264Y0066939D01*
X0020223Y0067073D01*
X0020185Y0067208D01*
X0020152Y0067343D01*
X0020122Y0067480D01*
X0020096Y0067618D01*
X0020075Y0067756D01*
X0020057Y0067895D01*
X0020043Y0068034D01*
X0020033Y0068173D01*
X0020027Y0068313D01*
X0020025Y0068453D01*
X0020025Y0190500D02*
X0020027Y0190640D01*
X0020033Y0190780D01*
X0020043Y0190919D01*
X0020057Y0191058D01*
X0020075Y0191197D01*
X0020096Y0191335D01*
X0020122Y0191473D01*
X0020152Y0191610D01*
X0020185Y0191745D01*
X0020223Y0191880D01*
X0020264Y0192014D01*
X0020309Y0192147D01*
X0020357Y0192278D01*
X0020410Y0192407D01*
X0020466Y0192536D01*
X0020525Y0192662D01*
X0020589Y0192787D01*
X0020655Y0192910D01*
X0020726Y0193031D01*
X0020799Y0193150D01*
X0020876Y0193267D01*
X0020957Y0193381D01*
X0021040Y0193493D01*
X0021127Y0193603D01*
X0021217Y0193711D01*
X0021309Y0193815D01*
X0021405Y0193917D01*
X0021504Y0194017D01*
X0021605Y0194113D01*
X0021709Y0194207D01*
X0021816Y0194297D01*
X0021925Y0194384D01*
X0022037Y0194469D01*
X0022151Y0194550D01*
X0022267Y0194628D01*
X0022385Y0194702D01*
X0022506Y0194773D01*
X0022628Y0194841D01*
X0022753Y0194905D01*
X0022879Y0194966D01*
X0023006Y0195023D01*
X0023136Y0195076D01*
X0023267Y0195126D01*
X0023399Y0195171D01*
X0023532Y0195214D01*
X0023667Y0195252D01*
X0023802Y0195286D01*
X0023939Y0195317D01*
X0024076Y0195344D01*
X0024214Y0195366D01*
X0024353Y0195385D01*
X0024492Y0195400D01*
X0024631Y0195411D01*
X0024771Y0195418D01*
X0024911Y0195421D01*
X0025051Y0195420D01*
X0025191Y0195415D01*
X0025330Y0195406D01*
X0025470Y0195393D01*
X0025609Y0195376D01*
X0025747Y0195355D01*
X0025885Y0195331D01*
X0026022Y0195302D01*
X0026158Y0195270D01*
X0026293Y0195233D01*
X0026427Y0195193D01*
X0026560Y0195149D01*
X0026691Y0195101D01*
X0026821Y0195050D01*
X0026950Y0194995D01*
X0027077Y0194936D01*
X0027202Y0194873D01*
X0027325Y0194808D01*
X0027447Y0194738D01*
X0027566Y0194665D01*
X0027684Y0194589D01*
X0027799Y0194510D01*
X0027912Y0194427D01*
X0028022Y0194341D01*
X0028130Y0194252D01*
X0028235Y0194160D01*
X0028338Y0194065D01*
X0028438Y0193967D01*
X0028535Y0193867D01*
X0028629Y0193763D01*
X0028721Y0193657D01*
X0028809Y0193549D01*
X0028894Y0193438D01*
X0028976Y0193324D01*
X0029055Y0193208D01*
X0029130Y0193091D01*
X0029202Y0192971D01*
X0029270Y0192849D01*
X0029335Y0192725D01*
X0029397Y0192599D01*
X0029455Y0192472D01*
X0029509Y0192343D01*
X0029560Y0192212D01*
X0029606Y0192080D01*
X0029649Y0191947D01*
X0029689Y0191813D01*
X0029724Y0191678D01*
X0029756Y0191541D01*
X0029783Y0191404D01*
X0029807Y0191266D01*
X0029827Y0191128D01*
X0029843Y0190989D01*
X0029855Y0190849D01*
X0029863Y0190710D01*
X0029867Y0190570D01*
X0029867Y0190430D01*
X0029863Y0190290D01*
X0029855Y0190151D01*
X0029843Y0190011D01*
X0029827Y0189872D01*
X0029807Y0189734D01*
X0029783Y0189596D01*
X0029756Y0189459D01*
X0029724Y0189322D01*
X0029689Y0189187D01*
X0029649Y0189053D01*
X0029606Y0188920D01*
X0029560Y0188788D01*
X0029509Y0188657D01*
X0029455Y0188528D01*
X0029397Y0188401D01*
X0029335Y0188275D01*
X0029270Y0188151D01*
X0029202Y0188029D01*
X0029130Y0187909D01*
X0029055Y0187792D01*
X0028976Y0187676D01*
X0028894Y0187562D01*
X0028809Y0187451D01*
X0028721Y0187343D01*
X0028629Y0187237D01*
X0028535Y0187133D01*
X0028438Y0187033D01*
X0028338Y0186935D01*
X0028235Y0186840D01*
X0028130Y0186748D01*
X0028022Y0186659D01*
X0027912Y0186573D01*
X0027799Y0186490D01*
X0027684Y0186411D01*
X0027566Y0186335D01*
X0027447Y0186262D01*
X0027325Y0186192D01*
X0027202Y0186127D01*
X0027077Y0186064D01*
X0026950Y0186005D01*
X0026821Y0185950D01*
X0026691Y0185899D01*
X0026560Y0185851D01*
X0026427Y0185807D01*
X0026293Y0185767D01*
X0026158Y0185730D01*
X0026022Y0185698D01*
X0025885Y0185669D01*
X0025747Y0185645D01*
X0025609Y0185624D01*
X0025470Y0185607D01*
X0025330Y0185594D01*
X0025191Y0185585D01*
X0025051Y0185580D01*
X0024911Y0185579D01*
X0024771Y0185582D01*
X0024631Y0185589D01*
X0024492Y0185600D01*
X0024353Y0185615D01*
X0024214Y0185634D01*
X0024076Y0185656D01*
X0023939Y0185683D01*
X0023802Y0185714D01*
X0023667Y0185748D01*
X0023532Y0185786D01*
X0023399Y0185829D01*
X0023267Y0185874D01*
X0023136Y0185924D01*
X0023006Y0185977D01*
X0022879Y0186034D01*
X0022753Y0186095D01*
X0022628Y0186159D01*
X0022506Y0186227D01*
X0022385Y0186298D01*
X0022267Y0186372D01*
X0022151Y0186450D01*
X0022037Y0186531D01*
X0021925Y0186616D01*
X0021816Y0186703D01*
X0021709Y0186793D01*
X0021605Y0186887D01*
X0021504Y0186983D01*
X0021405Y0187083D01*
X0021309Y0187185D01*
X0021217Y0187289D01*
X0021127Y0187397D01*
X0021040Y0187507D01*
X0020957Y0187619D01*
X0020876Y0187733D01*
X0020799Y0187850D01*
X0020726Y0187969D01*
X0020655Y0188090D01*
X0020589Y0188213D01*
X0020525Y0188338D01*
X0020466Y0188464D01*
X0020410Y0188593D01*
X0020357Y0188722D01*
X0020309Y0188853D01*
X0020264Y0188986D01*
X0020223Y0189120D01*
X0020185Y0189255D01*
X0020152Y0189390D01*
X0020122Y0189527D01*
X0020096Y0189665D01*
X0020075Y0189803D01*
X0020057Y0189942D01*
X0020043Y0190081D01*
X0020033Y0190220D01*
X0020027Y0190360D01*
X0020025Y0190500D01*
X0315301Y0190500D02*
X0315303Y0190640D01*
X0315309Y0190780D01*
X0315319Y0190919D01*
X0315333Y0191058D01*
X0315351Y0191197D01*
X0315372Y0191335D01*
X0315398Y0191473D01*
X0315428Y0191610D01*
X0315461Y0191745D01*
X0315499Y0191880D01*
X0315540Y0192014D01*
X0315585Y0192147D01*
X0315633Y0192278D01*
X0315686Y0192407D01*
X0315742Y0192536D01*
X0315801Y0192662D01*
X0315865Y0192787D01*
X0315931Y0192910D01*
X0316002Y0193031D01*
X0316075Y0193150D01*
X0316152Y0193267D01*
X0316233Y0193381D01*
X0316316Y0193493D01*
X0316403Y0193603D01*
X0316493Y0193711D01*
X0316585Y0193815D01*
X0316681Y0193917D01*
X0316780Y0194017D01*
X0316881Y0194113D01*
X0316985Y0194207D01*
X0317092Y0194297D01*
X0317201Y0194384D01*
X0317313Y0194469D01*
X0317427Y0194550D01*
X0317543Y0194628D01*
X0317661Y0194702D01*
X0317782Y0194773D01*
X0317904Y0194841D01*
X0318029Y0194905D01*
X0318155Y0194966D01*
X0318282Y0195023D01*
X0318412Y0195076D01*
X0318543Y0195126D01*
X0318675Y0195171D01*
X0318808Y0195214D01*
X0318943Y0195252D01*
X0319078Y0195286D01*
X0319215Y0195317D01*
X0319352Y0195344D01*
X0319490Y0195366D01*
X0319629Y0195385D01*
X0319768Y0195400D01*
X0319907Y0195411D01*
X0320047Y0195418D01*
X0320187Y0195421D01*
X0320327Y0195420D01*
X0320467Y0195415D01*
X0320606Y0195406D01*
X0320746Y0195393D01*
X0320885Y0195376D01*
X0321023Y0195355D01*
X0321161Y0195331D01*
X0321298Y0195302D01*
X0321434Y0195270D01*
X0321569Y0195233D01*
X0321703Y0195193D01*
X0321836Y0195149D01*
X0321967Y0195101D01*
X0322097Y0195050D01*
X0322226Y0194995D01*
X0322353Y0194936D01*
X0322478Y0194873D01*
X0322601Y0194808D01*
X0322723Y0194738D01*
X0322842Y0194665D01*
X0322960Y0194589D01*
X0323075Y0194510D01*
X0323188Y0194427D01*
X0323298Y0194341D01*
X0323406Y0194252D01*
X0323511Y0194160D01*
X0323614Y0194065D01*
X0323714Y0193967D01*
X0323811Y0193867D01*
X0323905Y0193763D01*
X0323997Y0193657D01*
X0324085Y0193549D01*
X0324170Y0193438D01*
X0324252Y0193324D01*
X0324331Y0193208D01*
X0324406Y0193091D01*
X0324478Y0192971D01*
X0324546Y0192849D01*
X0324611Y0192725D01*
X0324673Y0192599D01*
X0324731Y0192472D01*
X0324785Y0192343D01*
X0324836Y0192212D01*
X0324882Y0192080D01*
X0324925Y0191947D01*
X0324965Y0191813D01*
X0325000Y0191678D01*
X0325032Y0191541D01*
X0325059Y0191404D01*
X0325083Y0191266D01*
X0325103Y0191128D01*
X0325119Y0190989D01*
X0325131Y0190849D01*
X0325139Y0190710D01*
X0325143Y0190570D01*
X0325143Y0190430D01*
X0325139Y0190290D01*
X0325131Y0190151D01*
X0325119Y0190011D01*
X0325103Y0189872D01*
X0325083Y0189734D01*
X0325059Y0189596D01*
X0325032Y0189459D01*
X0325000Y0189322D01*
X0324965Y0189187D01*
X0324925Y0189053D01*
X0324882Y0188920D01*
X0324836Y0188788D01*
X0324785Y0188657D01*
X0324731Y0188528D01*
X0324673Y0188401D01*
X0324611Y0188275D01*
X0324546Y0188151D01*
X0324478Y0188029D01*
X0324406Y0187909D01*
X0324331Y0187792D01*
X0324252Y0187676D01*
X0324170Y0187562D01*
X0324085Y0187451D01*
X0323997Y0187343D01*
X0323905Y0187237D01*
X0323811Y0187133D01*
X0323714Y0187033D01*
X0323614Y0186935D01*
X0323511Y0186840D01*
X0323406Y0186748D01*
X0323298Y0186659D01*
X0323188Y0186573D01*
X0323075Y0186490D01*
X0322960Y0186411D01*
X0322842Y0186335D01*
X0322723Y0186262D01*
X0322601Y0186192D01*
X0322478Y0186127D01*
X0322353Y0186064D01*
X0322226Y0186005D01*
X0322097Y0185950D01*
X0321967Y0185899D01*
X0321836Y0185851D01*
X0321703Y0185807D01*
X0321569Y0185767D01*
X0321434Y0185730D01*
X0321298Y0185698D01*
X0321161Y0185669D01*
X0321023Y0185645D01*
X0320885Y0185624D01*
X0320746Y0185607D01*
X0320606Y0185594D01*
X0320467Y0185585D01*
X0320327Y0185580D01*
X0320187Y0185579D01*
X0320047Y0185582D01*
X0319907Y0185589D01*
X0319768Y0185600D01*
X0319629Y0185615D01*
X0319490Y0185634D01*
X0319352Y0185656D01*
X0319215Y0185683D01*
X0319078Y0185714D01*
X0318943Y0185748D01*
X0318808Y0185786D01*
X0318675Y0185829D01*
X0318543Y0185874D01*
X0318412Y0185924D01*
X0318282Y0185977D01*
X0318155Y0186034D01*
X0318029Y0186095D01*
X0317904Y0186159D01*
X0317782Y0186227D01*
X0317661Y0186298D01*
X0317543Y0186372D01*
X0317427Y0186450D01*
X0317313Y0186531D01*
X0317201Y0186616D01*
X0317092Y0186703D01*
X0316985Y0186793D01*
X0316881Y0186887D01*
X0316780Y0186983D01*
X0316681Y0187083D01*
X0316585Y0187185D01*
X0316493Y0187289D01*
X0316403Y0187397D01*
X0316316Y0187507D01*
X0316233Y0187619D01*
X0316152Y0187733D01*
X0316075Y0187850D01*
X0316002Y0187969D01*
X0315931Y0188090D01*
X0315865Y0188213D01*
X0315801Y0188338D01*
X0315742Y0188464D01*
X0315686Y0188593D01*
X0315633Y0188722D01*
X0315585Y0188853D01*
X0315540Y0188986D01*
X0315499Y0189120D01*
X0315461Y0189255D01*
X0315428Y0189390D01*
X0315398Y0189527D01*
X0315372Y0189665D01*
X0315351Y0189803D01*
X0315333Y0189942D01*
X0315319Y0190081D01*
X0315309Y0190220D01*
X0315303Y0190360D01*
X0315301Y0190500D01*
X0315301Y0068453D02*
X0315303Y0068593D01*
X0315309Y0068733D01*
X0315319Y0068872D01*
X0315333Y0069011D01*
X0315351Y0069150D01*
X0315372Y0069288D01*
X0315398Y0069426D01*
X0315428Y0069563D01*
X0315461Y0069698D01*
X0315499Y0069833D01*
X0315540Y0069967D01*
X0315585Y0070100D01*
X0315633Y0070231D01*
X0315686Y0070360D01*
X0315742Y0070489D01*
X0315801Y0070615D01*
X0315865Y0070740D01*
X0315931Y0070863D01*
X0316002Y0070984D01*
X0316075Y0071103D01*
X0316152Y0071220D01*
X0316233Y0071334D01*
X0316316Y0071446D01*
X0316403Y0071556D01*
X0316493Y0071664D01*
X0316585Y0071768D01*
X0316681Y0071870D01*
X0316780Y0071970D01*
X0316881Y0072066D01*
X0316985Y0072160D01*
X0317092Y0072250D01*
X0317201Y0072337D01*
X0317313Y0072422D01*
X0317427Y0072503D01*
X0317543Y0072581D01*
X0317661Y0072655D01*
X0317782Y0072726D01*
X0317904Y0072794D01*
X0318029Y0072858D01*
X0318155Y0072919D01*
X0318282Y0072976D01*
X0318412Y0073029D01*
X0318543Y0073079D01*
X0318675Y0073124D01*
X0318808Y0073167D01*
X0318943Y0073205D01*
X0319078Y0073239D01*
X0319215Y0073270D01*
X0319352Y0073297D01*
X0319490Y0073319D01*
X0319629Y0073338D01*
X0319768Y0073353D01*
X0319907Y0073364D01*
X0320047Y0073371D01*
X0320187Y0073374D01*
X0320327Y0073373D01*
X0320467Y0073368D01*
X0320606Y0073359D01*
X0320746Y0073346D01*
X0320885Y0073329D01*
X0321023Y0073308D01*
X0321161Y0073284D01*
X0321298Y0073255D01*
X0321434Y0073223D01*
X0321569Y0073186D01*
X0321703Y0073146D01*
X0321836Y0073102D01*
X0321967Y0073054D01*
X0322097Y0073003D01*
X0322226Y0072948D01*
X0322353Y0072889D01*
X0322478Y0072826D01*
X0322601Y0072761D01*
X0322723Y0072691D01*
X0322842Y0072618D01*
X0322960Y0072542D01*
X0323075Y0072463D01*
X0323188Y0072380D01*
X0323298Y0072294D01*
X0323406Y0072205D01*
X0323511Y0072113D01*
X0323614Y0072018D01*
X0323714Y0071920D01*
X0323811Y0071820D01*
X0323905Y0071716D01*
X0323997Y0071610D01*
X0324085Y0071502D01*
X0324170Y0071391D01*
X0324252Y0071277D01*
X0324331Y0071161D01*
X0324406Y0071044D01*
X0324478Y0070924D01*
X0324546Y0070802D01*
X0324611Y0070678D01*
X0324673Y0070552D01*
X0324731Y0070425D01*
X0324785Y0070296D01*
X0324836Y0070165D01*
X0324882Y0070033D01*
X0324925Y0069900D01*
X0324965Y0069766D01*
X0325000Y0069631D01*
X0325032Y0069494D01*
X0325059Y0069357D01*
X0325083Y0069219D01*
X0325103Y0069081D01*
X0325119Y0068942D01*
X0325131Y0068802D01*
X0325139Y0068663D01*
X0325143Y0068523D01*
X0325143Y0068383D01*
X0325139Y0068243D01*
X0325131Y0068104D01*
X0325119Y0067964D01*
X0325103Y0067825D01*
X0325083Y0067687D01*
X0325059Y0067549D01*
X0325032Y0067412D01*
X0325000Y0067275D01*
X0324965Y0067140D01*
X0324925Y0067006D01*
X0324882Y0066873D01*
X0324836Y0066741D01*
X0324785Y0066610D01*
X0324731Y0066481D01*
X0324673Y0066354D01*
X0324611Y0066228D01*
X0324546Y0066104D01*
X0324478Y0065982D01*
X0324406Y0065862D01*
X0324331Y0065745D01*
X0324252Y0065629D01*
X0324170Y0065515D01*
X0324085Y0065404D01*
X0323997Y0065296D01*
X0323905Y0065190D01*
X0323811Y0065086D01*
X0323714Y0064986D01*
X0323614Y0064888D01*
X0323511Y0064793D01*
X0323406Y0064701D01*
X0323298Y0064612D01*
X0323188Y0064526D01*
X0323075Y0064443D01*
X0322960Y0064364D01*
X0322842Y0064288D01*
X0322723Y0064215D01*
X0322601Y0064145D01*
X0322478Y0064080D01*
X0322353Y0064017D01*
X0322226Y0063958D01*
X0322097Y0063903D01*
X0321967Y0063852D01*
X0321836Y0063804D01*
X0321703Y0063760D01*
X0321569Y0063720D01*
X0321434Y0063683D01*
X0321298Y0063651D01*
X0321161Y0063622D01*
X0321023Y0063598D01*
X0320885Y0063577D01*
X0320746Y0063560D01*
X0320606Y0063547D01*
X0320467Y0063538D01*
X0320327Y0063533D01*
X0320187Y0063532D01*
X0320047Y0063535D01*
X0319907Y0063542D01*
X0319768Y0063553D01*
X0319629Y0063568D01*
X0319490Y0063587D01*
X0319352Y0063609D01*
X0319215Y0063636D01*
X0319078Y0063667D01*
X0318943Y0063701D01*
X0318808Y0063739D01*
X0318675Y0063782D01*
X0318543Y0063827D01*
X0318412Y0063877D01*
X0318282Y0063930D01*
X0318155Y0063987D01*
X0318029Y0064048D01*
X0317904Y0064112D01*
X0317782Y0064180D01*
X0317661Y0064251D01*
X0317543Y0064325D01*
X0317427Y0064403D01*
X0317313Y0064484D01*
X0317201Y0064569D01*
X0317092Y0064656D01*
X0316985Y0064746D01*
X0316881Y0064840D01*
X0316780Y0064936D01*
X0316681Y0065036D01*
X0316585Y0065138D01*
X0316493Y0065242D01*
X0316403Y0065350D01*
X0316316Y0065460D01*
X0316233Y0065572D01*
X0316152Y0065686D01*
X0316075Y0065803D01*
X0316002Y0065922D01*
X0315931Y0066043D01*
X0315865Y0066166D01*
X0315801Y0066291D01*
X0315742Y0066417D01*
X0315686Y0066546D01*
X0315633Y0066675D01*
X0315585Y0066806D01*
X0315540Y0066939D01*
X0315499Y0067073D01*
X0315461Y0067208D01*
X0315428Y0067343D01*
X0315398Y0067480D01*
X0315372Y0067618D01*
X0315351Y0067756D01*
X0315333Y0067895D01*
X0315319Y0068034D01*
X0315309Y0068173D01*
X0315303Y0068313D01*
X0315301Y0068453D01*
X0314694Y0033500D02*
X0314696Y0033653D01*
X0314702Y0033807D01*
X0314712Y0033960D01*
X0314726Y0034112D01*
X0314744Y0034265D01*
X0314766Y0034416D01*
X0314791Y0034567D01*
X0314821Y0034718D01*
X0314855Y0034868D01*
X0314892Y0035016D01*
X0314933Y0035164D01*
X0314978Y0035310D01*
X0315027Y0035456D01*
X0315080Y0035600D01*
X0315136Y0035742D01*
X0315196Y0035883D01*
X0315260Y0036023D01*
X0315327Y0036161D01*
X0315398Y0036297D01*
X0315473Y0036431D01*
X0315550Y0036563D01*
X0315632Y0036693D01*
X0315716Y0036821D01*
X0315804Y0036947D01*
X0315895Y0037070D01*
X0315989Y0037191D01*
X0316087Y0037309D01*
X0316187Y0037425D01*
X0316291Y0037538D01*
X0316397Y0037649D01*
X0316506Y0037757D01*
X0316618Y0037862D01*
X0316732Y0037963D01*
X0316850Y0038062D01*
X0316969Y0038158D01*
X0317091Y0038251D01*
X0317216Y0038340D01*
X0317343Y0038427D01*
X0317472Y0038509D01*
X0317603Y0038589D01*
X0317736Y0038665D01*
X0317871Y0038738D01*
X0318008Y0038807D01*
X0318147Y0038872D01*
X0318287Y0038934D01*
X0318429Y0038992D01*
X0318572Y0039047D01*
X0318717Y0039098D01*
X0318863Y0039145D01*
X0319010Y0039188D01*
X0319158Y0039227D01*
X0319307Y0039263D01*
X0319457Y0039294D01*
X0319608Y0039322D01*
X0319759Y0039346D01*
X0319912Y0039366D01*
X0320064Y0039382D01*
X0320217Y0039394D01*
X0320370Y0039402D01*
X0320523Y0039406D01*
X0320677Y0039406D01*
X0320830Y0039402D01*
X0320983Y0039394D01*
X0321136Y0039382D01*
X0321288Y0039366D01*
X0321441Y0039346D01*
X0321592Y0039322D01*
X0321743Y0039294D01*
X0321893Y0039263D01*
X0322042Y0039227D01*
X0322190Y0039188D01*
X0322337Y0039145D01*
X0322483Y0039098D01*
X0322628Y0039047D01*
X0322771Y0038992D01*
X0322913Y0038934D01*
X0323053Y0038872D01*
X0323192Y0038807D01*
X0323329Y0038738D01*
X0323464Y0038665D01*
X0323597Y0038589D01*
X0323728Y0038509D01*
X0323857Y0038427D01*
X0323984Y0038340D01*
X0324109Y0038251D01*
X0324231Y0038158D01*
X0324350Y0038062D01*
X0324468Y0037963D01*
X0324582Y0037862D01*
X0324694Y0037757D01*
X0324803Y0037649D01*
X0324909Y0037538D01*
X0325013Y0037425D01*
X0325113Y0037309D01*
X0325211Y0037191D01*
X0325305Y0037070D01*
X0325396Y0036947D01*
X0325484Y0036821D01*
X0325568Y0036693D01*
X0325650Y0036563D01*
X0325727Y0036431D01*
X0325802Y0036297D01*
X0325873Y0036161D01*
X0325940Y0036023D01*
X0326004Y0035883D01*
X0326064Y0035742D01*
X0326120Y0035600D01*
X0326173Y0035456D01*
X0326222Y0035310D01*
X0326267Y0035164D01*
X0326308Y0035016D01*
X0326345Y0034868D01*
X0326379Y0034718D01*
X0326409Y0034567D01*
X0326434Y0034416D01*
X0326456Y0034265D01*
X0326474Y0034112D01*
X0326488Y0033960D01*
X0326498Y0033807D01*
X0326504Y0033653D01*
X0326506Y0033500D01*
X0326504Y0033347D01*
X0326498Y0033193D01*
X0326488Y0033040D01*
X0326474Y0032888D01*
X0326456Y0032735D01*
X0326434Y0032584D01*
X0326409Y0032433D01*
X0326379Y0032282D01*
X0326345Y0032132D01*
X0326308Y0031984D01*
X0326267Y0031836D01*
X0326222Y0031690D01*
X0326173Y0031544D01*
X0326120Y0031400D01*
X0326064Y0031258D01*
X0326004Y0031117D01*
X0325940Y0030977D01*
X0325873Y0030839D01*
X0325802Y0030703D01*
X0325727Y0030569D01*
X0325650Y0030437D01*
X0325568Y0030307D01*
X0325484Y0030179D01*
X0325396Y0030053D01*
X0325305Y0029930D01*
X0325211Y0029809D01*
X0325113Y0029691D01*
X0325013Y0029575D01*
X0324909Y0029462D01*
X0324803Y0029351D01*
X0324694Y0029243D01*
X0324582Y0029138D01*
X0324468Y0029037D01*
X0324350Y0028938D01*
X0324231Y0028842D01*
X0324109Y0028749D01*
X0323984Y0028660D01*
X0323857Y0028573D01*
X0323728Y0028491D01*
X0323597Y0028411D01*
X0323464Y0028335D01*
X0323329Y0028262D01*
X0323192Y0028193D01*
X0323053Y0028128D01*
X0322913Y0028066D01*
X0322771Y0028008D01*
X0322628Y0027953D01*
X0322483Y0027902D01*
X0322337Y0027855D01*
X0322190Y0027812D01*
X0322042Y0027773D01*
X0321893Y0027737D01*
X0321743Y0027706D01*
X0321592Y0027678D01*
X0321441Y0027654D01*
X0321288Y0027634D01*
X0321136Y0027618D01*
X0320983Y0027606D01*
X0320830Y0027598D01*
X0320677Y0027594D01*
X0320523Y0027594D01*
X0320370Y0027598D01*
X0320217Y0027606D01*
X0320064Y0027618D01*
X0319912Y0027634D01*
X0319759Y0027654D01*
X0319608Y0027678D01*
X0319457Y0027706D01*
X0319307Y0027737D01*
X0319158Y0027773D01*
X0319010Y0027812D01*
X0318863Y0027855D01*
X0318717Y0027902D01*
X0318572Y0027953D01*
X0318429Y0028008D01*
X0318287Y0028066D01*
X0318147Y0028128D01*
X0318008Y0028193D01*
X0317871Y0028262D01*
X0317736Y0028335D01*
X0317603Y0028411D01*
X0317472Y0028491D01*
X0317343Y0028573D01*
X0317216Y0028660D01*
X0317091Y0028749D01*
X0316969Y0028842D01*
X0316850Y0028938D01*
X0316732Y0029037D01*
X0316618Y0029138D01*
X0316506Y0029243D01*
X0316397Y0029351D01*
X0316291Y0029462D01*
X0316187Y0029575D01*
X0316087Y0029691D01*
X0315989Y0029809D01*
X0315895Y0029930D01*
X0315804Y0030053D01*
X0315716Y0030179D01*
X0315632Y0030307D01*
X0315550Y0030437D01*
X0315473Y0030569D01*
X0315398Y0030703D01*
X0315327Y0030839D01*
X0315260Y0030977D01*
X0315196Y0031117D01*
X0315136Y0031258D01*
X0315080Y0031400D01*
X0315027Y0031544D01*
X0314978Y0031690D01*
X0314933Y0031836D01*
X0314892Y0031984D01*
X0314855Y0032132D01*
X0314821Y0032282D01*
X0314791Y0032433D01*
X0314766Y0032584D01*
X0314744Y0032735D01*
X0314726Y0032888D01*
X0314712Y0033040D01*
X0314702Y0033193D01*
X0314696Y0033347D01*
X0314694Y0033500D01*
M02*
