%
M48
M72
T01C0.0138
T02C0.0315
T03C0.0320
T04C0.0394
T05C0.0400
T06C0.0984
T07C0.1181
%
T01
X6560Y8250
X8060Y14650
T02
X8260Y3550
X7260Y3550
X6260Y3550
X5260Y3550
T03
X9160Y8050
X5760Y8250
X5760Y12250
X7360Y13250
X7360Y15250
X4160Y15550
X3160Y15550
X2160Y15550
X13160Y8050
X18560Y11450
X18560Y15450
X15660Y2850
X14660Y2850
T04
X28360Y8100
X28360Y14850
X28360Y15850
X28360Y16850
X28360Y17850
X19660Y19050
X18660Y19050
X17660Y19050
X16660Y19050
X15660Y19050
X14660Y19050
X13660Y19050
X12660Y19050
X11660Y19050
X10660Y19050
X9660Y19050
X8660Y19050
X7660Y19050
X6660Y19050
X5660Y19050
X4660Y19050
T05
X17570Y4830
X19350Y4830
X21260Y3850
X19350Y2270
X17570Y2270
X29260Y3850
T06
X32022Y6845
X32022Y19050
X2495Y19050
X2495Y6845
T07
X2060Y2950
X32060Y3350
M30
