%
M48
M72
T01C0.0315
T02C0.0320
T03C0.0354
T04C0.0394
T05C0.0400
T06C0.0460
T07C0.1181
%
T01
X2260Y5260
X2260Y6260
X2260Y7260
X2260Y8260
T02
X4260Y7260
X4260Y11260
X2260Y12760
X6260Y12760
X12860Y7260
X14860Y7260
X13260Y4960
X13260Y3560
T03
X2260Y10160
X2260Y11160
T04
X18760Y2260
X19760Y2260
X20760Y2260
X23010Y8510
T05
X23260Y12260
X15260Y12260
T06
X5360Y1760
X4360Y1760
T07
X1960Y1860
X12360Y13760
M30
