G75*
%MOIN*%
%OFA0B0*%
%FSLAX25Y25*%
%IPPOS*%
%LPD*%
%AMOC8*
5,1,8,0,0,1.08239X$1,22.5*
%
%ADD10C,0.00000*%
D10*
X0002600Y0002600D02*
X0002600Y0157561D01*
X0246301Y0157561D01*
X0246301Y0002600D01*
X0002600Y0002600D01*
X0013694Y0018600D02*
X0013696Y0018753D01*
X0013702Y0018907D01*
X0013712Y0019060D01*
X0013726Y0019212D01*
X0013744Y0019365D01*
X0013766Y0019516D01*
X0013791Y0019667D01*
X0013821Y0019818D01*
X0013855Y0019968D01*
X0013892Y0020116D01*
X0013933Y0020264D01*
X0013978Y0020410D01*
X0014027Y0020556D01*
X0014080Y0020700D01*
X0014136Y0020842D01*
X0014196Y0020983D01*
X0014260Y0021123D01*
X0014327Y0021261D01*
X0014398Y0021397D01*
X0014473Y0021531D01*
X0014550Y0021663D01*
X0014632Y0021793D01*
X0014716Y0021921D01*
X0014804Y0022047D01*
X0014895Y0022170D01*
X0014989Y0022291D01*
X0015087Y0022409D01*
X0015187Y0022525D01*
X0015291Y0022638D01*
X0015397Y0022749D01*
X0015506Y0022857D01*
X0015618Y0022962D01*
X0015732Y0023063D01*
X0015850Y0023162D01*
X0015969Y0023258D01*
X0016091Y0023351D01*
X0016216Y0023440D01*
X0016343Y0023527D01*
X0016472Y0023609D01*
X0016603Y0023689D01*
X0016736Y0023765D01*
X0016871Y0023838D01*
X0017008Y0023907D01*
X0017147Y0023972D01*
X0017287Y0024034D01*
X0017429Y0024092D01*
X0017572Y0024147D01*
X0017717Y0024198D01*
X0017863Y0024245D01*
X0018010Y0024288D01*
X0018158Y0024327D01*
X0018307Y0024363D01*
X0018457Y0024394D01*
X0018608Y0024422D01*
X0018759Y0024446D01*
X0018912Y0024466D01*
X0019064Y0024482D01*
X0019217Y0024494D01*
X0019370Y0024502D01*
X0019523Y0024506D01*
X0019677Y0024506D01*
X0019830Y0024502D01*
X0019983Y0024494D01*
X0020136Y0024482D01*
X0020288Y0024466D01*
X0020441Y0024446D01*
X0020592Y0024422D01*
X0020743Y0024394D01*
X0020893Y0024363D01*
X0021042Y0024327D01*
X0021190Y0024288D01*
X0021337Y0024245D01*
X0021483Y0024198D01*
X0021628Y0024147D01*
X0021771Y0024092D01*
X0021913Y0024034D01*
X0022053Y0023972D01*
X0022192Y0023907D01*
X0022329Y0023838D01*
X0022464Y0023765D01*
X0022597Y0023689D01*
X0022728Y0023609D01*
X0022857Y0023527D01*
X0022984Y0023440D01*
X0023109Y0023351D01*
X0023231Y0023258D01*
X0023350Y0023162D01*
X0023468Y0023063D01*
X0023582Y0022962D01*
X0023694Y0022857D01*
X0023803Y0022749D01*
X0023909Y0022638D01*
X0024013Y0022525D01*
X0024113Y0022409D01*
X0024211Y0022291D01*
X0024305Y0022170D01*
X0024396Y0022047D01*
X0024484Y0021921D01*
X0024568Y0021793D01*
X0024650Y0021663D01*
X0024727Y0021531D01*
X0024802Y0021397D01*
X0024873Y0021261D01*
X0024940Y0021123D01*
X0025004Y0020983D01*
X0025064Y0020842D01*
X0025120Y0020700D01*
X0025173Y0020556D01*
X0025222Y0020410D01*
X0025267Y0020264D01*
X0025308Y0020116D01*
X0025345Y0019968D01*
X0025379Y0019818D01*
X0025409Y0019667D01*
X0025434Y0019516D01*
X0025456Y0019365D01*
X0025474Y0019212D01*
X0025488Y0019060D01*
X0025498Y0018907D01*
X0025504Y0018753D01*
X0025506Y0018600D01*
X0025504Y0018447D01*
X0025498Y0018293D01*
X0025488Y0018140D01*
X0025474Y0017988D01*
X0025456Y0017835D01*
X0025434Y0017684D01*
X0025409Y0017533D01*
X0025379Y0017382D01*
X0025345Y0017232D01*
X0025308Y0017084D01*
X0025267Y0016936D01*
X0025222Y0016790D01*
X0025173Y0016644D01*
X0025120Y0016500D01*
X0025064Y0016358D01*
X0025004Y0016217D01*
X0024940Y0016077D01*
X0024873Y0015939D01*
X0024802Y0015803D01*
X0024727Y0015669D01*
X0024650Y0015537D01*
X0024568Y0015407D01*
X0024484Y0015279D01*
X0024396Y0015153D01*
X0024305Y0015030D01*
X0024211Y0014909D01*
X0024113Y0014791D01*
X0024013Y0014675D01*
X0023909Y0014562D01*
X0023803Y0014451D01*
X0023694Y0014343D01*
X0023582Y0014238D01*
X0023468Y0014137D01*
X0023350Y0014038D01*
X0023231Y0013942D01*
X0023109Y0013849D01*
X0022984Y0013760D01*
X0022857Y0013673D01*
X0022728Y0013591D01*
X0022597Y0013511D01*
X0022464Y0013435D01*
X0022329Y0013362D01*
X0022192Y0013293D01*
X0022053Y0013228D01*
X0021913Y0013166D01*
X0021771Y0013108D01*
X0021628Y0013053D01*
X0021483Y0013002D01*
X0021337Y0012955D01*
X0021190Y0012912D01*
X0021042Y0012873D01*
X0020893Y0012837D01*
X0020743Y0012806D01*
X0020592Y0012778D01*
X0020441Y0012754D01*
X0020288Y0012734D01*
X0020136Y0012718D01*
X0019983Y0012706D01*
X0019830Y0012698D01*
X0019677Y0012694D01*
X0019523Y0012694D01*
X0019370Y0012698D01*
X0019217Y0012706D01*
X0019064Y0012718D01*
X0018912Y0012734D01*
X0018759Y0012754D01*
X0018608Y0012778D01*
X0018457Y0012806D01*
X0018307Y0012837D01*
X0018158Y0012873D01*
X0018010Y0012912D01*
X0017863Y0012955D01*
X0017717Y0013002D01*
X0017572Y0013053D01*
X0017429Y0013108D01*
X0017287Y0013166D01*
X0017147Y0013228D01*
X0017008Y0013293D01*
X0016871Y0013362D01*
X0016736Y0013435D01*
X0016603Y0013511D01*
X0016472Y0013591D01*
X0016343Y0013673D01*
X0016216Y0013760D01*
X0016091Y0013849D01*
X0015969Y0013942D01*
X0015850Y0014038D01*
X0015732Y0014137D01*
X0015618Y0014238D01*
X0015506Y0014343D01*
X0015397Y0014451D01*
X0015291Y0014562D01*
X0015187Y0014675D01*
X0015087Y0014791D01*
X0014989Y0014909D01*
X0014895Y0015030D01*
X0014804Y0015153D01*
X0014716Y0015279D01*
X0014632Y0015407D01*
X0014550Y0015537D01*
X0014473Y0015669D01*
X0014398Y0015803D01*
X0014327Y0015939D01*
X0014260Y0016077D01*
X0014196Y0016217D01*
X0014136Y0016358D01*
X0014080Y0016500D01*
X0014027Y0016644D01*
X0013978Y0016790D01*
X0013933Y0016936D01*
X0013892Y0017084D01*
X0013855Y0017232D01*
X0013821Y0017382D01*
X0013791Y0017533D01*
X0013766Y0017684D01*
X0013744Y0017835D01*
X0013726Y0017988D01*
X0013712Y0018140D01*
X0013702Y0018293D01*
X0013696Y0018447D01*
X0013694Y0018600D01*
X0117694Y0137600D02*
X0117696Y0137753D01*
X0117702Y0137907D01*
X0117712Y0138060D01*
X0117726Y0138212D01*
X0117744Y0138365D01*
X0117766Y0138516D01*
X0117791Y0138667D01*
X0117821Y0138818D01*
X0117855Y0138968D01*
X0117892Y0139116D01*
X0117933Y0139264D01*
X0117978Y0139410D01*
X0118027Y0139556D01*
X0118080Y0139700D01*
X0118136Y0139842D01*
X0118196Y0139983D01*
X0118260Y0140123D01*
X0118327Y0140261D01*
X0118398Y0140397D01*
X0118473Y0140531D01*
X0118550Y0140663D01*
X0118632Y0140793D01*
X0118716Y0140921D01*
X0118804Y0141047D01*
X0118895Y0141170D01*
X0118989Y0141291D01*
X0119087Y0141409D01*
X0119187Y0141525D01*
X0119291Y0141638D01*
X0119397Y0141749D01*
X0119506Y0141857D01*
X0119618Y0141962D01*
X0119732Y0142063D01*
X0119850Y0142162D01*
X0119969Y0142258D01*
X0120091Y0142351D01*
X0120216Y0142440D01*
X0120343Y0142527D01*
X0120472Y0142609D01*
X0120603Y0142689D01*
X0120736Y0142765D01*
X0120871Y0142838D01*
X0121008Y0142907D01*
X0121147Y0142972D01*
X0121287Y0143034D01*
X0121429Y0143092D01*
X0121572Y0143147D01*
X0121717Y0143198D01*
X0121863Y0143245D01*
X0122010Y0143288D01*
X0122158Y0143327D01*
X0122307Y0143363D01*
X0122457Y0143394D01*
X0122608Y0143422D01*
X0122759Y0143446D01*
X0122912Y0143466D01*
X0123064Y0143482D01*
X0123217Y0143494D01*
X0123370Y0143502D01*
X0123523Y0143506D01*
X0123677Y0143506D01*
X0123830Y0143502D01*
X0123983Y0143494D01*
X0124136Y0143482D01*
X0124288Y0143466D01*
X0124441Y0143446D01*
X0124592Y0143422D01*
X0124743Y0143394D01*
X0124893Y0143363D01*
X0125042Y0143327D01*
X0125190Y0143288D01*
X0125337Y0143245D01*
X0125483Y0143198D01*
X0125628Y0143147D01*
X0125771Y0143092D01*
X0125913Y0143034D01*
X0126053Y0142972D01*
X0126192Y0142907D01*
X0126329Y0142838D01*
X0126464Y0142765D01*
X0126597Y0142689D01*
X0126728Y0142609D01*
X0126857Y0142527D01*
X0126984Y0142440D01*
X0127109Y0142351D01*
X0127231Y0142258D01*
X0127350Y0142162D01*
X0127468Y0142063D01*
X0127582Y0141962D01*
X0127694Y0141857D01*
X0127803Y0141749D01*
X0127909Y0141638D01*
X0128013Y0141525D01*
X0128113Y0141409D01*
X0128211Y0141291D01*
X0128305Y0141170D01*
X0128396Y0141047D01*
X0128484Y0140921D01*
X0128568Y0140793D01*
X0128650Y0140663D01*
X0128727Y0140531D01*
X0128802Y0140397D01*
X0128873Y0140261D01*
X0128940Y0140123D01*
X0129004Y0139983D01*
X0129064Y0139842D01*
X0129120Y0139700D01*
X0129173Y0139556D01*
X0129222Y0139410D01*
X0129267Y0139264D01*
X0129308Y0139116D01*
X0129345Y0138968D01*
X0129379Y0138818D01*
X0129409Y0138667D01*
X0129434Y0138516D01*
X0129456Y0138365D01*
X0129474Y0138212D01*
X0129488Y0138060D01*
X0129498Y0137907D01*
X0129504Y0137753D01*
X0129506Y0137600D01*
X0129504Y0137447D01*
X0129498Y0137293D01*
X0129488Y0137140D01*
X0129474Y0136988D01*
X0129456Y0136835D01*
X0129434Y0136684D01*
X0129409Y0136533D01*
X0129379Y0136382D01*
X0129345Y0136232D01*
X0129308Y0136084D01*
X0129267Y0135936D01*
X0129222Y0135790D01*
X0129173Y0135644D01*
X0129120Y0135500D01*
X0129064Y0135358D01*
X0129004Y0135217D01*
X0128940Y0135077D01*
X0128873Y0134939D01*
X0128802Y0134803D01*
X0128727Y0134669D01*
X0128650Y0134537D01*
X0128568Y0134407D01*
X0128484Y0134279D01*
X0128396Y0134153D01*
X0128305Y0134030D01*
X0128211Y0133909D01*
X0128113Y0133791D01*
X0128013Y0133675D01*
X0127909Y0133562D01*
X0127803Y0133451D01*
X0127694Y0133343D01*
X0127582Y0133238D01*
X0127468Y0133137D01*
X0127350Y0133038D01*
X0127231Y0132942D01*
X0127109Y0132849D01*
X0126984Y0132760D01*
X0126857Y0132673D01*
X0126728Y0132591D01*
X0126597Y0132511D01*
X0126464Y0132435D01*
X0126329Y0132362D01*
X0126192Y0132293D01*
X0126053Y0132228D01*
X0125913Y0132166D01*
X0125771Y0132108D01*
X0125628Y0132053D01*
X0125483Y0132002D01*
X0125337Y0131955D01*
X0125190Y0131912D01*
X0125042Y0131873D01*
X0124893Y0131837D01*
X0124743Y0131806D01*
X0124592Y0131778D01*
X0124441Y0131754D01*
X0124288Y0131734D01*
X0124136Y0131718D01*
X0123983Y0131706D01*
X0123830Y0131698D01*
X0123677Y0131694D01*
X0123523Y0131694D01*
X0123370Y0131698D01*
X0123217Y0131706D01*
X0123064Y0131718D01*
X0122912Y0131734D01*
X0122759Y0131754D01*
X0122608Y0131778D01*
X0122457Y0131806D01*
X0122307Y0131837D01*
X0122158Y0131873D01*
X0122010Y0131912D01*
X0121863Y0131955D01*
X0121717Y0132002D01*
X0121572Y0132053D01*
X0121429Y0132108D01*
X0121287Y0132166D01*
X0121147Y0132228D01*
X0121008Y0132293D01*
X0120871Y0132362D01*
X0120736Y0132435D01*
X0120603Y0132511D01*
X0120472Y0132591D01*
X0120343Y0132673D01*
X0120216Y0132760D01*
X0120091Y0132849D01*
X0119969Y0132942D01*
X0119850Y0133038D01*
X0119732Y0133137D01*
X0119618Y0133238D01*
X0119506Y0133343D01*
X0119397Y0133451D01*
X0119291Y0133562D01*
X0119187Y0133675D01*
X0119087Y0133791D01*
X0118989Y0133909D01*
X0118895Y0134030D01*
X0118804Y0134153D01*
X0118716Y0134279D01*
X0118632Y0134407D01*
X0118550Y0134537D01*
X0118473Y0134669D01*
X0118398Y0134803D01*
X0118327Y0134939D01*
X0118260Y0135077D01*
X0118196Y0135217D01*
X0118136Y0135358D01*
X0118080Y0135500D01*
X0118027Y0135644D01*
X0117978Y0135790D01*
X0117933Y0135936D01*
X0117892Y0136084D01*
X0117855Y0136232D01*
X0117821Y0136382D01*
X0117791Y0136533D01*
X0117766Y0136684D01*
X0117744Y0136835D01*
X0117726Y0136988D01*
X0117712Y0137140D01*
X0117702Y0137293D01*
X0117696Y0137447D01*
X0117694Y0137600D01*
M02*
