G75*
%MOIN*%
%OFA0B0*%
%FSLAX25Y25*%
%IPPOS*%
%LPD*%
%AMOC8*
5,1,8,0,0,1.08239X$1,22.5*
%
%ADD10C,0.00600*%
%ADD11C,0.00400*%
%ADD12C,0.00060*%
%ADD13C,0.01200*%
%ADD14C,0.00200*%
%ADD15R,0.01300X0.03200*%
%ADD16C,0.00500*%
%ADD17C,0.00300*%
%ADD18C,0.00700*%
%ADD19R,0.03400X0.02400*%
%ADD20R,0.02400X0.03400*%
%ADD21R,0.14000X0.05000*%
%ADD22C,0.00800*%
%ADD23R,0.04200X0.00100*%
%ADD24R,0.04300X0.00100*%
%ADD25R,0.03900X0.00100*%
%ADD26R,0.04000X0.00100*%
%ADD27R,0.04100X0.00100*%
%ADD28R,0.04400X0.00100*%
%ADD29R,0.04500X0.00100*%
%ADD30R,0.04600X0.00100*%
%ADD31R,0.04700X0.00100*%
%ADD32R,0.04800X0.00100*%
%ADD33R,0.04900X0.00100*%
%ADD34R,0.05000X0.00100*%
%ADD35R,0.05100X0.00100*%
%ADD36R,0.05200X0.00100*%
%ADD37R,0.05300X0.00100*%
%ADD38R,0.05400X0.00100*%
%ADD39R,0.05500X0.00100*%
%ADD40R,0.05600X0.00100*%
%ADD41R,0.05700X0.00100*%
%ADD42R,0.05900X0.00100*%
%ADD43R,0.06000X0.00100*%
%ADD44R,0.05800X0.00100*%
%ADD45R,0.06200X0.00100*%
%ADD46R,0.10500X0.00100*%
%ADD47R,0.06100X0.00100*%
%ADD48R,0.16600X0.00100*%
%ADD49R,0.16400X0.00100*%
%ADD50R,0.16300X0.00100*%
%ADD51R,0.16200X0.00100*%
%ADD52R,0.16000X0.00100*%
%ADD53R,0.15900X0.00100*%
%ADD54R,0.15700X0.00100*%
%ADD55R,0.15500X0.00100*%
%ADD56R,0.15400X0.00100*%
%ADD57R,0.15200X0.00100*%
%ADD58R,0.15000X0.00100*%
%ADD59R,0.14800X0.00100*%
%ADD60R,0.14700X0.00100*%
%ADD61R,0.14500X0.00100*%
%ADD62R,0.14300X0.00100*%
%ADD63R,0.14100X0.00100*%
%ADD64R,0.14000X0.00100*%
%ADD65R,0.13700X0.00100*%
%ADD66R,0.13500X0.00100*%
%ADD67R,0.13300X0.00100*%
%ADD68R,0.13000X0.00100*%
%ADD69R,0.12800X0.00100*%
%ADD70R,0.12600X0.00100*%
%ADD71R,0.12400X0.00100*%
%ADD72R,0.12100X0.00100*%
%ADD73R,0.11800X0.00100*%
%ADD74R,0.11600X0.00100*%
%ADD75R,0.11300X0.00100*%
%ADD76R,0.11000X0.00100*%
%ADD77R,0.10700X0.00100*%
%ADD78R,0.10400X0.00100*%
%ADD79R,0.10000X0.00100*%
%ADD80R,0.09700X0.00100*%
%ADD81R,0.09300X0.00100*%
%ADD82R,0.08900X0.00100*%
%ADD83R,0.08500X0.00100*%
%ADD84R,0.08100X0.00100*%
%ADD85R,0.07600X0.00100*%
%ADD86R,0.07200X0.00100*%
%ADD87R,0.06600X0.00100*%
%ADD88R,0.19700X0.00100*%
%ADD89R,0.06300X0.00100*%
%ADD90R,0.06900X0.00100*%
%ADD91R,0.07400X0.00100*%
%ADD92R,0.08000X0.00100*%
%ADD93R,0.08300X0.00100*%
%ADD94R,0.08700X0.00100*%
%ADD95R,0.09100X0.00100*%
%ADD96R,0.09500X0.00100*%
%ADD97R,0.09900X0.00100*%
%ADD98R,0.10300X0.00100*%
%ADD99R,0.10900X0.00100*%
%ADD100R,0.11100X0.00100*%
%ADD101R,0.11400X0.00100*%
%ADD102R,0.11700X0.00100*%
%ADD103R,0.12000X0.00100*%
%ADD104R,0.12200X0.00100*%
%ADD105R,0.12500X0.00100*%
%ADD106R,0.12700X0.00100*%
%ADD107R,0.13200X0.00100*%
%ADD108R,0.13400X0.00100*%
%ADD109R,0.13600X0.00100*%
%ADD110R,0.13900X0.00100*%
%ADD111R,0.14400X0.00100*%
%ADD112R,0.14600X0.00100*%
%ADD113R,0.14900X0.00100*%
%ADD114R,0.15100X0.00100*%
%ADD115R,0.15300X0.00100*%
%ADD116R,0.15600X0.00100*%
%ADD117R,0.16500X0.00100*%
D10*
X0006100Y0018600D02*
X0006104Y0018931D01*
X0006116Y0019262D01*
X0006137Y0019593D01*
X0006165Y0019923D01*
X0006202Y0020253D01*
X0006246Y0020581D01*
X0006299Y0020908D01*
X0006359Y0021234D01*
X0006428Y0021558D01*
X0006505Y0021880D01*
X0006589Y0022201D01*
X0006681Y0022519D01*
X0006781Y0022835D01*
X0006889Y0023148D01*
X0007005Y0023459D01*
X0007128Y0023766D01*
X0007258Y0024071D01*
X0007396Y0024372D01*
X0007541Y0024670D01*
X0007694Y0024964D01*
X0007854Y0025254D01*
X0008021Y0025540D01*
X0008194Y0025822D01*
X0008375Y0026100D01*
X0008563Y0026373D01*
X0008757Y0026642D01*
X0008957Y0026906D01*
X0009164Y0027164D01*
X0009378Y0027418D01*
X0009597Y0027666D01*
X0009823Y0027909D01*
X0010054Y0028146D01*
X0010291Y0028377D01*
X0010534Y0028603D01*
X0010782Y0028822D01*
X0011036Y0029036D01*
X0011294Y0029243D01*
X0011558Y0029443D01*
X0011827Y0029637D01*
X0012100Y0029825D01*
X0012378Y0030006D01*
X0012660Y0030179D01*
X0012946Y0030346D01*
X0013236Y0030506D01*
X0013530Y0030659D01*
X0013828Y0030804D01*
X0014129Y0030942D01*
X0014434Y0031072D01*
X0014741Y0031195D01*
X0015052Y0031311D01*
X0015365Y0031419D01*
X0015681Y0031519D01*
X0015999Y0031611D01*
X0016320Y0031695D01*
X0016642Y0031772D01*
X0016966Y0031841D01*
X0017292Y0031901D01*
X0017619Y0031954D01*
X0017947Y0031998D01*
X0018277Y0032035D01*
X0018607Y0032063D01*
X0018938Y0032084D01*
X0019269Y0032096D01*
X0019600Y0032100D01*
X0019931Y0032096D01*
X0020262Y0032084D01*
X0020593Y0032063D01*
X0020923Y0032035D01*
X0021253Y0031998D01*
X0021581Y0031954D01*
X0021908Y0031901D01*
X0022234Y0031841D01*
X0022558Y0031772D01*
X0022880Y0031695D01*
X0023201Y0031611D01*
X0023519Y0031519D01*
X0023835Y0031419D01*
X0024148Y0031311D01*
X0024459Y0031195D01*
X0024766Y0031072D01*
X0025071Y0030942D01*
X0025372Y0030804D01*
X0025670Y0030659D01*
X0025964Y0030506D01*
X0026254Y0030346D01*
X0026540Y0030179D01*
X0026822Y0030006D01*
X0027100Y0029825D01*
X0027373Y0029637D01*
X0027642Y0029443D01*
X0027906Y0029243D01*
X0028164Y0029036D01*
X0028418Y0028822D01*
X0028666Y0028603D01*
X0028909Y0028377D01*
X0029146Y0028146D01*
X0029377Y0027909D01*
X0029603Y0027666D01*
X0029822Y0027418D01*
X0030036Y0027164D01*
X0030243Y0026906D01*
X0030443Y0026642D01*
X0030637Y0026373D01*
X0030825Y0026100D01*
X0031006Y0025822D01*
X0031179Y0025540D01*
X0031346Y0025254D01*
X0031506Y0024964D01*
X0031659Y0024670D01*
X0031804Y0024372D01*
X0031942Y0024071D01*
X0032072Y0023766D01*
X0032195Y0023459D01*
X0032311Y0023148D01*
X0032419Y0022835D01*
X0032519Y0022519D01*
X0032611Y0022201D01*
X0032695Y0021880D01*
X0032772Y0021558D01*
X0032841Y0021234D01*
X0032901Y0020908D01*
X0032954Y0020581D01*
X0032998Y0020253D01*
X0033035Y0019923D01*
X0033063Y0019593D01*
X0033084Y0019262D01*
X0033096Y0018931D01*
X0033100Y0018600D01*
X0033096Y0018269D01*
X0033084Y0017938D01*
X0033063Y0017607D01*
X0033035Y0017277D01*
X0032998Y0016947D01*
X0032954Y0016619D01*
X0032901Y0016292D01*
X0032841Y0015966D01*
X0032772Y0015642D01*
X0032695Y0015320D01*
X0032611Y0014999D01*
X0032519Y0014681D01*
X0032419Y0014365D01*
X0032311Y0014052D01*
X0032195Y0013741D01*
X0032072Y0013434D01*
X0031942Y0013129D01*
X0031804Y0012828D01*
X0031659Y0012530D01*
X0031506Y0012236D01*
X0031346Y0011946D01*
X0031179Y0011660D01*
X0031006Y0011378D01*
X0030825Y0011100D01*
X0030637Y0010827D01*
X0030443Y0010558D01*
X0030243Y0010294D01*
X0030036Y0010036D01*
X0029822Y0009782D01*
X0029603Y0009534D01*
X0029377Y0009291D01*
X0029146Y0009054D01*
X0028909Y0008823D01*
X0028666Y0008597D01*
X0028418Y0008378D01*
X0028164Y0008164D01*
X0027906Y0007957D01*
X0027642Y0007757D01*
X0027373Y0007563D01*
X0027100Y0007375D01*
X0026822Y0007194D01*
X0026540Y0007021D01*
X0026254Y0006854D01*
X0025964Y0006694D01*
X0025670Y0006541D01*
X0025372Y0006396D01*
X0025071Y0006258D01*
X0024766Y0006128D01*
X0024459Y0006005D01*
X0024148Y0005889D01*
X0023835Y0005781D01*
X0023519Y0005681D01*
X0023201Y0005589D01*
X0022880Y0005505D01*
X0022558Y0005428D01*
X0022234Y0005359D01*
X0021908Y0005299D01*
X0021581Y0005246D01*
X0021253Y0005202D01*
X0020923Y0005165D01*
X0020593Y0005137D01*
X0020262Y0005116D01*
X0019931Y0005104D01*
X0019600Y0005100D01*
X0019269Y0005104D01*
X0018938Y0005116D01*
X0018607Y0005137D01*
X0018277Y0005165D01*
X0017947Y0005202D01*
X0017619Y0005246D01*
X0017292Y0005299D01*
X0016966Y0005359D01*
X0016642Y0005428D01*
X0016320Y0005505D01*
X0015999Y0005589D01*
X0015681Y0005681D01*
X0015365Y0005781D01*
X0015052Y0005889D01*
X0014741Y0006005D01*
X0014434Y0006128D01*
X0014129Y0006258D01*
X0013828Y0006396D01*
X0013530Y0006541D01*
X0013236Y0006694D01*
X0012946Y0006854D01*
X0012660Y0007021D01*
X0012378Y0007194D01*
X0012100Y0007375D01*
X0011827Y0007563D01*
X0011558Y0007757D01*
X0011294Y0007957D01*
X0011036Y0008164D01*
X0010782Y0008378D01*
X0010534Y0008597D01*
X0010291Y0008823D01*
X0010054Y0009054D01*
X0009823Y0009291D01*
X0009597Y0009534D01*
X0009378Y0009782D01*
X0009164Y0010036D01*
X0008957Y0010294D01*
X0008757Y0010558D01*
X0008563Y0010827D01*
X0008375Y0011100D01*
X0008194Y0011378D01*
X0008021Y0011660D01*
X0007854Y0011946D01*
X0007694Y0012236D01*
X0007541Y0012530D01*
X0007396Y0012828D01*
X0007258Y0013129D01*
X0007128Y0013434D01*
X0007005Y0013741D01*
X0006889Y0014052D01*
X0006781Y0014365D01*
X0006681Y0014681D01*
X0006589Y0014999D01*
X0006505Y0015320D01*
X0006428Y0015642D01*
X0006359Y0015966D01*
X0006299Y0016292D01*
X0006246Y0016619D01*
X0006202Y0016947D01*
X0006165Y0017277D01*
X0006137Y0017607D01*
X0006116Y0017938D01*
X0006104Y0018269D01*
X0006100Y0018600D01*
X0044900Y0038900D02*
X0046122Y0038900D01*
X0046191Y0038902D01*
X0046259Y0038908D01*
X0046327Y0038917D01*
X0046394Y0038931D01*
X0046460Y0038948D01*
X0046526Y0038969D01*
X0046590Y0038993D01*
X0046652Y0039021D01*
X0046713Y0039052D01*
X0046772Y0039087D01*
X0046829Y0039125D01*
X0046884Y0039167D01*
X0046936Y0039211D01*
X0046986Y0039258D01*
X0047033Y0039308D01*
X0047077Y0039360D01*
X0047119Y0039415D01*
X0047157Y0039472D01*
X0047192Y0039531D01*
X0047223Y0039592D01*
X0047251Y0039654D01*
X0047275Y0039718D01*
X0047296Y0039784D01*
X0047313Y0039850D01*
X0047327Y0039917D01*
X0047336Y0039985D01*
X0047342Y0040053D01*
X0047344Y0040122D01*
X0047342Y0040191D01*
X0047336Y0040259D01*
X0047327Y0040327D01*
X0047313Y0040394D01*
X0047296Y0040460D01*
X0047275Y0040526D01*
X0047251Y0040590D01*
X0047223Y0040652D01*
X0047192Y0040713D01*
X0047157Y0040772D01*
X0047119Y0040829D01*
X0047077Y0040884D01*
X0047033Y0040936D01*
X0046986Y0040986D01*
X0046936Y0041033D01*
X0046884Y0041077D01*
X0046829Y0041119D01*
X0046772Y0041157D01*
X0046713Y0041192D01*
X0046652Y0041223D01*
X0046590Y0041251D01*
X0046526Y0041275D01*
X0046460Y0041296D01*
X0046394Y0041313D01*
X0046327Y0041327D01*
X0046259Y0041336D01*
X0046191Y0041342D01*
X0046122Y0041344D01*
X0046367Y0041344D02*
X0045389Y0041344D01*
X0046367Y0041344D02*
X0046428Y0041346D01*
X0046490Y0041352D01*
X0046550Y0041361D01*
X0046610Y0041375D01*
X0046669Y0041392D01*
X0046727Y0041413D01*
X0046783Y0041437D01*
X0046838Y0041465D01*
X0046891Y0041496D01*
X0046942Y0041531D01*
X0046990Y0041568D01*
X0047036Y0041609D01*
X0047080Y0041653D01*
X0047121Y0041699D01*
X0047158Y0041747D01*
X0047193Y0041798D01*
X0047224Y0041851D01*
X0047252Y0041906D01*
X0047276Y0041962D01*
X0047297Y0042020D01*
X0047314Y0042079D01*
X0047328Y0042139D01*
X0047337Y0042199D01*
X0047343Y0042261D01*
X0047345Y0042322D01*
X0047343Y0042383D01*
X0047337Y0042445D01*
X0047328Y0042505D01*
X0047314Y0042565D01*
X0047297Y0042624D01*
X0047276Y0042682D01*
X0047252Y0042738D01*
X0047224Y0042793D01*
X0047193Y0042846D01*
X0047158Y0042897D01*
X0047121Y0042945D01*
X0047080Y0042991D01*
X0047036Y0043035D01*
X0046990Y0043076D01*
X0046942Y0043113D01*
X0046891Y0043148D01*
X0046838Y0043179D01*
X0046783Y0043207D01*
X0046727Y0043231D01*
X0046669Y0043252D01*
X0046610Y0043269D01*
X0046550Y0043283D01*
X0046490Y0043292D01*
X0046428Y0043298D01*
X0046367Y0043300D01*
X0044900Y0043300D01*
X0049156Y0043300D02*
X0050622Y0038900D01*
X0052089Y0043300D01*
X0076900Y0020322D02*
X0078122Y0021300D01*
X0078122Y0016900D01*
X0076900Y0016900D02*
X0079344Y0016900D01*
X0072767Y0017511D02*
X0072717Y0017618D01*
X0072671Y0017726D01*
X0072628Y0017835D01*
X0072589Y0017946D01*
X0072553Y0018058D01*
X0072521Y0018171D01*
X0072493Y0018285D01*
X0072468Y0018400D01*
X0072447Y0018515D01*
X0072430Y0018631D01*
X0072417Y0018748D01*
X0072408Y0018865D01*
X0072402Y0018983D01*
X0072400Y0019100D01*
X0074845Y0019100D02*
X0074843Y0019217D01*
X0074837Y0019335D01*
X0074828Y0019452D01*
X0074815Y0019569D01*
X0074798Y0019685D01*
X0074777Y0019800D01*
X0074752Y0019915D01*
X0074724Y0020029D01*
X0074692Y0020142D01*
X0074656Y0020254D01*
X0074617Y0020365D01*
X0074574Y0020475D01*
X0074528Y0020583D01*
X0074478Y0020689D01*
X0074600Y0020322D02*
X0072644Y0017878D01*
X0073622Y0016900D02*
X0073681Y0016902D01*
X0073740Y0016908D01*
X0073798Y0016917D01*
X0073855Y0016931D01*
X0073912Y0016948D01*
X0073967Y0016968D01*
X0074021Y0016993D01*
X0074073Y0017021D01*
X0074123Y0017052D01*
X0074171Y0017086D01*
X0074217Y0017123D01*
X0074260Y0017164D01*
X0074300Y0017207D01*
X0074338Y0017252D01*
X0074372Y0017300D01*
X0074404Y0017350D01*
X0074432Y0017402D01*
X0074456Y0017456D01*
X0074477Y0017511D01*
X0073622Y0016900D02*
X0073563Y0016902D01*
X0073504Y0016908D01*
X0073446Y0016917D01*
X0073389Y0016931D01*
X0073332Y0016948D01*
X0073277Y0016968D01*
X0073223Y0016993D01*
X0073171Y0017021D01*
X0073121Y0017052D01*
X0073073Y0017086D01*
X0073027Y0017123D01*
X0072984Y0017164D01*
X0072944Y0017207D01*
X0072906Y0017252D01*
X0072872Y0017300D01*
X0072840Y0017350D01*
X0072812Y0017402D01*
X0072788Y0017456D01*
X0072767Y0017511D01*
X0074478Y0017511D02*
X0074528Y0017617D01*
X0074574Y0017725D01*
X0074617Y0017835D01*
X0074656Y0017946D01*
X0074692Y0018058D01*
X0074724Y0018171D01*
X0074752Y0018285D01*
X0074777Y0018400D01*
X0074798Y0018515D01*
X0074815Y0018631D01*
X0074828Y0018748D01*
X0074837Y0018865D01*
X0074843Y0018983D01*
X0074845Y0019100D01*
X0072400Y0019100D02*
X0072402Y0019217D01*
X0072408Y0019335D01*
X0072417Y0019452D01*
X0072430Y0019569D01*
X0072447Y0019685D01*
X0072468Y0019800D01*
X0072493Y0019915D01*
X0072521Y0020029D01*
X0072553Y0020142D01*
X0072589Y0020254D01*
X0072628Y0020365D01*
X0072671Y0020475D01*
X0072717Y0020582D01*
X0072767Y0020689D01*
X0073622Y0021300D02*
X0073681Y0021298D01*
X0073740Y0021292D01*
X0073798Y0021283D01*
X0073855Y0021269D01*
X0073912Y0021252D01*
X0073967Y0021232D01*
X0074021Y0021207D01*
X0074073Y0021179D01*
X0074123Y0021148D01*
X0074171Y0021114D01*
X0074217Y0021077D01*
X0074260Y0021036D01*
X0074300Y0020993D01*
X0074338Y0020948D01*
X0074372Y0020900D01*
X0074404Y0020850D01*
X0074432Y0020798D01*
X0074456Y0020744D01*
X0074477Y0020689D01*
X0073622Y0021300D02*
X0073563Y0021298D01*
X0073504Y0021292D01*
X0073446Y0021283D01*
X0073389Y0021269D01*
X0073332Y0021252D01*
X0073277Y0021232D01*
X0073223Y0021207D01*
X0073171Y0021179D01*
X0073121Y0021148D01*
X0073073Y0021114D01*
X0073027Y0021077D01*
X0072984Y0021036D01*
X0072944Y0020993D01*
X0072906Y0020948D01*
X0072872Y0020900D01*
X0072840Y0020850D01*
X0072812Y0020798D01*
X0072788Y0020744D01*
X0072767Y0020689D01*
X0069978Y0019344D02*
X0067900Y0016900D01*
X0070344Y0016900D01*
X0067900Y0020322D02*
X0067924Y0020392D01*
X0067953Y0020461D01*
X0067984Y0020527D01*
X0068020Y0020593D01*
X0068058Y0020656D01*
X0068100Y0020717D01*
X0068145Y0020775D01*
X0068193Y0020832D01*
X0068244Y0020886D01*
X0068298Y0020937D01*
X0068354Y0020985D01*
X0068413Y0021030D01*
X0068474Y0021072D01*
X0068537Y0021110D01*
X0068602Y0021146D01*
X0068669Y0021178D01*
X0068737Y0021206D01*
X0068807Y0021231D01*
X0068878Y0021252D01*
X0068950Y0021269D01*
X0069023Y0021283D01*
X0069096Y0021292D01*
X0069170Y0021298D01*
X0069244Y0021300D01*
X0069308Y0021298D01*
X0069372Y0021293D01*
X0069435Y0021283D01*
X0069498Y0021270D01*
X0069559Y0021254D01*
X0069620Y0021234D01*
X0069680Y0021210D01*
X0069738Y0021183D01*
X0069794Y0021153D01*
X0069848Y0021119D01*
X0069901Y0021082D01*
X0069951Y0021043D01*
X0069999Y0021000D01*
X0070044Y0020955D01*
X0070087Y0020907D01*
X0070126Y0020857D01*
X0070163Y0020804D01*
X0070197Y0020750D01*
X0070227Y0020694D01*
X0070254Y0020636D01*
X0070278Y0020576D01*
X0070298Y0020515D01*
X0070314Y0020454D01*
X0070327Y0020391D01*
X0070337Y0020328D01*
X0070342Y0020264D01*
X0070344Y0020200D01*
X0070342Y0020132D01*
X0070336Y0020064D01*
X0070326Y0019996D01*
X0070313Y0019929D01*
X0070295Y0019863D01*
X0070274Y0019798D01*
X0070249Y0019735D01*
X0070220Y0019673D01*
X0070188Y0019613D01*
X0070152Y0019554D01*
X0070113Y0019498D01*
X0070071Y0019445D01*
X0070026Y0019393D01*
X0069977Y0019345D01*
X0070344Y0012300D02*
X0070344Y0009122D01*
X0070342Y0009053D01*
X0070336Y0008985D01*
X0070327Y0008917D01*
X0070313Y0008850D01*
X0070296Y0008784D01*
X0070275Y0008718D01*
X0070251Y0008654D01*
X0070223Y0008592D01*
X0070192Y0008531D01*
X0070157Y0008472D01*
X0070119Y0008415D01*
X0070077Y0008360D01*
X0070033Y0008308D01*
X0069986Y0008258D01*
X0069936Y0008211D01*
X0069884Y0008167D01*
X0069829Y0008125D01*
X0069772Y0008087D01*
X0069713Y0008052D01*
X0069652Y0008021D01*
X0069590Y0007993D01*
X0069526Y0007969D01*
X0069460Y0007948D01*
X0069394Y0007931D01*
X0069327Y0007917D01*
X0069259Y0007908D01*
X0069191Y0007902D01*
X0069122Y0007900D01*
X0069053Y0007902D01*
X0068985Y0007908D01*
X0068917Y0007917D01*
X0068850Y0007931D01*
X0068784Y0007948D01*
X0068718Y0007969D01*
X0068654Y0007993D01*
X0068592Y0008021D01*
X0068531Y0008052D01*
X0068472Y0008087D01*
X0068415Y0008125D01*
X0068360Y0008167D01*
X0068308Y0008211D01*
X0068258Y0008258D01*
X0068211Y0008308D01*
X0068167Y0008360D01*
X0068125Y0008415D01*
X0068087Y0008472D01*
X0068052Y0008531D01*
X0068021Y0008592D01*
X0067993Y0008654D01*
X0067969Y0008718D01*
X0067948Y0008784D01*
X0067931Y0008850D01*
X0067917Y0008917D01*
X0067908Y0008985D01*
X0067902Y0009053D01*
X0067900Y0009122D01*
X0067900Y0012300D01*
X0072250Y0012300D02*
X0074694Y0012300D01*
X0073472Y0012300D02*
X0073472Y0007900D01*
X0076600Y0007900D02*
X0076600Y0012300D01*
X0079044Y0007900D01*
X0079044Y0012300D01*
X0081306Y0009611D02*
X0084239Y0009611D01*
X0086511Y0010344D02*
X0087978Y0010344D01*
X0088467Y0012300D02*
X0086511Y0012300D01*
X0086511Y0007900D01*
X0088467Y0007900D01*
X0092055Y0009734D02*
X0092106Y0009701D01*
X0092156Y0009666D01*
X0092203Y0009627D01*
X0092247Y0009586D01*
X0092289Y0009542D01*
X0092328Y0009496D01*
X0092364Y0009447D01*
X0092398Y0009397D01*
X0092428Y0009344D01*
X0092455Y0009290D01*
X0092478Y0009234D01*
X0092498Y0009177D01*
X0092515Y0009118D01*
X0092527Y0009059D01*
X0092537Y0008999D01*
X0092542Y0008939D01*
X0092544Y0008878D01*
X0092545Y0008878D02*
X0092543Y0008817D01*
X0092537Y0008755D01*
X0092528Y0008695D01*
X0092514Y0008635D01*
X0092497Y0008576D01*
X0092476Y0008518D01*
X0092452Y0008462D01*
X0092424Y0008407D01*
X0092393Y0008354D01*
X0092358Y0008303D01*
X0092321Y0008255D01*
X0092280Y0008209D01*
X0092236Y0008165D01*
X0092190Y0008124D01*
X0092142Y0008087D01*
X0092091Y0008052D01*
X0092038Y0008021D01*
X0091983Y0007993D01*
X0091927Y0007969D01*
X0091869Y0007948D01*
X0091810Y0007931D01*
X0091750Y0007917D01*
X0091690Y0007908D01*
X0091628Y0007902D01*
X0091567Y0007900D01*
X0094611Y0007900D02*
X0094611Y0012300D01*
X0096567Y0012300D01*
X0098106Y0012300D02*
X0101039Y0007900D01*
X0103772Y0007900D02*
X0103772Y0012300D01*
X0102550Y0012300D02*
X0104994Y0012300D01*
X0109194Y0010100D02*
X0109192Y0009983D01*
X0109186Y0009865D01*
X0109177Y0009748D01*
X0109164Y0009631D01*
X0109147Y0009515D01*
X0109126Y0009400D01*
X0109101Y0009285D01*
X0109073Y0009171D01*
X0109041Y0009058D01*
X0109005Y0008946D01*
X0108966Y0008835D01*
X0108923Y0008725D01*
X0108877Y0008617D01*
X0108827Y0008511D01*
X0108806Y0008456D01*
X0108782Y0008402D01*
X0108754Y0008350D01*
X0108722Y0008300D01*
X0108688Y0008252D01*
X0108650Y0008207D01*
X0108610Y0008164D01*
X0108567Y0008123D01*
X0108521Y0008086D01*
X0108473Y0008052D01*
X0108423Y0008021D01*
X0108371Y0007993D01*
X0108317Y0007968D01*
X0108262Y0007948D01*
X0108205Y0007931D01*
X0108148Y0007917D01*
X0108090Y0007908D01*
X0108031Y0007902D01*
X0107972Y0007900D01*
X0107913Y0007902D01*
X0107854Y0007908D01*
X0107796Y0007917D01*
X0107739Y0007931D01*
X0107682Y0007948D01*
X0107627Y0007968D01*
X0107573Y0007993D01*
X0107521Y0008021D01*
X0107471Y0008052D01*
X0107423Y0008086D01*
X0107377Y0008123D01*
X0107334Y0008164D01*
X0107294Y0008207D01*
X0107256Y0008252D01*
X0107222Y0008300D01*
X0107190Y0008350D01*
X0107162Y0008402D01*
X0107138Y0008456D01*
X0107117Y0008511D01*
X0106994Y0008878D02*
X0108950Y0011322D01*
X0108827Y0011689D02*
X0108806Y0011744D01*
X0108782Y0011798D01*
X0108754Y0011850D01*
X0108722Y0011900D01*
X0108688Y0011948D01*
X0108650Y0011993D01*
X0108610Y0012036D01*
X0108567Y0012077D01*
X0108521Y0012114D01*
X0108473Y0012148D01*
X0108423Y0012179D01*
X0108371Y0012207D01*
X0108317Y0012232D01*
X0108262Y0012252D01*
X0108205Y0012269D01*
X0108148Y0012283D01*
X0108090Y0012292D01*
X0108031Y0012298D01*
X0107972Y0012300D01*
X0107913Y0012298D01*
X0107854Y0012292D01*
X0107796Y0012283D01*
X0107739Y0012269D01*
X0107682Y0012252D01*
X0107627Y0012232D01*
X0107573Y0012207D01*
X0107521Y0012179D01*
X0107471Y0012148D01*
X0107423Y0012114D01*
X0107377Y0012077D01*
X0107334Y0012036D01*
X0107294Y0011993D01*
X0107256Y0011948D01*
X0107222Y0011900D01*
X0107190Y0011850D01*
X0107162Y0011798D01*
X0107138Y0011744D01*
X0107117Y0011689D01*
X0108828Y0011689D02*
X0108878Y0011583D01*
X0108924Y0011475D01*
X0108967Y0011365D01*
X0109006Y0011254D01*
X0109042Y0011142D01*
X0109074Y0011029D01*
X0109102Y0010915D01*
X0109127Y0010800D01*
X0109148Y0010685D01*
X0109165Y0010569D01*
X0109178Y0010452D01*
X0109187Y0010335D01*
X0109193Y0010217D01*
X0109195Y0010100D01*
X0106750Y0010100D02*
X0106752Y0010217D01*
X0106758Y0010335D01*
X0106767Y0010452D01*
X0106780Y0010569D01*
X0106797Y0010685D01*
X0106818Y0010800D01*
X0106843Y0010915D01*
X0106871Y0011029D01*
X0106903Y0011142D01*
X0106939Y0011254D01*
X0106978Y0011365D01*
X0107021Y0011475D01*
X0107067Y0011582D01*
X0107117Y0011689D01*
X0106750Y0010100D02*
X0106752Y0009983D01*
X0106758Y0009865D01*
X0106767Y0009748D01*
X0106780Y0009631D01*
X0106797Y0009515D01*
X0106818Y0009400D01*
X0106843Y0009285D01*
X0106871Y0009171D01*
X0106903Y0009058D01*
X0106939Y0008946D01*
X0106978Y0008835D01*
X0107021Y0008726D01*
X0107067Y0008618D01*
X0107117Y0008511D01*
X0111250Y0007900D02*
X0113694Y0007900D01*
X0112472Y0007900D02*
X0112472Y0012300D01*
X0111250Y0011322D01*
X0101039Y0012300D02*
X0098106Y0007900D01*
X0096567Y0007900D02*
X0094611Y0007900D01*
X0094611Y0010344D02*
X0096078Y0010344D01*
X0092056Y0009733D02*
X0090711Y0010467D01*
X0091200Y0012300D02*
X0091284Y0012298D01*
X0091368Y0012292D01*
X0091452Y0012283D01*
X0091535Y0012269D01*
X0091618Y0012252D01*
X0091699Y0012231D01*
X0091780Y0012206D01*
X0091859Y0012177D01*
X0091937Y0012145D01*
X0092013Y0012110D01*
X0092088Y0012071D01*
X0092161Y0012028D01*
X0092231Y0011982D01*
X0092300Y0011933D01*
X0090711Y0010466D02*
X0090660Y0010499D01*
X0090610Y0010534D01*
X0090563Y0010573D01*
X0090519Y0010614D01*
X0090477Y0010658D01*
X0090438Y0010704D01*
X0090402Y0010753D01*
X0090368Y0010803D01*
X0090338Y0010856D01*
X0090311Y0010910D01*
X0090288Y0010966D01*
X0090268Y0011023D01*
X0090251Y0011082D01*
X0090239Y0011141D01*
X0090229Y0011201D01*
X0090224Y0011261D01*
X0090222Y0011322D01*
X0090224Y0011383D01*
X0090230Y0011445D01*
X0090239Y0011505D01*
X0090253Y0011565D01*
X0090270Y0011624D01*
X0090291Y0011682D01*
X0090315Y0011738D01*
X0090343Y0011793D01*
X0090374Y0011846D01*
X0090409Y0011897D01*
X0090446Y0011945D01*
X0090487Y0011991D01*
X0090531Y0012035D01*
X0090577Y0012076D01*
X0090625Y0012113D01*
X0090676Y0012148D01*
X0090729Y0012179D01*
X0090784Y0012207D01*
X0090840Y0012231D01*
X0090898Y0012252D01*
X0090957Y0012269D01*
X0091017Y0012283D01*
X0091077Y0012292D01*
X0091139Y0012298D01*
X0091200Y0012300D01*
X0090100Y0008511D02*
X0090165Y0008448D01*
X0090233Y0008388D01*
X0090304Y0008331D01*
X0090376Y0008277D01*
X0090452Y0008227D01*
X0090529Y0008180D01*
X0090608Y0008136D01*
X0090690Y0008096D01*
X0090772Y0008059D01*
X0090857Y0008026D01*
X0090943Y0007997D01*
X0091029Y0007971D01*
X0091117Y0007949D01*
X0091206Y0007932D01*
X0091296Y0007918D01*
X0091386Y0007908D01*
X0091476Y0007902D01*
X0091567Y0007900D01*
X0082622Y0016900D02*
X0083844Y0021300D01*
X0081400Y0021300D01*
X0081400Y0020811D01*
X0122900Y0011078D02*
X0122900Y0010833D01*
X0122902Y0010772D01*
X0122908Y0010710D01*
X0122917Y0010650D01*
X0122931Y0010590D01*
X0122948Y0010531D01*
X0122969Y0010473D01*
X0122993Y0010417D01*
X0123021Y0010362D01*
X0123052Y0010309D01*
X0123087Y0010258D01*
X0123124Y0010210D01*
X0123165Y0010164D01*
X0123209Y0010120D01*
X0123255Y0010079D01*
X0123303Y0010042D01*
X0123354Y0010007D01*
X0123407Y0009976D01*
X0123462Y0009948D01*
X0123518Y0009924D01*
X0123576Y0009903D01*
X0123635Y0009886D01*
X0123695Y0009872D01*
X0123755Y0009863D01*
X0123817Y0009857D01*
X0123878Y0009855D01*
X0123878Y0009856D02*
X0125344Y0009856D01*
X0125344Y0011078D01*
X0125342Y0011147D01*
X0125336Y0011215D01*
X0125327Y0011283D01*
X0125313Y0011350D01*
X0125296Y0011416D01*
X0125275Y0011482D01*
X0125251Y0011546D01*
X0125223Y0011608D01*
X0125192Y0011669D01*
X0125157Y0011728D01*
X0125119Y0011785D01*
X0125077Y0011840D01*
X0125033Y0011892D01*
X0124986Y0011942D01*
X0124936Y0011989D01*
X0124884Y0012033D01*
X0124829Y0012075D01*
X0124772Y0012113D01*
X0124713Y0012148D01*
X0124652Y0012179D01*
X0124590Y0012207D01*
X0124526Y0012231D01*
X0124460Y0012252D01*
X0124394Y0012269D01*
X0124327Y0012283D01*
X0124259Y0012292D01*
X0124191Y0012298D01*
X0124122Y0012300D01*
X0124053Y0012298D01*
X0123985Y0012292D01*
X0123917Y0012283D01*
X0123850Y0012269D01*
X0123784Y0012252D01*
X0123718Y0012231D01*
X0123654Y0012207D01*
X0123592Y0012179D01*
X0123531Y0012148D01*
X0123472Y0012113D01*
X0123415Y0012075D01*
X0123360Y0012033D01*
X0123308Y0011989D01*
X0123258Y0011942D01*
X0123211Y0011892D01*
X0123167Y0011840D01*
X0123125Y0011785D01*
X0123087Y0011728D01*
X0123052Y0011669D01*
X0123021Y0011608D01*
X0122993Y0011546D01*
X0122969Y0011482D01*
X0122948Y0011416D01*
X0122931Y0011350D01*
X0122917Y0011283D01*
X0122908Y0011215D01*
X0122902Y0011147D01*
X0122900Y0011078D01*
X0125345Y0009856D02*
X0125343Y0009768D01*
X0125337Y0009681D01*
X0125327Y0009593D01*
X0125314Y0009507D01*
X0125296Y0009421D01*
X0125275Y0009336D01*
X0125249Y0009252D01*
X0125220Y0009169D01*
X0125188Y0009087D01*
X0125151Y0009007D01*
X0125111Y0008929D01*
X0125068Y0008853D01*
X0125021Y0008778D01*
X0124971Y0008706D01*
X0124918Y0008636D01*
X0124862Y0008569D01*
X0124803Y0008504D01*
X0124741Y0008442D01*
X0124676Y0008383D01*
X0124609Y0008327D01*
X0124539Y0008274D01*
X0124467Y0008224D01*
X0124392Y0008177D01*
X0124316Y0008134D01*
X0124238Y0008094D01*
X0124158Y0008057D01*
X0124076Y0008025D01*
X0123993Y0007996D01*
X0123909Y0007970D01*
X0123824Y0007949D01*
X0123738Y0007931D01*
X0123652Y0007918D01*
X0123564Y0007908D01*
X0123477Y0007902D01*
X0123389Y0007900D01*
X0127400Y0008878D02*
X0129844Y0008878D01*
X0129111Y0009856D02*
X0129111Y0007900D01*
X0127400Y0008878D02*
X0128378Y0012300D01*
X0131656Y0012300D02*
X0133122Y0007900D01*
X0134589Y0012300D01*
X0136456Y0009611D02*
X0139389Y0009611D01*
X0143577Y0008511D02*
X0143627Y0008617D01*
X0143673Y0008725D01*
X0143716Y0008835D01*
X0143755Y0008946D01*
X0143791Y0009058D01*
X0143823Y0009171D01*
X0143851Y0009285D01*
X0143876Y0009400D01*
X0143897Y0009515D01*
X0143914Y0009631D01*
X0143927Y0009748D01*
X0143936Y0009865D01*
X0143942Y0009983D01*
X0143944Y0010100D01*
X0141500Y0010100D02*
X0141502Y0010217D01*
X0141508Y0010335D01*
X0141517Y0010452D01*
X0141530Y0010569D01*
X0141547Y0010685D01*
X0141568Y0010800D01*
X0141593Y0010915D01*
X0141621Y0011029D01*
X0141653Y0011142D01*
X0141689Y0011254D01*
X0141728Y0011365D01*
X0141771Y0011475D01*
X0141817Y0011582D01*
X0141867Y0011689D01*
X0142722Y0012300D02*
X0142781Y0012298D01*
X0142840Y0012292D01*
X0142898Y0012283D01*
X0142955Y0012269D01*
X0143012Y0012252D01*
X0143067Y0012232D01*
X0143121Y0012207D01*
X0143173Y0012179D01*
X0143223Y0012148D01*
X0143271Y0012114D01*
X0143317Y0012077D01*
X0143360Y0012036D01*
X0143400Y0011993D01*
X0143438Y0011948D01*
X0143472Y0011900D01*
X0143504Y0011850D01*
X0143532Y0011798D01*
X0143556Y0011744D01*
X0143577Y0011689D01*
X0143700Y0011322D02*
X0141744Y0008878D01*
X0142722Y0007900D02*
X0142781Y0007902D01*
X0142840Y0007908D01*
X0142898Y0007917D01*
X0142955Y0007931D01*
X0143012Y0007948D01*
X0143067Y0007968D01*
X0143121Y0007993D01*
X0143173Y0008021D01*
X0143223Y0008052D01*
X0143271Y0008086D01*
X0143317Y0008123D01*
X0143360Y0008164D01*
X0143400Y0008207D01*
X0143438Y0008252D01*
X0143472Y0008300D01*
X0143504Y0008350D01*
X0143532Y0008402D01*
X0143556Y0008456D01*
X0143577Y0008511D01*
X0142722Y0007900D02*
X0142663Y0007902D01*
X0142604Y0007908D01*
X0142546Y0007917D01*
X0142489Y0007931D01*
X0142432Y0007948D01*
X0142377Y0007968D01*
X0142323Y0007993D01*
X0142271Y0008021D01*
X0142221Y0008052D01*
X0142173Y0008086D01*
X0142127Y0008123D01*
X0142084Y0008164D01*
X0142044Y0008207D01*
X0142006Y0008252D01*
X0141972Y0008300D01*
X0141940Y0008350D01*
X0141912Y0008402D01*
X0141888Y0008456D01*
X0141867Y0008511D01*
X0143945Y0010100D02*
X0143943Y0010217D01*
X0143937Y0010335D01*
X0143928Y0010452D01*
X0143915Y0010569D01*
X0143898Y0010685D01*
X0143877Y0010800D01*
X0143852Y0010915D01*
X0143824Y0011029D01*
X0143792Y0011142D01*
X0143756Y0011254D01*
X0143717Y0011365D01*
X0143674Y0011475D01*
X0143628Y0011583D01*
X0143578Y0011689D01*
X0142722Y0012300D02*
X0142663Y0012298D01*
X0142604Y0012292D01*
X0142546Y0012283D01*
X0142489Y0012269D01*
X0142432Y0012252D01*
X0142377Y0012232D01*
X0142323Y0012207D01*
X0142271Y0012179D01*
X0142221Y0012148D01*
X0142173Y0012114D01*
X0142127Y0012077D01*
X0142084Y0012036D01*
X0142044Y0011993D01*
X0142006Y0011948D01*
X0141972Y0011900D01*
X0141940Y0011850D01*
X0141912Y0011798D01*
X0141888Y0011744D01*
X0141867Y0011689D01*
X0141500Y0010100D02*
X0141502Y0009983D01*
X0141508Y0009865D01*
X0141517Y0009748D01*
X0141530Y0009631D01*
X0141547Y0009515D01*
X0141568Y0009400D01*
X0141593Y0009285D01*
X0141621Y0009171D01*
X0141653Y0009058D01*
X0141689Y0008946D01*
X0141728Y0008835D01*
X0141771Y0008726D01*
X0141817Y0008618D01*
X0141867Y0008511D01*
X0160900Y0008900D02*
X0161878Y0008900D01*
X0161389Y0008900D02*
X0161389Y0013300D01*
X0160900Y0013300D02*
X0161878Y0013300D01*
X0163917Y0013300D02*
X0166361Y0008900D01*
X0166361Y0013300D01*
X0168717Y0013300D02*
X0169939Y0013300D01*
X0170008Y0013298D01*
X0170076Y0013292D01*
X0170144Y0013283D01*
X0170211Y0013269D01*
X0170277Y0013252D01*
X0170343Y0013231D01*
X0170407Y0013207D01*
X0170469Y0013179D01*
X0170530Y0013148D01*
X0170589Y0013113D01*
X0170646Y0013075D01*
X0170701Y0013033D01*
X0170753Y0012989D01*
X0170803Y0012942D01*
X0170850Y0012892D01*
X0170894Y0012840D01*
X0170936Y0012785D01*
X0170974Y0012728D01*
X0171009Y0012669D01*
X0171040Y0012608D01*
X0171068Y0012546D01*
X0171092Y0012482D01*
X0171113Y0012416D01*
X0171130Y0012350D01*
X0171144Y0012283D01*
X0171153Y0012215D01*
X0171159Y0012147D01*
X0171161Y0012078D01*
X0171161Y0010122D01*
X0171159Y0010053D01*
X0171153Y0009985D01*
X0171144Y0009917D01*
X0171130Y0009850D01*
X0171113Y0009784D01*
X0171092Y0009718D01*
X0171068Y0009654D01*
X0171040Y0009592D01*
X0171009Y0009531D01*
X0170974Y0009472D01*
X0170936Y0009415D01*
X0170894Y0009360D01*
X0170850Y0009308D01*
X0170803Y0009258D01*
X0170753Y0009211D01*
X0170701Y0009167D01*
X0170646Y0009125D01*
X0170589Y0009087D01*
X0170530Y0009052D01*
X0170469Y0009021D01*
X0170407Y0008993D01*
X0170343Y0008969D01*
X0170277Y0008948D01*
X0170211Y0008931D01*
X0170144Y0008917D01*
X0170076Y0008908D01*
X0170008Y0008902D01*
X0169939Y0008900D01*
X0168717Y0008900D01*
X0168717Y0013300D01*
X0173517Y0013300D02*
X0173517Y0010122D01*
X0173519Y0010053D01*
X0173525Y0009985D01*
X0173534Y0009917D01*
X0173548Y0009850D01*
X0173565Y0009784D01*
X0173586Y0009718D01*
X0173610Y0009654D01*
X0173638Y0009592D01*
X0173669Y0009531D01*
X0173704Y0009472D01*
X0173742Y0009415D01*
X0173784Y0009360D01*
X0173828Y0009308D01*
X0173875Y0009258D01*
X0173925Y0009211D01*
X0173977Y0009167D01*
X0174032Y0009125D01*
X0174089Y0009087D01*
X0174148Y0009052D01*
X0174209Y0009021D01*
X0174271Y0008993D01*
X0174335Y0008969D01*
X0174401Y0008948D01*
X0174467Y0008931D01*
X0174534Y0008917D01*
X0174602Y0008908D01*
X0174670Y0008902D01*
X0174739Y0008900D01*
X0174808Y0008902D01*
X0174876Y0008908D01*
X0174944Y0008917D01*
X0175011Y0008931D01*
X0175077Y0008948D01*
X0175143Y0008969D01*
X0175207Y0008993D01*
X0175269Y0009021D01*
X0175330Y0009052D01*
X0175389Y0009087D01*
X0175446Y0009125D01*
X0175501Y0009167D01*
X0175553Y0009211D01*
X0175603Y0009258D01*
X0175650Y0009308D01*
X0175694Y0009360D01*
X0175736Y0009415D01*
X0175774Y0009472D01*
X0175809Y0009531D01*
X0175840Y0009592D01*
X0175868Y0009654D01*
X0175892Y0009718D01*
X0175913Y0009784D01*
X0175930Y0009850D01*
X0175944Y0009917D01*
X0175953Y0009985D01*
X0175959Y0010053D01*
X0175961Y0010122D01*
X0175961Y0013300D01*
X0178628Y0011467D02*
X0179972Y0010733D01*
X0179483Y0008900D02*
X0179392Y0008902D01*
X0179302Y0008908D01*
X0179212Y0008918D01*
X0179122Y0008932D01*
X0179033Y0008949D01*
X0178945Y0008971D01*
X0178859Y0008997D01*
X0178773Y0009026D01*
X0178688Y0009059D01*
X0178606Y0009096D01*
X0178524Y0009136D01*
X0178445Y0009180D01*
X0178368Y0009227D01*
X0178292Y0009277D01*
X0178220Y0009331D01*
X0178149Y0009388D01*
X0178081Y0009448D01*
X0178016Y0009511D01*
X0179972Y0010734D02*
X0180023Y0010701D01*
X0180073Y0010666D01*
X0180120Y0010627D01*
X0180164Y0010586D01*
X0180206Y0010542D01*
X0180245Y0010496D01*
X0180281Y0010447D01*
X0180315Y0010397D01*
X0180345Y0010344D01*
X0180372Y0010290D01*
X0180395Y0010234D01*
X0180415Y0010177D01*
X0180432Y0010118D01*
X0180444Y0010059D01*
X0180454Y0009999D01*
X0180459Y0009939D01*
X0180461Y0009878D01*
X0180459Y0009817D01*
X0180453Y0009755D01*
X0180444Y0009695D01*
X0180430Y0009635D01*
X0180413Y0009576D01*
X0180392Y0009518D01*
X0180368Y0009462D01*
X0180340Y0009407D01*
X0180309Y0009354D01*
X0180274Y0009303D01*
X0180237Y0009255D01*
X0180196Y0009209D01*
X0180152Y0009165D01*
X0180106Y0009124D01*
X0180058Y0009087D01*
X0180007Y0009052D01*
X0179954Y0009021D01*
X0179899Y0008993D01*
X0179843Y0008969D01*
X0179785Y0008948D01*
X0179726Y0008931D01*
X0179666Y0008917D01*
X0179606Y0008908D01*
X0179544Y0008902D01*
X0179483Y0008900D01*
X0180217Y0012933D02*
X0180148Y0012982D01*
X0180078Y0013028D01*
X0180005Y0013071D01*
X0179930Y0013110D01*
X0179854Y0013145D01*
X0179776Y0013177D01*
X0179697Y0013206D01*
X0179616Y0013231D01*
X0179535Y0013252D01*
X0179452Y0013269D01*
X0179369Y0013283D01*
X0179285Y0013292D01*
X0179201Y0013298D01*
X0179117Y0013300D01*
X0179056Y0013298D01*
X0178994Y0013292D01*
X0178934Y0013283D01*
X0178874Y0013269D01*
X0178815Y0013252D01*
X0178757Y0013231D01*
X0178701Y0013207D01*
X0178646Y0013179D01*
X0178593Y0013148D01*
X0178542Y0013113D01*
X0178494Y0013076D01*
X0178448Y0013035D01*
X0178404Y0012991D01*
X0178363Y0012945D01*
X0178326Y0012897D01*
X0178291Y0012846D01*
X0178260Y0012793D01*
X0178232Y0012738D01*
X0178208Y0012682D01*
X0178187Y0012624D01*
X0178170Y0012565D01*
X0178156Y0012505D01*
X0178147Y0012445D01*
X0178141Y0012383D01*
X0178139Y0012322D01*
X0178141Y0012261D01*
X0178146Y0012201D01*
X0178156Y0012141D01*
X0178168Y0012082D01*
X0178185Y0012023D01*
X0178205Y0011966D01*
X0178228Y0011910D01*
X0178255Y0011856D01*
X0178285Y0011803D01*
X0178319Y0011753D01*
X0178355Y0011704D01*
X0178394Y0011658D01*
X0178436Y0011614D01*
X0178480Y0011573D01*
X0178527Y0011534D01*
X0178577Y0011499D01*
X0178628Y0011466D01*
X0182067Y0013300D02*
X0184511Y0013300D01*
X0183289Y0013300D02*
X0183289Y0008900D01*
X0186453Y0008900D02*
X0186453Y0013300D01*
X0187675Y0013300D01*
X0187744Y0013298D01*
X0187812Y0013292D01*
X0187880Y0013283D01*
X0187947Y0013269D01*
X0188013Y0013252D01*
X0188079Y0013231D01*
X0188143Y0013207D01*
X0188205Y0013179D01*
X0188266Y0013148D01*
X0188325Y0013113D01*
X0188382Y0013075D01*
X0188437Y0013033D01*
X0188489Y0012989D01*
X0188539Y0012942D01*
X0188586Y0012892D01*
X0188630Y0012840D01*
X0188672Y0012785D01*
X0188710Y0012728D01*
X0188745Y0012669D01*
X0188776Y0012608D01*
X0188804Y0012546D01*
X0188828Y0012482D01*
X0188849Y0012416D01*
X0188866Y0012350D01*
X0188880Y0012283D01*
X0188889Y0012215D01*
X0188895Y0012147D01*
X0188897Y0012078D01*
X0188895Y0012009D01*
X0188889Y0011941D01*
X0188880Y0011873D01*
X0188866Y0011806D01*
X0188849Y0011740D01*
X0188828Y0011674D01*
X0188804Y0011610D01*
X0188776Y0011548D01*
X0188745Y0011487D01*
X0188710Y0011428D01*
X0188672Y0011371D01*
X0188630Y0011316D01*
X0188586Y0011264D01*
X0188539Y0011214D01*
X0188489Y0011167D01*
X0188437Y0011123D01*
X0188382Y0011081D01*
X0188325Y0011043D01*
X0188266Y0011008D01*
X0188205Y0010977D01*
X0188143Y0010949D01*
X0188079Y0010925D01*
X0188013Y0010904D01*
X0187947Y0010887D01*
X0187880Y0010873D01*
X0187812Y0010864D01*
X0187744Y0010858D01*
X0187675Y0010856D01*
X0186453Y0010856D01*
X0187920Y0010856D02*
X0188897Y0008900D01*
X0190750Y0008900D02*
X0191728Y0008900D01*
X0191239Y0008900D02*
X0191239Y0013300D01*
X0190750Y0013300D02*
X0191728Y0013300D01*
X0194839Y0013300D02*
X0196306Y0008900D01*
X0195939Y0010000D02*
X0193739Y0010000D01*
X0193372Y0008900D02*
X0194839Y0013300D01*
X0200639Y0010000D02*
X0202839Y0010000D01*
X0203205Y0008900D02*
X0201739Y0013300D01*
X0200272Y0008900D01*
X0205203Y0008900D02*
X0205203Y0013300D01*
X0206425Y0013300D01*
X0206494Y0013298D01*
X0206562Y0013292D01*
X0206630Y0013283D01*
X0206697Y0013269D01*
X0206763Y0013252D01*
X0206829Y0013231D01*
X0206893Y0013207D01*
X0206955Y0013179D01*
X0207016Y0013148D01*
X0207075Y0013113D01*
X0207132Y0013075D01*
X0207187Y0013033D01*
X0207239Y0012989D01*
X0207289Y0012942D01*
X0207336Y0012892D01*
X0207380Y0012840D01*
X0207422Y0012785D01*
X0207460Y0012728D01*
X0207495Y0012669D01*
X0207526Y0012608D01*
X0207554Y0012546D01*
X0207578Y0012482D01*
X0207599Y0012416D01*
X0207616Y0012350D01*
X0207630Y0012283D01*
X0207639Y0012215D01*
X0207645Y0012147D01*
X0207647Y0012078D01*
X0207645Y0012009D01*
X0207639Y0011941D01*
X0207630Y0011873D01*
X0207616Y0011806D01*
X0207599Y0011740D01*
X0207578Y0011674D01*
X0207554Y0011610D01*
X0207526Y0011548D01*
X0207495Y0011487D01*
X0207460Y0011428D01*
X0207422Y0011371D01*
X0207380Y0011316D01*
X0207336Y0011264D01*
X0207289Y0011214D01*
X0207239Y0011167D01*
X0207187Y0011123D01*
X0207132Y0011081D01*
X0207075Y0011043D01*
X0207016Y0011008D01*
X0206955Y0010977D01*
X0206893Y0010949D01*
X0206829Y0010925D01*
X0206763Y0010904D01*
X0206697Y0010887D01*
X0206630Y0010873D01*
X0206562Y0010864D01*
X0206494Y0010858D01*
X0206425Y0010856D01*
X0205203Y0010856D01*
X0206669Y0010856D02*
X0207647Y0008900D01*
X0209817Y0009878D02*
X0209817Y0012322D01*
X0209816Y0012322D02*
X0209818Y0012383D01*
X0209824Y0012445D01*
X0209833Y0012505D01*
X0209847Y0012565D01*
X0209864Y0012624D01*
X0209885Y0012682D01*
X0209909Y0012738D01*
X0209937Y0012793D01*
X0209968Y0012846D01*
X0210003Y0012897D01*
X0210040Y0012945D01*
X0210081Y0012991D01*
X0210125Y0013035D01*
X0210171Y0013076D01*
X0210219Y0013113D01*
X0210270Y0013148D01*
X0210323Y0013179D01*
X0210378Y0013207D01*
X0210434Y0013231D01*
X0210492Y0013252D01*
X0210551Y0013269D01*
X0210611Y0013283D01*
X0210671Y0013292D01*
X0210733Y0013298D01*
X0210794Y0013300D01*
X0212261Y0013300D01*
X0212261Y0011344D02*
X0212261Y0008900D01*
X0210794Y0008900D01*
X0210733Y0008902D01*
X0210671Y0008908D01*
X0210611Y0008917D01*
X0210551Y0008931D01*
X0210492Y0008948D01*
X0210434Y0008969D01*
X0210378Y0008993D01*
X0210323Y0009021D01*
X0210270Y0009052D01*
X0210219Y0009087D01*
X0210171Y0009124D01*
X0210125Y0009165D01*
X0210081Y0009209D01*
X0210040Y0009255D01*
X0210003Y0009303D01*
X0209968Y0009354D01*
X0209937Y0009407D01*
X0209909Y0009462D01*
X0209885Y0009518D01*
X0209864Y0009576D01*
X0209847Y0009635D01*
X0209833Y0009695D01*
X0209824Y0009755D01*
X0209818Y0009817D01*
X0209816Y0009878D01*
X0211528Y0011344D02*
X0212261Y0011344D01*
X0214628Y0011344D02*
X0216094Y0011344D01*
X0216583Y0013300D02*
X0214628Y0013300D01*
X0214628Y0008900D01*
X0216583Y0008900D01*
X0218517Y0008900D02*
X0218517Y0013300D01*
X0220961Y0008900D01*
X0220961Y0013300D01*
X0222867Y0013300D02*
X0225311Y0013300D01*
X0224089Y0013300D02*
X0224089Y0008900D01*
X0226900Y0008900D02*
X0227878Y0008900D01*
X0227389Y0008900D02*
X0227389Y0013300D01*
X0226900Y0013300D02*
X0227878Y0013300D01*
X0229917Y0013300D02*
X0232361Y0008900D01*
X0232361Y0013300D01*
X0229917Y0013300D02*
X0229917Y0008900D01*
X0234322Y0008900D02*
X0235789Y0013300D01*
X0237255Y0008900D01*
X0236889Y0010000D02*
X0234689Y0010000D01*
X0163917Y0008900D02*
X0163917Y0013300D01*
X0129600Y0030600D02*
X0126600Y0030600D01*
X0128100Y0029100D02*
X0128100Y0032100D01*
X0112600Y0042600D02*
X0112606Y0043091D01*
X0112624Y0043581D01*
X0112654Y0044071D01*
X0112696Y0044560D01*
X0112750Y0045048D01*
X0112816Y0045535D01*
X0112894Y0046019D01*
X0112984Y0046502D01*
X0113086Y0046982D01*
X0113199Y0047460D01*
X0113324Y0047934D01*
X0113461Y0048406D01*
X0113609Y0048874D01*
X0113769Y0049338D01*
X0113940Y0049798D01*
X0114122Y0050254D01*
X0114316Y0050705D01*
X0114520Y0051151D01*
X0114736Y0051592D01*
X0114962Y0052028D01*
X0115198Y0052458D01*
X0115445Y0052882D01*
X0115703Y0053300D01*
X0115971Y0053711D01*
X0116248Y0054116D01*
X0116536Y0054514D01*
X0116833Y0054905D01*
X0117140Y0055288D01*
X0117456Y0055663D01*
X0117781Y0056031D01*
X0118115Y0056391D01*
X0118458Y0056742D01*
X0118809Y0057085D01*
X0119169Y0057419D01*
X0119537Y0057744D01*
X0119912Y0058060D01*
X0120295Y0058367D01*
X0120686Y0058664D01*
X0121084Y0058952D01*
X0121489Y0059229D01*
X0121900Y0059497D01*
X0122318Y0059755D01*
X0122742Y0060002D01*
X0123172Y0060238D01*
X0123608Y0060464D01*
X0124049Y0060680D01*
X0124495Y0060884D01*
X0124946Y0061078D01*
X0125402Y0061260D01*
X0125862Y0061431D01*
X0126326Y0061591D01*
X0126794Y0061739D01*
X0127266Y0061876D01*
X0127740Y0062001D01*
X0128218Y0062114D01*
X0128698Y0062216D01*
X0129181Y0062306D01*
X0129665Y0062384D01*
X0130152Y0062450D01*
X0130640Y0062504D01*
X0131129Y0062546D01*
X0131619Y0062576D01*
X0132109Y0062594D01*
X0132600Y0062600D01*
X0133091Y0062594D01*
X0133581Y0062576D01*
X0134071Y0062546D01*
X0134560Y0062504D01*
X0135048Y0062450D01*
X0135535Y0062384D01*
X0136019Y0062306D01*
X0136502Y0062216D01*
X0136982Y0062114D01*
X0137460Y0062001D01*
X0137934Y0061876D01*
X0138406Y0061739D01*
X0138874Y0061591D01*
X0139338Y0061431D01*
X0139798Y0061260D01*
X0140254Y0061078D01*
X0140705Y0060884D01*
X0141151Y0060680D01*
X0141592Y0060464D01*
X0142028Y0060238D01*
X0142458Y0060002D01*
X0142882Y0059755D01*
X0143300Y0059497D01*
X0143711Y0059229D01*
X0144116Y0058952D01*
X0144514Y0058664D01*
X0144905Y0058367D01*
X0145288Y0058060D01*
X0145663Y0057744D01*
X0146031Y0057419D01*
X0146391Y0057085D01*
X0146742Y0056742D01*
X0147085Y0056391D01*
X0147419Y0056031D01*
X0147744Y0055663D01*
X0148060Y0055288D01*
X0148367Y0054905D01*
X0148664Y0054514D01*
X0148952Y0054116D01*
X0149229Y0053711D01*
X0149497Y0053300D01*
X0149755Y0052882D01*
X0150002Y0052458D01*
X0150238Y0052028D01*
X0150464Y0051592D01*
X0150680Y0051151D01*
X0150884Y0050705D01*
X0151078Y0050254D01*
X0151260Y0049798D01*
X0151431Y0049338D01*
X0151591Y0048874D01*
X0151739Y0048406D01*
X0151876Y0047934D01*
X0152001Y0047460D01*
X0152114Y0046982D01*
X0152216Y0046502D01*
X0152306Y0046019D01*
X0152384Y0045535D01*
X0152450Y0045048D01*
X0152504Y0044560D01*
X0152546Y0044071D01*
X0152576Y0043581D01*
X0152594Y0043091D01*
X0152600Y0042600D01*
X0152594Y0042109D01*
X0152576Y0041619D01*
X0152546Y0041129D01*
X0152504Y0040640D01*
X0152450Y0040152D01*
X0152384Y0039665D01*
X0152306Y0039181D01*
X0152216Y0038698D01*
X0152114Y0038218D01*
X0152001Y0037740D01*
X0151876Y0037266D01*
X0151739Y0036794D01*
X0151591Y0036326D01*
X0151431Y0035862D01*
X0151260Y0035402D01*
X0151078Y0034946D01*
X0150884Y0034495D01*
X0150680Y0034049D01*
X0150464Y0033608D01*
X0150238Y0033172D01*
X0150002Y0032742D01*
X0149755Y0032318D01*
X0149497Y0031900D01*
X0149229Y0031489D01*
X0148952Y0031084D01*
X0148664Y0030686D01*
X0148367Y0030295D01*
X0148060Y0029912D01*
X0147744Y0029537D01*
X0147419Y0029169D01*
X0147085Y0028809D01*
X0146742Y0028458D01*
X0146391Y0028115D01*
X0146031Y0027781D01*
X0145663Y0027456D01*
X0145288Y0027140D01*
X0144905Y0026833D01*
X0144514Y0026536D01*
X0144116Y0026248D01*
X0143711Y0025971D01*
X0143300Y0025703D01*
X0142882Y0025445D01*
X0142458Y0025198D01*
X0142028Y0024962D01*
X0141592Y0024736D01*
X0141151Y0024520D01*
X0140705Y0024316D01*
X0140254Y0024122D01*
X0139798Y0023940D01*
X0139338Y0023769D01*
X0138874Y0023609D01*
X0138406Y0023461D01*
X0137934Y0023324D01*
X0137460Y0023199D01*
X0136982Y0023086D01*
X0136502Y0022984D01*
X0136019Y0022894D01*
X0135535Y0022816D01*
X0135048Y0022750D01*
X0134560Y0022696D01*
X0134071Y0022654D01*
X0133581Y0022624D01*
X0133091Y0022606D01*
X0132600Y0022600D01*
X0132109Y0022606D01*
X0131619Y0022624D01*
X0131129Y0022654D01*
X0130640Y0022696D01*
X0130152Y0022750D01*
X0129665Y0022816D01*
X0129181Y0022894D01*
X0128698Y0022984D01*
X0128218Y0023086D01*
X0127740Y0023199D01*
X0127266Y0023324D01*
X0126794Y0023461D01*
X0126326Y0023609D01*
X0125862Y0023769D01*
X0125402Y0023940D01*
X0124946Y0024122D01*
X0124495Y0024316D01*
X0124049Y0024520D01*
X0123608Y0024736D01*
X0123172Y0024962D01*
X0122742Y0025198D01*
X0122318Y0025445D01*
X0121900Y0025703D01*
X0121489Y0025971D01*
X0121084Y0026248D01*
X0120686Y0026536D01*
X0120295Y0026833D01*
X0119912Y0027140D01*
X0119537Y0027456D01*
X0119169Y0027781D01*
X0118809Y0028115D01*
X0118458Y0028458D01*
X0118115Y0028809D01*
X0117781Y0029169D01*
X0117456Y0029537D01*
X0117140Y0029912D01*
X0116833Y0030295D01*
X0116536Y0030686D01*
X0116248Y0031084D01*
X0115971Y0031489D01*
X0115703Y0031900D01*
X0115445Y0032318D01*
X0115198Y0032742D01*
X0114962Y0033172D01*
X0114736Y0033608D01*
X0114520Y0034049D01*
X0114316Y0034495D01*
X0114122Y0034946D01*
X0113940Y0035402D01*
X0113769Y0035862D01*
X0113609Y0036326D01*
X0113461Y0036794D01*
X0113324Y0037266D01*
X0113199Y0037740D01*
X0113086Y0038218D01*
X0112984Y0038698D01*
X0112894Y0039181D01*
X0112816Y0039665D01*
X0112750Y0040152D01*
X0112696Y0040640D01*
X0112654Y0041129D01*
X0112624Y0041619D01*
X0112606Y0042109D01*
X0112600Y0042600D01*
X0132100Y0068100D02*
X0145100Y0068100D01*
X0143600Y0072600D02*
X0139900Y0072600D01*
X0137400Y0072600D02*
X0133600Y0072600D01*
X0132100Y0077100D02*
X0145100Y0077100D01*
X0160100Y0114100D02*
X0166100Y0111600D01*
X0219100Y0111600D01*
X0225100Y0114100D01*
X0225160Y0114102D01*
X0225221Y0114107D01*
X0225280Y0114116D01*
X0225339Y0114129D01*
X0225398Y0114145D01*
X0225455Y0114165D01*
X0225510Y0114188D01*
X0225565Y0114215D01*
X0225617Y0114244D01*
X0225668Y0114277D01*
X0225717Y0114313D01*
X0225763Y0114351D01*
X0225807Y0114393D01*
X0225849Y0114437D01*
X0225887Y0114483D01*
X0225923Y0114532D01*
X0225956Y0114583D01*
X0225985Y0114635D01*
X0226012Y0114690D01*
X0226035Y0114745D01*
X0226055Y0114802D01*
X0226071Y0114861D01*
X0226084Y0114920D01*
X0226093Y0114979D01*
X0226098Y0115040D01*
X0226100Y0115100D01*
X0226100Y0130100D01*
X0226098Y0130160D01*
X0226093Y0130221D01*
X0226084Y0130280D01*
X0226071Y0130339D01*
X0226055Y0130398D01*
X0226035Y0130455D01*
X0226012Y0130510D01*
X0225985Y0130565D01*
X0225956Y0130617D01*
X0225923Y0130668D01*
X0225887Y0130717D01*
X0225849Y0130763D01*
X0225807Y0130807D01*
X0225763Y0130849D01*
X0225717Y0130887D01*
X0225668Y0130923D01*
X0225617Y0130956D01*
X0225565Y0130985D01*
X0225510Y0131012D01*
X0225455Y0131035D01*
X0225398Y0131055D01*
X0225339Y0131071D01*
X0225280Y0131084D01*
X0225221Y0131093D01*
X0225160Y0131098D01*
X0225100Y0131100D01*
X0219100Y0133600D01*
X0166100Y0133600D01*
X0160100Y0131100D01*
X0160040Y0131098D01*
X0159979Y0131093D01*
X0159920Y0131084D01*
X0159861Y0131071D01*
X0159802Y0131055D01*
X0159745Y0131035D01*
X0159690Y0131012D01*
X0159635Y0130985D01*
X0159583Y0130956D01*
X0159532Y0130923D01*
X0159483Y0130887D01*
X0159437Y0130849D01*
X0159393Y0130807D01*
X0159351Y0130763D01*
X0159313Y0130717D01*
X0159277Y0130668D01*
X0159244Y0130617D01*
X0159215Y0130565D01*
X0159188Y0130510D01*
X0159165Y0130455D01*
X0159145Y0130398D01*
X0159129Y0130339D01*
X0159116Y0130280D01*
X0159107Y0130221D01*
X0159102Y0130160D01*
X0159100Y0130100D01*
X0159100Y0115100D01*
X0159102Y0115040D01*
X0159107Y0114979D01*
X0159116Y0114920D01*
X0159129Y0114861D01*
X0159145Y0114802D01*
X0159165Y0114745D01*
X0159188Y0114690D01*
X0159215Y0114635D01*
X0159244Y0114583D01*
X0159277Y0114532D01*
X0159313Y0114483D01*
X0159351Y0114437D01*
X0159393Y0114393D01*
X0159437Y0114351D01*
X0159483Y0114313D01*
X0159532Y0114277D01*
X0159583Y0114244D01*
X0159635Y0114215D01*
X0159690Y0114188D01*
X0159745Y0114165D01*
X0159802Y0114145D01*
X0159861Y0114129D01*
X0159920Y0114116D01*
X0159979Y0114107D01*
X0160040Y0114102D01*
X0160100Y0114100D01*
X0110100Y0137600D02*
X0110104Y0137931D01*
X0110116Y0138262D01*
X0110137Y0138593D01*
X0110165Y0138923D01*
X0110202Y0139253D01*
X0110246Y0139581D01*
X0110299Y0139908D01*
X0110359Y0140234D01*
X0110428Y0140558D01*
X0110505Y0140880D01*
X0110589Y0141201D01*
X0110681Y0141519D01*
X0110781Y0141835D01*
X0110889Y0142148D01*
X0111005Y0142459D01*
X0111128Y0142766D01*
X0111258Y0143071D01*
X0111396Y0143372D01*
X0111541Y0143670D01*
X0111694Y0143964D01*
X0111854Y0144254D01*
X0112021Y0144540D01*
X0112194Y0144822D01*
X0112375Y0145100D01*
X0112563Y0145373D01*
X0112757Y0145642D01*
X0112957Y0145906D01*
X0113164Y0146164D01*
X0113378Y0146418D01*
X0113597Y0146666D01*
X0113823Y0146909D01*
X0114054Y0147146D01*
X0114291Y0147377D01*
X0114534Y0147603D01*
X0114782Y0147822D01*
X0115036Y0148036D01*
X0115294Y0148243D01*
X0115558Y0148443D01*
X0115827Y0148637D01*
X0116100Y0148825D01*
X0116378Y0149006D01*
X0116660Y0149179D01*
X0116946Y0149346D01*
X0117236Y0149506D01*
X0117530Y0149659D01*
X0117828Y0149804D01*
X0118129Y0149942D01*
X0118434Y0150072D01*
X0118741Y0150195D01*
X0119052Y0150311D01*
X0119365Y0150419D01*
X0119681Y0150519D01*
X0119999Y0150611D01*
X0120320Y0150695D01*
X0120642Y0150772D01*
X0120966Y0150841D01*
X0121292Y0150901D01*
X0121619Y0150954D01*
X0121947Y0150998D01*
X0122277Y0151035D01*
X0122607Y0151063D01*
X0122938Y0151084D01*
X0123269Y0151096D01*
X0123600Y0151100D01*
X0123931Y0151096D01*
X0124262Y0151084D01*
X0124593Y0151063D01*
X0124923Y0151035D01*
X0125253Y0150998D01*
X0125581Y0150954D01*
X0125908Y0150901D01*
X0126234Y0150841D01*
X0126558Y0150772D01*
X0126880Y0150695D01*
X0127201Y0150611D01*
X0127519Y0150519D01*
X0127835Y0150419D01*
X0128148Y0150311D01*
X0128459Y0150195D01*
X0128766Y0150072D01*
X0129071Y0149942D01*
X0129372Y0149804D01*
X0129670Y0149659D01*
X0129964Y0149506D01*
X0130254Y0149346D01*
X0130540Y0149179D01*
X0130822Y0149006D01*
X0131100Y0148825D01*
X0131373Y0148637D01*
X0131642Y0148443D01*
X0131906Y0148243D01*
X0132164Y0148036D01*
X0132418Y0147822D01*
X0132666Y0147603D01*
X0132909Y0147377D01*
X0133146Y0147146D01*
X0133377Y0146909D01*
X0133603Y0146666D01*
X0133822Y0146418D01*
X0134036Y0146164D01*
X0134243Y0145906D01*
X0134443Y0145642D01*
X0134637Y0145373D01*
X0134825Y0145100D01*
X0135006Y0144822D01*
X0135179Y0144540D01*
X0135346Y0144254D01*
X0135506Y0143964D01*
X0135659Y0143670D01*
X0135804Y0143372D01*
X0135942Y0143071D01*
X0136072Y0142766D01*
X0136195Y0142459D01*
X0136311Y0142148D01*
X0136419Y0141835D01*
X0136519Y0141519D01*
X0136611Y0141201D01*
X0136695Y0140880D01*
X0136772Y0140558D01*
X0136841Y0140234D01*
X0136901Y0139908D01*
X0136954Y0139581D01*
X0136998Y0139253D01*
X0137035Y0138923D01*
X0137063Y0138593D01*
X0137084Y0138262D01*
X0137096Y0137931D01*
X0137100Y0137600D01*
X0137096Y0137269D01*
X0137084Y0136938D01*
X0137063Y0136607D01*
X0137035Y0136277D01*
X0136998Y0135947D01*
X0136954Y0135619D01*
X0136901Y0135292D01*
X0136841Y0134966D01*
X0136772Y0134642D01*
X0136695Y0134320D01*
X0136611Y0133999D01*
X0136519Y0133681D01*
X0136419Y0133365D01*
X0136311Y0133052D01*
X0136195Y0132741D01*
X0136072Y0132434D01*
X0135942Y0132129D01*
X0135804Y0131828D01*
X0135659Y0131530D01*
X0135506Y0131236D01*
X0135346Y0130946D01*
X0135179Y0130660D01*
X0135006Y0130378D01*
X0134825Y0130100D01*
X0134637Y0129827D01*
X0134443Y0129558D01*
X0134243Y0129294D01*
X0134036Y0129036D01*
X0133822Y0128782D01*
X0133603Y0128534D01*
X0133377Y0128291D01*
X0133146Y0128054D01*
X0132909Y0127823D01*
X0132666Y0127597D01*
X0132418Y0127378D01*
X0132164Y0127164D01*
X0131906Y0126957D01*
X0131642Y0126757D01*
X0131373Y0126563D01*
X0131100Y0126375D01*
X0130822Y0126194D01*
X0130540Y0126021D01*
X0130254Y0125854D01*
X0129964Y0125694D01*
X0129670Y0125541D01*
X0129372Y0125396D01*
X0129071Y0125258D01*
X0128766Y0125128D01*
X0128459Y0125005D01*
X0128148Y0124889D01*
X0127835Y0124781D01*
X0127519Y0124681D01*
X0127201Y0124589D01*
X0126880Y0124505D01*
X0126558Y0124428D01*
X0126234Y0124359D01*
X0125908Y0124299D01*
X0125581Y0124246D01*
X0125253Y0124202D01*
X0124923Y0124165D01*
X0124593Y0124137D01*
X0124262Y0124116D01*
X0123931Y0124104D01*
X0123600Y0124100D01*
X0123269Y0124104D01*
X0122938Y0124116D01*
X0122607Y0124137D01*
X0122277Y0124165D01*
X0121947Y0124202D01*
X0121619Y0124246D01*
X0121292Y0124299D01*
X0120966Y0124359D01*
X0120642Y0124428D01*
X0120320Y0124505D01*
X0119999Y0124589D01*
X0119681Y0124681D01*
X0119365Y0124781D01*
X0119052Y0124889D01*
X0118741Y0125005D01*
X0118434Y0125128D01*
X0118129Y0125258D01*
X0117828Y0125396D01*
X0117530Y0125541D01*
X0117236Y0125694D01*
X0116946Y0125854D01*
X0116660Y0126021D01*
X0116378Y0126194D01*
X0116100Y0126375D01*
X0115827Y0126563D01*
X0115558Y0126757D01*
X0115294Y0126957D01*
X0115036Y0127164D01*
X0114782Y0127378D01*
X0114534Y0127597D01*
X0114291Y0127823D01*
X0114054Y0128054D01*
X0113823Y0128291D01*
X0113597Y0128534D01*
X0113378Y0128782D01*
X0113164Y0129036D01*
X0112957Y0129294D01*
X0112757Y0129558D01*
X0112563Y0129827D01*
X0112375Y0130100D01*
X0112194Y0130378D01*
X0112021Y0130660D01*
X0111854Y0130946D01*
X0111694Y0131236D01*
X0111541Y0131530D01*
X0111396Y0131828D01*
X0111258Y0132129D01*
X0111128Y0132434D01*
X0111005Y0132741D01*
X0110889Y0133052D01*
X0110781Y0133365D01*
X0110681Y0133681D01*
X0110589Y0133999D01*
X0110505Y0134320D01*
X0110428Y0134642D01*
X0110359Y0134966D01*
X0110299Y0135292D01*
X0110246Y0135619D01*
X0110202Y0135947D01*
X0110165Y0136277D01*
X0110137Y0136607D01*
X0110116Y0136938D01*
X0110104Y0137269D01*
X0110100Y0137600D01*
X0055100Y0131100D02*
X0055100Y0124100D01*
X0055098Y0124040D01*
X0055093Y0123979D01*
X0055084Y0123920D01*
X0055071Y0123861D01*
X0055055Y0123802D01*
X0055035Y0123745D01*
X0055012Y0123690D01*
X0054985Y0123635D01*
X0054956Y0123583D01*
X0054923Y0123532D01*
X0054887Y0123483D01*
X0054849Y0123437D01*
X0054807Y0123393D01*
X0054763Y0123351D01*
X0054717Y0123313D01*
X0054668Y0123277D01*
X0054617Y0123244D01*
X0054565Y0123215D01*
X0054510Y0123188D01*
X0054455Y0123165D01*
X0054398Y0123145D01*
X0054339Y0123129D01*
X0054280Y0123116D01*
X0054221Y0123107D01*
X0054160Y0123102D01*
X0054100Y0123100D01*
X0052600Y0123100D01*
X0052100Y0123600D01*
X0033100Y0123600D01*
X0032600Y0123100D01*
X0031100Y0123100D01*
X0031040Y0123102D01*
X0030979Y0123107D01*
X0030920Y0123116D01*
X0030861Y0123129D01*
X0030802Y0123145D01*
X0030745Y0123165D01*
X0030690Y0123188D01*
X0030635Y0123215D01*
X0030583Y0123244D01*
X0030532Y0123277D01*
X0030483Y0123313D01*
X0030437Y0123351D01*
X0030393Y0123393D01*
X0030351Y0123437D01*
X0030313Y0123483D01*
X0030277Y0123532D01*
X0030244Y0123583D01*
X0030215Y0123635D01*
X0030188Y0123690D01*
X0030165Y0123745D01*
X0030145Y0123802D01*
X0030129Y0123861D01*
X0030116Y0123920D01*
X0030107Y0123979D01*
X0030102Y0124040D01*
X0030100Y0124100D01*
X0030100Y0131100D01*
X0030102Y0131160D01*
X0030107Y0131221D01*
X0030116Y0131280D01*
X0030129Y0131339D01*
X0030145Y0131398D01*
X0030165Y0131455D01*
X0030188Y0131510D01*
X0030215Y0131565D01*
X0030244Y0131617D01*
X0030277Y0131668D01*
X0030313Y0131717D01*
X0030351Y0131763D01*
X0030393Y0131807D01*
X0030437Y0131849D01*
X0030483Y0131887D01*
X0030532Y0131923D01*
X0030583Y0131956D01*
X0030635Y0131985D01*
X0030690Y0132012D01*
X0030745Y0132035D01*
X0030802Y0132055D01*
X0030861Y0132071D01*
X0030920Y0132084D01*
X0030979Y0132093D01*
X0031040Y0132098D01*
X0031100Y0132100D01*
X0032600Y0132100D01*
X0033100Y0131600D01*
X0052100Y0131600D01*
X0052600Y0132100D01*
X0054100Y0132100D01*
X0054160Y0132098D01*
X0054221Y0132093D01*
X0054280Y0132084D01*
X0054339Y0132071D01*
X0054398Y0132055D01*
X0054455Y0132035D01*
X0054510Y0132012D01*
X0054565Y0131985D01*
X0054617Y0131956D01*
X0054668Y0131923D01*
X0054717Y0131887D01*
X0054763Y0131849D01*
X0054807Y0131807D01*
X0054849Y0131763D01*
X0054887Y0131717D01*
X0054923Y0131668D01*
X0054956Y0131617D01*
X0054985Y0131565D01*
X0055012Y0131510D01*
X0055035Y0131455D01*
X0055055Y0131398D01*
X0055071Y0131339D01*
X0055084Y0131280D01*
X0055093Y0131221D01*
X0055098Y0131160D01*
X0055100Y0131100D01*
X0046100Y0105100D02*
X0039100Y0105100D01*
X0039040Y0105098D01*
X0038979Y0105093D01*
X0038920Y0105084D01*
X0038861Y0105071D01*
X0038802Y0105055D01*
X0038745Y0105035D01*
X0038690Y0105012D01*
X0038635Y0104985D01*
X0038583Y0104956D01*
X0038532Y0104923D01*
X0038483Y0104887D01*
X0038437Y0104849D01*
X0038393Y0104807D01*
X0038351Y0104763D01*
X0038313Y0104717D01*
X0038277Y0104668D01*
X0038244Y0104617D01*
X0038215Y0104565D01*
X0038188Y0104510D01*
X0038165Y0104455D01*
X0038145Y0104398D01*
X0038129Y0104339D01*
X0038116Y0104280D01*
X0038107Y0104221D01*
X0038102Y0104160D01*
X0038100Y0104100D01*
X0038100Y0102600D01*
X0038600Y0102100D01*
X0038600Y0083100D01*
X0038100Y0082600D01*
X0038100Y0081100D01*
X0038102Y0081040D01*
X0038107Y0080979D01*
X0038116Y0080920D01*
X0038129Y0080861D01*
X0038145Y0080802D01*
X0038165Y0080745D01*
X0038188Y0080690D01*
X0038215Y0080635D01*
X0038244Y0080583D01*
X0038277Y0080532D01*
X0038313Y0080483D01*
X0038351Y0080437D01*
X0038393Y0080393D01*
X0038437Y0080351D01*
X0038483Y0080313D01*
X0038532Y0080277D01*
X0038583Y0080244D01*
X0038635Y0080215D01*
X0038690Y0080188D01*
X0038745Y0080165D01*
X0038802Y0080145D01*
X0038861Y0080129D01*
X0038920Y0080116D01*
X0038979Y0080107D01*
X0039040Y0080102D01*
X0039100Y0080100D01*
X0046100Y0080100D01*
X0046160Y0080102D01*
X0046221Y0080107D01*
X0046280Y0080116D01*
X0046339Y0080129D01*
X0046398Y0080145D01*
X0046455Y0080165D01*
X0046510Y0080188D01*
X0046565Y0080215D01*
X0046617Y0080244D01*
X0046668Y0080277D01*
X0046717Y0080313D01*
X0046763Y0080351D01*
X0046807Y0080393D01*
X0046849Y0080437D01*
X0046887Y0080483D01*
X0046923Y0080532D01*
X0046956Y0080583D01*
X0046985Y0080635D01*
X0047012Y0080690D01*
X0047035Y0080745D01*
X0047055Y0080802D01*
X0047071Y0080861D01*
X0047084Y0080920D01*
X0047093Y0080979D01*
X0047098Y0081040D01*
X0047100Y0081100D01*
X0047100Y0082600D01*
X0046600Y0083100D01*
X0046600Y0102100D01*
X0047100Y0102600D01*
X0047100Y0104100D01*
X0047098Y0104160D01*
X0047093Y0104221D01*
X0047084Y0104280D01*
X0047071Y0104339D01*
X0047055Y0104398D01*
X0047035Y0104455D01*
X0047012Y0104510D01*
X0046985Y0104565D01*
X0046956Y0104617D01*
X0046923Y0104668D01*
X0046887Y0104717D01*
X0046849Y0104763D01*
X0046807Y0104807D01*
X0046763Y0104849D01*
X0046717Y0104887D01*
X0046668Y0104923D01*
X0046617Y0104956D01*
X0046565Y0104985D01*
X0046510Y0105012D01*
X0046455Y0105035D01*
X0046398Y0105055D01*
X0046339Y0105071D01*
X0046280Y0105084D01*
X0046221Y0105093D01*
X0046160Y0105098D01*
X0046100Y0105100D01*
D11*
X0045400Y0119863D02*
X0043435Y0119863D01*
X0045105Y0121828D01*
X0044516Y0123400D02*
X0044451Y0123398D01*
X0044386Y0123393D01*
X0044322Y0123383D01*
X0044259Y0123370D01*
X0044196Y0123354D01*
X0044134Y0123334D01*
X0044073Y0123310D01*
X0044014Y0123283D01*
X0043957Y0123253D01*
X0043901Y0123219D01*
X0043848Y0123183D01*
X0043796Y0123143D01*
X0043747Y0123101D01*
X0043701Y0123055D01*
X0043657Y0123007D01*
X0043616Y0122957D01*
X0043578Y0122905D01*
X0043543Y0122850D01*
X0043511Y0122793D01*
X0043482Y0122735D01*
X0043457Y0122675D01*
X0043435Y0122614D01*
X0045105Y0121828D02*
X0045147Y0121870D01*
X0045186Y0121915D01*
X0045222Y0121962D01*
X0045255Y0122011D01*
X0045284Y0122062D01*
X0045311Y0122115D01*
X0045334Y0122169D01*
X0045354Y0122225D01*
X0045371Y0122282D01*
X0045383Y0122340D01*
X0045393Y0122398D01*
X0045398Y0122457D01*
X0045400Y0122516D01*
X0045398Y0122574D01*
X0045392Y0122631D01*
X0045383Y0122688D01*
X0045370Y0122745D01*
X0045353Y0122800D01*
X0045333Y0122854D01*
X0045309Y0122907D01*
X0045282Y0122958D01*
X0045251Y0123007D01*
X0045217Y0123054D01*
X0045181Y0123099D01*
X0045141Y0123141D01*
X0045099Y0123181D01*
X0045054Y0123217D01*
X0045007Y0123251D01*
X0044958Y0123282D01*
X0044907Y0123309D01*
X0044854Y0123333D01*
X0044800Y0123353D01*
X0044745Y0123370D01*
X0044688Y0123383D01*
X0044631Y0123392D01*
X0044574Y0123398D01*
X0044516Y0123400D01*
X0040900Y0123400D02*
X0039918Y0123400D01*
X0039918Y0119863D01*
X0039918Y0121435D02*
X0040900Y0121435D01*
X0041097Y0121435D02*
X0041883Y0119863D01*
X0040900Y0121434D02*
X0040962Y0121436D01*
X0041023Y0121442D01*
X0041084Y0121451D01*
X0041144Y0121465D01*
X0041204Y0121482D01*
X0041262Y0121503D01*
X0041319Y0121528D01*
X0041374Y0121556D01*
X0041427Y0121587D01*
X0041478Y0121622D01*
X0041527Y0121660D01*
X0041573Y0121700D01*
X0041617Y0121744D01*
X0041657Y0121790D01*
X0041695Y0121839D01*
X0041730Y0121890D01*
X0041761Y0121943D01*
X0041789Y0121998D01*
X0041814Y0122055D01*
X0041835Y0122113D01*
X0041852Y0122173D01*
X0041866Y0122233D01*
X0041875Y0122294D01*
X0041881Y0122355D01*
X0041883Y0122417D01*
X0041881Y0122479D01*
X0041875Y0122540D01*
X0041866Y0122601D01*
X0041852Y0122661D01*
X0041835Y0122721D01*
X0041814Y0122779D01*
X0041789Y0122836D01*
X0041761Y0122891D01*
X0041730Y0122944D01*
X0041695Y0122995D01*
X0041657Y0123044D01*
X0041617Y0123090D01*
X0041573Y0123134D01*
X0041527Y0123174D01*
X0041478Y0123212D01*
X0041427Y0123247D01*
X0041374Y0123278D01*
X0041319Y0123306D01*
X0041262Y0123331D01*
X0041204Y0123352D01*
X0041144Y0123369D01*
X0041084Y0123383D01*
X0041023Y0123392D01*
X0040962Y0123398D01*
X0040900Y0123400D01*
X0039918Y0134863D02*
X0039918Y0138400D01*
X0040900Y0138400D01*
X0040962Y0138398D01*
X0041023Y0138392D01*
X0041084Y0138383D01*
X0041144Y0138369D01*
X0041204Y0138352D01*
X0041262Y0138331D01*
X0041319Y0138306D01*
X0041374Y0138278D01*
X0041427Y0138247D01*
X0041478Y0138212D01*
X0041527Y0138174D01*
X0041573Y0138134D01*
X0041617Y0138090D01*
X0041657Y0138044D01*
X0041695Y0137995D01*
X0041730Y0137944D01*
X0041761Y0137891D01*
X0041789Y0137836D01*
X0041814Y0137779D01*
X0041835Y0137721D01*
X0041852Y0137661D01*
X0041866Y0137601D01*
X0041875Y0137540D01*
X0041881Y0137479D01*
X0041883Y0137417D01*
X0041881Y0137355D01*
X0041875Y0137294D01*
X0041866Y0137233D01*
X0041852Y0137173D01*
X0041835Y0137113D01*
X0041814Y0137055D01*
X0041789Y0136998D01*
X0041761Y0136943D01*
X0041730Y0136890D01*
X0041695Y0136839D01*
X0041657Y0136790D01*
X0041617Y0136744D01*
X0041573Y0136700D01*
X0041527Y0136660D01*
X0041478Y0136622D01*
X0041427Y0136587D01*
X0041374Y0136556D01*
X0041319Y0136528D01*
X0041262Y0136503D01*
X0041204Y0136482D01*
X0041144Y0136465D01*
X0041084Y0136451D01*
X0041023Y0136442D01*
X0040962Y0136436D01*
X0040900Y0136434D01*
X0040900Y0136435D02*
X0039918Y0136435D01*
X0041097Y0136435D02*
X0041883Y0134863D01*
X0043435Y0134863D02*
X0045400Y0134863D01*
X0044417Y0134863D02*
X0044417Y0138400D01*
X0043435Y0137614D01*
X0128971Y0082114D02*
X0128971Y0080149D01*
X0128973Y0080095D01*
X0128978Y0080042D01*
X0128987Y0079989D01*
X0129000Y0079937D01*
X0129016Y0079886D01*
X0129036Y0079836D01*
X0129059Y0079787D01*
X0129085Y0079741D01*
X0129115Y0079696D01*
X0129147Y0079653D01*
X0129183Y0079613D01*
X0129221Y0079575D01*
X0129261Y0079539D01*
X0129304Y0079507D01*
X0129349Y0079477D01*
X0129395Y0079451D01*
X0129444Y0079428D01*
X0129494Y0079408D01*
X0129545Y0079392D01*
X0129597Y0079379D01*
X0129650Y0079370D01*
X0129703Y0079365D01*
X0129757Y0079363D01*
X0130543Y0079363D01*
X0131935Y0079363D02*
X0133900Y0079363D01*
X0131935Y0079363D02*
X0133605Y0081328D01*
X0133016Y0082900D02*
X0132951Y0082898D01*
X0132886Y0082893D01*
X0132822Y0082883D01*
X0132759Y0082870D01*
X0132696Y0082854D01*
X0132634Y0082834D01*
X0132573Y0082810D01*
X0132514Y0082783D01*
X0132457Y0082753D01*
X0132401Y0082719D01*
X0132348Y0082683D01*
X0132296Y0082643D01*
X0132247Y0082601D01*
X0132201Y0082555D01*
X0132157Y0082507D01*
X0132116Y0082457D01*
X0132078Y0082405D01*
X0132043Y0082350D01*
X0132011Y0082293D01*
X0131982Y0082235D01*
X0131957Y0082175D01*
X0131935Y0082114D01*
X0133605Y0081328D02*
X0133647Y0081370D01*
X0133686Y0081415D01*
X0133722Y0081462D01*
X0133755Y0081511D01*
X0133784Y0081562D01*
X0133811Y0081615D01*
X0133834Y0081669D01*
X0133854Y0081725D01*
X0133871Y0081782D01*
X0133883Y0081840D01*
X0133893Y0081898D01*
X0133898Y0081957D01*
X0133900Y0082016D01*
X0133898Y0082074D01*
X0133892Y0082131D01*
X0133883Y0082188D01*
X0133870Y0082245D01*
X0133853Y0082300D01*
X0133833Y0082354D01*
X0133809Y0082407D01*
X0133782Y0082458D01*
X0133751Y0082507D01*
X0133717Y0082554D01*
X0133681Y0082599D01*
X0133641Y0082641D01*
X0133599Y0082681D01*
X0133554Y0082717D01*
X0133507Y0082751D01*
X0133458Y0082782D01*
X0133407Y0082809D01*
X0133354Y0082833D01*
X0133300Y0082853D01*
X0133245Y0082870D01*
X0133188Y0082883D01*
X0133131Y0082892D01*
X0133074Y0082898D01*
X0133016Y0082900D01*
X0130543Y0082900D02*
X0129757Y0082900D01*
X0129703Y0082898D01*
X0129650Y0082893D01*
X0129597Y0082884D01*
X0129545Y0082871D01*
X0129494Y0082855D01*
X0129444Y0082835D01*
X0129395Y0082812D01*
X0129349Y0082786D01*
X0129304Y0082756D01*
X0129261Y0082724D01*
X0129221Y0082688D01*
X0129183Y0082650D01*
X0129147Y0082610D01*
X0129115Y0082567D01*
X0129085Y0082522D01*
X0129059Y0082476D01*
X0129036Y0082427D01*
X0129016Y0082377D01*
X0129000Y0082326D01*
X0128987Y0082274D01*
X0128978Y0082221D01*
X0128973Y0082168D01*
X0128971Y0082114D01*
X0116417Y0062900D02*
X0116417Y0059363D01*
X0115435Y0059363D02*
X0117400Y0059363D01*
X0114043Y0059363D02*
X0113257Y0059363D01*
X0113203Y0059365D01*
X0113150Y0059370D01*
X0113097Y0059379D01*
X0113045Y0059392D01*
X0112994Y0059408D01*
X0112944Y0059428D01*
X0112895Y0059451D01*
X0112849Y0059477D01*
X0112804Y0059507D01*
X0112761Y0059539D01*
X0112721Y0059575D01*
X0112683Y0059613D01*
X0112647Y0059653D01*
X0112615Y0059696D01*
X0112585Y0059741D01*
X0112559Y0059787D01*
X0112536Y0059836D01*
X0112516Y0059886D01*
X0112500Y0059937D01*
X0112487Y0059989D01*
X0112478Y0060042D01*
X0112473Y0060095D01*
X0112471Y0060149D01*
X0112471Y0062114D01*
X0112473Y0062168D01*
X0112478Y0062221D01*
X0112487Y0062274D01*
X0112500Y0062326D01*
X0112516Y0062377D01*
X0112536Y0062427D01*
X0112559Y0062476D01*
X0112585Y0062522D01*
X0112615Y0062567D01*
X0112647Y0062610D01*
X0112683Y0062650D01*
X0112721Y0062688D01*
X0112761Y0062724D01*
X0112804Y0062756D01*
X0112849Y0062786D01*
X0112895Y0062812D01*
X0112944Y0062835D01*
X0112994Y0062855D01*
X0113045Y0062871D01*
X0113097Y0062884D01*
X0113150Y0062893D01*
X0113203Y0062898D01*
X0113257Y0062900D01*
X0114043Y0062900D01*
X0115435Y0062114D02*
X0116417Y0062900D01*
X0188800Y0137900D02*
X0189979Y0141437D01*
X0191158Y0137900D01*
X0190863Y0138784D02*
X0189095Y0138784D01*
X0192658Y0137900D02*
X0192658Y0141437D01*
X0194623Y0137900D01*
X0194623Y0141437D01*
X0196083Y0141437D02*
X0198048Y0141437D01*
X0197066Y0141437D02*
X0197066Y0137900D01*
D12*
X0147369Y0075129D02*
X0146829Y0075129D01*
X0146830Y0075130D02*
X0146826Y0075210D01*
X0146819Y0075291D01*
X0146809Y0075370D01*
X0146794Y0075450D01*
X0146776Y0075528D01*
X0146754Y0075606D01*
X0146729Y0075682D01*
X0146700Y0075757D01*
X0146668Y0075831D01*
X0146632Y0075903D01*
X0146593Y0075974D01*
X0146551Y0076042D01*
X0146506Y0076109D01*
X0146457Y0076173D01*
X0146406Y0076235D01*
X0146351Y0076294D01*
X0146294Y0076351D01*
X0146235Y0076406D01*
X0146173Y0076457D01*
X0146109Y0076506D01*
X0146042Y0076551D01*
X0145974Y0076593D01*
X0145903Y0076632D01*
X0145831Y0076668D01*
X0145757Y0076700D01*
X0145682Y0076729D01*
X0145606Y0076754D01*
X0145528Y0076776D01*
X0145450Y0076794D01*
X0145370Y0076809D01*
X0145291Y0076819D01*
X0145210Y0076826D01*
X0145130Y0076830D01*
X0145129Y0077369D01*
X0145130Y0077370D01*
X0145225Y0077367D01*
X0145319Y0077359D01*
X0145413Y0077348D01*
X0145507Y0077333D01*
X0145600Y0077314D01*
X0145692Y0077292D01*
X0145783Y0077265D01*
X0145872Y0077235D01*
X0145961Y0077201D01*
X0146048Y0077163D01*
X0146133Y0077121D01*
X0146216Y0077077D01*
X0146298Y0077028D01*
X0146377Y0076977D01*
X0146454Y0076922D01*
X0146529Y0076864D01*
X0146602Y0076802D01*
X0146671Y0076738D01*
X0146738Y0076671D01*
X0146802Y0076602D01*
X0146864Y0076529D01*
X0146922Y0076454D01*
X0146977Y0076377D01*
X0147028Y0076298D01*
X0147077Y0076216D01*
X0147121Y0076133D01*
X0147163Y0076048D01*
X0147201Y0075961D01*
X0147235Y0075872D01*
X0147265Y0075783D01*
X0147292Y0075692D01*
X0147314Y0075600D01*
X0147333Y0075507D01*
X0147348Y0075413D01*
X0147359Y0075319D01*
X0147367Y0075225D01*
X0147370Y0075130D01*
X0147314Y0075130D01*
X0147311Y0075222D01*
X0147304Y0075314D01*
X0147293Y0075406D01*
X0147278Y0075497D01*
X0147260Y0075588D01*
X0147237Y0075677D01*
X0147211Y0075766D01*
X0147182Y0075854D01*
X0147149Y0075940D01*
X0147112Y0076024D01*
X0147071Y0076108D01*
X0147028Y0076189D01*
X0146981Y0076268D01*
X0146930Y0076346D01*
X0146877Y0076421D01*
X0146820Y0076494D01*
X0146760Y0076565D01*
X0146698Y0076633D01*
X0146633Y0076698D01*
X0146565Y0076760D01*
X0146494Y0076820D01*
X0146421Y0076877D01*
X0146346Y0076930D01*
X0146268Y0076981D01*
X0146189Y0077028D01*
X0146108Y0077071D01*
X0146024Y0077112D01*
X0145940Y0077149D01*
X0145854Y0077182D01*
X0145766Y0077211D01*
X0145677Y0077237D01*
X0145588Y0077260D01*
X0145497Y0077278D01*
X0145406Y0077293D01*
X0145314Y0077304D01*
X0145222Y0077311D01*
X0145130Y0077314D01*
X0145130Y0077258D01*
X0145222Y0077255D01*
X0145315Y0077247D01*
X0145406Y0077236D01*
X0145498Y0077221D01*
X0145588Y0077202D01*
X0145678Y0077179D01*
X0145766Y0077153D01*
X0145854Y0077122D01*
X0145940Y0077088D01*
X0146024Y0077050D01*
X0146107Y0077009D01*
X0146188Y0076964D01*
X0146267Y0076916D01*
X0146343Y0076864D01*
X0146418Y0076809D01*
X0146490Y0076751D01*
X0146559Y0076690D01*
X0146626Y0076626D01*
X0146690Y0076559D01*
X0146751Y0076490D01*
X0146809Y0076418D01*
X0146864Y0076343D01*
X0146916Y0076267D01*
X0146964Y0076188D01*
X0147009Y0076107D01*
X0147050Y0076024D01*
X0147088Y0075940D01*
X0147122Y0075854D01*
X0147153Y0075766D01*
X0147179Y0075678D01*
X0147202Y0075588D01*
X0147221Y0075498D01*
X0147236Y0075406D01*
X0147247Y0075315D01*
X0147255Y0075222D01*
X0147258Y0075130D01*
X0147202Y0075130D01*
X0147199Y0075220D01*
X0147192Y0075310D01*
X0147181Y0075399D01*
X0147166Y0075488D01*
X0147147Y0075576D01*
X0147125Y0075663D01*
X0147099Y0075750D01*
X0147069Y0075835D01*
X0147036Y0075918D01*
X0146999Y0076000D01*
X0146959Y0076081D01*
X0146915Y0076160D01*
X0146868Y0076236D01*
X0146818Y0076311D01*
X0146765Y0076384D01*
X0146708Y0076454D01*
X0146649Y0076521D01*
X0146586Y0076586D01*
X0146521Y0076649D01*
X0146454Y0076708D01*
X0146384Y0076765D01*
X0146311Y0076818D01*
X0146236Y0076868D01*
X0146160Y0076915D01*
X0146081Y0076959D01*
X0146000Y0076999D01*
X0145918Y0077036D01*
X0145835Y0077069D01*
X0145750Y0077099D01*
X0145663Y0077125D01*
X0145576Y0077147D01*
X0145488Y0077166D01*
X0145399Y0077181D01*
X0145310Y0077192D01*
X0145220Y0077199D01*
X0145130Y0077202D01*
X0145130Y0077146D01*
X0145218Y0077143D01*
X0145305Y0077136D01*
X0145392Y0077125D01*
X0145478Y0077111D01*
X0145564Y0077093D01*
X0145649Y0077071D01*
X0145733Y0077046D01*
X0145815Y0077017D01*
X0145897Y0076984D01*
X0145977Y0076949D01*
X0146055Y0076909D01*
X0146132Y0076867D01*
X0146206Y0076821D01*
X0146279Y0076772D01*
X0146349Y0076720D01*
X0146418Y0076665D01*
X0146483Y0076607D01*
X0146547Y0076547D01*
X0146607Y0076483D01*
X0146665Y0076418D01*
X0146720Y0076349D01*
X0146772Y0076279D01*
X0146821Y0076206D01*
X0146867Y0076132D01*
X0146909Y0076055D01*
X0146949Y0075977D01*
X0146984Y0075897D01*
X0147017Y0075815D01*
X0147046Y0075733D01*
X0147071Y0075649D01*
X0147093Y0075564D01*
X0147111Y0075478D01*
X0147125Y0075392D01*
X0147136Y0075305D01*
X0147143Y0075218D01*
X0147146Y0075130D01*
X0147090Y0075130D01*
X0147087Y0075218D01*
X0147079Y0075305D01*
X0147068Y0075392D01*
X0147054Y0075478D01*
X0147035Y0075564D01*
X0147013Y0075648D01*
X0146987Y0075732D01*
X0146957Y0075814D01*
X0146924Y0075895D01*
X0146887Y0075975D01*
X0146847Y0076053D01*
X0146803Y0076129D01*
X0146757Y0076203D01*
X0146706Y0076275D01*
X0146653Y0076344D01*
X0146597Y0076411D01*
X0146538Y0076476D01*
X0146476Y0076538D01*
X0146411Y0076597D01*
X0146344Y0076653D01*
X0146275Y0076706D01*
X0146203Y0076757D01*
X0146129Y0076803D01*
X0146053Y0076847D01*
X0145975Y0076887D01*
X0145895Y0076924D01*
X0145814Y0076957D01*
X0145732Y0076987D01*
X0145648Y0077013D01*
X0145564Y0077035D01*
X0145478Y0077054D01*
X0145392Y0077068D01*
X0145305Y0077079D01*
X0145218Y0077087D01*
X0145130Y0077090D01*
X0145130Y0077034D01*
X0145215Y0077031D01*
X0145300Y0077024D01*
X0145384Y0077013D01*
X0145468Y0076999D01*
X0145551Y0076981D01*
X0145633Y0076959D01*
X0145715Y0076934D01*
X0145795Y0076905D01*
X0145873Y0076873D01*
X0145951Y0076837D01*
X0146026Y0076798D01*
X0146100Y0076755D01*
X0146172Y0076710D01*
X0146242Y0076661D01*
X0146309Y0076609D01*
X0146374Y0076555D01*
X0146437Y0076497D01*
X0146497Y0076437D01*
X0146555Y0076374D01*
X0146609Y0076309D01*
X0146661Y0076242D01*
X0146710Y0076172D01*
X0146755Y0076100D01*
X0146798Y0076026D01*
X0146837Y0075951D01*
X0146873Y0075873D01*
X0146905Y0075795D01*
X0146934Y0075715D01*
X0146959Y0075633D01*
X0146981Y0075551D01*
X0146999Y0075468D01*
X0147013Y0075384D01*
X0147024Y0075300D01*
X0147031Y0075215D01*
X0147034Y0075130D01*
X0146978Y0075130D01*
X0146974Y0075215D01*
X0146967Y0075300D01*
X0146956Y0075384D01*
X0146942Y0075468D01*
X0146923Y0075551D01*
X0146901Y0075633D01*
X0146875Y0075714D01*
X0146845Y0075793D01*
X0146812Y0075871D01*
X0146776Y0075948D01*
X0146735Y0076023D01*
X0146692Y0076096D01*
X0146645Y0076167D01*
X0146595Y0076236D01*
X0146543Y0076302D01*
X0146487Y0076367D01*
X0146428Y0076428D01*
X0146367Y0076487D01*
X0146302Y0076543D01*
X0146236Y0076595D01*
X0146167Y0076645D01*
X0146096Y0076692D01*
X0146023Y0076735D01*
X0145948Y0076776D01*
X0145871Y0076812D01*
X0145793Y0076845D01*
X0145714Y0076875D01*
X0145633Y0076901D01*
X0145551Y0076923D01*
X0145468Y0076942D01*
X0145384Y0076956D01*
X0145300Y0076967D01*
X0145215Y0076974D01*
X0145130Y0076978D01*
X0145130Y0076922D01*
X0145212Y0076919D01*
X0145294Y0076912D01*
X0145376Y0076901D01*
X0145457Y0076887D01*
X0145538Y0076869D01*
X0145617Y0076847D01*
X0145696Y0076822D01*
X0145773Y0076793D01*
X0145849Y0076761D01*
X0145923Y0076725D01*
X0145996Y0076687D01*
X0146067Y0076644D01*
X0146135Y0076599D01*
X0146202Y0076551D01*
X0146267Y0076499D01*
X0146329Y0076445D01*
X0146388Y0076388D01*
X0146445Y0076329D01*
X0146499Y0076267D01*
X0146551Y0076202D01*
X0146599Y0076135D01*
X0146644Y0076067D01*
X0146687Y0075996D01*
X0146725Y0075923D01*
X0146761Y0075849D01*
X0146793Y0075773D01*
X0146822Y0075696D01*
X0146847Y0075617D01*
X0146869Y0075538D01*
X0146887Y0075457D01*
X0146901Y0075376D01*
X0146912Y0075294D01*
X0146919Y0075212D01*
X0146922Y0075130D01*
X0146866Y0075130D01*
X0146862Y0075212D01*
X0146855Y0075294D01*
X0146844Y0075376D01*
X0146830Y0075457D01*
X0146811Y0075537D01*
X0146789Y0075616D01*
X0146763Y0075694D01*
X0146734Y0075771D01*
X0146701Y0075846D01*
X0146664Y0075920D01*
X0146624Y0075992D01*
X0146581Y0076062D01*
X0146535Y0076130D01*
X0146485Y0076195D01*
X0146433Y0076259D01*
X0146377Y0076319D01*
X0146319Y0076377D01*
X0146259Y0076433D01*
X0146195Y0076485D01*
X0146130Y0076535D01*
X0146062Y0076581D01*
X0145992Y0076624D01*
X0145920Y0076664D01*
X0145846Y0076701D01*
X0145771Y0076734D01*
X0145694Y0076763D01*
X0145616Y0076789D01*
X0145537Y0076811D01*
X0145457Y0076830D01*
X0145376Y0076844D01*
X0145294Y0076855D01*
X0145212Y0076862D01*
X0145130Y0076866D01*
X0145129Y0067831D02*
X0145129Y0068371D01*
X0145130Y0068370D02*
X0145210Y0068374D01*
X0145291Y0068381D01*
X0145370Y0068391D01*
X0145450Y0068406D01*
X0145528Y0068424D01*
X0145606Y0068446D01*
X0145682Y0068471D01*
X0145757Y0068500D01*
X0145831Y0068532D01*
X0145903Y0068568D01*
X0145974Y0068607D01*
X0146042Y0068649D01*
X0146109Y0068694D01*
X0146173Y0068743D01*
X0146235Y0068794D01*
X0146294Y0068849D01*
X0146351Y0068906D01*
X0146406Y0068965D01*
X0146457Y0069027D01*
X0146506Y0069091D01*
X0146551Y0069158D01*
X0146593Y0069226D01*
X0146632Y0069297D01*
X0146668Y0069369D01*
X0146700Y0069443D01*
X0146729Y0069518D01*
X0146754Y0069594D01*
X0146776Y0069672D01*
X0146794Y0069750D01*
X0146809Y0069830D01*
X0146819Y0069909D01*
X0146826Y0069990D01*
X0146830Y0070070D01*
X0147369Y0070071D01*
X0147370Y0070070D01*
X0147367Y0069975D01*
X0147359Y0069881D01*
X0147348Y0069787D01*
X0147333Y0069693D01*
X0147314Y0069600D01*
X0147292Y0069508D01*
X0147265Y0069417D01*
X0147235Y0069328D01*
X0147201Y0069239D01*
X0147163Y0069152D01*
X0147121Y0069067D01*
X0147077Y0068984D01*
X0147028Y0068902D01*
X0146977Y0068823D01*
X0146922Y0068746D01*
X0146864Y0068671D01*
X0146802Y0068598D01*
X0146738Y0068529D01*
X0146671Y0068462D01*
X0146602Y0068398D01*
X0146529Y0068336D01*
X0146454Y0068278D01*
X0146377Y0068223D01*
X0146298Y0068172D01*
X0146216Y0068123D01*
X0146133Y0068079D01*
X0146048Y0068037D01*
X0145961Y0067999D01*
X0145872Y0067965D01*
X0145783Y0067935D01*
X0145692Y0067908D01*
X0145600Y0067886D01*
X0145507Y0067867D01*
X0145413Y0067852D01*
X0145319Y0067841D01*
X0145225Y0067833D01*
X0145130Y0067830D01*
X0145130Y0067886D01*
X0145222Y0067889D01*
X0145314Y0067896D01*
X0145406Y0067907D01*
X0145497Y0067922D01*
X0145588Y0067940D01*
X0145677Y0067963D01*
X0145766Y0067989D01*
X0145854Y0068018D01*
X0145940Y0068051D01*
X0146024Y0068088D01*
X0146108Y0068129D01*
X0146189Y0068172D01*
X0146268Y0068219D01*
X0146346Y0068270D01*
X0146421Y0068323D01*
X0146494Y0068380D01*
X0146565Y0068440D01*
X0146633Y0068502D01*
X0146698Y0068567D01*
X0146760Y0068635D01*
X0146820Y0068706D01*
X0146877Y0068779D01*
X0146930Y0068854D01*
X0146981Y0068932D01*
X0147028Y0069011D01*
X0147071Y0069092D01*
X0147112Y0069176D01*
X0147149Y0069260D01*
X0147182Y0069346D01*
X0147211Y0069434D01*
X0147237Y0069523D01*
X0147260Y0069612D01*
X0147278Y0069703D01*
X0147293Y0069794D01*
X0147304Y0069886D01*
X0147311Y0069978D01*
X0147314Y0070070D01*
X0147258Y0070070D01*
X0147255Y0069978D01*
X0147247Y0069885D01*
X0147236Y0069794D01*
X0147221Y0069702D01*
X0147202Y0069612D01*
X0147179Y0069522D01*
X0147153Y0069434D01*
X0147122Y0069346D01*
X0147088Y0069260D01*
X0147050Y0069176D01*
X0147009Y0069093D01*
X0146964Y0069012D01*
X0146916Y0068933D01*
X0146864Y0068857D01*
X0146809Y0068782D01*
X0146751Y0068710D01*
X0146690Y0068641D01*
X0146626Y0068574D01*
X0146559Y0068510D01*
X0146490Y0068449D01*
X0146418Y0068391D01*
X0146343Y0068336D01*
X0146267Y0068284D01*
X0146188Y0068236D01*
X0146107Y0068191D01*
X0146024Y0068150D01*
X0145940Y0068112D01*
X0145854Y0068078D01*
X0145766Y0068047D01*
X0145678Y0068021D01*
X0145588Y0067998D01*
X0145498Y0067979D01*
X0145406Y0067964D01*
X0145315Y0067953D01*
X0145222Y0067945D01*
X0145130Y0067942D01*
X0145130Y0067998D01*
X0145220Y0068001D01*
X0145310Y0068008D01*
X0145399Y0068019D01*
X0145488Y0068034D01*
X0145576Y0068053D01*
X0145663Y0068075D01*
X0145750Y0068101D01*
X0145835Y0068131D01*
X0145918Y0068164D01*
X0146000Y0068201D01*
X0146081Y0068241D01*
X0146160Y0068285D01*
X0146236Y0068332D01*
X0146311Y0068382D01*
X0146384Y0068435D01*
X0146454Y0068492D01*
X0146521Y0068551D01*
X0146586Y0068614D01*
X0146649Y0068679D01*
X0146708Y0068746D01*
X0146765Y0068816D01*
X0146818Y0068889D01*
X0146868Y0068964D01*
X0146915Y0069040D01*
X0146959Y0069119D01*
X0146999Y0069200D01*
X0147036Y0069282D01*
X0147069Y0069365D01*
X0147099Y0069450D01*
X0147125Y0069537D01*
X0147147Y0069624D01*
X0147166Y0069712D01*
X0147181Y0069801D01*
X0147192Y0069890D01*
X0147199Y0069980D01*
X0147202Y0070070D01*
X0147146Y0070070D01*
X0147143Y0069982D01*
X0147136Y0069895D01*
X0147125Y0069808D01*
X0147111Y0069722D01*
X0147093Y0069636D01*
X0147071Y0069551D01*
X0147046Y0069467D01*
X0147017Y0069385D01*
X0146984Y0069303D01*
X0146949Y0069223D01*
X0146909Y0069145D01*
X0146867Y0069068D01*
X0146821Y0068994D01*
X0146772Y0068921D01*
X0146720Y0068851D01*
X0146665Y0068782D01*
X0146607Y0068717D01*
X0146547Y0068653D01*
X0146483Y0068593D01*
X0146418Y0068535D01*
X0146349Y0068480D01*
X0146279Y0068428D01*
X0146206Y0068379D01*
X0146132Y0068333D01*
X0146055Y0068291D01*
X0145977Y0068251D01*
X0145897Y0068216D01*
X0145815Y0068183D01*
X0145733Y0068154D01*
X0145649Y0068129D01*
X0145564Y0068107D01*
X0145478Y0068089D01*
X0145392Y0068075D01*
X0145305Y0068064D01*
X0145218Y0068057D01*
X0145130Y0068054D01*
X0145130Y0068110D01*
X0145218Y0068113D01*
X0145305Y0068121D01*
X0145392Y0068132D01*
X0145478Y0068146D01*
X0145564Y0068165D01*
X0145648Y0068187D01*
X0145732Y0068213D01*
X0145814Y0068243D01*
X0145895Y0068276D01*
X0145975Y0068313D01*
X0146053Y0068353D01*
X0146129Y0068397D01*
X0146203Y0068443D01*
X0146275Y0068494D01*
X0146344Y0068547D01*
X0146411Y0068603D01*
X0146476Y0068662D01*
X0146538Y0068724D01*
X0146597Y0068789D01*
X0146653Y0068856D01*
X0146706Y0068925D01*
X0146757Y0068997D01*
X0146803Y0069071D01*
X0146847Y0069147D01*
X0146887Y0069225D01*
X0146924Y0069305D01*
X0146957Y0069386D01*
X0146987Y0069468D01*
X0147013Y0069552D01*
X0147035Y0069636D01*
X0147054Y0069722D01*
X0147068Y0069808D01*
X0147079Y0069895D01*
X0147087Y0069982D01*
X0147090Y0070070D01*
X0147034Y0070070D01*
X0147031Y0069985D01*
X0147024Y0069900D01*
X0147013Y0069816D01*
X0146999Y0069732D01*
X0146981Y0069649D01*
X0146959Y0069567D01*
X0146934Y0069485D01*
X0146905Y0069405D01*
X0146873Y0069327D01*
X0146837Y0069249D01*
X0146798Y0069174D01*
X0146755Y0069100D01*
X0146710Y0069028D01*
X0146661Y0068958D01*
X0146609Y0068891D01*
X0146555Y0068826D01*
X0146497Y0068763D01*
X0146437Y0068703D01*
X0146374Y0068645D01*
X0146309Y0068591D01*
X0146242Y0068539D01*
X0146172Y0068490D01*
X0146100Y0068445D01*
X0146026Y0068402D01*
X0145951Y0068363D01*
X0145873Y0068327D01*
X0145795Y0068295D01*
X0145715Y0068266D01*
X0145633Y0068241D01*
X0145551Y0068219D01*
X0145468Y0068201D01*
X0145384Y0068187D01*
X0145300Y0068176D01*
X0145215Y0068169D01*
X0145130Y0068166D01*
X0145130Y0068222D01*
X0145215Y0068226D01*
X0145300Y0068233D01*
X0145384Y0068244D01*
X0145468Y0068258D01*
X0145551Y0068277D01*
X0145633Y0068299D01*
X0145714Y0068325D01*
X0145793Y0068355D01*
X0145871Y0068388D01*
X0145948Y0068424D01*
X0146023Y0068465D01*
X0146096Y0068508D01*
X0146167Y0068555D01*
X0146236Y0068605D01*
X0146302Y0068657D01*
X0146367Y0068713D01*
X0146428Y0068772D01*
X0146487Y0068833D01*
X0146543Y0068898D01*
X0146595Y0068964D01*
X0146645Y0069033D01*
X0146692Y0069104D01*
X0146735Y0069177D01*
X0146776Y0069252D01*
X0146812Y0069329D01*
X0146845Y0069407D01*
X0146875Y0069486D01*
X0146901Y0069567D01*
X0146923Y0069649D01*
X0146942Y0069732D01*
X0146956Y0069816D01*
X0146967Y0069900D01*
X0146974Y0069985D01*
X0146978Y0070070D01*
X0146922Y0070070D01*
X0146919Y0069988D01*
X0146912Y0069906D01*
X0146901Y0069824D01*
X0146887Y0069743D01*
X0146869Y0069662D01*
X0146847Y0069583D01*
X0146822Y0069504D01*
X0146793Y0069427D01*
X0146761Y0069351D01*
X0146725Y0069277D01*
X0146687Y0069204D01*
X0146644Y0069133D01*
X0146599Y0069065D01*
X0146551Y0068998D01*
X0146499Y0068933D01*
X0146445Y0068871D01*
X0146388Y0068812D01*
X0146329Y0068755D01*
X0146267Y0068701D01*
X0146202Y0068649D01*
X0146135Y0068601D01*
X0146067Y0068556D01*
X0145996Y0068513D01*
X0145923Y0068475D01*
X0145849Y0068439D01*
X0145773Y0068407D01*
X0145696Y0068378D01*
X0145617Y0068353D01*
X0145538Y0068331D01*
X0145457Y0068313D01*
X0145376Y0068299D01*
X0145294Y0068288D01*
X0145212Y0068281D01*
X0145130Y0068278D01*
X0145130Y0068334D01*
X0145212Y0068338D01*
X0145294Y0068345D01*
X0145376Y0068356D01*
X0145457Y0068370D01*
X0145537Y0068389D01*
X0145616Y0068411D01*
X0145694Y0068437D01*
X0145771Y0068466D01*
X0145846Y0068499D01*
X0145920Y0068536D01*
X0145992Y0068576D01*
X0146062Y0068619D01*
X0146130Y0068665D01*
X0146195Y0068715D01*
X0146259Y0068767D01*
X0146319Y0068823D01*
X0146377Y0068881D01*
X0146433Y0068941D01*
X0146485Y0069005D01*
X0146535Y0069070D01*
X0146581Y0069138D01*
X0146624Y0069208D01*
X0146664Y0069280D01*
X0146701Y0069354D01*
X0146734Y0069429D01*
X0146763Y0069506D01*
X0146789Y0069584D01*
X0146811Y0069663D01*
X0146830Y0069743D01*
X0146844Y0069824D01*
X0146855Y0069906D01*
X0146862Y0069988D01*
X0146866Y0070070D01*
X0129831Y0070071D02*
X0130371Y0070071D01*
X0130370Y0070070D02*
X0130374Y0069990D01*
X0130381Y0069909D01*
X0130391Y0069830D01*
X0130406Y0069750D01*
X0130424Y0069672D01*
X0130446Y0069594D01*
X0130471Y0069518D01*
X0130500Y0069443D01*
X0130532Y0069369D01*
X0130568Y0069297D01*
X0130607Y0069226D01*
X0130649Y0069158D01*
X0130694Y0069091D01*
X0130743Y0069027D01*
X0130794Y0068965D01*
X0130849Y0068906D01*
X0130906Y0068849D01*
X0130965Y0068794D01*
X0131027Y0068743D01*
X0131091Y0068694D01*
X0131158Y0068649D01*
X0131226Y0068607D01*
X0131297Y0068568D01*
X0131369Y0068532D01*
X0131443Y0068500D01*
X0131518Y0068471D01*
X0131594Y0068446D01*
X0131672Y0068424D01*
X0131750Y0068406D01*
X0131830Y0068391D01*
X0131909Y0068381D01*
X0131990Y0068374D01*
X0132070Y0068370D01*
X0132071Y0067831D01*
X0132070Y0067830D01*
X0131975Y0067833D01*
X0131881Y0067841D01*
X0131787Y0067852D01*
X0131693Y0067867D01*
X0131600Y0067886D01*
X0131508Y0067908D01*
X0131417Y0067935D01*
X0131328Y0067965D01*
X0131239Y0067999D01*
X0131152Y0068037D01*
X0131067Y0068079D01*
X0130984Y0068123D01*
X0130902Y0068172D01*
X0130823Y0068223D01*
X0130746Y0068278D01*
X0130671Y0068336D01*
X0130598Y0068398D01*
X0130529Y0068462D01*
X0130462Y0068529D01*
X0130398Y0068598D01*
X0130336Y0068671D01*
X0130278Y0068746D01*
X0130223Y0068823D01*
X0130172Y0068902D01*
X0130123Y0068984D01*
X0130079Y0069067D01*
X0130037Y0069152D01*
X0129999Y0069239D01*
X0129965Y0069328D01*
X0129935Y0069417D01*
X0129908Y0069508D01*
X0129886Y0069600D01*
X0129867Y0069693D01*
X0129852Y0069787D01*
X0129841Y0069881D01*
X0129833Y0069975D01*
X0129830Y0070070D01*
X0129886Y0070070D01*
X0129889Y0069978D01*
X0129896Y0069886D01*
X0129907Y0069794D01*
X0129922Y0069703D01*
X0129940Y0069612D01*
X0129963Y0069523D01*
X0129989Y0069434D01*
X0130018Y0069346D01*
X0130051Y0069260D01*
X0130088Y0069176D01*
X0130129Y0069092D01*
X0130172Y0069011D01*
X0130219Y0068932D01*
X0130270Y0068854D01*
X0130323Y0068779D01*
X0130380Y0068706D01*
X0130440Y0068635D01*
X0130502Y0068567D01*
X0130567Y0068502D01*
X0130635Y0068440D01*
X0130706Y0068380D01*
X0130779Y0068323D01*
X0130854Y0068270D01*
X0130932Y0068219D01*
X0131011Y0068172D01*
X0131092Y0068129D01*
X0131176Y0068088D01*
X0131260Y0068051D01*
X0131346Y0068018D01*
X0131434Y0067989D01*
X0131523Y0067963D01*
X0131612Y0067940D01*
X0131703Y0067922D01*
X0131794Y0067907D01*
X0131886Y0067896D01*
X0131978Y0067889D01*
X0132070Y0067886D01*
X0132070Y0067942D01*
X0131978Y0067945D01*
X0131885Y0067953D01*
X0131794Y0067964D01*
X0131702Y0067979D01*
X0131612Y0067998D01*
X0131522Y0068021D01*
X0131434Y0068047D01*
X0131346Y0068078D01*
X0131260Y0068112D01*
X0131176Y0068150D01*
X0131093Y0068191D01*
X0131012Y0068236D01*
X0130933Y0068284D01*
X0130857Y0068336D01*
X0130782Y0068391D01*
X0130710Y0068449D01*
X0130641Y0068510D01*
X0130574Y0068574D01*
X0130510Y0068641D01*
X0130449Y0068710D01*
X0130391Y0068782D01*
X0130336Y0068857D01*
X0130284Y0068933D01*
X0130236Y0069012D01*
X0130191Y0069093D01*
X0130150Y0069176D01*
X0130112Y0069260D01*
X0130078Y0069346D01*
X0130047Y0069434D01*
X0130021Y0069522D01*
X0129998Y0069612D01*
X0129979Y0069702D01*
X0129964Y0069794D01*
X0129953Y0069885D01*
X0129945Y0069978D01*
X0129942Y0070070D01*
X0129998Y0070070D01*
X0130001Y0069980D01*
X0130008Y0069890D01*
X0130019Y0069801D01*
X0130034Y0069712D01*
X0130053Y0069624D01*
X0130075Y0069537D01*
X0130101Y0069450D01*
X0130131Y0069365D01*
X0130164Y0069282D01*
X0130201Y0069200D01*
X0130241Y0069119D01*
X0130285Y0069040D01*
X0130332Y0068964D01*
X0130382Y0068889D01*
X0130435Y0068816D01*
X0130492Y0068746D01*
X0130551Y0068679D01*
X0130614Y0068614D01*
X0130679Y0068551D01*
X0130746Y0068492D01*
X0130816Y0068435D01*
X0130889Y0068382D01*
X0130964Y0068332D01*
X0131040Y0068285D01*
X0131119Y0068241D01*
X0131200Y0068201D01*
X0131282Y0068164D01*
X0131365Y0068131D01*
X0131450Y0068101D01*
X0131537Y0068075D01*
X0131624Y0068053D01*
X0131712Y0068034D01*
X0131801Y0068019D01*
X0131890Y0068008D01*
X0131980Y0068001D01*
X0132070Y0067998D01*
X0132070Y0068054D01*
X0131982Y0068057D01*
X0131895Y0068064D01*
X0131808Y0068075D01*
X0131722Y0068089D01*
X0131636Y0068107D01*
X0131551Y0068129D01*
X0131467Y0068154D01*
X0131385Y0068183D01*
X0131303Y0068216D01*
X0131223Y0068251D01*
X0131145Y0068291D01*
X0131068Y0068333D01*
X0130994Y0068379D01*
X0130921Y0068428D01*
X0130851Y0068480D01*
X0130782Y0068535D01*
X0130717Y0068593D01*
X0130653Y0068653D01*
X0130593Y0068717D01*
X0130535Y0068782D01*
X0130480Y0068851D01*
X0130428Y0068921D01*
X0130379Y0068994D01*
X0130333Y0069068D01*
X0130291Y0069145D01*
X0130251Y0069223D01*
X0130216Y0069303D01*
X0130183Y0069385D01*
X0130154Y0069467D01*
X0130129Y0069551D01*
X0130107Y0069636D01*
X0130089Y0069722D01*
X0130075Y0069808D01*
X0130064Y0069895D01*
X0130057Y0069982D01*
X0130054Y0070070D01*
X0130110Y0070070D01*
X0130113Y0069982D01*
X0130121Y0069895D01*
X0130132Y0069808D01*
X0130146Y0069722D01*
X0130165Y0069636D01*
X0130187Y0069552D01*
X0130213Y0069468D01*
X0130243Y0069386D01*
X0130276Y0069305D01*
X0130313Y0069225D01*
X0130353Y0069147D01*
X0130397Y0069071D01*
X0130443Y0068997D01*
X0130494Y0068925D01*
X0130547Y0068856D01*
X0130603Y0068789D01*
X0130662Y0068724D01*
X0130724Y0068662D01*
X0130789Y0068603D01*
X0130856Y0068547D01*
X0130925Y0068494D01*
X0130997Y0068443D01*
X0131071Y0068397D01*
X0131147Y0068353D01*
X0131225Y0068313D01*
X0131305Y0068276D01*
X0131386Y0068243D01*
X0131468Y0068213D01*
X0131552Y0068187D01*
X0131636Y0068165D01*
X0131722Y0068146D01*
X0131808Y0068132D01*
X0131895Y0068121D01*
X0131982Y0068113D01*
X0132070Y0068110D01*
X0132070Y0068166D01*
X0131985Y0068169D01*
X0131900Y0068176D01*
X0131816Y0068187D01*
X0131732Y0068201D01*
X0131649Y0068219D01*
X0131567Y0068241D01*
X0131485Y0068266D01*
X0131405Y0068295D01*
X0131327Y0068327D01*
X0131249Y0068363D01*
X0131174Y0068402D01*
X0131100Y0068445D01*
X0131028Y0068490D01*
X0130958Y0068539D01*
X0130891Y0068591D01*
X0130826Y0068645D01*
X0130763Y0068703D01*
X0130703Y0068763D01*
X0130645Y0068826D01*
X0130591Y0068891D01*
X0130539Y0068958D01*
X0130490Y0069028D01*
X0130445Y0069100D01*
X0130402Y0069174D01*
X0130363Y0069249D01*
X0130327Y0069327D01*
X0130295Y0069405D01*
X0130266Y0069485D01*
X0130241Y0069567D01*
X0130219Y0069649D01*
X0130201Y0069732D01*
X0130187Y0069816D01*
X0130176Y0069900D01*
X0130169Y0069985D01*
X0130166Y0070070D01*
X0130222Y0070070D01*
X0130226Y0069985D01*
X0130233Y0069900D01*
X0130244Y0069816D01*
X0130258Y0069732D01*
X0130277Y0069649D01*
X0130299Y0069567D01*
X0130325Y0069486D01*
X0130355Y0069407D01*
X0130388Y0069329D01*
X0130424Y0069252D01*
X0130465Y0069177D01*
X0130508Y0069104D01*
X0130555Y0069033D01*
X0130605Y0068964D01*
X0130657Y0068898D01*
X0130713Y0068833D01*
X0130772Y0068772D01*
X0130833Y0068713D01*
X0130898Y0068657D01*
X0130964Y0068605D01*
X0131033Y0068555D01*
X0131104Y0068508D01*
X0131177Y0068465D01*
X0131252Y0068424D01*
X0131329Y0068388D01*
X0131407Y0068355D01*
X0131486Y0068325D01*
X0131567Y0068299D01*
X0131649Y0068277D01*
X0131732Y0068258D01*
X0131816Y0068244D01*
X0131900Y0068233D01*
X0131985Y0068226D01*
X0132070Y0068222D01*
X0132070Y0068278D01*
X0131988Y0068281D01*
X0131906Y0068288D01*
X0131824Y0068299D01*
X0131743Y0068313D01*
X0131662Y0068331D01*
X0131583Y0068353D01*
X0131504Y0068378D01*
X0131427Y0068407D01*
X0131351Y0068439D01*
X0131277Y0068475D01*
X0131204Y0068513D01*
X0131133Y0068556D01*
X0131065Y0068601D01*
X0130998Y0068649D01*
X0130933Y0068701D01*
X0130871Y0068755D01*
X0130812Y0068812D01*
X0130755Y0068871D01*
X0130701Y0068933D01*
X0130649Y0068998D01*
X0130601Y0069065D01*
X0130556Y0069133D01*
X0130513Y0069204D01*
X0130475Y0069277D01*
X0130439Y0069351D01*
X0130407Y0069427D01*
X0130378Y0069504D01*
X0130353Y0069583D01*
X0130331Y0069662D01*
X0130313Y0069743D01*
X0130299Y0069824D01*
X0130288Y0069906D01*
X0130281Y0069988D01*
X0130278Y0070070D01*
X0130334Y0070070D01*
X0130338Y0069988D01*
X0130345Y0069906D01*
X0130356Y0069824D01*
X0130370Y0069743D01*
X0130389Y0069663D01*
X0130411Y0069584D01*
X0130437Y0069506D01*
X0130466Y0069429D01*
X0130499Y0069354D01*
X0130536Y0069280D01*
X0130576Y0069208D01*
X0130619Y0069138D01*
X0130665Y0069070D01*
X0130715Y0069005D01*
X0130767Y0068941D01*
X0130823Y0068881D01*
X0130881Y0068823D01*
X0130941Y0068767D01*
X0131005Y0068715D01*
X0131070Y0068665D01*
X0131138Y0068619D01*
X0131208Y0068576D01*
X0131280Y0068536D01*
X0131354Y0068499D01*
X0131429Y0068466D01*
X0131506Y0068437D01*
X0131584Y0068411D01*
X0131663Y0068389D01*
X0131743Y0068370D01*
X0131824Y0068356D01*
X0131906Y0068345D01*
X0131988Y0068338D01*
X0132070Y0068334D01*
X0132071Y0077369D02*
X0132071Y0076829D01*
X0132070Y0076830D02*
X0131990Y0076826D01*
X0131909Y0076819D01*
X0131830Y0076809D01*
X0131750Y0076794D01*
X0131672Y0076776D01*
X0131594Y0076754D01*
X0131518Y0076729D01*
X0131443Y0076700D01*
X0131369Y0076668D01*
X0131297Y0076632D01*
X0131226Y0076593D01*
X0131158Y0076551D01*
X0131091Y0076506D01*
X0131027Y0076457D01*
X0130965Y0076406D01*
X0130906Y0076351D01*
X0130849Y0076294D01*
X0130794Y0076235D01*
X0130743Y0076173D01*
X0130694Y0076109D01*
X0130649Y0076042D01*
X0130607Y0075974D01*
X0130568Y0075903D01*
X0130532Y0075831D01*
X0130500Y0075757D01*
X0130471Y0075682D01*
X0130446Y0075606D01*
X0130424Y0075528D01*
X0130406Y0075450D01*
X0130391Y0075370D01*
X0130381Y0075291D01*
X0130374Y0075210D01*
X0130370Y0075130D01*
X0129831Y0075129D01*
X0129830Y0075130D01*
X0129833Y0075225D01*
X0129841Y0075319D01*
X0129852Y0075413D01*
X0129867Y0075507D01*
X0129886Y0075600D01*
X0129908Y0075692D01*
X0129935Y0075783D01*
X0129965Y0075872D01*
X0129999Y0075961D01*
X0130037Y0076048D01*
X0130079Y0076133D01*
X0130123Y0076216D01*
X0130172Y0076298D01*
X0130223Y0076377D01*
X0130278Y0076454D01*
X0130336Y0076529D01*
X0130398Y0076602D01*
X0130462Y0076671D01*
X0130529Y0076738D01*
X0130598Y0076802D01*
X0130671Y0076864D01*
X0130746Y0076922D01*
X0130823Y0076977D01*
X0130902Y0077028D01*
X0130984Y0077077D01*
X0131067Y0077121D01*
X0131152Y0077163D01*
X0131239Y0077201D01*
X0131328Y0077235D01*
X0131417Y0077265D01*
X0131508Y0077292D01*
X0131600Y0077314D01*
X0131693Y0077333D01*
X0131787Y0077348D01*
X0131881Y0077359D01*
X0131975Y0077367D01*
X0132070Y0077370D01*
X0132070Y0077314D01*
X0131978Y0077311D01*
X0131886Y0077304D01*
X0131794Y0077293D01*
X0131703Y0077278D01*
X0131612Y0077260D01*
X0131523Y0077237D01*
X0131434Y0077211D01*
X0131346Y0077182D01*
X0131260Y0077149D01*
X0131176Y0077112D01*
X0131092Y0077071D01*
X0131011Y0077028D01*
X0130932Y0076981D01*
X0130854Y0076930D01*
X0130779Y0076877D01*
X0130706Y0076820D01*
X0130635Y0076760D01*
X0130567Y0076698D01*
X0130502Y0076633D01*
X0130440Y0076565D01*
X0130380Y0076494D01*
X0130323Y0076421D01*
X0130270Y0076346D01*
X0130219Y0076268D01*
X0130172Y0076189D01*
X0130129Y0076108D01*
X0130088Y0076024D01*
X0130051Y0075940D01*
X0130018Y0075854D01*
X0129989Y0075766D01*
X0129963Y0075677D01*
X0129940Y0075588D01*
X0129922Y0075497D01*
X0129907Y0075406D01*
X0129896Y0075314D01*
X0129889Y0075222D01*
X0129886Y0075130D01*
X0129942Y0075130D01*
X0129945Y0075222D01*
X0129953Y0075315D01*
X0129964Y0075406D01*
X0129979Y0075498D01*
X0129998Y0075588D01*
X0130021Y0075678D01*
X0130047Y0075766D01*
X0130078Y0075854D01*
X0130112Y0075940D01*
X0130150Y0076024D01*
X0130191Y0076107D01*
X0130236Y0076188D01*
X0130284Y0076267D01*
X0130336Y0076343D01*
X0130391Y0076418D01*
X0130449Y0076490D01*
X0130510Y0076559D01*
X0130574Y0076626D01*
X0130641Y0076690D01*
X0130710Y0076751D01*
X0130782Y0076809D01*
X0130857Y0076864D01*
X0130933Y0076916D01*
X0131012Y0076964D01*
X0131093Y0077009D01*
X0131176Y0077050D01*
X0131260Y0077088D01*
X0131346Y0077122D01*
X0131434Y0077153D01*
X0131522Y0077179D01*
X0131612Y0077202D01*
X0131702Y0077221D01*
X0131794Y0077236D01*
X0131885Y0077247D01*
X0131978Y0077255D01*
X0132070Y0077258D01*
X0132070Y0077202D01*
X0131980Y0077199D01*
X0131890Y0077192D01*
X0131801Y0077181D01*
X0131712Y0077166D01*
X0131624Y0077147D01*
X0131537Y0077125D01*
X0131450Y0077099D01*
X0131365Y0077069D01*
X0131282Y0077036D01*
X0131200Y0076999D01*
X0131119Y0076959D01*
X0131040Y0076915D01*
X0130964Y0076868D01*
X0130889Y0076818D01*
X0130816Y0076765D01*
X0130746Y0076708D01*
X0130679Y0076649D01*
X0130614Y0076586D01*
X0130551Y0076521D01*
X0130492Y0076454D01*
X0130435Y0076384D01*
X0130382Y0076311D01*
X0130332Y0076236D01*
X0130285Y0076160D01*
X0130241Y0076081D01*
X0130201Y0076000D01*
X0130164Y0075918D01*
X0130131Y0075835D01*
X0130101Y0075750D01*
X0130075Y0075663D01*
X0130053Y0075576D01*
X0130034Y0075488D01*
X0130019Y0075399D01*
X0130008Y0075310D01*
X0130001Y0075220D01*
X0129998Y0075130D01*
X0130054Y0075130D01*
X0130057Y0075218D01*
X0130064Y0075305D01*
X0130075Y0075392D01*
X0130089Y0075478D01*
X0130107Y0075564D01*
X0130129Y0075649D01*
X0130154Y0075733D01*
X0130183Y0075815D01*
X0130216Y0075897D01*
X0130251Y0075977D01*
X0130291Y0076055D01*
X0130333Y0076132D01*
X0130379Y0076206D01*
X0130428Y0076279D01*
X0130480Y0076349D01*
X0130535Y0076418D01*
X0130593Y0076483D01*
X0130653Y0076547D01*
X0130717Y0076607D01*
X0130782Y0076665D01*
X0130851Y0076720D01*
X0130921Y0076772D01*
X0130994Y0076821D01*
X0131068Y0076867D01*
X0131145Y0076909D01*
X0131223Y0076949D01*
X0131303Y0076984D01*
X0131385Y0077017D01*
X0131467Y0077046D01*
X0131551Y0077071D01*
X0131636Y0077093D01*
X0131722Y0077111D01*
X0131808Y0077125D01*
X0131895Y0077136D01*
X0131982Y0077143D01*
X0132070Y0077146D01*
X0132070Y0077090D01*
X0131982Y0077087D01*
X0131895Y0077079D01*
X0131808Y0077068D01*
X0131722Y0077054D01*
X0131636Y0077035D01*
X0131552Y0077013D01*
X0131468Y0076987D01*
X0131386Y0076957D01*
X0131305Y0076924D01*
X0131225Y0076887D01*
X0131147Y0076847D01*
X0131071Y0076803D01*
X0130997Y0076757D01*
X0130925Y0076706D01*
X0130856Y0076653D01*
X0130789Y0076597D01*
X0130724Y0076538D01*
X0130662Y0076476D01*
X0130603Y0076411D01*
X0130547Y0076344D01*
X0130494Y0076275D01*
X0130443Y0076203D01*
X0130397Y0076129D01*
X0130353Y0076053D01*
X0130313Y0075975D01*
X0130276Y0075895D01*
X0130243Y0075814D01*
X0130213Y0075732D01*
X0130187Y0075648D01*
X0130165Y0075564D01*
X0130146Y0075478D01*
X0130132Y0075392D01*
X0130121Y0075305D01*
X0130113Y0075218D01*
X0130110Y0075130D01*
X0130166Y0075130D01*
X0130169Y0075215D01*
X0130176Y0075300D01*
X0130187Y0075384D01*
X0130201Y0075468D01*
X0130219Y0075551D01*
X0130241Y0075633D01*
X0130266Y0075715D01*
X0130295Y0075795D01*
X0130327Y0075873D01*
X0130363Y0075951D01*
X0130402Y0076026D01*
X0130445Y0076100D01*
X0130490Y0076172D01*
X0130539Y0076242D01*
X0130591Y0076309D01*
X0130645Y0076374D01*
X0130703Y0076437D01*
X0130763Y0076497D01*
X0130826Y0076555D01*
X0130891Y0076609D01*
X0130958Y0076661D01*
X0131028Y0076710D01*
X0131100Y0076755D01*
X0131174Y0076798D01*
X0131249Y0076837D01*
X0131327Y0076873D01*
X0131405Y0076905D01*
X0131485Y0076934D01*
X0131567Y0076959D01*
X0131649Y0076981D01*
X0131732Y0076999D01*
X0131816Y0077013D01*
X0131900Y0077024D01*
X0131985Y0077031D01*
X0132070Y0077034D01*
X0132070Y0076978D01*
X0131985Y0076974D01*
X0131900Y0076967D01*
X0131816Y0076956D01*
X0131732Y0076942D01*
X0131649Y0076923D01*
X0131567Y0076901D01*
X0131486Y0076875D01*
X0131407Y0076845D01*
X0131329Y0076812D01*
X0131252Y0076776D01*
X0131177Y0076735D01*
X0131104Y0076692D01*
X0131033Y0076645D01*
X0130964Y0076595D01*
X0130898Y0076543D01*
X0130833Y0076487D01*
X0130772Y0076428D01*
X0130713Y0076367D01*
X0130657Y0076302D01*
X0130605Y0076236D01*
X0130555Y0076167D01*
X0130508Y0076096D01*
X0130465Y0076023D01*
X0130424Y0075948D01*
X0130388Y0075871D01*
X0130355Y0075793D01*
X0130325Y0075714D01*
X0130299Y0075633D01*
X0130277Y0075551D01*
X0130258Y0075468D01*
X0130244Y0075384D01*
X0130233Y0075300D01*
X0130226Y0075215D01*
X0130222Y0075130D01*
X0130278Y0075130D01*
X0130281Y0075212D01*
X0130288Y0075294D01*
X0130299Y0075376D01*
X0130313Y0075457D01*
X0130331Y0075538D01*
X0130353Y0075617D01*
X0130378Y0075696D01*
X0130407Y0075773D01*
X0130439Y0075849D01*
X0130475Y0075923D01*
X0130513Y0075996D01*
X0130556Y0076067D01*
X0130601Y0076135D01*
X0130649Y0076202D01*
X0130701Y0076267D01*
X0130755Y0076329D01*
X0130812Y0076388D01*
X0130871Y0076445D01*
X0130933Y0076499D01*
X0130998Y0076551D01*
X0131065Y0076599D01*
X0131133Y0076644D01*
X0131204Y0076687D01*
X0131277Y0076725D01*
X0131351Y0076761D01*
X0131427Y0076793D01*
X0131504Y0076822D01*
X0131583Y0076847D01*
X0131662Y0076869D01*
X0131743Y0076887D01*
X0131824Y0076901D01*
X0131906Y0076912D01*
X0131988Y0076919D01*
X0132070Y0076922D01*
X0132070Y0076866D01*
X0131988Y0076862D01*
X0131906Y0076855D01*
X0131824Y0076844D01*
X0131743Y0076830D01*
X0131663Y0076811D01*
X0131584Y0076789D01*
X0131506Y0076763D01*
X0131429Y0076734D01*
X0131354Y0076701D01*
X0131280Y0076664D01*
X0131208Y0076624D01*
X0131138Y0076581D01*
X0131070Y0076535D01*
X0131005Y0076485D01*
X0130941Y0076433D01*
X0130881Y0076377D01*
X0130823Y0076319D01*
X0130767Y0076259D01*
X0130715Y0076195D01*
X0130665Y0076130D01*
X0130619Y0076062D01*
X0130576Y0075992D01*
X0130536Y0075920D01*
X0130499Y0075846D01*
X0130466Y0075771D01*
X0130437Y0075694D01*
X0130411Y0075616D01*
X0130389Y0075537D01*
X0130370Y0075457D01*
X0130356Y0075376D01*
X0130345Y0075294D01*
X0130338Y0075212D01*
X0130334Y0075130D01*
D13*
X0137400Y0075600D02*
X0137400Y0072600D01*
X0137400Y0069600D01*
X0139900Y0069600D02*
X0139900Y0072600D01*
X0139900Y0075600D01*
D14*
X0166100Y0113100D02*
X0166100Y0132100D01*
X0219100Y0132100D02*
X0219100Y0113100D01*
D15*
X0226750Y0122600D03*
X0158450Y0122600D03*
D16*
X0160100Y0092600D02*
X0160100Y0017600D01*
X0235100Y0017600D01*
X0235100Y0082600D01*
X0232600Y0080100D01*
X0227600Y0080100D01*
X0225100Y0082600D01*
X0225100Y0087600D01*
X0227600Y0090100D01*
X0232600Y0090100D01*
X0235100Y0087600D01*
X0235100Y0092600D01*
X0160100Y0092600D01*
X0235100Y0087600D02*
X0235100Y0082600D01*
X0210100Y0027600D02*
X0205100Y0027600D01*
X0202600Y0025100D01*
X0200100Y0027600D01*
X0195100Y0027600D01*
X0192600Y0025100D01*
X0190100Y0027600D01*
X0185100Y0027600D01*
X0182600Y0025100D01*
X0182600Y0020100D01*
X0185100Y0017600D01*
X0190100Y0017600D02*
X0192600Y0020100D01*
X0195100Y0017600D01*
X0200100Y0017600D02*
X0202600Y0020100D01*
X0205100Y0017600D01*
X0210100Y0017600D02*
X0212600Y0020100D01*
X0212600Y0025100D01*
X0210100Y0027600D01*
X0058600Y0030100D02*
X0058600Y0005100D01*
X0038600Y0005100D01*
X0038600Y0030100D01*
X0058600Y0030100D01*
X0032600Y0042600D02*
X0030100Y0042600D01*
X0030100Y0092600D01*
X0032600Y0092600D01*
X0032600Y0042600D01*
X0030100Y0042600D02*
X0008600Y0042600D01*
X0008600Y0055100D01*
X0015100Y0055100D01*
X0015100Y0060100D01*
X0008600Y0060100D01*
X0008600Y0065100D01*
X0015100Y0065100D01*
X0015100Y0070100D01*
X0008600Y0070100D01*
X0008600Y0075100D01*
X0015100Y0075100D01*
X0015100Y0080100D01*
X0008600Y0080100D01*
X0008600Y0092600D01*
X0030100Y0092600D01*
X0030474Y0104631D02*
X0030474Y0108569D01*
X0030472Y0108759D01*
X0030465Y0108949D01*
X0030453Y0109139D01*
X0030437Y0109329D01*
X0030417Y0109518D01*
X0030391Y0109707D01*
X0030362Y0109895D01*
X0030327Y0110082D01*
X0030288Y0110268D01*
X0030245Y0110453D01*
X0030197Y0110638D01*
X0030145Y0110821D01*
X0030089Y0111002D01*
X0030028Y0111182D01*
X0029962Y0111361D01*
X0029893Y0111538D01*
X0029819Y0111714D01*
X0029741Y0111887D01*
X0029658Y0112059D01*
X0029572Y0112228D01*
X0029482Y0112396D01*
X0029387Y0112561D01*
X0029289Y0112724D01*
X0029186Y0112884D01*
X0029080Y0113042D01*
X0028970Y0113197D01*
X0028857Y0113350D01*
X0028739Y0113500D01*
X0028618Y0113646D01*
X0028494Y0113790D01*
X0028366Y0113931D01*
X0028235Y0114069D01*
X0028100Y0114204D01*
X0027962Y0114335D01*
X0027821Y0114463D01*
X0027677Y0114587D01*
X0027531Y0114708D01*
X0027381Y0114826D01*
X0027228Y0114939D01*
X0027073Y0115049D01*
X0026915Y0115155D01*
X0026755Y0115258D01*
X0026592Y0115356D01*
X0026427Y0115451D01*
X0026259Y0115541D01*
X0026090Y0115627D01*
X0025918Y0115710D01*
X0025745Y0115788D01*
X0025569Y0115862D01*
X0025392Y0115931D01*
X0025213Y0115997D01*
X0025033Y0116058D01*
X0024852Y0116114D01*
X0024669Y0116166D01*
X0024484Y0116214D01*
X0024299Y0116257D01*
X0024113Y0116296D01*
X0023926Y0116331D01*
X0023738Y0116360D01*
X0023549Y0116386D01*
X0023360Y0116406D01*
X0023170Y0116422D01*
X0022980Y0116434D01*
X0022790Y0116441D01*
X0022600Y0116443D01*
X0022410Y0116441D01*
X0022220Y0116434D01*
X0022030Y0116422D01*
X0021840Y0116406D01*
X0021651Y0116386D01*
X0021462Y0116360D01*
X0021274Y0116331D01*
X0021087Y0116296D01*
X0020901Y0116257D01*
X0020716Y0116214D01*
X0020531Y0116166D01*
X0020348Y0116114D01*
X0020167Y0116058D01*
X0019987Y0115997D01*
X0019808Y0115931D01*
X0019631Y0115862D01*
X0019455Y0115788D01*
X0019282Y0115710D01*
X0019110Y0115627D01*
X0018941Y0115541D01*
X0018773Y0115451D01*
X0018608Y0115356D01*
X0018445Y0115258D01*
X0018285Y0115155D01*
X0018127Y0115049D01*
X0017972Y0114939D01*
X0017819Y0114826D01*
X0017669Y0114708D01*
X0017523Y0114587D01*
X0017379Y0114463D01*
X0017238Y0114335D01*
X0017100Y0114204D01*
X0016965Y0114069D01*
X0016834Y0113931D01*
X0016706Y0113790D01*
X0016582Y0113646D01*
X0016461Y0113500D01*
X0016343Y0113350D01*
X0016230Y0113197D01*
X0016120Y0113042D01*
X0016014Y0112884D01*
X0015911Y0112724D01*
X0015813Y0112561D01*
X0015718Y0112396D01*
X0015628Y0112228D01*
X0015542Y0112059D01*
X0015459Y0111887D01*
X0015381Y0111714D01*
X0015307Y0111538D01*
X0015238Y0111361D01*
X0015172Y0111182D01*
X0015111Y0111002D01*
X0015055Y0110821D01*
X0015003Y0110638D01*
X0014955Y0110453D01*
X0014912Y0110268D01*
X0014873Y0110082D01*
X0014838Y0109895D01*
X0014809Y0109707D01*
X0014783Y0109518D01*
X0014763Y0109329D01*
X0014747Y0109139D01*
X0014735Y0108949D01*
X0014728Y0108759D01*
X0014726Y0108569D01*
X0014726Y0104631D01*
X0014728Y0104441D01*
X0014735Y0104251D01*
X0014747Y0104061D01*
X0014763Y0103871D01*
X0014783Y0103682D01*
X0014809Y0103493D01*
X0014838Y0103305D01*
X0014873Y0103118D01*
X0014912Y0102932D01*
X0014955Y0102747D01*
X0015003Y0102562D01*
X0015055Y0102379D01*
X0015111Y0102198D01*
X0015172Y0102018D01*
X0015238Y0101839D01*
X0015307Y0101662D01*
X0015381Y0101486D01*
X0015459Y0101313D01*
X0015542Y0101141D01*
X0015628Y0100972D01*
X0015718Y0100804D01*
X0015813Y0100639D01*
X0015911Y0100476D01*
X0016014Y0100316D01*
X0016120Y0100158D01*
X0016230Y0100003D01*
X0016343Y0099850D01*
X0016461Y0099700D01*
X0016582Y0099554D01*
X0016706Y0099410D01*
X0016834Y0099269D01*
X0016965Y0099131D01*
X0017100Y0098996D01*
X0017238Y0098865D01*
X0017379Y0098737D01*
X0017523Y0098613D01*
X0017669Y0098492D01*
X0017819Y0098374D01*
X0017972Y0098261D01*
X0018127Y0098151D01*
X0018285Y0098045D01*
X0018445Y0097942D01*
X0018608Y0097844D01*
X0018773Y0097749D01*
X0018941Y0097659D01*
X0019110Y0097573D01*
X0019282Y0097490D01*
X0019455Y0097412D01*
X0019631Y0097338D01*
X0019808Y0097269D01*
X0019987Y0097203D01*
X0020167Y0097142D01*
X0020348Y0097086D01*
X0020531Y0097034D01*
X0020716Y0096986D01*
X0020901Y0096943D01*
X0021087Y0096904D01*
X0021274Y0096869D01*
X0021462Y0096840D01*
X0021651Y0096814D01*
X0021840Y0096794D01*
X0022030Y0096778D01*
X0022220Y0096766D01*
X0022410Y0096759D01*
X0022600Y0096757D01*
X0022790Y0096759D01*
X0022980Y0096766D01*
X0023170Y0096778D01*
X0023360Y0096794D01*
X0023549Y0096814D01*
X0023738Y0096840D01*
X0023926Y0096869D01*
X0024113Y0096904D01*
X0024299Y0096943D01*
X0024484Y0096986D01*
X0024669Y0097034D01*
X0024852Y0097086D01*
X0025033Y0097142D01*
X0025213Y0097203D01*
X0025392Y0097269D01*
X0025569Y0097338D01*
X0025745Y0097412D01*
X0025918Y0097490D01*
X0026090Y0097573D01*
X0026259Y0097659D01*
X0026427Y0097749D01*
X0026592Y0097844D01*
X0026755Y0097942D01*
X0026915Y0098045D01*
X0027073Y0098151D01*
X0027228Y0098261D01*
X0027381Y0098374D01*
X0027531Y0098492D01*
X0027677Y0098613D01*
X0027821Y0098737D01*
X0027962Y0098865D01*
X0028100Y0098996D01*
X0028235Y0099131D01*
X0028366Y0099269D01*
X0028494Y0099410D01*
X0028618Y0099554D01*
X0028739Y0099700D01*
X0028857Y0099850D01*
X0028970Y0100003D01*
X0029080Y0100158D01*
X0029186Y0100316D01*
X0029289Y0100476D01*
X0029387Y0100639D01*
X0029482Y0100804D01*
X0029572Y0100972D01*
X0029658Y0101141D01*
X0029741Y0101313D01*
X0029819Y0101486D01*
X0029893Y0101662D01*
X0029962Y0101839D01*
X0030028Y0102018D01*
X0030089Y0102198D01*
X0030145Y0102379D01*
X0030197Y0102562D01*
X0030245Y0102747D01*
X0030288Y0102932D01*
X0030327Y0103118D01*
X0030362Y0103305D01*
X0030391Y0103493D01*
X0030417Y0103682D01*
X0030437Y0103871D01*
X0030453Y0104061D01*
X0030465Y0104251D01*
X0030472Y0104441D01*
X0030474Y0104631D01*
X0008600Y0080100D02*
X0008600Y0075100D01*
X0008600Y0070100D02*
X0008600Y0065100D01*
X0008600Y0060100D02*
X0008600Y0055100D01*
D17*
X0016999Y0040387D02*
X0017807Y0040387D01*
X0017403Y0040387D02*
X0017403Y0036750D01*
X0016999Y0036750D02*
X0017807Y0036750D01*
X0019218Y0037558D02*
X0019218Y0039579D01*
X0019220Y0039634D01*
X0019226Y0039689D01*
X0019235Y0039743D01*
X0019248Y0039797D01*
X0019265Y0039850D01*
X0019285Y0039901D01*
X0019309Y0039951D01*
X0019336Y0039999D01*
X0019366Y0040045D01*
X0019399Y0040089D01*
X0019435Y0040130D01*
X0019474Y0040170D01*
X0019516Y0040206D01*
X0019560Y0040239D01*
X0019606Y0040269D01*
X0019654Y0040296D01*
X0019704Y0040320D01*
X0019755Y0040340D01*
X0019808Y0040357D01*
X0019862Y0040370D01*
X0019916Y0040379D01*
X0019971Y0040385D01*
X0020026Y0040387D01*
X0020834Y0040387D01*
X0023898Y0038771D02*
X0023941Y0038814D01*
X0023980Y0038860D01*
X0024017Y0038908D01*
X0024051Y0038959D01*
X0024082Y0039011D01*
X0024110Y0039065D01*
X0024134Y0039121D01*
X0024154Y0039179D01*
X0024171Y0039237D01*
X0024184Y0039296D01*
X0024193Y0039357D01*
X0024199Y0039417D01*
X0024201Y0039478D01*
X0023898Y0038771D02*
X0022180Y0036750D01*
X0024201Y0036750D01*
X0020834Y0036750D02*
X0020026Y0036750D01*
X0019971Y0036752D01*
X0019916Y0036758D01*
X0019862Y0036767D01*
X0019808Y0036780D01*
X0019755Y0036797D01*
X0019704Y0036817D01*
X0019654Y0036841D01*
X0019606Y0036868D01*
X0019560Y0036898D01*
X0019516Y0036931D01*
X0019474Y0036967D01*
X0019435Y0037006D01*
X0019399Y0037048D01*
X0019366Y0037092D01*
X0019336Y0037138D01*
X0019309Y0037186D01*
X0019285Y0037236D01*
X0019265Y0037287D01*
X0019248Y0037340D01*
X0019235Y0037394D01*
X0019226Y0037448D01*
X0019220Y0037503D01*
X0019218Y0037558D01*
X0022181Y0039579D02*
X0022203Y0039642D01*
X0022229Y0039703D01*
X0022259Y0039763D01*
X0022291Y0039821D01*
X0022327Y0039878D01*
X0022367Y0039932D01*
X0022409Y0039983D01*
X0022454Y0040033D01*
X0022502Y0040079D01*
X0022552Y0040123D01*
X0022605Y0040164D01*
X0022660Y0040201D01*
X0022717Y0040236D01*
X0022776Y0040267D01*
X0022837Y0040295D01*
X0022899Y0040319D01*
X0022963Y0040340D01*
X0023027Y0040357D01*
X0023093Y0040370D01*
X0023159Y0040379D01*
X0023225Y0040385D01*
X0023292Y0040387D01*
X0023351Y0040385D01*
X0023411Y0040379D01*
X0023469Y0040370D01*
X0023527Y0040356D01*
X0023584Y0040339D01*
X0023640Y0040318D01*
X0023694Y0040293D01*
X0023747Y0040265D01*
X0023797Y0040234D01*
X0023845Y0040199D01*
X0023891Y0040161D01*
X0023935Y0040121D01*
X0023975Y0040077D01*
X0024013Y0040031D01*
X0024048Y0039983D01*
X0024079Y0039933D01*
X0024107Y0039880D01*
X0024132Y0039826D01*
X0024153Y0039770D01*
X0024170Y0039713D01*
X0024184Y0039655D01*
X0024193Y0039597D01*
X0024199Y0039537D01*
X0024201Y0039478D01*
X0040000Y0035579D02*
X0040000Y0033558D01*
X0040002Y0033503D01*
X0040008Y0033448D01*
X0040017Y0033394D01*
X0040030Y0033340D01*
X0040047Y0033287D01*
X0040067Y0033236D01*
X0040091Y0033186D01*
X0040118Y0033138D01*
X0040148Y0033092D01*
X0040181Y0033048D01*
X0040217Y0033006D01*
X0040256Y0032967D01*
X0040298Y0032931D01*
X0040342Y0032898D01*
X0040388Y0032868D01*
X0040436Y0032841D01*
X0040486Y0032817D01*
X0040537Y0032797D01*
X0040590Y0032780D01*
X0040644Y0032767D01*
X0040698Y0032758D01*
X0040753Y0032752D01*
X0040808Y0032750D01*
X0041616Y0032750D01*
X0042963Y0033760D02*
X0042963Y0035377D01*
X0042965Y0035439D01*
X0042971Y0035501D01*
X0042980Y0035563D01*
X0042994Y0035623D01*
X0043011Y0035683D01*
X0043031Y0035742D01*
X0043055Y0035799D01*
X0043083Y0035855D01*
X0043114Y0035909D01*
X0043149Y0035961D01*
X0043186Y0036010D01*
X0043227Y0036057D01*
X0043270Y0036102D01*
X0043316Y0036144D01*
X0043364Y0036183D01*
X0043415Y0036219D01*
X0043468Y0036252D01*
X0043523Y0036281D01*
X0043579Y0036307D01*
X0043637Y0036330D01*
X0043697Y0036348D01*
X0043757Y0036364D01*
X0043818Y0036375D01*
X0043880Y0036383D01*
X0043942Y0036387D01*
X0044004Y0036387D01*
X0044066Y0036383D01*
X0044128Y0036375D01*
X0044189Y0036364D01*
X0044249Y0036348D01*
X0044309Y0036330D01*
X0044367Y0036307D01*
X0044423Y0036281D01*
X0044478Y0036252D01*
X0044531Y0036219D01*
X0044582Y0036183D01*
X0044630Y0036144D01*
X0044676Y0036102D01*
X0044719Y0036057D01*
X0044760Y0036010D01*
X0044797Y0035961D01*
X0044832Y0035909D01*
X0044863Y0035855D01*
X0044891Y0035799D01*
X0044915Y0035742D01*
X0044935Y0035683D01*
X0044952Y0035623D01*
X0044966Y0035563D01*
X0044975Y0035501D01*
X0044981Y0035439D01*
X0044983Y0035377D01*
X0044983Y0033760D01*
X0044981Y0033698D01*
X0044975Y0033636D01*
X0044966Y0033574D01*
X0044952Y0033514D01*
X0044935Y0033454D01*
X0044915Y0033395D01*
X0044891Y0033338D01*
X0044863Y0033282D01*
X0044832Y0033228D01*
X0044797Y0033176D01*
X0044760Y0033127D01*
X0044719Y0033080D01*
X0044676Y0033035D01*
X0044630Y0032993D01*
X0044582Y0032954D01*
X0044531Y0032918D01*
X0044478Y0032885D01*
X0044423Y0032856D01*
X0044367Y0032830D01*
X0044309Y0032807D01*
X0044249Y0032789D01*
X0044189Y0032773D01*
X0044128Y0032762D01*
X0044066Y0032754D01*
X0044004Y0032750D01*
X0043942Y0032750D01*
X0043880Y0032754D01*
X0043818Y0032762D01*
X0043757Y0032773D01*
X0043697Y0032789D01*
X0043637Y0032807D01*
X0043579Y0032830D01*
X0043523Y0032856D01*
X0043468Y0032885D01*
X0043415Y0032918D01*
X0043364Y0032954D01*
X0043316Y0032993D01*
X0043270Y0033035D01*
X0043227Y0033080D01*
X0043186Y0033127D01*
X0043149Y0033176D01*
X0043114Y0033228D01*
X0043083Y0033282D01*
X0043055Y0033338D01*
X0043031Y0033395D01*
X0043011Y0033454D01*
X0042994Y0033514D01*
X0042980Y0033574D01*
X0042971Y0033636D01*
X0042965Y0033698D01*
X0042963Y0033760D01*
X0040808Y0036387D02*
X0040753Y0036385D01*
X0040698Y0036379D01*
X0040644Y0036370D01*
X0040590Y0036357D01*
X0040537Y0036340D01*
X0040486Y0036320D01*
X0040436Y0036296D01*
X0040388Y0036269D01*
X0040342Y0036239D01*
X0040298Y0036206D01*
X0040256Y0036170D01*
X0040217Y0036130D01*
X0040181Y0036089D01*
X0040148Y0036045D01*
X0040118Y0035999D01*
X0040091Y0035951D01*
X0040067Y0035901D01*
X0040047Y0035850D01*
X0040030Y0035797D01*
X0040017Y0035743D01*
X0040008Y0035689D01*
X0040002Y0035634D01*
X0040000Y0035579D01*
X0040808Y0036387D02*
X0041616Y0036387D01*
X0046624Y0036387D02*
X0046624Y0032750D01*
X0048645Y0032750D02*
X0048645Y0036387D01*
X0050404Y0036387D02*
X0052424Y0032750D01*
X0052424Y0036387D01*
X0054065Y0035579D02*
X0055075Y0036387D01*
X0055075Y0032750D01*
X0054065Y0032750D02*
X0056086Y0032750D01*
X0050404Y0032750D02*
X0050404Y0036387D01*
X0046624Y0036387D02*
X0048645Y0032750D01*
X0150540Y0086750D02*
X0150540Y0090387D01*
X0151752Y0088366D01*
X0152965Y0090387D01*
X0152965Y0086750D01*
X0154640Y0086750D02*
X0156660Y0086750D01*
X0155650Y0086750D02*
X0155650Y0090387D01*
X0154640Y0089579D01*
D18*
X0027624Y0118950D02*
X0026905Y0120389D01*
X0026725Y0120389D02*
X0025826Y0120389D01*
X0026725Y0120389D02*
X0026784Y0120391D01*
X0026842Y0120397D01*
X0026900Y0120406D01*
X0026958Y0120420D01*
X0027014Y0120437D01*
X0027069Y0120457D01*
X0027123Y0120482D01*
X0027175Y0120509D01*
X0027224Y0120541D01*
X0027272Y0120575D01*
X0027318Y0120612D01*
X0027361Y0120652D01*
X0027401Y0120695D01*
X0027438Y0120741D01*
X0027472Y0120789D01*
X0027504Y0120839D01*
X0027531Y0120890D01*
X0027556Y0120944D01*
X0027576Y0120999D01*
X0027593Y0121055D01*
X0027607Y0121113D01*
X0027616Y0121171D01*
X0027622Y0121229D01*
X0027624Y0121288D01*
X0027622Y0121347D01*
X0027616Y0121405D01*
X0027607Y0121463D01*
X0027593Y0121521D01*
X0027576Y0121577D01*
X0027556Y0121632D01*
X0027531Y0121686D01*
X0027504Y0121738D01*
X0027472Y0121787D01*
X0027438Y0121835D01*
X0027401Y0121881D01*
X0027361Y0121924D01*
X0027318Y0121964D01*
X0027272Y0122001D01*
X0027224Y0122035D01*
X0027174Y0122067D01*
X0027123Y0122094D01*
X0027069Y0122119D01*
X0027014Y0122139D01*
X0026958Y0122156D01*
X0026900Y0122170D01*
X0026842Y0122179D01*
X0026784Y0122185D01*
X0026725Y0122187D01*
X0025826Y0122187D01*
X0025826Y0118950D01*
X0023808Y0119849D02*
X0023808Y0121288D01*
X0023806Y0121347D01*
X0023800Y0121405D01*
X0023791Y0121463D01*
X0023777Y0121521D01*
X0023760Y0121577D01*
X0023740Y0121632D01*
X0023715Y0121686D01*
X0023688Y0121738D01*
X0023656Y0121787D01*
X0023622Y0121835D01*
X0023585Y0121881D01*
X0023545Y0121924D01*
X0023502Y0121964D01*
X0023456Y0122001D01*
X0023408Y0122035D01*
X0023359Y0122067D01*
X0023307Y0122094D01*
X0023253Y0122119D01*
X0023198Y0122139D01*
X0023142Y0122156D01*
X0023084Y0122170D01*
X0023026Y0122179D01*
X0022968Y0122185D01*
X0022909Y0122187D01*
X0022010Y0122187D01*
X0022010Y0118950D01*
X0022909Y0118950D01*
X0022968Y0118952D01*
X0023026Y0118958D01*
X0023084Y0118967D01*
X0023142Y0118981D01*
X0023198Y0118998D01*
X0023253Y0119018D01*
X0023307Y0119043D01*
X0023359Y0119070D01*
X0023408Y0119102D01*
X0023456Y0119136D01*
X0023502Y0119173D01*
X0023545Y0119213D01*
X0023585Y0119256D01*
X0023622Y0119302D01*
X0023656Y0119350D01*
X0023688Y0119400D01*
X0023715Y0119451D01*
X0023740Y0119505D01*
X0023760Y0119560D01*
X0023777Y0119616D01*
X0023791Y0119674D01*
X0023800Y0119732D01*
X0023806Y0119790D01*
X0023808Y0119849D01*
X0020389Y0118950D02*
X0018950Y0118950D01*
X0018950Y0122187D01*
D19*
X0028400Y0127600D03*
X0056800Y0127600D03*
D20*
X0042600Y0106800D03*
X0042600Y0078400D03*
D21*
X0048600Y0007600D03*
D22*
X0013301Y0018600D02*
X0013303Y0018758D01*
X0013309Y0018916D01*
X0013319Y0019074D01*
X0013333Y0019232D01*
X0013351Y0019389D01*
X0013372Y0019546D01*
X0013398Y0019702D01*
X0013428Y0019858D01*
X0013461Y0020013D01*
X0013499Y0020166D01*
X0013540Y0020319D01*
X0013585Y0020471D01*
X0013634Y0020622D01*
X0013687Y0020771D01*
X0013743Y0020919D01*
X0013803Y0021065D01*
X0013867Y0021210D01*
X0013935Y0021353D01*
X0014006Y0021495D01*
X0014080Y0021635D01*
X0014158Y0021772D01*
X0014240Y0021908D01*
X0014324Y0022042D01*
X0014413Y0022173D01*
X0014504Y0022302D01*
X0014599Y0022429D01*
X0014696Y0022554D01*
X0014797Y0022676D01*
X0014901Y0022795D01*
X0015008Y0022912D01*
X0015118Y0023026D01*
X0015231Y0023137D01*
X0015346Y0023246D01*
X0015464Y0023351D01*
X0015585Y0023453D01*
X0015708Y0023553D01*
X0015834Y0023649D01*
X0015962Y0023742D01*
X0016092Y0023832D01*
X0016225Y0023918D01*
X0016360Y0024002D01*
X0016496Y0024081D01*
X0016635Y0024158D01*
X0016776Y0024230D01*
X0016918Y0024300D01*
X0017062Y0024365D01*
X0017208Y0024427D01*
X0017355Y0024485D01*
X0017504Y0024540D01*
X0017654Y0024591D01*
X0017805Y0024638D01*
X0017957Y0024681D01*
X0018110Y0024720D01*
X0018265Y0024756D01*
X0018420Y0024787D01*
X0018576Y0024815D01*
X0018732Y0024839D01*
X0018889Y0024859D01*
X0019047Y0024875D01*
X0019204Y0024887D01*
X0019363Y0024895D01*
X0019521Y0024899D01*
X0019679Y0024899D01*
X0019837Y0024895D01*
X0019996Y0024887D01*
X0020153Y0024875D01*
X0020311Y0024859D01*
X0020468Y0024839D01*
X0020624Y0024815D01*
X0020780Y0024787D01*
X0020935Y0024756D01*
X0021090Y0024720D01*
X0021243Y0024681D01*
X0021395Y0024638D01*
X0021546Y0024591D01*
X0021696Y0024540D01*
X0021845Y0024485D01*
X0021992Y0024427D01*
X0022138Y0024365D01*
X0022282Y0024300D01*
X0022424Y0024230D01*
X0022565Y0024158D01*
X0022704Y0024081D01*
X0022840Y0024002D01*
X0022975Y0023918D01*
X0023108Y0023832D01*
X0023238Y0023742D01*
X0023366Y0023649D01*
X0023492Y0023553D01*
X0023615Y0023453D01*
X0023736Y0023351D01*
X0023854Y0023246D01*
X0023969Y0023137D01*
X0024082Y0023026D01*
X0024192Y0022912D01*
X0024299Y0022795D01*
X0024403Y0022676D01*
X0024504Y0022554D01*
X0024601Y0022429D01*
X0024696Y0022302D01*
X0024787Y0022173D01*
X0024876Y0022042D01*
X0024960Y0021908D01*
X0025042Y0021772D01*
X0025120Y0021635D01*
X0025194Y0021495D01*
X0025265Y0021353D01*
X0025333Y0021210D01*
X0025397Y0021065D01*
X0025457Y0020919D01*
X0025513Y0020771D01*
X0025566Y0020622D01*
X0025615Y0020471D01*
X0025660Y0020319D01*
X0025701Y0020166D01*
X0025739Y0020013D01*
X0025772Y0019858D01*
X0025802Y0019702D01*
X0025828Y0019546D01*
X0025849Y0019389D01*
X0025867Y0019232D01*
X0025881Y0019074D01*
X0025891Y0018916D01*
X0025897Y0018758D01*
X0025899Y0018600D01*
X0025897Y0018442D01*
X0025891Y0018284D01*
X0025881Y0018126D01*
X0025867Y0017968D01*
X0025849Y0017811D01*
X0025828Y0017654D01*
X0025802Y0017498D01*
X0025772Y0017342D01*
X0025739Y0017187D01*
X0025701Y0017034D01*
X0025660Y0016881D01*
X0025615Y0016729D01*
X0025566Y0016578D01*
X0025513Y0016429D01*
X0025457Y0016281D01*
X0025397Y0016135D01*
X0025333Y0015990D01*
X0025265Y0015847D01*
X0025194Y0015705D01*
X0025120Y0015565D01*
X0025042Y0015428D01*
X0024960Y0015292D01*
X0024876Y0015158D01*
X0024787Y0015027D01*
X0024696Y0014898D01*
X0024601Y0014771D01*
X0024504Y0014646D01*
X0024403Y0014524D01*
X0024299Y0014405D01*
X0024192Y0014288D01*
X0024082Y0014174D01*
X0023969Y0014063D01*
X0023854Y0013954D01*
X0023736Y0013849D01*
X0023615Y0013747D01*
X0023492Y0013647D01*
X0023366Y0013551D01*
X0023238Y0013458D01*
X0023108Y0013368D01*
X0022975Y0013282D01*
X0022840Y0013198D01*
X0022704Y0013119D01*
X0022565Y0013042D01*
X0022424Y0012970D01*
X0022282Y0012900D01*
X0022138Y0012835D01*
X0021992Y0012773D01*
X0021845Y0012715D01*
X0021696Y0012660D01*
X0021546Y0012609D01*
X0021395Y0012562D01*
X0021243Y0012519D01*
X0021090Y0012480D01*
X0020935Y0012444D01*
X0020780Y0012413D01*
X0020624Y0012385D01*
X0020468Y0012361D01*
X0020311Y0012341D01*
X0020153Y0012325D01*
X0019996Y0012313D01*
X0019837Y0012305D01*
X0019679Y0012301D01*
X0019521Y0012301D01*
X0019363Y0012305D01*
X0019204Y0012313D01*
X0019047Y0012325D01*
X0018889Y0012341D01*
X0018732Y0012361D01*
X0018576Y0012385D01*
X0018420Y0012413D01*
X0018265Y0012444D01*
X0018110Y0012480D01*
X0017957Y0012519D01*
X0017805Y0012562D01*
X0017654Y0012609D01*
X0017504Y0012660D01*
X0017355Y0012715D01*
X0017208Y0012773D01*
X0017062Y0012835D01*
X0016918Y0012900D01*
X0016776Y0012970D01*
X0016635Y0013042D01*
X0016496Y0013119D01*
X0016360Y0013198D01*
X0016225Y0013282D01*
X0016092Y0013368D01*
X0015962Y0013458D01*
X0015834Y0013551D01*
X0015708Y0013647D01*
X0015585Y0013747D01*
X0015464Y0013849D01*
X0015346Y0013954D01*
X0015231Y0014063D01*
X0015118Y0014174D01*
X0015008Y0014288D01*
X0014901Y0014405D01*
X0014797Y0014524D01*
X0014696Y0014646D01*
X0014599Y0014771D01*
X0014504Y0014898D01*
X0014413Y0015027D01*
X0014324Y0015158D01*
X0014240Y0015292D01*
X0014158Y0015428D01*
X0014080Y0015565D01*
X0014006Y0015705D01*
X0013935Y0015847D01*
X0013867Y0015990D01*
X0013803Y0016135D01*
X0013743Y0016281D01*
X0013687Y0016429D01*
X0013634Y0016578D01*
X0013585Y0016729D01*
X0013540Y0016881D01*
X0013499Y0017034D01*
X0013461Y0017187D01*
X0013428Y0017342D01*
X0013398Y0017498D01*
X0013372Y0017654D01*
X0013351Y0017811D01*
X0013333Y0017968D01*
X0013319Y0018126D01*
X0013309Y0018284D01*
X0013303Y0018442D01*
X0013301Y0018600D01*
X0117301Y0137600D02*
X0117303Y0137758D01*
X0117309Y0137916D01*
X0117319Y0138074D01*
X0117333Y0138232D01*
X0117351Y0138389D01*
X0117372Y0138546D01*
X0117398Y0138702D01*
X0117428Y0138858D01*
X0117461Y0139013D01*
X0117499Y0139166D01*
X0117540Y0139319D01*
X0117585Y0139471D01*
X0117634Y0139622D01*
X0117687Y0139771D01*
X0117743Y0139919D01*
X0117803Y0140065D01*
X0117867Y0140210D01*
X0117935Y0140353D01*
X0118006Y0140495D01*
X0118080Y0140635D01*
X0118158Y0140772D01*
X0118240Y0140908D01*
X0118324Y0141042D01*
X0118413Y0141173D01*
X0118504Y0141302D01*
X0118599Y0141429D01*
X0118696Y0141554D01*
X0118797Y0141676D01*
X0118901Y0141795D01*
X0119008Y0141912D01*
X0119118Y0142026D01*
X0119231Y0142137D01*
X0119346Y0142246D01*
X0119464Y0142351D01*
X0119585Y0142453D01*
X0119708Y0142553D01*
X0119834Y0142649D01*
X0119962Y0142742D01*
X0120092Y0142832D01*
X0120225Y0142918D01*
X0120360Y0143002D01*
X0120496Y0143081D01*
X0120635Y0143158D01*
X0120776Y0143230D01*
X0120918Y0143300D01*
X0121062Y0143365D01*
X0121208Y0143427D01*
X0121355Y0143485D01*
X0121504Y0143540D01*
X0121654Y0143591D01*
X0121805Y0143638D01*
X0121957Y0143681D01*
X0122110Y0143720D01*
X0122265Y0143756D01*
X0122420Y0143787D01*
X0122576Y0143815D01*
X0122732Y0143839D01*
X0122889Y0143859D01*
X0123047Y0143875D01*
X0123204Y0143887D01*
X0123363Y0143895D01*
X0123521Y0143899D01*
X0123679Y0143899D01*
X0123837Y0143895D01*
X0123996Y0143887D01*
X0124153Y0143875D01*
X0124311Y0143859D01*
X0124468Y0143839D01*
X0124624Y0143815D01*
X0124780Y0143787D01*
X0124935Y0143756D01*
X0125090Y0143720D01*
X0125243Y0143681D01*
X0125395Y0143638D01*
X0125546Y0143591D01*
X0125696Y0143540D01*
X0125845Y0143485D01*
X0125992Y0143427D01*
X0126138Y0143365D01*
X0126282Y0143300D01*
X0126424Y0143230D01*
X0126565Y0143158D01*
X0126704Y0143081D01*
X0126840Y0143002D01*
X0126975Y0142918D01*
X0127108Y0142832D01*
X0127238Y0142742D01*
X0127366Y0142649D01*
X0127492Y0142553D01*
X0127615Y0142453D01*
X0127736Y0142351D01*
X0127854Y0142246D01*
X0127969Y0142137D01*
X0128082Y0142026D01*
X0128192Y0141912D01*
X0128299Y0141795D01*
X0128403Y0141676D01*
X0128504Y0141554D01*
X0128601Y0141429D01*
X0128696Y0141302D01*
X0128787Y0141173D01*
X0128876Y0141042D01*
X0128960Y0140908D01*
X0129042Y0140772D01*
X0129120Y0140635D01*
X0129194Y0140495D01*
X0129265Y0140353D01*
X0129333Y0140210D01*
X0129397Y0140065D01*
X0129457Y0139919D01*
X0129513Y0139771D01*
X0129566Y0139622D01*
X0129615Y0139471D01*
X0129660Y0139319D01*
X0129701Y0139166D01*
X0129739Y0139013D01*
X0129772Y0138858D01*
X0129802Y0138702D01*
X0129828Y0138546D01*
X0129849Y0138389D01*
X0129867Y0138232D01*
X0129881Y0138074D01*
X0129891Y0137916D01*
X0129897Y0137758D01*
X0129899Y0137600D01*
X0129897Y0137442D01*
X0129891Y0137284D01*
X0129881Y0137126D01*
X0129867Y0136968D01*
X0129849Y0136811D01*
X0129828Y0136654D01*
X0129802Y0136498D01*
X0129772Y0136342D01*
X0129739Y0136187D01*
X0129701Y0136034D01*
X0129660Y0135881D01*
X0129615Y0135729D01*
X0129566Y0135578D01*
X0129513Y0135429D01*
X0129457Y0135281D01*
X0129397Y0135135D01*
X0129333Y0134990D01*
X0129265Y0134847D01*
X0129194Y0134705D01*
X0129120Y0134565D01*
X0129042Y0134428D01*
X0128960Y0134292D01*
X0128876Y0134158D01*
X0128787Y0134027D01*
X0128696Y0133898D01*
X0128601Y0133771D01*
X0128504Y0133646D01*
X0128403Y0133524D01*
X0128299Y0133405D01*
X0128192Y0133288D01*
X0128082Y0133174D01*
X0127969Y0133063D01*
X0127854Y0132954D01*
X0127736Y0132849D01*
X0127615Y0132747D01*
X0127492Y0132647D01*
X0127366Y0132551D01*
X0127238Y0132458D01*
X0127108Y0132368D01*
X0126975Y0132282D01*
X0126840Y0132198D01*
X0126704Y0132119D01*
X0126565Y0132042D01*
X0126424Y0131970D01*
X0126282Y0131900D01*
X0126138Y0131835D01*
X0125992Y0131773D01*
X0125845Y0131715D01*
X0125696Y0131660D01*
X0125546Y0131609D01*
X0125395Y0131562D01*
X0125243Y0131519D01*
X0125090Y0131480D01*
X0124935Y0131444D01*
X0124780Y0131413D01*
X0124624Y0131385D01*
X0124468Y0131361D01*
X0124311Y0131341D01*
X0124153Y0131325D01*
X0123996Y0131313D01*
X0123837Y0131305D01*
X0123679Y0131301D01*
X0123521Y0131301D01*
X0123363Y0131305D01*
X0123204Y0131313D01*
X0123047Y0131325D01*
X0122889Y0131341D01*
X0122732Y0131361D01*
X0122576Y0131385D01*
X0122420Y0131413D01*
X0122265Y0131444D01*
X0122110Y0131480D01*
X0121957Y0131519D01*
X0121805Y0131562D01*
X0121654Y0131609D01*
X0121504Y0131660D01*
X0121355Y0131715D01*
X0121208Y0131773D01*
X0121062Y0131835D01*
X0120918Y0131900D01*
X0120776Y0131970D01*
X0120635Y0132042D01*
X0120496Y0132119D01*
X0120360Y0132198D01*
X0120225Y0132282D01*
X0120092Y0132368D01*
X0119962Y0132458D01*
X0119834Y0132551D01*
X0119708Y0132647D01*
X0119585Y0132747D01*
X0119464Y0132849D01*
X0119346Y0132954D01*
X0119231Y0133063D01*
X0119118Y0133174D01*
X0119008Y0133288D01*
X0118901Y0133405D01*
X0118797Y0133524D01*
X0118696Y0133646D01*
X0118599Y0133771D01*
X0118504Y0133898D01*
X0118413Y0134027D01*
X0118324Y0134158D01*
X0118240Y0134292D01*
X0118158Y0134428D01*
X0118080Y0134565D01*
X0118006Y0134705D01*
X0117935Y0134847D01*
X0117867Y0134990D01*
X0117803Y0135135D01*
X0117743Y0135281D01*
X0117687Y0135429D01*
X0117634Y0135578D01*
X0117585Y0135729D01*
X0117540Y0135881D01*
X0117499Y0136034D01*
X0117461Y0136187D01*
X0117428Y0136342D01*
X0117398Y0136498D01*
X0117372Y0136654D01*
X0117351Y0136811D01*
X0117333Y0136968D01*
X0117319Y0137126D01*
X0117309Y0137284D01*
X0117303Y0137442D01*
X0117301Y0137600D01*
D23*
X0095150Y0122200D03*
X0095150Y0122100D03*
X0095150Y0122000D03*
X0095150Y0121900D03*
X0095150Y0121800D03*
X0095150Y0121700D03*
X0095150Y0121600D03*
X0095150Y0121500D03*
X0095150Y0121400D03*
X0079950Y0119900D03*
X0079950Y0119800D03*
X0079850Y0120000D03*
X0079850Y0120100D03*
X0079850Y0120200D03*
X0079750Y0120500D03*
X0094750Y0101300D03*
X0094850Y0101100D03*
X0094850Y0101000D03*
X0094950Y0100900D03*
X0094950Y0100800D03*
X0094950Y0100700D03*
X0095050Y0100400D03*
X0079650Y0099200D03*
X0079650Y0099100D03*
X0079650Y0099000D03*
X0079650Y0098900D03*
X0079650Y0098800D03*
X0079650Y0098700D03*
X0079650Y0098600D03*
D24*
X0079700Y0099300D03*
X0079700Y0099400D03*
X0079700Y0099500D03*
X0079700Y0099600D03*
X0079700Y0099700D03*
X0087400Y0099700D03*
X0087400Y0099800D03*
X0087400Y0099900D03*
X0087400Y0100000D03*
X0087400Y0100100D03*
X0087400Y0100200D03*
X0087400Y0100300D03*
X0087400Y0100400D03*
X0087400Y0100500D03*
X0087400Y0100600D03*
X0087400Y0100700D03*
X0087400Y0100800D03*
X0087400Y0100900D03*
X0087400Y0101000D03*
X0087400Y0101100D03*
X0087400Y0101200D03*
X0087400Y0101300D03*
X0087400Y0101400D03*
X0087400Y0101500D03*
X0087400Y0101600D03*
X0087400Y0101700D03*
X0087400Y0101800D03*
X0087400Y0101900D03*
X0087400Y0102000D03*
X0087400Y0102100D03*
X0087400Y0102200D03*
X0087400Y0102300D03*
X0087400Y0102400D03*
X0087400Y0102500D03*
X0087400Y0102600D03*
X0087400Y0102700D03*
X0087400Y0102800D03*
X0087400Y0102900D03*
X0087400Y0103000D03*
X0087400Y0103100D03*
X0087400Y0103200D03*
X0087400Y0103300D03*
X0087400Y0103400D03*
X0087400Y0103500D03*
X0087400Y0103600D03*
X0087400Y0103700D03*
X0087400Y0103800D03*
X0087400Y0099600D03*
X0087400Y0099500D03*
X0087400Y0099400D03*
X0087400Y0099300D03*
X0087400Y0099200D03*
X0087400Y0099100D03*
X0087400Y0099000D03*
X0087400Y0098900D03*
X0087400Y0098800D03*
X0087400Y0098700D03*
X0087400Y0098600D03*
X0094600Y0101600D03*
X0094700Y0101400D03*
X0094800Y0101200D03*
X0087400Y0108300D03*
X0087400Y0108400D03*
X0087400Y0112600D03*
X0087400Y0117000D03*
X0087400Y0117100D03*
X0087400Y0117200D03*
X0087400Y0117300D03*
X0087400Y0117400D03*
X0087400Y0117500D03*
X0087400Y0117600D03*
X0087400Y0117700D03*
X0087400Y0117800D03*
X0087400Y0117900D03*
X0087400Y0118000D03*
X0087400Y0118100D03*
X0087400Y0118200D03*
X0087400Y0118300D03*
X0087400Y0118400D03*
X0087400Y0118500D03*
X0087400Y0118600D03*
X0087400Y0118700D03*
X0087400Y0118800D03*
X0087400Y0118900D03*
X0087400Y0119000D03*
X0087400Y0119100D03*
X0087400Y0119200D03*
X0087400Y0119300D03*
X0087400Y0119400D03*
X0087400Y0119500D03*
X0087400Y0119600D03*
X0087400Y0119700D03*
X0087400Y0119800D03*
X0087400Y0119900D03*
X0087400Y0120000D03*
X0087400Y0120100D03*
X0087400Y0120200D03*
X0087400Y0120300D03*
X0087400Y0120400D03*
X0087400Y0120500D03*
X0087400Y0120600D03*
X0087400Y0120700D03*
X0087400Y0120800D03*
X0087400Y0120900D03*
X0087400Y0121000D03*
X0087400Y0121100D03*
X0087400Y0121200D03*
X0087400Y0121300D03*
X0087400Y0121400D03*
X0087400Y0121500D03*
X0087400Y0121600D03*
X0087400Y0121700D03*
X0087400Y0121800D03*
X0087400Y0121900D03*
X0087400Y0122000D03*
X0087400Y0122100D03*
X0087400Y0122200D03*
X0080100Y0119500D03*
X0080100Y0119400D03*
X0080000Y0119600D03*
X0080000Y0119700D03*
X0095000Y0120600D03*
X0095000Y0120700D03*
X0095000Y0120800D03*
X0095100Y0120900D03*
X0095100Y0121000D03*
X0095100Y0121100D03*
X0095100Y0121200D03*
X0095100Y0121300D03*
D25*
X0095300Y0098700D03*
X0095300Y0098600D03*
D26*
X0095250Y0098800D03*
X0095250Y0098900D03*
X0095250Y0099000D03*
X0095250Y0099100D03*
X0095250Y0099200D03*
X0095250Y0099300D03*
X0095250Y0099400D03*
X0095250Y0099500D03*
X0095150Y0099800D03*
X0095150Y0099900D03*
X0095150Y0100000D03*
X0079650Y0121000D03*
X0079650Y0121100D03*
X0079650Y0121200D03*
X0079550Y0121400D03*
X0079550Y0121500D03*
X0079550Y0121600D03*
X0079550Y0121700D03*
X0079550Y0121800D03*
X0079550Y0121900D03*
X0079550Y0122000D03*
X0079550Y0122100D03*
X0079550Y0122200D03*
D27*
X0079600Y0121300D03*
X0079700Y0120900D03*
X0079700Y0120800D03*
X0079700Y0120700D03*
X0079700Y0120600D03*
X0079800Y0120400D03*
X0079800Y0120300D03*
X0095000Y0100600D03*
X0095000Y0100500D03*
X0095100Y0100300D03*
X0095100Y0100200D03*
X0095100Y0100100D03*
X0095200Y0099700D03*
X0095200Y0099600D03*
D28*
X0094650Y0101500D03*
X0094550Y0101700D03*
X0094450Y0101900D03*
X0079950Y0100700D03*
X0079850Y0100400D03*
X0079850Y0100300D03*
X0079850Y0100200D03*
X0079750Y0100100D03*
X0079750Y0100000D03*
X0079750Y0099900D03*
X0079750Y0099800D03*
X0080250Y0119100D03*
X0080250Y0119200D03*
X0080150Y0119300D03*
X0094750Y0119800D03*
X0094850Y0120000D03*
X0094850Y0120100D03*
X0094950Y0120300D03*
X0094950Y0120400D03*
X0094950Y0120500D03*
D29*
X0094900Y0120200D03*
X0094800Y0119900D03*
X0094700Y0119700D03*
X0094700Y0119600D03*
X0094600Y0119400D03*
X0080400Y0118900D03*
X0080400Y0118800D03*
X0080300Y0119000D03*
X0087400Y0108200D03*
X0094300Y0102200D03*
X0094400Y0102000D03*
X0094500Y0101800D03*
X0080000Y0100900D03*
X0080000Y0100800D03*
X0079900Y0100600D03*
X0079900Y0100500D03*
D30*
X0080050Y0101000D03*
X0080050Y0101100D03*
X0080150Y0101200D03*
X0080150Y0101300D03*
X0080250Y0101500D03*
X0094250Y0102300D03*
X0094350Y0102100D03*
X0094450Y0119100D03*
X0094550Y0119200D03*
X0094550Y0119300D03*
X0094650Y0119500D03*
X0080550Y0118600D03*
X0080450Y0118700D03*
D31*
X0080600Y0118500D03*
X0080700Y0118400D03*
X0094300Y0118800D03*
X0094400Y0118900D03*
X0094400Y0119000D03*
X0094100Y0102500D03*
X0094200Y0102400D03*
X0080400Y0101800D03*
X0080300Y0101700D03*
X0080300Y0101600D03*
X0080200Y0101400D03*
D32*
X0080450Y0101900D03*
X0093950Y0102700D03*
X0094050Y0102600D03*
X0080850Y0118100D03*
X0080850Y0118200D03*
X0080750Y0118300D03*
X0094250Y0118700D03*
D33*
X0094200Y0118600D03*
X0094100Y0118500D03*
X0094100Y0118400D03*
X0094000Y0118300D03*
X0081000Y0117900D03*
X0080900Y0118000D03*
X0093800Y0102900D03*
X0093900Y0102800D03*
X0080600Y0102200D03*
X0080600Y0102100D03*
X0080500Y0102000D03*
D34*
X0080650Y0102300D03*
X0080750Y0102400D03*
X0087450Y0112700D03*
X0093850Y0118100D03*
X0093950Y0118200D03*
D35*
X0093800Y0118000D03*
X0081300Y0117600D03*
X0081200Y0117700D03*
X0081100Y0117800D03*
X0080900Y0102600D03*
X0080800Y0102500D03*
X0093600Y0103100D03*
X0093700Y0103000D03*
D36*
X0093550Y0103200D03*
X0081050Y0102800D03*
X0080950Y0102700D03*
X0093650Y0117900D03*
D37*
X0093600Y0117800D03*
X0093500Y0117700D03*
X0081500Y0117400D03*
X0081400Y0117500D03*
X0087400Y0108100D03*
X0093400Y0103300D03*
X0081100Y0102900D03*
D38*
X0081250Y0103000D03*
X0093350Y0103400D03*
X0093450Y0117600D03*
D39*
X0093300Y0117500D03*
X0081600Y0117300D03*
X0081400Y0103200D03*
X0081300Y0103100D03*
X0093200Y0103500D03*
D40*
X0081450Y0103300D03*
X0081750Y0117200D03*
X0093250Y0117400D03*
D41*
X0093100Y0117300D03*
X0087400Y0112800D03*
X0093100Y0103600D03*
X0081600Y0103400D03*
D42*
X0081700Y0103500D03*
X0081800Y0103600D03*
X0082000Y0117000D03*
X0092900Y0117100D03*
D43*
X0082150Y0116900D03*
X0087350Y0108000D03*
X0081950Y0103700D03*
D44*
X0092850Y0103800D03*
X0092950Y0103700D03*
X0093050Y0117200D03*
X0081850Y0117100D03*
D45*
X0082050Y0103800D03*
D46*
X0084300Y0103900D03*
X0087400Y0113900D03*
X0090500Y0116900D03*
D47*
X0092700Y0117000D03*
X0092700Y0103900D03*
D48*
X0087350Y0104000D03*
D49*
X0087350Y0104100D03*
D50*
X0087400Y0104200D03*
X0087400Y0116700D03*
D51*
X0087450Y0116600D03*
X0087350Y0104300D03*
D52*
X0087350Y0104400D03*
X0087450Y0116500D03*
D53*
X0087400Y0116400D03*
X0087400Y0104500D03*
D54*
X0087400Y0104600D03*
X0087400Y0116300D03*
D55*
X0087400Y0104700D03*
D56*
X0087350Y0104800D03*
X0087450Y0116100D03*
D57*
X0087350Y0104900D03*
D58*
X0087350Y0105000D03*
D59*
X0087350Y0105100D03*
X0087450Y0115700D03*
D60*
X0087400Y0105200D03*
D61*
X0087400Y0105300D03*
D62*
X0087400Y0105400D03*
X0087400Y0115400D03*
D63*
X0087400Y0115300D03*
X0087400Y0105500D03*
D64*
X0087350Y0105600D03*
D65*
X0087400Y0105700D03*
D66*
X0087400Y0105800D03*
D67*
X0087400Y0105900D03*
D68*
X0087350Y0106000D03*
X0087450Y0114800D03*
D69*
X0087350Y0106100D03*
D70*
X0087350Y0106200D03*
D71*
X0087350Y0106300D03*
D72*
X0087400Y0106400D03*
D73*
X0087350Y0106500D03*
D74*
X0087350Y0106600D03*
D75*
X0087400Y0106700D03*
D76*
X0087350Y0106800D03*
D77*
X0087400Y0106900D03*
D78*
X0087350Y0107000D03*
D79*
X0087350Y0107100D03*
D80*
X0087400Y0107200D03*
D81*
X0087400Y0107300D03*
D82*
X0087400Y0107400D03*
D83*
X0087400Y0107500D03*
D84*
X0087400Y0107600D03*
D85*
X0087350Y0107700D03*
D86*
X0087350Y0107800D03*
D87*
X0087350Y0107900D03*
D88*
X0087400Y0108500D03*
X0087400Y0108600D03*
X0087400Y0108700D03*
X0087400Y0108800D03*
X0087400Y0108900D03*
X0087400Y0109000D03*
X0087400Y0109100D03*
X0087400Y0109200D03*
X0087400Y0109300D03*
X0087400Y0109400D03*
X0087400Y0109500D03*
X0087400Y0109600D03*
X0087400Y0109700D03*
X0087400Y0109800D03*
X0087400Y0109900D03*
X0087400Y0110000D03*
X0087400Y0110100D03*
X0087400Y0110200D03*
X0087400Y0110300D03*
X0087400Y0110400D03*
X0087400Y0110500D03*
X0087400Y0110600D03*
X0087400Y0110700D03*
X0087400Y0110800D03*
X0087400Y0110900D03*
X0087400Y0111000D03*
X0087400Y0111100D03*
X0087400Y0111200D03*
X0087400Y0111300D03*
X0087400Y0111400D03*
X0087400Y0111500D03*
X0087400Y0111600D03*
X0087400Y0111700D03*
X0087400Y0111800D03*
X0087400Y0111900D03*
X0087400Y0112000D03*
X0087400Y0112100D03*
X0087400Y0112200D03*
X0087400Y0112300D03*
X0087400Y0112400D03*
X0087400Y0112500D03*
D89*
X0087400Y0112900D03*
D90*
X0087400Y0113000D03*
D91*
X0087450Y0113100D03*
D92*
X0087450Y0113200D03*
D93*
X0087400Y0113300D03*
D94*
X0087400Y0113400D03*
D95*
X0087400Y0113500D03*
D96*
X0087400Y0113600D03*
D97*
X0087400Y0113700D03*
D98*
X0087400Y0113800D03*
D99*
X0087400Y0114000D03*
D100*
X0087400Y0114100D03*
D101*
X0087450Y0114200D03*
D102*
X0087400Y0114300D03*
D103*
X0087450Y0114400D03*
D104*
X0087450Y0114500D03*
D105*
X0087400Y0114600D03*
D106*
X0087400Y0114700D03*
D107*
X0087450Y0114900D03*
D108*
X0087450Y0115000D03*
D109*
X0087450Y0115100D03*
D110*
X0087400Y0115200D03*
D111*
X0087450Y0115500D03*
D112*
X0087450Y0115600D03*
D113*
X0087400Y0115800D03*
D114*
X0087400Y0115900D03*
D115*
X0087400Y0116000D03*
D116*
X0087450Y0116200D03*
D117*
X0087400Y0116800D03*
M02*
