G75*
%MOIN*%
%OFA0B0*%
%FSLAX25Y25*%
%IPPOS*%
%LPD*%
%AMOC8*
5,1,8,0,0,1.08239X$1,22.5*
%
%ADD10OC8,0.07100*%
%ADD11C,0.07100*%
%ADD12OC8,0.06000*%
%ADD13C,0.06800*%
%ADD14C,0.06737*%
%ADD15R,0.06737X0.06737*%
%ADD16C,0.06343*%
%ADD17R,0.05950X0.05950*%
%ADD18C,0.05950*%
%ADD19C,0.07700*%
%ADD20R,0.07700X0.07700*%
%ADD21C,0.12611*%
%ADD22R,0.09461X0.03162*%
D10*
X0132600Y0049600D03*
D11*
X0132600Y0035600D03*
D12*
X0128600Y0072600D03*
X0148600Y0072600D03*
X0062600Y0127600D03*
X0042600Y0112600D03*
X0022600Y0127600D03*
X0042600Y0072600D03*
D13*
X0149600Y0122600D02*
X0155600Y0122600D01*
X0229600Y0122600D02*
X0235600Y0122600D01*
D14*
X0230100Y0085100D03*
X0197600Y0022600D03*
X0187600Y0022600D03*
D15*
X0207600Y0022600D03*
D16*
X0022600Y0101600D03*
X0022600Y0111600D03*
D17*
X0022600Y0082600D03*
D18*
X0022600Y0072600D03*
X0022600Y0062600D03*
X0022600Y0052600D03*
D19*
X0043600Y0017600D03*
D20*
X0053600Y0017600D03*
D21*
X0019600Y0018600D03*
X0123600Y0137600D03*
D22*
X0098498Y0081100D03*
X0098498Y0076100D03*
X0098498Y0071100D03*
X0098498Y0066100D03*
X0098498Y0061100D03*
X0098498Y0056100D03*
X0098498Y0051100D03*
X0098498Y0046100D03*
X0060801Y0046100D03*
X0060801Y0051100D03*
X0060801Y0056100D03*
X0060801Y0061100D03*
X0060801Y0066100D03*
X0060801Y0071100D03*
X0060801Y0076100D03*
X0060801Y0081100D03*
M02*
